# Blender v2.79 (sub 0) OBJ File: 'coin.blend'
# www.blender.org
mtllib coin.mtl
o Cylinder_Cylinder.001
v -0.441380 0.064309 -0.213536
v -0.441380 0.214309 -0.213536
v -0.191380 0.064309 -0.146549
v -0.191380 0.214309 -0.146549
v -0.008367 0.064309 0.036464
v -0.008367 0.214309 0.036464
v 0.058620 0.064309 0.286464
v 0.058620 0.214309 0.286464
v -0.008367 0.064309 0.536464
v -0.008367 0.214309 0.536464
v -0.191380 0.064309 0.719477
v -0.191380 0.214309 0.719477
v -0.441380 0.064309 0.786464
v -0.441380 0.214309 0.786464
v -0.691380 0.064309 0.719477
v -0.691380 0.214309 0.719477
v -0.874393 0.064309 0.536464
v -0.874393 0.214309 0.536464
v -0.941380 0.064309 0.286464
v -0.941380 0.214309 0.286464
v -0.874393 0.064309 0.036464
v -0.874393 0.214309 0.036464
v -0.691381 0.064309 -0.146548
v -0.691381 0.214309 -0.146548
v -0.441380 0.064309 -0.213536
v -0.441380 0.214309 -0.213536
v -0.191380 0.064309 -0.146549
v -0.191380 0.214309 -0.146549
v -0.008367 0.064309 0.036464
v -0.008367 0.214309 0.036464
v 0.058620 0.064309 0.286464
v 0.058620 0.214309 0.286464
v -0.008367 0.064309 0.536464
v -0.008367 0.214309 0.536464
v -0.191380 0.064309 0.719477
v -0.191380 0.214309 0.719477
v -0.441380 0.064309 0.786464
v -0.441380 0.214309 0.786464
v -0.691380 0.064309 0.719477
v -0.691380 0.214309 0.719477
v -0.874393 0.064309 0.536464
v -0.874393 0.214309 0.536464
v -0.941380 0.064309 0.286464
v -0.941380 0.214309 0.286464
v -0.874393 0.064309 0.036464
v -0.874393 0.214309 0.036464
v -0.691381 0.064309 -0.146548
v -0.691381 0.214309 -0.146548
v -0.441380 0.214309 -0.213536
v -0.191380 0.214309 -0.146549
v -0.008367 0.214309 0.036464
v 0.058620 0.214309 0.286464
v -0.008367 0.214309 0.536464
v -0.191380 0.214309 0.719477
v -0.441380 0.214309 0.786464
v -0.691380 0.214309 0.719477
v -0.874393 0.214309 0.536464
v -0.941380 0.214309 0.286464
v -0.874393 0.214309 0.036464
v -0.691381 0.214309 -0.146548
v -0.441380 0.214309 -0.213536
v -0.191380 0.214309 -0.146549
v -0.008367 0.214309 0.036464
v 0.058620 0.214309 0.286464
v -0.008367 0.214309 0.536464
v -0.191380 0.214309 0.719477
v -0.441380 0.214309 0.786464
v -0.691380 0.214309 0.719477
v -0.874393 0.214309 0.536464
v -0.941380 0.214309 0.286464
v -0.874393 0.214309 0.036464
v -0.691381 0.214309 -0.146548
v -0.441380 0.214309 -0.107923
v -0.244187 0.214309 -0.055085
v -0.099831 0.214309 0.089271
v -0.046993 0.214309 0.286464
v -0.099831 0.214309 0.483658
v -0.244187 0.214309 0.628013
v -0.441380 0.214309 0.680851
v -0.638573 0.214309 0.628013
v -0.782929 0.214309 0.483658
v -0.835767 0.214309 0.286464
v -0.782929 0.214309 0.089271
v -0.638574 0.214309 -0.055085
v -0.441380 0.214309 -0.107923
v -0.244187 0.214309 -0.055085
v -0.099831 0.214309 0.089271
v -0.046993 0.214309 0.286464
v -0.099831 0.214309 0.483658
v -0.244187 0.214309 0.628013
v -0.441380 0.214309 0.680851
v -0.638573 0.214309 0.628013
v -0.782929 0.214309 0.483658
v -0.835767 0.214309 0.286464
v -0.782929 0.214309 0.089271
v -0.638574 0.214309 -0.055085
v -0.441380 0.177946 -0.107923
v -0.244187 0.177946 -0.055085
v -0.099831 0.177946 0.089271
v -0.046993 0.177946 0.286464
v -0.099831 0.177946 0.483658
v -0.244187 0.177946 0.628013
v -0.441380 0.177946 0.680851
v -0.638573 0.177946 0.628013
v -0.782929 0.177946 0.483658
v -0.835767 0.177946 0.286464
v -0.782929 0.177946 0.089271
v -0.638574 0.177946 -0.055085
v -0.441380 0.177946 -0.107923
v -0.244187 0.177946 -0.055085
v -0.099831 0.177946 0.089271
v -0.046993 0.177946 0.286464
v -0.099831 0.177946 0.483658
v -0.244187 0.177946 0.628013
v -0.441380 0.177946 0.680851
v -0.638573 0.177946 0.628013
v -0.782929 0.177946 0.483658
v -0.835767 0.177946 0.286464
v -0.782929 0.177946 0.089271
v -0.638574 0.177946 -0.055085
v -0.509118 0.176526 0.512812
v -0.509118 0.214543 0.512812
v -0.509118 0.176526 0.043118
v -0.509118 0.214543 0.043118
v -0.375606 0.176526 0.512812
v -0.375606 0.214543 0.512812
v -0.375606 0.176526 0.043118
v -0.375606 0.214543 0.043118
v -0.441380 0.064309 -0.107856
v -0.244220 0.064309 -0.055027
v -0.099889 0.064309 0.089304
v -0.047061 0.064309 0.286464
v -0.099889 0.064309 0.483624
v -0.244220 0.064309 0.627955
v -0.441380 0.064309 0.680784
v -0.638540 0.064309 0.627955
v -0.782871 0.064309 0.483624
v -0.835700 0.064309 0.286464
v -0.782871 0.064309 0.089305
v -0.638540 0.064309 -0.055027
v -0.441380 0.064309 -0.107856
v -0.244220 0.064309 -0.055027
v -0.099889 0.064309 0.089304
v -0.047061 0.064309 0.286464
v -0.099889 0.064309 0.483624
v -0.244220 0.064309 0.627955
v -0.441380 0.064309 0.680784
v -0.638540 0.064309 0.627955
v -0.782871 0.064309 0.483624
v -0.835700 0.064309 0.286464
v -0.782871 0.064309 0.089305
v -0.638540 0.064309 -0.055027
v -0.441380 0.099896 -0.107856
v -0.244220 0.099896 -0.055027
v -0.099889 0.099896 0.089304
v -0.047061 0.099896 0.286464
v -0.099889 0.099896 0.483624
v -0.244220 0.099896 0.627955
v -0.441380 0.099896 0.680784
v -0.638540 0.099896 0.627955
v -0.782871 0.099896 0.483624
v -0.835700 0.099896 0.286464
v -0.782871 0.099896 0.089305
v -0.638540 0.099896 -0.055027
v -0.441380 0.099896 -0.107856
v -0.244220 0.099896 -0.055027
v -0.099889 0.099896 0.089304
v -0.047061 0.099896 0.286464
v -0.099889 0.099896 0.483624
v -0.244220 0.099896 0.627955
v -0.441380 0.099896 0.680784
v -0.638540 0.099896 0.627955
v -0.782871 0.099896 0.483624
v -0.835700 0.099896 0.286464
v -0.782871 0.099896 0.089305
v -0.638540 0.099896 -0.055027
v -0.181159 0.102287 0.140110
v -0.704530 0.102287 0.140110
v -0.442844 0.102287 0.539172
v -0.181159 0.061145 0.140110
v -0.704530 0.061145 0.140110
v -0.442844 0.061145 0.539172
v -0.529690 0.061145 0.318295
v -0.355999 0.061145 0.318295
v -0.357574 0.061145 0.230805
v -0.528114 0.061145 0.230805
v -0.442844 0.061145 0.360839
v -0.442844 0.061145 0.185858
v -0.493957 0.061145 0.351151
v -0.391732 0.061145 0.351151
v -0.341548 0.061145 0.274621
v -0.392660 0.061145 0.196677
v -0.493029 0.061145 0.196677
v -0.544141 0.061145 0.274621
v -0.529690 0.100372 0.318295
v -0.355999 0.100372 0.318295
v -0.357574 0.100372 0.230805
v -0.528114 0.100372 0.230805
v -0.442844 0.100372 0.360839
v -0.442844 0.100372 0.185858
v -0.493957 0.100372 0.351151
v -0.391732 0.100372 0.351151
v -0.341548 0.100372 0.274621
v -0.392660 0.100372 0.196677
v -0.493029 0.100372 0.196677
v -0.544141 0.100372 0.274621
vn -0.2588 0.0000 0.9659
vn -0.7071 0.0000 0.7071
vn -0.9659 0.0000 0.2588
vn -0.9659 0.0000 -0.2588
vn -0.7071 0.0000 -0.7071
vn -0.2588 0.0000 -0.9659
vn 0.2588 0.0000 -0.9659
vn 0.7071 0.0000 -0.7071
vn 0.9659 0.0000 -0.2588
vn 0.9659 0.0000 0.2588
vn 0.0000 0.0000 1.0000
vn 0.7071 0.0000 0.7071
vn 0.2588 0.0000 0.9659
vn 0.0000 1.0000 0.0000
vn 0.0000 -1.0000 0.0000
vn -1.0000 0.0000 0.0000
vn 0.0000 0.0000 -1.0000
vn 1.0000 0.0000 0.0000
vn -0.0000 1.0000 -0.0092
vn -0.0050 1.0000 0.0000
vn 0.0000 0.9999 0.0103
vn 0.0050 1.0000 0.0000
vn 0.8362 0.0000 -0.5484
vn -0.8362 0.0000 -0.5484
vn -0.9391 0.0000 -0.3435
vn -0.6768 0.0000 0.7361
vn -0.1862 0.0000 0.9825
vn 0.9494 0.0000 0.3141
vn 0.1862 0.0000 0.9825
vn -0.9494 0.0000 0.3141
vn 0.6768 0.0000 0.7361
vn -0.6973 0.0000 -0.7168
vn 0.6973 0.0000 -0.7168
vn 0.9391 0.0000 -0.3435
vn 0.2107 0.0000 -0.9775
vn -0.2107 0.0000 -0.9775
usemtl None
s off
f 1//1 3//1 4//1 2//1
f 3//2 5//2 6//2 4//2
f 5//3 7//3 8//3 6//3
f 7//4 9//4 10//4 8//4
f 9//5 11//5 12//5 10//5
f 11//6 13//6 14//6 12//6
f 13//7 15//7 16//7 14//7
f 15//8 17//8 18//8 16//8
f 17//9 19//9 20//9 18//9
f 19//10 21//10 22//10 20//10
f 16//11 18//11 57//11 56//11
f 21//12 23//12 24//12 22//12
f 23//13 1//13 2//13 24//13
f 23//14 21//14 139//14 140//14
f 25//7 26//7 28//7 27//7
f 27//8 28//8 30//8 29//8
f 29//9 30//9 32//9 31//9
f 31//10 32//10 34//10 33//10
f 33//12 34//12 36//12 35//12
f 35//13 36//13 38//13 37//13
f 37//1 38//1 40//1 39//1
f 39//2 40//2 42//2 41//2
f 41//3 42//3 44//3 43//3
f 43//4 44//4 46//4 45//4
f 6//11 8//11 52//11 51//11
f 45//5 46//5 48//5 47//5
f 47//6 48//6 26//6 25//6
f 13//14 11//14 134//14 135//14
f 52//15 53//15 77//15 76//15
f 59//15 60//15 84//15 83//15
f 2//11 4//11 50//11 49//11
f 38//11 36//11 66//11 67//11
f 48//11 46//11 71//11 72//11
f 12//11 14//11 55//11 54//11
f 22//11 24//11 60//11 59//11
f 34//11 32//11 64//11 65//11
f 44//11 42//11 69//11 70//11
f 8//11 10//11 53//11 52//11
f 18//11 20//11 58//11 57//11
f 30//11 28//11 62//11 63//11
f 40//11 38//11 67//11 68//11
f 26//11 48//11 72//11 61//11
f 4//11 6//11 51//11 50//11
f 14//11 16//11 56//11 55//11
f 24//11 2//11 49//11 60//11
f 36//11 34//11 65//11 66//11
f 46//11 44//11 70//11 71//11
f 10//11 12//11 54//11 53//11
f 20//11 22//11 59//11 58//11
f 32//11 30//11 63//11 64//11
f 42//11 40//11 68//11 69//11
f 28//11 26//11 61//11 62//11
f 80//2 81//2 105//2 104//2
f 88//3 87//3 111//3 112//3
f 68//14 67//14 91//14 92//14
f 60//15 49//15 73//15 84//15
f 53//15 54//15 78//15 77//15
f 69//14 68//14 92//14 93//14
f 62//14 61//14 85//14 86//14
f 54//15 55//15 79//15 78//15
f 70//14 69//14 93//14 94//14
f 63//14 62//14 86//14 87//14
f 55//15 56//15 80//15 79//15
f 71//14 70//14 94//14 95//14
f 64//14 63//14 87//14 88//14
f 56//15 57//15 81//15 80//15
f 72//14 71//14 95//14 96//14
f 49//15 50//15 74//15 73//15
f 65//14 64//14 88//14 89//14
f 57//15 58//15 82//15 81//15
f 61//14 72//14 96//14 85//14
f 50//15 51//15 75//15 74//15
f 66//14 65//14 89//14 90//14
f 58//15 59//15 83//15 82//15
f 51//15 52//15 76//15 75//15
f 67//14 66//14 90//14 91//14
f 96//12 95//12 119//12 120//12
f 73//7 74//7 98//7 97//7
f 89//4 88//4 112//4 113//4
f 81//3 82//3 106//3 105//3
f 85//13 96//13 120//13 109//13
f 74//8 75//8 99//8 98//8
f 90//5 89//5 113//5 114//5
f 82//4 83//4 107//4 106//4
f 75//9 76//9 100//9 99//9
f 91//6 90//6 114//6 115//6
f 83//5 84//5 108//5 107//5
f 76//10 77//10 101//10 100//10
f 92//7 91//7 115//7 116//7
f 84//6 73//6 97//6 108//6
f 77//12 78//12 102//12 101//12
f 93//8 92//8 116//8 117//8
f 86//1 85//1 109//1 110//1
f 78//13 79//13 103//13 102//13
f 94//9 93//9 117//9 118//9
f 87//2 86//2 110//2 111//2
f 79//1 80//1 104//1 103//1
f 95//10 94//10 118//10 119//10
f 121//16 122//16 124//16 123//16
f 123//17 124//17 128//17 127//17
f 127//18 128//18 126//18 125//18
f 125//11 126//11 122//11 121//11
f 128//14 124//14 122//14 126//14
f 145//5 146//5 170//5 169//5
f 131//8 130//8 154//8 155//8
f 31//15 33//15 145//15 144//15
f 41//15 43//15 150//15 149//15
f 9//14 7//14 132//14 133//14
f 19//14 17//14 137//14 138//14
f 27//15 29//15 143//15 142//15
f 37//15 39//15 148//15 147//15
f 47//15 25//15 141//15 152//15
f 5//14 3//14 130//14 131//14
f 15//14 13//14 135//14 136//14
f 1//14 23//14 140//14 129//14
f 33//15 35//15 146//15 145//15
f 43//15 45//15 151//15 150//15
f 11//14 9//14 133//14 134//14
f 21//14 19//14 138//14 139//14
f 29//15 31//15 144//15 143//15
f 39//15 41//15 149//15 148//15
f 25//15 27//15 142//15 141//15
f 7//14 5//14 131//14 132//14
f 17//14 15//14 136//14 137//14
f 3//14 1//14 129//14 130//14
f 35//15 37//15 147//15 146//15
f 45//15 47//15 152//15 151//15
f 165//15 166//15 167//15 168//15 169//15 170//15 171//15 172//15 173//15 174//15 175//15 176//15
f 139//4 138//4 162//4 163//4
f 132//9 131//9 155//9 156//9
f 146//6 147//6 171//6 170//6
f 140//5 139//5 163//5 164//5
f 133//10 132//10 156//10 157//10
f 147//7 148//7 172//7 171//7
f 129//6 140//6 164//6 153//6
f 134//12 133//12 157//12 158//12
f 148//8 149//8 173//8 172//8
f 141//1 142//1 166//1 165//1
f 135//13 134//13 158//13 159//13
f 149//9 150//9 174//9 173//9
f 142//2 143//2 167//2 166//2
f 136//1 135//1 159//1 160//1
f 150//10 151//10 175//10 174//10
f 143//3 144//3 168//3 167//3
f 137//2 136//2 160//2 161//2
f 151//12 152//12 176//12 175//12
f 130//7 129//7 153//7 154//7
f 144//4 145//4 169//4 168//4
f 138//3 137//3 161//3 162//3
f 152//13 141//13 165//13 176//13
f 114//19 125//19 121//19 116//19 115//19
f 111//20 110//20 127//20 125//20 114//20 113//20 112//20
f 127//21 110//21 97//21 120//21 123//21
f 117//22 116//22 121//22 123//22 120//22 119//22 118//22
f 182//14 180//14 185//14 191//14 184//14 190//14 187//14
f 178//23 179//23 182//23 181//23
f 179//24 177//24 180//24 182//24
f 181//14 186//14 193//14 188//14 192//14 185//14 180//14
f 178//11 181//11 180//11 177//11
f 181//14 182//14 187//14 189//14 183//14 194//14 186//14
f 186//25 194//25 206//25 198//25
f 183//26 189//26 201//26 195//26
f 189//27 187//27 199//27 201//27
f 184//28 191//28 203//28 196//28
f 187//29 190//29 202//29 199//29
f 194//30 183//30 195//30 206//30
f 190//31 184//31 196//31 202//31
f 193//32 186//32 198//32 205//32
f 185//33 192//33 204//33 197//33
f 191//34 185//34 197//34 203//34
f 192//35 188//35 200//35 204//35
f 188//36 193//36 205//36 200//36
f 199//14 202//14 196//14 203//14 197//14 204//14 200//14 205//14 198//14 206//14 195//14 201//14
l 175 178
l 155 177
l 159 179
