<svg xmlns="http://www.w3.org/2000/svg" xmlns:xlink="http://www.w3.org/1999/xlink" viewBox="0 0 1024 1024"><defs><style>.cls-1{isolation:isolate;}.cls-2{fill:#fff;}.cls-3{fill:#c8da52;}.cls-4{opacity:0.15;mix-blend-mode:overlay;fill:url(#linear-gradient);}.cls-5{fill:#55b66a;}.cls-6{fill:red;}.cls-7{fill:#abbac3;}.cls-8{fill:#7d8c9b;}.cls-20,.cls-9{fill:#475969;}.cls-10{fill:#ccdde7;}.cls-11{fill:#324656;}.cls-12{fill:#b690c2;}.cls-13{fill:#7a8997;}.cls-14{fill:#7c8d9c;}.cls-15{fill:#495b6c;}.cls-16,.cls-20,.cls-26{opacity:0.25;}.cls-16,.cls-20,.cls-26,.cls-31{mix-blend-mode:multiply;}.cls-16{fill:url(#radial-gradient);}.cls-17{fill:#dd2b26;}.cls-18{fill:#f99d28;}.cls-19{fill:#ffca3e;}.cls-21{opacity:0.08;}.cls-22,.cls-28,.cls-34{fill:none;}.cls-22{stroke:#000;}.cls-22,.cls-34{stroke-miterlimit:10;stroke-width:3px;}.cls-23{fill:#65a8dc;}.cls-24{fill:#a1dadb;}.cls-25{fill:#fcfcfc;}.cls-26{fill:#a6b6bf;}.cls-27{fill:lime;}.cls-28{stroke:#fff;stroke-linecap:round;stroke-linejoin:round;stroke-width:6px;}.cls-29{fill:blue;}.cls-30{fill:#9badb8;}.cls-31{opacity:0.5;fill:url(#radial-gradient-2);}.cls-32{fill:#576a7b;}.cls-33{opacity:0.4;}.cls-34{stroke:#7d8c9b;}</style><linearGradient id="linear-gradient" x1="321.68" y1="286" x2="321.68" y2="431.12" gradientUnits="userSpaceOnUse"><stop offset="0"/><stop offset="1" stop-opacity="0"/></linearGradient><radialGradient id="radial-gradient" cx="323.02" cy="609.29" r="55.57" gradientUnits="userSpaceOnUse"><stop offset="0" stop-color="#495b6c" stop-opacity="0"/><stop offset="0.22" stop-color="#495b6c" stop-opacity="0.03"/><stop offset="0.41" stop-color="#495b6c" stop-opacity="0.13"/><stop offset="0.58" stop-color="#495b6c" stop-opacity="0.29"/><stop offset="0.75" stop-color="#495b6c" stop-opacity="0.52"/><stop offset="0.91" stop-color="#495b6c" stop-opacity="0.81"/><stop offset="1" stop-color="#495b6c"/></radialGradient><radialGradient id="radial-gradient-2" cx="321.88" cy="609.29" r="55.57" xlink:href="#radial-gradient"/></defs><title>alienB</title><g class="cls-1"><g id="Layer_2" data-name="Layer 2"><g id="Layer_1-2" data-name="Layer 1"><rect class="cls-2" width="1024" height="1024"/><rect class="cls-3" width="643" height="490"/><path class="cls-4" d="M366,299h0a89.81,89.81,0,0,0-19.13,2.07h0a89.33,89.33,0,0,1-19.14,2.07H315.59a89.26,89.26,0,0,1-19.14-2.07h0A89.81,89.81,0,0,0,277.32,299h0a43.74,43.74,0,0,0-33,15c-6.51,7.48-12.32,16.72-11.37,25.21l15.3,137,71.88,5.58,1.52-2.82,1.52,2.82,71.87-5.58,15.31-137c.95-8.49-4.86-17.73-11.38-25.21A43.71,43.71,0,0,0,366,299Z"/><path class="cls-5" d="M442.55,216.37h8.29a18.41,18.41,0,0,1,18.41,18.41v1.43a18.41,18.41,0,0,1-18.41,18.41h-8.29a0,0,0,0,1,0,0V216.37A0,0,0,0,1,442.55,216.37Z"/><path class="cls-3" d="M437.85,216.37h8.29a18.41,18.41,0,0,1,18.41,18.41v1.43a18.41,18.41,0,0,1-18.41,18.41h-8.29a0,0,0,0,1,0,0V216.37A0,0,0,0,1,437.85,216.37Z"/><ellipse class="cls-5" cx="451.21" cy="235.5" rx="7.93" ry="4.4" transform="translate(132.36 632.21) rotate(-78.77)"/><path class="cls-5" d="M173.56,216.37h8.29a18.41,18.41,0,0,1,18.41,18.41v1.43a18.41,18.41,0,0,1-18.41,18.41h-8.29a0,0,0,0,1,0,0V216.37A0,0,0,0,1,173.56,216.37Z" transform="translate(373.83 471) rotate(-180)"/><path class="cls-3" d="M178.26,216.37h8.29A18.41,18.41,0,0,1,205,234.78v1.43a18.41,18.41,0,0,1-18.41,18.41h-8.29a0,0,0,0,1,0,0V216.37A0,0,0,0,1,178.26,216.37Z" transform="translate(383.22 471) rotate(-180)"/><ellipse class="cls-5" cx="191.61" cy="235.5" rx="4.4" ry="7.93" transform="translate(-42.19 41.82) rotate(-11.23)"/><rect class="cls-6" x="992" width="32" height="32"/><path class="cls-5" d="M266,262.54c2.68,6.89,3.21,13.11-3.68,15.79A13.39,13.39,0,0,1,245,270.71c-2.68-6.9,1.89-11.69,8.78-14.37S263.31,255.65,266,262.54Z"/><path class="cls-5" d="M383.91,261.23a5.9,5.9,0,0,0,2.16-3.65,2.54,2.54,0,0,0-4.09-2.4L378.47,258a2.55,2.55,0,0,0,1.39,4.54A5.94,5.94,0,0,0,383.91,261.23Z"/><path class="cls-5" d="M271.61,184.6A17.31,17.31,0,0,0,278,173.89a7.47,7.47,0,0,0-12-7L255.64,175a7.47,7.47,0,0,0,4.08,13.31A17.33,17.33,0,0,0,271.61,184.6Z"/><path class="cls-5" d="M288.49,175a6.67,6.67,0,0,0-1.37-4.54,2.85,2.85,0,0,0-5.07,1.57l-.36,5a2.84,2.84,0,0,0,4.79,2.27A6.57,6.57,0,0,0,288.49,175Z"/><circle class="cls-5" cx="280.21" cy="187.84" r="3.03"/><path class="cls-5" d="M109.45,195.65a17.36,17.36,0,0,0,6.36-10.71,7.47,7.47,0,0,0-12-7l-10.31,8.16a7.47,7.47,0,0,0,4.09,13.31A17.34,17.34,0,0,0,109.45,195.65Z"/><circle class="cls-5" cx="97.24" cy="170.15" r="3.03"/><path class="cls-5" d="M377.14,175.89c1.27,3.25,1.52,6.19-1.73,7.46a6.33,6.33,0,0,1-8.19-3.61c-1.26-3.25.89-5.52,4.15-6.78S375.88,172.63,377.14,175.89Z"/><path class="cls-5" d="M516.84,129.24a9.32,9.32,0,0,0,6.66.32,4,4,0,0,0,.31-7.44l-6.44-2.83a4,4,0,0,0-5.27,5.27A9.29,9.29,0,0,0,516.84,129.24Z"/><circle class="cls-5" cx="511.94" cy="143.27" r="4.25"/><path class="cls-5" d="M504.08,126.93c1.77,4.57,2.13,8.69-2.44,10.47a8.87,8.87,0,0,1-11.49-5.06c-1.78-4.57,1.25-7.75,5.82-9.53S502.3,122.36,504.08,126.93Z"/><path class="cls-5" d="M540.58,229.65a5.92,5.92,0,0,0,2.17-3.65,2.55,2.55,0,0,0-4.1-2.4l-3.51,2.78a2.55,2.55,0,0,0,1.39,4.54A5.92,5.92,0,0,0,540.58,229.65Z"/><rect class="cls-7" y="490" width="624" height="534"/><rect class="cls-8" x="624" y="764" width="400" height="260"/><rect class="cls-9" x="829.34" y="139.59" width="194.66" height="377.91"/><path class="cls-10" d="M980,335.12l-48.4-11.38s-28.22,2.88-30.65,8.64a53.46,53.46,0,0,0-2.28,7.15l-19,3.63,1.82,5.46L884,361.37l1.13,12.9-5.47,15.41-.84,16.68-7,11.77-12.33,13.31,13.26,8.75-1.53,1.43,20.48,15.47,18.2-2.27L935.67,456l17.15,10.17,25.33-3.49s4-.91,4.56-12.59,7.43-58.42,7.43-58.42V352.41ZM932.09,408a5.31,5.31,0,0,1-5.77,4.79l-8.63-.81a5.3,5.3,0,0,1-4.78-5.77l2.26-24.29a5.3,5.3,0,0,1,5.77-4.79l8.62.8a5.3,5.3,0,0,1,4.79,5.77Z"/><path class="cls-10" d="M979.73,160.3l-48.4-11.38s-28.22,2.88-30.65,8.65a51.91,51.91,0,0,0-2.27,7.14l-19,3.63,1.82,5.47,2.53,12.75,1.12,12.89-5.47,15.42-.84,16.67-7,11.78-12.34,13.31,13.27,8.74L871,266.8l20.48,15.48L909.64,280l25.79,1.22,17.14,10.16,25.34-3.49s3.94-.91,4.55-12.59,7.43-58.41,7.43-58.41v-39.3Zm-47.89,72.89a5.3,5.3,0,0,1-5.77,4.79l-8.62-.8a5.3,5.3,0,0,1-4.79-5.77l2.26-24.3a5.3,5.3,0,0,1,5.77-4.79l8.62.8a5.3,5.3,0,0,1,4.79,5.77Z"/><rect class="cls-9" x="646.05" y="139.59" width="183.29" height="377.91"/><rect class="cls-11" x="631.59" y="777.8" width="383.62" height="86.62"/><polygon class="cls-9" points="806.71 771.37 726.36 776.3 646.01 771.37 628.07 807.81 647.3 809.83 689.54 818.4 713.64 847.64 726.36 859.56 739.08 847.64 763.18 818.4 805.42 809.83 824.65 807.81 806.71 771.37"/><polygon class="cls-9" points="997.3 771.37 916.95 776.3 836.6 771.37 818.66 807.81 837.89 809.83 880.13 818.4 904.23 847.64 916.95 859.56 929.66 847.64 953.77 818.4 996.01 809.83 1015.24 807.81 997.3 771.37"/><rect class="cls-12" x="39.62" y="646.81" width="555.88" height="185.4"/><rect class="cls-7" x="642.53" y="872.32" width="8.39" height="33.67" rx="4.19" ry="4.19"/><rect class="cls-7" x="659.3" y="872.32" width="8.39" height="33.67" rx="4.19" ry="4.19"/><rect class="cls-7" x="676.08" y="872.32" width="8.39" height="33.67" rx="4.19" ry="4.19"/><rect class="cls-7" x="692.85" y="872.32" width="8.39" height="33.67" rx="4.19" ry="4.19"/><rect class="cls-7" x="751.56" y="872.32" width="8.39" height="33.67" rx="4.19" ry="4.19"/><rect class="cls-7" x="768.33" y="872.32" width="8.39" height="33.67" rx="4.19" ry="4.19"/><rect class="cls-7" x="785.11" y="872.32" width="8.39" height="33.67" rx="4.19" ry="4.19"/><rect class="cls-7" x="801.88" y="872.32" width="8.39" height="33.67" rx="4.19" ry="4.19"/><rect class="cls-7" x="833.08" y="872.32" width="8.39" height="33.67" rx="4.19" ry="4.19"/><rect class="cls-7" x="849.85" y="872.32" width="8.39" height="33.67" rx="4.19" ry="4.19"/><rect class="cls-7" x="866.62" y="872.32" width="8.39" height="33.67" rx="4.19" ry="4.19"/><rect class="cls-7" x="883.4" y="872.32" width="8.39" height="33.67" rx="4.19" ry="4.19"/><rect class="cls-7" x="942.11" y="872.32" width="8.39" height="33.67" rx="4.19" ry="4.19"/><rect class="cls-7" x="958.88" y="872.32" width="8.39" height="33.67" rx="4.19" ry="4.19"/><rect class="cls-7" x="975.65" y="872.32" width="8.39" height="33.67" rx="4.19" ry="4.19"/><rect class="cls-7" x="992.43" y="872.32" width="8.39" height="33.67" rx="4.19" ry="4.19"/><rect class="cls-11" x="625.61" y="898.22" width="398.39" height="125.78"/><rect class="cls-12" x="179.14" y="524" width="280.86" height="454.37"/><rect class="cls-11" x="9.43" y="432.44" width="622.16" height="49.42"/><rect class="cls-9" x="9.43" y="432.44" width="622.16" height="16.06"/><rect class="cls-11" x="579.88" y="654.47" width="8.48" height="188.74"/><rect class="cls-9" x="588.36" y="654.47" width="24.65" height="188.74" transform="translate(1201.38 1497.67) rotate(180)"/><rect class="cls-9" x="27.29" y="654.47" width="24.65" height="188.74" transform="translate(79.23 1497.67) rotate(180)"/><rect class="cls-11" x="51.94" y="654.47" width="8.48" height="188.74"/><polygon class="cls-11" points="431.88 642.04 399.08 664.08 385.44 725.74 387.27 767.46 399.61 825.71 448.67 830.27 460 843.21 460 654.47 431.88 642.04"/><rect class="cls-13" y="997.3" width="629.1" height="13.26"/><rect class="cls-13" y="494.16" width="629.1" height="13.58"/><rect class="cls-11" x="625.61" y="898.22" width="396.84" height="28.34"/><rect class="cls-14" x="625.61" y="996.31" width="396.84" height="16.21"/><path class="cls-15" d="M281.26,545.1H362a17.27,17.27,0,0,1,17.27,17.27V662.69a22,22,0,0,1-22,22H286a22,22,0,0,1-22-22V562.38A17.27,17.27,0,0,1,281.26,545.1Z"/><rect class="cls-9" y="494.89" width="629.1" height="28.43"/><polygon class="cls-15" points="331.29 856.75 310.92 856.75 310.92 844.92 321.11 822.37 331.29 844.92 331.29 856.75"/><path class="cls-15" d="M438.38,910v61.88l-232.81,6.45V909l10.71-15.12a120.66,120.66,0,0,1,104.83-50.78h0l1.21-.06A120.68,120.68,0,0,1,427.4,894.33Z"/><path class="cls-11" d="M378.44,1003.93H263.77V877.82c0,39.73,114.67,39.73,114.67,0Z"/><polygon class="cls-11" points="207.93 639.15 243.66 663.4 254.69 725.74 252.86 767.46 242.38 826.73 191.46 830.27 179.13 843.21 179.13 654.47 207.93 639.15"/><rect class="cls-9" y="978.37" width="629.1" height="28.43"/><rect class="cls-14" y="967.96" width="629.1" height="10.4"/><rect class="cls-14" y="523.3" width="628.41" height="10.4"/><ellipse class="cls-16" cx="321.65" cy="635.39" rx="31.03" ry="29.34"/><rect class="cls-15" x="354.93" y="795.5" width="20.71" height="9.6" transform="translate(-109.15 59.47) rotate(-8.1)"/><path class="cls-15" d="M373.59,795.78l.93,6.54L357,804.81l-.93-6.53,17.53-2.5m2.55-3.39-3,.42-17.53,2.5-3,.42.42,3,.93,6.54.42,3,3-.43,17.53-2.49,3-.42-.42-3-.93-6.54-.42-3Z"/><rect class="cls-15" x="345.59" y="797.59" width="10.1" height="9.6" transform="translate(-109.61 57.44) rotate(-8.1)"/><path class="cls-15" d="M353.69,798.62l.93,6.53-7,1-.93-6.53,7-1m2.55-3.4-3,.43-7,1-3,.42.43,3,.93,6.54.42,3,3-.43,7-1,3-.42-.42-3-.93-6.54-.42-3Z"/><rect class="cls-2" x="356.43" y="797" width="17.71" height="6.6" transform="translate(-109.15 59.48) rotate(-8.1)"/><rect class="cls-17" x="356.19" y="797.02" width="17.71" height="3.19" transform="translate(-108.92 59.42) rotate(-8.1)"/><rect class="cls-18" x="347.09" y="799.08" width="7.1" height="6.6" transform="translate(-109.59 57.43) rotate(-8.1)"/><rect class="cls-19" x="348.38" y="800.29" width="4.51" height="4.19" rx="2.1" ry="2.1" transform="translate(-109.59 57.43) rotate(-8.1)"/><path class="cls-14" d="M280.58,821.38a16.15,16.15,0,0,1-2.08-.14,14.63,14.63,0,0,1-12.39-16.57l.95-6.51a3.59,3.59,0,0,1,3.52-3l.51,0L293,798.26a3.57,3.57,0,0,1,3,4l-1,6.58a14.68,14.68,0,0,1-14.43,12.49Z"/><path class="cls-15" d="M270.58,797.12h.23l21.86,3.11A1.57,1.57,0,0,1,294,802l-1,6.58a12.66,12.66,0,0,1-12.45,10.78,13.72,13.72,0,0,1-1.8-.12A12.61,12.61,0,0,1,268.09,805l1-6.51a1.58,1.58,0,0,1,1.54-1.33m0-4a5.56,5.56,0,0,0-5.49,4.75l-1,6.51a16.61,16.61,0,0,0,14.09,18.84,17.12,17.12,0,0,0,2.36.16A16.6,16.6,0,0,0,297,809.18l1-6.58a5.57,5.57,0,0,0-4.72-6.32l-21.86-3.11a5.24,5.24,0,0,0-.79,0Z"/><circle class="cls-15" cx="280.2" cy="808.25" r="8.35"/><circle class="cls-2" cx="287.54" cy="805.54" r="2.97"/><circle class="cls-2" cx="275.89" cy="810.13" r="4.59"/><rect class="cls-20" x="631.59" y="769.25" width="383.62" height="26.82"/><circle class="cls-11" cx="357" cy="666.13" r="7.56"/><circle class="cls-11" cx="284.03" cy="666.13" r="7.56"/><polygon class="cls-11" points="677.83 444.37 707.95 424.66 745.85 424.66 766.21 445.84 763.57 471.33 735.92 484.58 701.16 478.78 677.83 444.37"/><polygon class="cls-11" points="680.24 267.87 707.95 249.74 745.85 249.74 766.21 270.93 763.57 296.42 735.92 309.66 701.16 303.87 680.24 267.87"/><path class="cls-11" d="M818.53,317.06v37.69l-15.36,97.57-11.5,42.46H704.3l-55.63-16.25V323.31h10.89l0,29.66v.32l0,.31,1.43,15.67,0,.47.11.46,6,26.11,0,.19.06.19,4,13.8.1.34.14.33,11.49,28.5v0l0,0,8.07,19.59a32,32,0,0,0,7,10.49l.58.59a32.2,32.2,0,0,0,15.5,8.6l4.78,1.11a31.83,31.83,0,0,0,7.28.84,32.31,32.31,0,0,0,5.11-.41l6-1A32.21,32.21,0,0,0,762.51,459l11.83-31.77,0,0v0l11.23-31,18.69-49.1.44-1.18v-1.25l.12-13.64.13-13.94Z"/><path class="cls-11" d="M818.53,141.59v37.7l-15.36,97.57-11.5,42.45H704.3l-55.63-16.24V147.84h10.89l0,29.67v.31l0,.32,1.43,15.66,0,.48.11.46,6,26.1,0,.19.06.19,4,13.8.1.34.14.33,11.49,28.5v0l0,0,8.07,19.59a32.08,32.08,0,0,0,7,10.5l.58.59a32.28,32.28,0,0,0,15.5,8.6l4.78,1.11a32.22,32.22,0,0,0,12.39.42l6-1a32.2,32.2,0,0,0,25.07-20.56l11.83-31.76,0,0v0l11.23-31,18.69-49.11.44-1.17v-1.26l.12-13.64.13-13.94Z"/><path class="cls-7" d="M727.51,385.89a26.55,26.55,0,0,1-20.09-9.17l-8.3-9.58A26.53,26.53,0,0,1,693,353.92l-3.64-22.77a2.42,2.42,0,0,1,0-.47V329a3,3,0,0,1,3-3h76.14a3,3,0,0,1,2.81,4.05l-10.6,28.35a26.72,26.72,0,0,1-2.49,5l-4.8,7.52a26.55,26.55,0,0,1-6,6.59l-3.44,2.7A26.68,26.68,0,0,1,727.51,385.89Z"/><path class="cls-7" d="M768.42,329l-10.6,28.35a23.4,23.4,0,0,1-2.21,4.42l-4.8,7.53a23.55,23.55,0,0,1-5.29,5.84l-3.43,2.7a23.58,23.58,0,0,1-32.4-3.08l-8.31-9.59a23.6,23.6,0,0,1-5.46-11.72l-3.64-22.77V329h76.14m0-6H692.28a6,6,0,0,0-6,6v1.68a6.09,6.09,0,0,0,.08.95L690,354.4a29.56,29.56,0,0,0,6.85,14.7l8.31,9.59a29.59,29.59,0,0,0,40.64,3.87l3.43-2.71a29.31,29.31,0,0,0,6.64-7.32l4.8-7.53a28.76,28.76,0,0,0,2.77-5.55L774,331.1a6,6,0,0,0-5.62-8.1Z"/><path class="cls-7" d="M727.51,209.93a26.59,26.59,0,0,1-20.09-9.17l-8.3-9.59A26.46,26.46,0,0,1,693,178l-3.64-22.77a2.56,2.56,0,0,1,0-.47V153a3,3,0,0,1,3-3h76.14a3,3,0,0,1,2.81,4.06l-10.6,28.34a26.72,26.72,0,0,1-2.49,5l-4.8,7.53a26.51,26.51,0,0,1-6,6.58l-3.44,2.7A26.69,26.69,0,0,1,727.51,209.93Z"/><path class="cls-7" d="M768.42,153l-10.6,28.35a23.79,23.79,0,0,1-2.21,4.43l-4.8,7.52a23.37,23.37,0,0,1-5.29,5.84l-3.43,2.71a23.57,23.57,0,0,1-32.4-3.09l-8.31-9.58a23.6,23.6,0,0,1-5.46-11.72l-3.64-22.77V153h76.14m0-6H692.28a6,6,0,0,0-6,6v1.69a6,6,0,0,0,.08.94L690,178.43a29.59,29.59,0,0,0,6.85,14.71l8.31,9.58a29.56,29.56,0,0,0,40.64,3.87l3.43-2.7a29.36,29.36,0,0,0,6.64-7.33l4.8-7.52a29.13,29.13,0,0,0,2.77-5.56L774,155.14a6,6,0,0,0-5.62-8.11Z"/><g class="cls-21"><rect class="cls-22" x="579.88" y="654.47" width="36.1" height="188.74"/><rect class="cls-22" x="544.43" y="654.47" width="35.45" height="188.74" transform="translate(1124.31 1497.67) rotate(180)"/><rect class="cls-22" x="544.43" y="654.47" width="17.72" height="188.74" transform="translate(1106.59 1497.67) rotate(180)"/><rect class="cls-22" x="491.56" y="654.47" width="52.88" height="188.74" transform="translate(1035.99 1497.67) rotate(180)"/><rect class="cls-22" x="491.56" y="654.47" width="26.44" height="188.74" transform="translate(1009.55 1497.67) rotate(180)"/><rect class="cls-22" x="460" y="654.47" width="31.56" height="188.74"/><rect class="cls-22" x="460" y="654.47" width="15.78" height="188.74"/><rect class="cls-22" x="24.76" y="654.47" width="36.1" height="188.74" transform="translate(85.62 1497.67) rotate(-180)"/><rect class="cls-22" x="60.86" y="654.47" width="35.45" height="188.74"/><rect class="cls-22" x="78.58" y="654.47" width="17.72" height="188.74"/><rect class="cls-22" x="96.31" y="654.47" width="52.88" height="188.74"/><rect class="cls-22" x="122.75" y="654.47" width="26.44" height="188.74"/><rect class="cls-22" x="149.18" y="654.47" width="31.56" height="188.74" transform="translate(329.93 1497.67) rotate(-180)"/><rect class="cls-22" x="164.96" y="654.47" width="15.78" height="188.74" transform="translate(345.71 1497.67) rotate(-180)"/></g><rect class="cls-11" x="650.92" y="518" width="373.08" height="223.18"/><path class="cls-7" d="M903.48,653c0,.49-9.11,32.36-9.11,32.36l44.4,34.15L988,692.72s1-34,1-35.15S978.23,635,978.23,635L939.11,623.7l-23.89,4.12Z"/><path class="cls-7" d="M786,653.31c0,.49-9.1,32.37-9.1,32.37l44.39,34.15L870.52,693s1-34,1-35.15-10.79-22.61-10.79-22.61L821.59,624l-23.88,4.12Z"/><rect class="cls-11" x="263.77" y="921.21" width="114.67" height="39.33"/><rect class="cls-7" x="398.93" y="727.12" width="52.96" height="32.66" rx="16.33" ry="16.33" transform="translate(850.83 1486.91) rotate(-180)"/><circle class="cls-15" cx="415.26" cy="743.45" r="12.94"/><circle class="cls-23" cx="415.26" cy="743.45" r="7.21"/><path class="cls-24" d="M409.15,743.45a4.67,4.67,0,0,0,4.68,4.68c2.58,0,2.73-2.09,2.73-4.68s-.15-4.68-2.73-4.68A4.68,4.68,0,0,0,409.15,743.45Z"/><rect class="cls-25" x="430.93" y="733.49" width="4.62" height="19.92" rx="2.31" ry="2.31"/><rect class="cls-25" x="437.86" y="733.49" width="4.62" height="19.92" rx="2.31" ry="2.31"/><rect class="cls-15" x="271.09" y="926.07" width="98.01" height="29.61" rx="6.74" ry="6.74" transform="translate(640.18 1881.75) rotate(-180)"/><circle class="cls-14" cx="285.89" cy="940.88" r="11.73"/><circle class="cls-11" cx="285.89" cy="940.88" r="6.54"/><rect class="cls-14" x="303.09" y="931.85" width="4.18" height="18.05" rx="2.09" ry="2.09"/><rect class="cls-14" x="310.82" y="931.85" width="4.18" height="18.05" rx="2.09" ry="2.09"/><rect class="cls-14" x="318.54" y="931.85" width="4.18" height="18.05" rx="2.09" ry="2.09"/><rect class="cls-14" x="326.26" y="931.85" width="4.18" height="18.05" rx="2.09" ry="2.09"/><rect class="cls-14" x="333.98" y="931.85" width="4.18" height="18.05" rx="2.09" ry="2.09"/><rect class="cls-14" x="341.7" y="931.85" width="4.18" height="18.05" rx="2.09" ry="2.09"/><rect class="cls-14" x="349.42" y="931.85" width="4.18" height="18.05" rx="2.09" ry="2.09"/><rect class="cls-14" x="357.14" y="931.85" width="4.18" height="18.05" rx="2.09" ry="2.09"/><rect class="cls-11" x="296.83" y="559.62" width="49.65" height="5.51" rx="2.76" ry="2.76"/><rect class="cls-11" x="296.83" y="570.46" width="49.65" height="5.51" rx="2.76" ry="2.76"/><rect class="cls-11" x="296.83" y="581.29" width="49.65" height="5.51" rx="2.76" ry="2.76"/><rect class="cls-14" x="331.7" y="983.42" width="28.84" height="8.61" rx="4.31" ry="4.31"/><rect class="cls-14" x="370.54" y="983.42" width="28.84" height="8.61" rx="4.31" ry="4.31"/><rect class="cls-14" x="283.22" y="983.42" width="28.84" height="8.61" rx="4.31" ry="4.31"/><rect class="cls-14" x="244.38" y="983.42" width="28.84" height="8.61" rx="4.31" ry="4.31"/><rect class="cls-11" x="646.05" width="377.95" height="139.59"/><circle class="cls-9" cx="776.23" cy="365.16" r="7.78"/><circle class="cls-9" cx="776.23" cy="190.62" r="7.78"/><rect class="cls-7" x="624" y="926.56" width="398.45" height="41.4"/><rect class="cls-26" x="818.66" y="926.56" width="203.8" height="41.4"/><path class="cls-11" d="M334.8,723.37l-1.18-.21q-1-.18-1.95-.27l-8.57-.75a21.4,21.4,0,0,0-3.58,0l-9.17.76a17.41,17.41,0,0,0-2.05.27l-1.13.2A21.14,21.14,0,0,0,290.25,740h0a21.13,21.13,0,0,0,.35,9.65h0a70.51,70.51,0,0,0,14.23,27l.48.57a21.1,21.1,0,0,0,32.7-.6l.41-.52a70.61,70.61,0,0,0,12.72-25.48l.28-1.06a21.12,21.12,0,0,0,.3-9.52V740A21.12,21.12,0,0,0,334.8,723.37Z"/><rect class="cls-27" x="992" width="32" height="32"/><ellipse cx="278.6" cy="226.99" rx="20.72" ry="22.58"/><path class="cls-28" d="M290.87,220.9c-1.06-4.24-3.87-7.45-8.85-9.38"/><path class="cls-28" d="M267.12,236.32a15.7,15.7,0,0,0,4.9,4.51"/><path d="M385.58,227c0,12.45-9.29,22.58-20.72,22.58S344.15,239.44,344.15,227s9.29-22.58,20.71-22.58S385.58,214.54,385.58,227Z"/><path class="cls-28" d="M377.14,220.87c-1.07-4.24-3.88-7.45-8.86-9.38"/><path class="cls-28" d="M353.44,236.11a15.59,15.59,0,0,0,4.73,4.8"/><rect class="cls-29" x="992" width="32" height="32"/><path d="M357.14,264.25a9.61,9.61,0,0,1-9.62,9.59H296.13a9.6,9.6,0,0,1-9.54-8.36,8.47,8.47,0,0,1-.08-1.23,9.59,9.59,0,0,1,9.62-9.62h51.39A9.63,9.63,0,0,1,357.14,264.25Z"/><path class="cls-17" d="M312.93,273.33a2.19,2.19,0,0,1,0,.51H296.12a9.59,9.59,0,0,1-9.53-8.36A16.56,16.56,0,0,1,298,261.24C306.21,261.24,312.93,266.65,312.93,273.33Z"/><path class="cls-2" d="M301.05,254.63a6.59,6.59,0,0,0,6.61,6.61H336a6.6,6.6,0,0,0,6.61-6.61Z"/><path class="cls-2" d="M300.39,273.84H342a6.69,6.69,0,0,0-1.94-4.69,6.58,6.58,0,0,0-4.67-1.93H307A6.63,6.63,0,0,0,300.39,273.84Z"/><rect class="cls-7" y="490" width="624" height="534"/><rect class="cls-14" x="194.22" y="524" width="265.78" height="454.37"/><rect class="cls-8" x="579.88" y="654.47" width="8.48" height="188.74"/><rect class="cls-9" x="588.36" y="654.47" width="24.65" height="188.74" transform="translate(1201.38 1497.67) rotate(180)"/><rect class="cls-9" x="27.29" y="654.47" width="24.65" height="188.74" transform="translate(79.23 1497.67) rotate(180)"/><rect class="cls-8" x="51.94" y="654.47" width="8.48" height="188.74"/><polygon class="cls-15" points="431.88 642.04 399.08 664.08 385.44 725.74 387.27 767.46 399.61 825.71 448.67 830.27 460 843.21 460 654.47 431.88 642.04"/><rect class="cls-13" y="997.3" width="629.1" height="13.26"/><rect class="cls-13" y="494.16" width="629.1" height="13.58"/><rect class="cls-30" x="205.57" y="517.5" width="239.27" height="92.55"/><rect class="cls-9" y="494.89" width="629.1" height="28.43"/><polygon class="cls-7" points="444.83 843.21 444.83 978.37 205.57 978.37 205.57 845.36 254.7 839.56 321.11 843.06 389.08 839.56 444.83 843.21"/><path class="cls-7" d="M321.65,815.49c-22.21,0-40.29,16.58-40.29,37s18.08,37,40.29,37,40.29-16.59,40.29-37S343.86,815.49,321.65,815.49Z"/><path class="cls-30" d="M378.44,1003.93H263.77V877.82c0,39.73,114.67,39.73,114.67,0Z"/><polygon class="cls-15" points="207.93 639.15 243.66 663.4 254.69 725.74 252.86 767.46 242.38 826.73 191.46 830.27 179.13 843.21 179.13 654.47 207.93 639.15"/><polygon class="cls-30" points="211.42 606.63 211.42 634.85 254.69 658.56 386.71 658.56 431.88 636.26 431.88 596.47 211.42 596.47 211.42 606.63"/><rect class="cls-9" y="978.37" width="629.1" height="28.43"/><rect class="cls-14" y="967.96" width="629.1" height="10.4"/><rect class="cls-14" y="523.3" width="628.41" height="10.4"/><circle class="cls-14" cx="320.51" cy="658.56" r="65.67"/><ellipse class="cls-31" cx="320.51" cy="635.39" rx="31.03" ry="29.34"/><rect class="cls-30" x="356.43" y="797" width="17.71" height="6.6" transform="translate(-109.15 59.48) rotate(-8.1)"/><rect class="cls-30" x="347.09" y="799.08" width="7.1" height="6.6" transform="translate(810.87 1547.34) rotate(171.9)"/><circle class="cls-15" cx="357" cy="666.13" r="7.56"/><circle class="cls-15" cx="284.03" cy="666.13" r="7.56"/><circle class="cls-30" cx="421.72" cy="860.07" r="2.39"/><circle class="cls-30" cx="221.3" cy="860.07" r="2.39"/><circle class="cls-30" cx="418.72" cy="900.07" r="2.39"/><circle class="cls-30" cx="224.3" cy="900.07" r="2.39"/><circle class="cls-30" cx="416.72" cy="940.07" r="2.39"/><circle class="cls-30" cx="226.3" cy="940.07" r="2.39"/><path class="cls-32" d="M321.11,824.34c-16.54,0-30,12.61-30,28.12s13.44,28.12,30,28.12,30-12.62,30-28.12S337.64,824.34,321.11,824.34Z"/><g class="cls-33"><rect class="cls-34" x="579.88" y="654.47" width="36.1" height="188.74"/><rect class="cls-34" x="544.43" y="654.47" width="35.45" height="188.74" transform="translate(1124.31 1497.67) rotate(180)"/><rect class="cls-34" x="491.56" y="654.47" width="52.88" height="188.74" transform="translate(1035.99 1497.67) rotate(180)"/><rect class="cls-34" x="460" y="654.47" width="31.56" height="188.74"/><rect class="cls-34" x="24.76" y="654.47" width="36.1" height="188.74" transform="translate(85.62 1497.67) rotate(-180)"/><rect class="cls-34" x="60.86" y="654.47" width="35.45" height="188.74"/><rect class="cls-34" x="96.31" y="654.47" width="52.88" height="188.74"/><rect class="cls-34" x="149.18" y="654.47" width="31.56" height="188.74" transform="translate(329.93 1497.67) rotate(-180)"/></g><rect class="cls-27" x="992" width="32" height="32"/></g></g></g></svg>