<svg xmlns="http://www.w3.org/2000/svg" xmlns:xlink="http://www.w3.org/1999/xlink" viewBox="0 0 1024 1024"><defs><style>.cls-1{isolation:isolate;}.cls-2{fill:#fff;}.cls-3{fill:#f58c6a;}.cls-4{fill:#f69878;}.cls-13,.cls-29,.cls-5{opacity:0.15;}.cls-13,.cls-18,.cls-19,.cls-20,.cls-29,.cls-5{mix-blend-mode:overlay;}.cls-5{fill:url(#linear-gradient);}.cls-6{fill:#f37b67;}.cls-7{fill:url(#linear-gradient-2);}.cls-8{fill:url(#linear-gradient-3);}.cls-9{fill:red;}.cls-10,.cls-18{opacity:0.1;}.cls-10{mix-blend-mode:multiply;fill:url(#linear-gradient-4);}.cls-11{fill:#d3eef4;}.cls-12{fill:#badde2;}.cls-14{fill:#e97424;}.cls-15{fill:#e2472b;}.cls-16{fill:url(#linear-gradient-5);}.cls-17{fill:#ccdde7;}.cls-19,.cls-20{opacity:0.25;}.cls-19{fill:url(#linear-gradient-6);}.cls-20{fill:url(#linear-gradient-7);}.cls-21{fill:#61150d;}.cls-22{fill:#abbfcf;}.cls-23{fill:url(#linear-gradient-8);}.cls-24{fill:lime;}.cls-25{fill:#220f0f;}.cls-26{fill:#dd2b26;}.cls-27{fill:blue;}.cls-28,.cls-29{fill:#4d160e;}</style><linearGradient id="linear-gradient" x1="321.68" y1="286" x2="321.68" y2="431.12" gradientUnits="userSpaceOnUse"><stop offset="0"/><stop offset="1" stop-opacity="0"/></linearGradient><linearGradient id="linear-gradient-2" x1="438.5" y1="235.5" x2="507.96" y2="235.5" gradientUnits="userSpaceOnUse"><stop offset="0" stop-color="#f69878"/><stop offset="1" stop-color="#f37b67"/></linearGradient><linearGradient id="linear-gradient-3" x1="202" y1="235.5" x2="152.85" y2="235.5" gradientTransform="translate(383.22 471) rotate(180)" xlink:href="#linear-gradient-2"/><linearGradient id="linear-gradient-4" x1="321.5" y1="490" x2="321.5" y2="187.52" gradientUnits="userSpaceOnUse"><stop offset="0" stop-color="#f69878"/><stop offset="1" stop-color="#f69878" stop-opacity="0"/></linearGradient><linearGradient id="linear-gradient-5" x1="824" y1="1024" x2="824" y2="764" gradientUnits="userSpaceOnUse"><stop offset="0" stop-color="#0d3543"/><stop offset="1" stop-color="#344d59"/></linearGradient><linearGradient id="linear-gradient-6" x1="657.77" y1="835.05" x2="657.77" y2="786.3" gradientUnits="userSpaceOnUse"><stop offset="0" stop-opacity="0"/><stop offset="1"/></linearGradient><linearGradient id="linear-gradient-7" x1="794.72" y1="835.05" x2="794.72" y2="786.3" xlink:href="#linear-gradient-6"/><linearGradient id="linear-gradient-8" x1="268.86" y1="987.59" x2="342.41" y2="988.55" xlink:href="#linear-gradient-6"/></defs><title>casualMaleA</title><g class="cls-1"><g id="Layer_2" data-name="Layer 2"><g id="Layer_1-2" data-name="Layer 1"><rect class="cls-2" width="1024" height="1024"/><rect class="cls-3" x="624" y="524" width="400" height="240"/><rect class="cls-4" width="643" height="490"/><path class="cls-5" d="M366,299h0a89.81,89.81,0,0,0-19.13,2.07h0a89.33,89.33,0,0,1-19.14,2.07H315.59a89.26,89.26,0,0,1-19.14-2.07h0A89.81,89.81,0,0,0,277.32,299h0a43.74,43.74,0,0,0-33,15c-6.51,7.48-12.32,16.72-11.37,25.21l15.3,137,71.88,5.58,1.52-2.82,1.52,2.82,71.87-5.58,15.31-137c.95-8.49-4.86-17.73-11.38-25.21A43.71,43.71,0,0,0,366,299Z"/><rect class="cls-4" x="824" y="134" width="200" height="390"/><path class="cls-6" d="M442.55,216.37h8.29a18.41,18.41,0,0,1,18.41,18.41v1.43a18.41,18.41,0,0,1-18.41,18.41h-8.29a0,0,0,0,1,0,0V216.37A0,0,0,0,1,442.55,216.37Z"/><path class="cls-7" d="M437.85,216.37h8.29a18.41,18.41,0,0,1,18.41,18.41v1.43a18.41,18.41,0,0,1-18.41,18.41h-8.29a0,0,0,0,1,0,0V216.37a0,0,0,0,1,0,0Z"/><ellipse class="cls-6" cx="451.21" cy="235.5" rx="7.93" ry="4.4" transform="translate(132.36 632.21) rotate(-78.77)"/><path class="cls-6" d="M173.56,216.37h8.29a18.41,18.41,0,0,1,18.41,18.41v1.43a18.41,18.41,0,0,1-18.41,18.41h-8.29a0,0,0,0,1,0,0V216.37A0,0,0,0,1,173.56,216.37Z" transform="translate(373.83 471) rotate(-180)"/><path class="cls-8" d="M178.26,216.37h8.29A18.41,18.41,0,0,1,205,234.78v1.43a18.41,18.41,0,0,1-18.41,18.41h-8.29a0,0,0,0,1,0,0V216.37A0,0,0,0,1,178.26,216.37Z" transform="translate(383.22 471) rotate(-180)"/><ellipse class="cls-6" cx="191.61" cy="235.5" rx="4.4" ry="7.93" transform="translate(-42.19 41.82) rotate(-11.23)"/><polygon class="cls-4" points="579.88 654.47 544.43 654.47 491.56 654.47 460 654.47 460 654.47 445.83 654.47 428.62 681.05 422.17 725.5 423.38 763.65 432.45 812.23 457.05 819.12 460 823.21 460 823.21 491.56 823.21 544.43 823.21 579.88 823.21 615.98 823.21 615.98 654.47 579.88 654.47"/><polygon class="cls-4" points="212.12 681.05 194.91 654.47 180.74 654.47 180.74 654.47 149.18 654.47 96.31 654.47 60.86 654.47 24.76 654.47 24.76 823.21 60.86 823.21 96.31 823.21 149.18 823.21 180.74 823.21 180.74 823.21 183.69 819.12 208.29 812.23 217.36 763.65 218.57 725.5 212.12 681.05"/><rect class="cls-4" x="624" y="864.49" width="400" height="159.51"/><rect class="cls-9" x="992" width="32" height="32"/><rect class="cls-10" y="139.59" width="643" height="350.41"/><ellipse class="cls-4" cx="320.36" cy="746.08" rx="73.24" ry="132.26"/><path class="cls-11" d="M160.83,490v534H480V490ZM359.12,769.45l-6,12.32c-13,26.76-50.94,27.32-64.76,1l-6.94-13.23-8-24.43L279,721.79l24-3.65,17.69-1.22,16.72,1.22,24,3.65,5.54,23.29Z"/><rect class="cls-11" x="155.81" y="654.47" width="68.39" height="188.74" transform="translate(380.01 1497.67) rotate(-180)"/><rect class="cls-11" x="416.54" y="654.47" width="67.38" height="188.74" transform="translate(900.46 1497.67) rotate(-180)"/><rect class="cls-12" x="152.9" y="654.47" width="7.84" height="188.74" transform="translate(313.64 1497.67) rotate(-180)"/><rect class="cls-12" x="480" y="654.47" width="7.84" height="188.74" transform="translate(967.84 1497.67) rotate(-180)"/><g class="cls-13"><rect x="145.05" y="654.47" width="7.84" height="188.74" transform="translate(297.95 1497.67) rotate(-180)"/><rect x="487.78" y="654.47" width="7.84" height="188.74" transform="translate(983.4 1497.67) rotate(-180)"/></g><path class="cls-12" d="M320.64,716.92l16.72,1.22,24,3.65,5.54,23.29-7.77,24.37-6,12.32a36.29,36.29,0,0,1-64.76,1l-6.94-13.23-8-24.43L279,721.79l24-3.65,17.69-1.22m0-5h-.35l-17.68,1.22-.41.05-24,3.65a5,5,0,0,0-4.11,3.78l-5.54,23.29a5.13,5.13,0,0,0,.11,2.72l8,24.43a5.13,5.13,0,0,0,.33.76l6.93,13.23a41.29,41.29,0,0,0,73.69-1.1l6-12.32a4.27,4.27,0,0,0,.27-.67l7.77-24.37a5,5,0,0,0,.1-2.68l-5.54-23.29a5,5,0,0,0-4.11-3.78l-24-3.65-.39-.05L321,711.93Z"/><rect class="cls-14" x="643" width="381" height="134"/><rect class="cls-15" x="643" y="134" width="181" height="390"/><rect class="cls-16" x="624" y="764" width="400" height="260"/><polygon class="cls-2" points="685.44 439.39 707.95 424.66 745.85 424.66 766.21 445.84 763.57 471.33 735.92 484.58 701.16 478.78 685.44 439.39"/><polygon class="cls-2" points="685.44 264.47 707.95 249.74 745.85 249.74 766.21 270.93 763.57 296.42 735.92 309.66 701.16 303.87 685.44 264.47"/><rect class="cls-2" x="713.32" y="395.74" width="26.58" height="5.41" rx="2.7" ry="2.7"/><rect class="cls-2" x="713.32" y="386.11" width="26.58" height="5.41" rx="2.7" ry="2.7"/><rect class="cls-2" x="713.32" y="405.83" width="26.58" height="5.41" rx="2.7" ry="2.7"/><rect class="cls-2" x="713.32" y="221.15" width="26.58" height="5.41" rx="2.7" ry="2.7"/><rect class="cls-2" x="713.32" y="210.84" width="26.58" height="5.41" rx="2.7" ry="2.7"/><rect class="cls-2" x="713.32" y="231.25" width="26.58" height="5.41" rx="2.7" ry="2.7"/><path class="cls-17" d="M806,315.06l-8.41,15.88-.11,13.64L779,393.74l-11.25,31.05L756,456.55a25.15,25.15,0,0,1-7.8,10.82h0a25.17,25.17,0,0,1-11.82,5.27l-6,1a25.15,25.15,0,0,1-9.7-.34l-4.78-1.11a25.16,25.16,0,0,1-12.13-6.73l-.59-.59a25.08,25.08,0,0,1-5.47-8.21L689.55,437l-11.5-28.5-4-13.8-6-26.11L666.6,353l-.05-26.66h-20.5V483.78l57.24,18H797l13-48,10.5-98.48V319.61Z"/><path class="cls-17" d="M806,139.59l-8.17,15.88-.12,13.64L779,218.27l-11.25,31L756,281.09a25.15,25.15,0,0,1-7.8,10.82h0a25.15,25.15,0,0,1-11.82,5.26l-6,1a25.14,25.14,0,0,1-9.7-.33l-4.78-1.11A25.32,25.32,0,0,1,703.69,290l-.59-.59a25,25,0,0,1-5.47-8.22l-8.08-19.59-11.5-28.5-4-13.8-6-26.1L666.6,177.5l-.05-26.65h-20.5V308.31l57.24,18H797l13-48,10.5-98.49V144.14Z"/><rect class="cls-18" x="631.59" y="786.3" width="383.62" height="16.15"/><path class="cls-2" d="M692.28,330.68l3.64,22.77a23.6,23.6,0,0,0,5.46,11.72l8.31,9.59a23.6,23.6,0,0,0,17.82,8.13h0a23.59,23.59,0,0,0,14.58-5.05l3.43-2.7a23.55,23.55,0,0,0,5.29-5.84l4.8-7.53a23.4,23.4,0,0,0,2.21-4.42L768.42,329H692.28Z"/><path class="cls-2" d="M692.28,154.72l3.64,22.77a23.6,23.6,0,0,0,5.46,11.72l8.31,9.58a23.58,23.58,0,0,0,17.82,8.14h0a23.59,23.59,0,0,0,14.58-5.05l3.43-2.71a23.37,23.37,0,0,0,5.29-5.84l4.8-7.52a23.79,23.79,0,0,0,2.21-4.43L768.42,153H692.28Z"/><path class="cls-19" d="M682.15,786.3a48.75,48.75,0,0,1-48.75,48.75V786.3Z"/><path class="cls-20" d="M770.35,786.3a48.75,48.75,0,0,0,48.75,48.75V786.3Z"/><rect class="cls-21" y="494.89" width="629.1" height="38.43"/><rect class="cls-21" y="968.37" width="629.1" height="38.43"/><path class="cls-22" d="M336,971.44H307.82a8.76,8.76,0,0,0-8.76,8.75v15.07a8.76,8.76,0,0,0,8.76,8.75H336a8.75,8.75,0,0,0,8.75-8.75V980.19A8.75,8.75,0,0,0,336,971.44Zm4.13,23.13a4.52,4.52,0,0,1-4.51,4.53H308.2a4.53,4.53,0,0,1-4.53-4.53v-13.7a4.52,4.52,0,0,1,4.53-4.52h27.37a4.51,4.51,0,0,1,4.51,4.52Z"/><rect class="cls-22" x="312.37" y="974.89" width="6.11" height="25.66"/><path class="cls-22" d="M315.42,974.89h0a3.05,3.05,0,0,1,3.05,3.05v22.61a0,0,0,0,1,0,0h-6.11a0,0,0,0,1,0,0V977.95A3.05,3.05,0,0,1,315.42,974.89Z" transform="translate(1303.15 672.3) rotate(90)"/><polygon class="cls-23" points="300.83 968.63 276.95 984.56 303.83 1006.76 253.77 1006.76 259.88 968.63 300.83 968.63"/><rect class="cls-24" x="992" width="32" height="32"/><ellipse class="cls-25" cx="287.04" cy="224.17" rx="8.96" ry="10.3"/><ellipse class="cls-25" cx="356.43" cy="224.17" rx="8.96" ry="10.3"/><g class="cls-13"><path d="M333.81,244.41c-1.57,5.14-6.35,6.87-12,6.87V239.56l9.95,1.59A2.56,2.56,0,0,1,333.81,244.41Z"/><path d="M309.84,244.41c1.57,5.14,6.35,6.87,12,6.87V239.56l-9.95,1.59A2.55,2.55,0,0,0,309.84,244.41Z"/></g><path d="M340.06,262.15v1.4a18.14,18.14,0,0,1-6.23,13.71,16.39,16.39,0,0,1-1.47,1.17c-.25.18-.49.34-.75.5a18.16,18.16,0,0,1-9.31,2.87h-1a18.11,18.11,0,0,1-7-1.6,18.88,18.88,0,0,1-2.34-1.27c-.25-.16-.49-.33-.73-.5a16.52,16.52,0,0,1-1.48-1.17,18.16,18.16,0,0,1-6.22-13.71v-1.4Z"/><ellipse class="cls-26" cx="321.81" cy="276.52" rx="7.55" ry="5.28"/><path class="cls-2" d="M305.07,262.16a5.33,5.33,0,0,0,5.33,5.32h22.81a5.31,5.31,0,0,0,5.32-5.32Z"/><path class="cls-2" d="M331.61,278.93a18.16,18.16,0,0,1-9.31,2.87h-1a18.11,18.11,0,0,1-7-1.6,18.88,18.88,0,0,1-2.34-1.27c1.76-1.52,5.5-1.51,9.82-1.51S329.85,277.41,331.61,278.93Z"/><rect class="cls-27" x="992" width="32" height="32"/><path class="cls-28" d="M272.28,200.94a5.76,5.76,0,0,1-2.18-11.09c7.53-3.08,14.67-5.58,25.84-5a5.76,5.76,0,1,1-.56,11.5c-9.54-.47-15.32,1.91-20.92,4.21A5.8,5.8,0,0,1,272.28,200.94Z"/><path class="cls-28" d="M370.19,200.94a5.76,5.76,0,0,0,2.18-11.09c-7.53-3.08-14.67-5.58-25.84-5a5.76,5.76,0,0,0,.56,11.5c9.53-.47,15.31,1.91,20.92,4.21A5.76,5.76,0,0,0,370.19,200.94Z"/><path class="cls-29" d="M321.62,3.39V156H274.27a34.46,34.46,0,0,0-34,28.64.17.17,0,0,1,0,.07c-.09.45-.15.9-.21,1.35h-.81l6.93,64.32.14,1.33a6.09,6.09,0,0,1-6.05,6.73h-3.12a19.3,19.3,0,0,1-15.62-8c-6.26-8.66-14.95-17.48-18.8-26.29a20.22,20.22,0,0,0-21.69-11.6,6,6,0,0,0-1.84.63l-1.39.74a5.58,5.58,0,0,0-1.64,1.25c-4.27,4.75-10,21.42-18.73,32.95s-53,33.69-69.35,41.06l-29,13.47-.43.19-21,7.87a6,6,0,0,1-1,.28l-25.16,4.87L11,316l-4.11.49A6.2,6.2,0,0,1,0,310.28V9.6A6.21,6.21,0,0,1,6.2,3.39Z"/><path class="cls-29" d="M321.62,3.39V156H369a34.46,34.46,0,0,1,34,28.64.17.17,0,0,0,0,.07c.09.45.15.9.21,1.35H404l-6.93,64.32-.14,1.33a6.09,6.09,0,0,0,6,6.73h3.12a19.3,19.3,0,0,0,15.62-8c6.26-8.66,14.95-17.48,18.8-26.29a20.22,20.22,0,0,1,21.69-11.6,6,6,0,0,1,1.84.63l1.39.74a5.58,5.58,0,0,1,1.64,1.25c4.27,4.75,9.95,21.42,18.73,32.95s53,33.69,69.35,41.06l29,13.47.43.19,21,7.87a6,6,0,0,0,1,.28l25.16,4.87.45.07,4.11.49a6.2,6.2,0,0,0,6.93-6.16V9.6A6.21,6.21,0,0,0,637,3.39Z"/><path class="cls-28" d="M240.28,184.73c0-.35.05-.72.1-1.09,0,.34-.06.69-.09,1A.17.17,0,0,1,240.28,184.73Z"/><path class="cls-28" d="M643.24,6.2V306.88a6.2,6.2,0,0,1-6.93,6.16l-4.11-.48-.45-.07-25.16-4.87a7.08,7.08,0,0,1-1-.28l-21-7.88a3.25,3.25,0,0,1-.43-.18l-29-13.47c-16.39-7.37-60.58-29.56-69.35-41.06s-14.46-28.2-18.73-33a5.73,5.73,0,0,0-1.64-1.24l-1.39-.74a5.74,5.74,0,0,0-1.84-.63,20.21,20.21,0,0,0-21.69,11.6c-3.85,8.81-12.54,17.63-18.8,26.29a19.3,19.3,0,0,1-15.62,8H403a6.09,6.09,0,0,1-5.91-4.67,5.94,5.94,0,0,1-.14-2.07l6.2-57.54c0-.09,0-.19,0-.29h.22c.18-6.55-.26-33-18.33-39.12-2.33-.44-4.83-.86-7.47-1.25h-.65c-7.61,0-9.75,2.57-11.42,5.78s-2.92,7.26-9,9.89c-31.62,13.65-59.81-9.86-88.8-10.43h-1.31c-15.13,0-21.59,9.87-24.3,19.36-.21.7-.39,1.39-.55,2.08-.11.49-.21,1-.31,1.44s-.13.63-.18.94c-.15.79-.27,1.56-.37,2.3,0,.38-.1.74-.14,1.1s-.07.62-.1.92a.76.76,0,0,0,0,.15c0,.37-.08.74-.1,1.09a55.3,55.3,0,0,0-.15,6.06l6.2,57.54a5.94,5.94,0,0,1-.14,2.07,6.09,6.09,0,0,1-5.91,4.67h-3.12a19.3,19.3,0,0,1-15.62-8c-6.26-8.66-14.95-17.48-18.8-26.29a20.21,20.21,0,0,0-21.69-11.6,5.74,5.74,0,0,0-1.84.63l-1.39.74a5.73,5.73,0,0,0-1.64,1.24c-4.27,4.76-10,21.43-18.73,33s-53,33.69-69.35,41.06l-29,13.47a3.25,3.25,0,0,1-.43.18l-21,7.88a7.08,7.08,0,0,1-1,.28l-25.16,4.87-.45.07L6.93,313A6.2,6.2,0,0,1,0,306.88V6.2A6.21,6.21,0,0,1,6.2,0H637A6.21,6.21,0,0,1,643.24,6.2Z"/></g></g></g></svg>