<svg xmlns="http://www.w3.org/2000/svg" xmlns:xlink="http://www.w3.org/1999/xlink" viewBox="0 0 1024 1024"><defs><style>.cls-1{isolation:isolate;}.cls-2{fill:#fff;}.cls-3{fill:#f7b889;}.cls-4{fill:#f8c79d;}.cls-5{opacity:0.1;fill:url(#linear-gradient);}.cls-12,.cls-13,.cls-17,.cls-21,.cls-24,.cls-26,.cls-27,.cls-28,.cls-5{mix-blend-mode:multiply;}.cls-19,.cls-6{opacity:0.15;}.cls-11,.cls-14,.cls-15,.cls-19,.cls-31,.cls-6{mix-blend-mode:overlay;}.cls-6{fill:url(#linear-gradient-2);}.cls-7{fill:#eb986d;}.cls-8{fill:red;}.cls-9{fill:#451a15;}.cls-10,.cls-12,.cls-17{fill:#57646e;}.cls-11{fill:url(#linear-gradient-3);}.cls-12,.cls-14,.cls-15,.cls-24,.cls-26,.cls-31{opacity:0.25;}.cls-13,.cls-27,.cls-28{opacity:0.75;}.cls-14{fill:url(#linear-gradient-4);}.cls-15{fill:url(#linear-gradient-5);}.cls-16{fill:#7f3116;}.cls-17,.cls-21{opacity:0.4;}.cls-18{fill:#a31c37;}.cls-20{fill:#7f1333;}.cls-22{fill:#2e75bc;}.cls-23{fill:#f29a2f;}.cls-25,.cls-26{fill:#2b5d85;}.cls-27{fill:url(#radial-gradient);}.cls-28{fill:url(#radial-gradient-2);}.cls-29{fill:lime;}.cls-30{fill:#220f0f;}.cls-32{fill:blue;}</style><linearGradient id="linear-gradient" x1="321.5" y1="490" x2="321.5" y2="187.52" gradientUnits="userSpaceOnUse"><stop offset="0" stop-color="#f69878"/><stop offset="1" stop-color="#f69878" stop-opacity="0"/></linearGradient><linearGradient id="linear-gradient-2" x1="321.68" y1="286" x2="321.68" y2="431.12" gradientUnits="userSpaceOnUse"><stop offset="0"/><stop offset="1" stop-opacity="0"/></linearGradient><linearGradient id="linear-gradient-3" x1="822.07" y1="801.69" x2="822.07" y2="1322.68" gradientUnits="userSpaceOnUse"><stop offset="0" stop-opacity="0"/><stop offset="1"/></linearGradient><linearGradient id="linear-gradient-4" x1="797.88" y1="850.65" x2="797.88" y2="815.18" xlink:href="#linear-gradient-2"/><linearGradient id="linear-gradient-5" x1="18815.88" y1="850.65" x2="18815.88" y2="815.18" gradientTransform="matrix(-1, 0, 0, 1, 19470.5, 0)" xlink:href="#linear-gradient-2"/><radialGradient id="radial-gradient" cx="384.73" cy="806.05" r="54.84" xlink:href="#linear-gradient-2"/><radialGradient id="radial-gradient-2" cx="259.69" cy="797.21" r="66.41" xlink:href="#linear-gradient-2"/></defs><title>farmerB</title><g class="cls-1"><g id="Layer_2" data-name="Layer 2"><g id="Layer_1-2" data-name="Layer 1"><rect class="cls-2" width="1024" height="1024"/><rect class="cls-3" x="624" y="524" width="400" height="240"/><rect class="cls-4" width="643" height="490"/><rect class="cls-5" y="139.59" width="643" height="350.41"/><rect class="cls-4" x="824" y="134" width="200" height="390"/><path class="cls-6" d="M366,299h0a89.81,89.81,0,0,0-19.13,2.07h0a89.33,89.33,0,0,1-19.14,2.07H315.59a89.26,89.26,0,0,1-19.14-2.07h0A89.81,89.81,0,0,0,277.32,299h0a43.74,43.74,0,0,0-33,15c-6.51,7.48-12.32,16.72-11.37,25.21l15.3,137,71.88,5.58,1.52-2.82,1.52,2.82,71.87-5.58,15.31-137c.95-8.49-4.86-17.73-11.38-25.21A43.71,43.71,0,0,0,366,299Z"/><path class="cls-7" d="M442.55,216.37h8.29a18.41,18.41,0,0,1,18.41,18.41v1.43a18.41,18.41,0,0,1-18.41,18.41h-8.29a0,0,0,0,1,0,0V216.37A0,0,0,0,1,442.55,216.37Z"/><path class="cls-4" d="M437.85,216.37h8.29a18.41,18.41,0,0,1,18.41,18.41v1.43a18.41,18.41,0,0,1-18.41,18.41h-8.29a0,0,0,0,1,0,0V216.37A0,0,0,0,1,437.85,216.37Z"/><ellipse class="cls-7" cx="451.21" cy="235.5" rx="7.93" ry="4.4" transform="translate(132.36 632.21) rotate(-78.77)"/><path class="cls-7" d="M173.56,216.37h8.29a18.41,18.41,0,0,1,18.41,18.41v1.43a18.41,18.41,0,0,1-18.41,18.41h-8.29a0,0,0,0,1,0,0V216.37a0,0,0,0,1,0,0Z" transform="translate(373.83 471) rotate(-180)"/><path class="cls-4" d="M178.26,216.37h8.29A18.41,18.41,0,0,1,205,234.78v1.43a18.41,18.41,0,0,1-18.41,18.41h-8.29a0,0,0,0,1,0,0V216.37a0,0,0,0,1,0,0Z" transform="translate(383.22 471) rotate(-180)"/><ellipse class="cls-7" cx="191.61" cy="235.5" rx="4.4" ry="7.93" transform="translate(-42.19 41.82) rotate(-11.23)"/><polygon class="cls-4" points="579.88 654.47 544.43 654.47 491.56 654.47 460 654.47 460 654.47 445.83 654.47 428.62 681.05 422.17 725.5 423.38 763.65 432.45 812.23 457.05 819.12 460 823.21 460 823.21 491.56 823.21 544.43 823.21 579.88 823.21 615.98 823.21 615.98 654.47 579.88 654.47"/><polygon class="cls-4" points="194.91 654.47 180.74 654.47 180.74 654.47 149.18 654.47 96.31 654.47 60.86 654.47 24.76 654.47 24.76 823.21 60.86 823.21 96.31 823.21 149.18 823.21 180.74 823.21 180.74 823.21 183.69 819.12 208.29 812.23 217.36 763.65 218.57 725.5 212.12 681.05 194.91 654.47"/><rect class="cls-4" x="624" y="864.49" width="400" height="159.51"/><rect class="cls-8" x="992" width="32" height="32"/><ellipse class="cls-4" cx="320.36" cy="746.08" rx="73.24" ry="132.26"/><rect class="cls-9" x="643" width="381" height="134"/><path class="cls-10" d="M155.18,490v534H485.54V490ZM320.46,789.36c-21.86,0-29.13-15.65-29.13-35s7.27-35,29.13-35,29.14,15.65,29.14,35S342.32,789.36,320.46,789.36Z"/><path class="cls-10" d="M202.68,490v523.56H444.83V490ZM320.46,789.36c-21.86,0-29.13-15.65-29.13-35s7.27-35,29.13-35,29.14,15.65,29.14,35S342.32,789.36,320.46,789.36Z"/><rect class="cls-10" x="624" y="770.14" width="396.14" height="222.44"/><rect class="cls-11" x="624" y="770.14" width="396.14" height="222.44"/><rect class="cls-12" x="631.59" y="786.3" width="383.62" height="16.15"/><g class="cls-13"><path class="cls-14" d="M779.93,833.58c6.75,6.59,15.94,12.12,23.76,16a10.69,10.69,0,0,0,15.41-9.61v-14a10.7,10.7,0,0,0-10.7-10.7h-21A10.71,10.71,0,0,0,779.93,833.58Z"/><path class="cls-15" d="M672.56,833.58c-6.74,6.59-15.93,12.12-23.75,16a10.69,10.69,0,0,1-15.41-9.61v-14a10.7,10.7,0,0,1,10.7-10.7h21A10.71,10.71,0,0,1,672.56,833.58Z"/></g><rect class="cls-9" x="646.85" y="139.59" width="170.83" height="377.91"/><rect class="cls-9" x="631.59" y="968.54" width="383.62" height="48.93"/><rect class="cls-16" x="631.59" y="968.54" width="383.62" height="7.93"/><rect class="cls-17" x="631.59" y="962.28" width="383.62" height="6.25"/><rect class="cls-18" x="149.18" y="654.47" width="31.56" height="188.74" transform="translate(329.93 1497.67) rotate(-180)"/><polygon class="cls-18" points="194.91 654.47 212.12 681.05 218.57 725.5 217.36 763.65 208.29 812.23 183.69 819.12 180.74 843.21 180.74 654.47 194.91 654.47"/><polygon class="cls-18" points="198.87 660.63 199.66 641.17 245.12 643.86 243.93 662.83 254.52 725.39 254.52 767.14 242.11 826.41 241.66 840.38 189.95 854.26 189.95 660.72 198.87 660.63"/><rect class="cls-18" x="459.97" y="654.47" width="31.56" height="188.74"/><rect class="cls-19" x="491.53" y="654.47" width="5.99" height="188.74" transform="translate(989.05 1497.67) rotate(180)"/><rect class="cls-20" x="485.54" y="654.47" width="5.99" height="188.74" transform="translate(977.06 1497.67) rotate(180)"/><rect class="cls-19" x="143.19" y="654.47" width="5.99" height="188.74" transform="translate(292.38 1497.67) rotate(180)"/><rect class="cls-20" x="149.18" y="654.47" width="5.99" height="188.74" transform="translate(304.36 1497.67) rotate(180)"/><polygon class="cls-18" points="433.55 654.47 428.59 681.05 422.14 725.5 423.36 763.65 432.43 812.23 457.02 819.12 459.97 843.21 459.97 654.47 433.55 654.47"/><polygon class="cls-18" points="452.02 624.55 424.82 644.13 395.59 645.86 396.78 662.83 386.2 725.39 386.2 767.14 398.6 826.41 399.05 840.38 450.76 849.45 450.76 660.72 452.02 624.55"/><path class="cls-20" d="M367.58,658.56,365.49,640H277.44l-2.09,18.56-5.79,51.36v78l5.95,52.76,0,.32.07.58,1.83,16.25h88.05l1.93-17.13,5.95-52.78v-78Zm-47.12,130.8c-21.86,0-29.13-15.65-29.13-35s7.27-35,29.13-35,29.14,15.65,29.14,35S342.32,789.36,320.46,789.36Z"/><path class="cls-18" d="M365.49,663.59H277.44l-7.88,54.77v61.09l7.88,54.78h88.05l7.88-54.78V718.36Zm-45,125.77c-21.86,0-29.13-15.65-29.13-35s7.27-35,29.13-35,29.14,15.65,29.14,35S342.32,789.36,320.46,789.36Z"/><path class="cls-20" d="M320.46,715.32c-19.61,0-35.52,17.69-35.52,39.52s15.91,39.52,35.52,39.52S356,776.67,356,754.84,340.08,715.32,320.46,715.32Zm0,74c-21.86,0-29.13-15.65-29.13-35s7.27-35,29.13-35,29.14,15.65,29.14,35S342.32,789.36,320.46,789.36Z"/><polygon class="cls-10" points="444.83 844.21 444.83 1018.37 205.57 1018.37 205.57 845.36 254.7 839.56 321.11 843.06 389.08 839.56 444.83 844.21"/><polygon class="cls-10" points="444.83 493.5 205.57 493.5 205.57 610.05 211.42 610.05 211.42 634.85 254.69 658.56 386.71 658.56 431.88 636.26 431.88 610.05 444.83 610.05 444.83 493.5"/><g class="cls-21"><ellipse class="cls-22" cx="287.69" cy="900.28" rx="7.23" ry="6.72"/><ellipse class="cls-22" cx="355.24" cy="900.28" rx="7.23" ry="6.72"/></g><ellipse class="cls-23" cx="287.69" cy="897.14" rx="7.23" ry="6.72"/><ellipse class="cls-23" cx="355.24" cy="897.14" rx="7.23" ry="6.72"/><g class="cls-24"><path class="cls-25" d="M362.26,973.07h-81.6a1.88,1.88,0,0,1-1.88-1.88V920.9a1.88,1.88,0,0,1,1.88-1.88h81.6a1.88,1.88,0,0,1,1.88,1.88v50.29A1.88,1.88,0,0,1,362.26,973.07Zm-79.72-3.76h77.84V922.78H282.54Z"/><path class="cls-25" d="M321.46,953.92a1.93,1.93,0,0,1-1.14-.38l-40.8-31.15a1.88,1.88,0,0,1,1.14-3.37h81.6a1.88,1.88,0,0,1,1.14,3.37l-40.8,31.15A1.93,1.93,0,0,1,321.46,953.92Zm-35.24-31.14,35.24,26.9,35.24-26.9Z"/></g><rect class="cls-26" x="230.48" y="506.32" width="28.67" height="2.71" rx="1.35" ry="1.35"/><rect class="cls-26" x="269.3" y="506.32" width="28.67" height="2.71" rx="1.35" ry="1.35"/><rect class="cls-26" x="308.13" y="506.32" width="28.67" height="2.71" rx="1.35" ry="1.35"/><rect class="cls-26" x="346.95" y="506.32" width="28.67" height="2.71" rx="1.35" ry="1.35"/><rect class="cls-26" x="385.77" y="506.32" width="28.67" height="2.71" rx="1.35" ry="1.35"/><rect class="cls-26" x="230.48" y="995.9" width="28.67" height="2.71" rx="1.35" ry="1.35"/><rect class="cls-26" x="269.3" y="995.9" width="28.67" height="2.71" rx="1.35" ry="1.35"/><rect class="cls-26" x="308.13" y="995.9" width="28.67" height="2.71" rx="1.35" ry="1.35"/><rect class="cls-26" x="346.95" y="995.9" width="28.67" height="2.71" rx="1.35" ry="1.35"/><rect class="cls-26" x="385.77" y="995.9" width="28.67" height="2.71" rx="1.35" ry="1.35"/><rect class="cls-16" x="677.27" y="25.57" width="6.24" height="104.4"/><rect class="cls-16" x="702.36" y="25.57" width="6.24" height="104.4"/><rect class="cls-16" x="727.45" y="25.57" width="6.24" height="104.4"/><rect class="cls-16" x="752.54" y="25.57" width="6.24" height="104.4"/><rect class="cls-16" x="777.63" y="25.57" width="6.24" height="104.4"/><rect class="cls-16" x="849.96" y="25.57" width="6.24" height="104.4"/><rect class="cls-16" x="875.05" y="25.57" width="6.24" height="104.4"/><rect class="cls-16" x="900.14" y="25.57" width="6.24" height="104.4"/><rect class="cls-16" x="925.23" y="25.57" width="6.24" height="104.4"/><rect class="cls-16" x="950.32" y="25.57" width="6.24" height="104.4"/><polygon class="cls-27" points="367.6 840.69 383.81 857.81 399.05 838.29 399.05 878.3 367.6 873.41 367.6 840.69"/><polygon class="cls-28" points="275.64 840.88 258.65 860.63 241.66 840.38 242.54 880.88 273.99 876 275.64 840.88"/><path class="cls-9" d="M703.83,498.28l-54.28-17.07V329.8h13.51l0,23.32,1.47,16.06,6.09,26.43,4.08,14.06,11.56,28.67L694.39,458a28.55,28.55,0,0,0,6.24,9.36l.59.59A28.61,28.61,0,0,0,715,475.57l4.78,1.11a28.41,28.41,0,0,0,6.49.75,28.89,28.89,0,0,0,4.55-.37l6-1a28.71,28.71,0,0,0,22.35-18.33L771.06,426l11.26-31.08L801,345.23l.11-13.41,6.65-12.55,9.27,2.91v32.93l-10.45,98-12.23,45.14Z"/><path class="cls-16" d="M809.49,323.48l4,1.27v30.18l-10.4,97.56-11.46,42.29h-87.3l-51.32-16.14V333.31h6.51l0,19.67v.31l0,.31,1.43,15.67,0,.47.11.46,6,26.11,0,.19.06.19,4,13.8.1.34.14.33,11.49,28.5v0l0,0,8.07,19.59a32,32,0,0,0,7,10.49l.58.59a32.2,32.2,0,0,0,15.5,8.6l4.78,1.11a31.83,31.83,0,0,0,7.28.84,32.31,32.31,0,0,0,5.11-.41l6-1A32.21,32.21,0,0,0,762.51,459l11.83-31.77,0,0v0l11.23-31L804.06,347l.44-1.16v-1.24l.1-11.94,4.88-9.22M806,315.06l-8.41,15.88-.11,13.64L779,393.74l-11.25,31.05L756,456.55a25.23,25.23,0,0,1-19.62,16.09l-6,1a25.58,25.58,0,0,1-4,.32,25,25,0,0,1-5.7-.66l-4.78-1.11a25.16,25.16,0,0,1-12.13-6.73l-.59-.59a25.08,25.08,0,0,1-5.47-8.21L689.55,437l-11.5-28.5-4-13.8-6-26.11L666.6,353l-.05-26.66h-20.5V483.78l57.24,18H797l13-48,10.5-98.48V319.61L806,315.06Z"/><path class="cls-9" d="M703.83,322.81l-54.28-17.06V154.34h13.51l0,23.32,1.47,16.06,6.09,26.43,4.08,14.06,11.56,28.67,8.09,19.62a28.61,28.61,0,0,0,6.24,9.35l.59.59A28.71,28.71,0,0,0,715,300.11l4.78,1.11a28.87,28.87,0,0,0,11,.38l6-1a28.72,28.72,0,0,0,22.35-18.32l11.83-31.77,11.26-31.08,18.92-49.69.11-13.44,6.44-12.52,9.24,2.9v32.94l-10.45,98-12.23,45.14Z"/><path class="cls-16" d="M809.56,148l4,1.24v30.18L803.13,277l-11.46,42.29h-87.3l-51.32-16.13V157.84h6.51l0,19.67v.32l0,.31,1.43,15.66,0,.48.11.46,6,26.1,0,.19.06.19,4,13.8.1.34.14.33,11.49,28.5v0l0,0,8.07,19.59a32.08,32.08,0,0,0,7,10.5l.58.59a32.28,32.28,0,0,0,15.5,8.6l4.78,1.11a32.22,32.22,0,0,0,12.39.42l6-1a32.2,32.2,0,0,0,25.07-20.56l11.83-31.76,0,0v0l11.23-31,18.69-49.11.44-1.17v-1.26l.1-12,4.72-9.15M806,139.59l-8.17,15.88-.12,13.64L779,218.27l-11.25,31L756,281.09a25.2,25.2,0,0,1-19.62,16.08l-6,1a25.25,25.25,0,0,1-9.7-.33l-4.78-1.11A25.32,25.32,0,0,1,703.69,290l-.59-.59a25,25,0,0,1-5.47-8.22l-8.08-19.59-11.5-28.5-4-13.8-6-26.1L666.6,177.5l-.05-26.65h-20.5V308.31l57.24,18H797l13-48,10.5-98.49V144.14L806,139.59Z"/><rect class="cls-29" x="992" width="32" height="32"/><ellipse class="cls-30" cx="287.04" cy="224.17" rx="8.96" ry="10.3"/><ellipse class="cls-30" cx="356.43" cy="224.17" rx="8.96" ry="10.3"/><g class="cls-19"><path d="M333.81,244.41c-1.57,5.14-6.35,6.87-12,6.87V239.56l9.95,1.59A2.56,2.56,0,0,1,333.81,244.41Z"/><path d="M309.84,244.41c1.57,5.14,6.35,6.87,12,6.87V239.56l-9.95,1.59A2.55,2.55,0,0,0,309.84,244.41Z"/></g><g class="cls-31"><path d="M327,267.51a63.9,63.9,0,0,0,16.68-5.44,2.32,2.32,0,0,0,1.23-3.21h0a2.38,2.38,0,0,0-3.05-.93,59.59,59.59,0,0,1-15.74,5.13Z"/><path d="M309.52,268.86A64.35,64.35,0,0,0,327,267.51l-.88-4.45a59.61,59.61,0,0,1-16.51,1.27,2.38,2.38,0,0,0-2.46,2h0A2.33,2.33,0,0,0,309.52,268.86Z"/></g><path class="cls-19" d="M327.87,273a6.83,6.83,0,0,0-4.25,2.4,2.92,2.92,0,0,0,2.72,4.72l5.08-.76a2.92,2.92,0,0,0,1.21-5.31A6.81,6.81,0,0,0,327.87,273Z"/><path class="cls-30" d="M272.28,200.94a5.76,5.76,0,0,1-2.18-11.09c7.53-3.08,14.67-5.58,25.84-5a5.76,5.76,0,1,1-.56,11.5c-9.54-.47-15.32,1.91-20.92,4.21A5.8,5.8,0,0,1,272.28,200.94Z"/><path class="cls-30" d="M370.19,200.94a5.76,5.76,0,0,0,2.18-11.09c-7.53-3.08-14.67-5.58-25.84-5a5.76,5.76,0,0,0,.56,11.5c9.53-.47,15.31,1.91,20.92,4.21A5.76,5.76,0,0,0,370.19,200.94Z"/><path class="cls-30" d="M321.62,3.39V156H274.27a34.46,34.46,0,0,0-34,28.64.17.17,0,0,1,0,.07c-.09.45-.15.9-.21,1.35h-.81l6.93,64.32.14,1.33a6.09,6.09,0,0,1-6.05,6.73h-3.12a19.3,19.3,0,0,1-15.62-8c-6.26-8.66-14.95-17.48-18.8-26.29a20.22,20.22,0,0,0-21.69-11.6,6,6,0,0,0-1.84.63l-1.39.74a5.58,5.58,0,0,0-1.64,1.25c-4.27,4.75-10,21.42-18.73,32.95s-53,33.69-69.35,41.06l-29,13.47-.43.19-21,7.87a6,6,0,0,1-1,.28l-25.16,4.87L11,316l-4.11.49A6.2,6.2,0,0,1,0,310.28V9.6A6.21,6.21,0,0,1,6.2,3.39Z"/><path class="cls-30" d="M321.62,3.39V156H369a34.46,34.46,0,0,1,34,28.64.17.17,0,0,0,0,.07c.09.45.15.9.21,1.35H404l-6.93,64.32-.14,1.33a6.09,6.09,0,0,0,6,6.73h3.12a19.3,19.3,0,0,0,15.62-8c6.26-8.66,14.95-17.48,18.8-26.29a20.22,20.22,0,0,1,21.69-11.6,6,6,0,0,1,1.84.63l1.39.74a5.58,5.58,0,0,1,1.64,1.25c4.27,4.75,9.95,21.42,18.73,32.95s53,33.69,69.35,41.06l29,13.47.43.19,21,7.87a6,6,0,0,0,1,.28l25.16,4.87.45.07,4.11.49a6.2,6.2,0,0,0,6.93-6.16V9.6A6.21,6.21,0,0,0,637,3.39Z"/><path class="cls-30" d="M240.28,184.73c0-.35.05-.72.1-1.09,0,.34-.06.69-.09,1A.17.17,0,0,1,240.28,184.73Z"/><path class="cls-30" d="M643.24,6.2V306.88a6.2,6.2,0,0,1-6.93,6.16l-4.11-.48-.45-.07-25.16-4.87a7.08,7.08,0,0,1-1-.28l-21-7.88a3.25,3.25,0,0,1-.43-.18l-29-13.47c-16.39-7.37-60.58-29.56-69.35-41.06s-14.46-28.2-18.73-33a5.73,5.73,0,0,0-1.64-1.24l-1.39-.74a5.74,5.74,0,0,0-1.84-.63,20.21,20.21,0,0,0-21.69,11.6c-3.85,8.81-12.54,17.63-18.8,26.29a19.3,19.3,0,0,1-15.62,8H403a6.09,6.09,0,0,1-5.91-4.67,5.94,5.94,0,0,1-.14-2.07l6.2-57.54c0-.09,0-.19,0-.29h.22c.18-6.55-.26-33-18.33-39.12-2.33-.44-4.83-.86-7.47-1.25h-.65c-7.61,0-9.75,2.57-11.42,5.78s-2.92,7.26-9,9.89c-31.62,13.65-59.81-9.86-88.8-10.43h-1.31c-15.13,0-21.59,9.87-24.3,19.36-.21.7-.39,1.39-.55,2.08-.11.49-.21,1-.31,1.44s-.13.63-.18.94c-.15.79-.27,1.56-.37,2.3,0,.38-.1.74-.14,1.1s-.07.62-.1.92a.76.76,0,0,0,0,.15c0,.37-.08.74-.1,1.09a55.3,55.3,0,0,0-.15,6.06l6.2,57.54a5.94,5.94,0,0,1-.14,2.07,6.09,6.09,0,0,1-5.91,4.67h-3.12a19.3,19.3,0,0,1-15.62-8c-6.26-8.66-14.95-17.48-18.8-26.29a20.21,20.21,0,0,0-21.69-11.6,5.74,5.74,0,0,0-1.84.63l-1.39.74a5.73,5.73,0,0,0-1.64,1.24c-4.27,4.76-10,21.43-18.73,33s-53,33.69-69.35,41.06l-29,13.47a3.25,3.25,0,0,1-.43.18l-21,7.88a7.08,7.08,0,0,1-1,.28l-25.16,4.87-.45.07L6.93,313A6.2,6.2,0,0,1,0,306.88V6.2A6.21,6.21,0,0,1,6.2,0H637A6.21,6.21,0,0,1,643.24,6.2Z"/><rect class="cls-32" x="992" width="32" height="32"/></g></g></g></svg>