<svg xmlns="http://www.w3.org/2000/svg" xmlns:xlink="http://www.w3.org/1999/xlink" viewBox="0 0 1024 1024"><defs><style>.cls-1{isolation:isolate;}.cls-2{fill:#fff;}.cls-3{fill:#87221a;}.cls-10,.cls-4{opacity:0.15;mix-blend-mode:overlay;}.cls-4{fill:url(#linear-gradient);}.cls-5{fill:#771b14;}.cls-6{fill:red;}.cls-16,.cls-7{fill:#2e75bc;}.cls-8{fill:#195c86;}.cls-9{fill:#141414;}.cls-11{fill:#202020;}.cls-12{fill:#e4783e;}.cls-13{fill:#d3eef4;}.cls-14{fill:#373737;}.cls-15{fill:#f6a563;}.cls-16{opacity:0.25;mix-blend-mode:screen;}.cls-17{fill:#fcfcfc;}.cls-18{fill:url(#linear-gradient-2);}.cls-19{fill:url(#linear-gradient-3);}.cls-20,.cls-26{fill:#1a1a1a;}.cls-21{fill:#252525;}.cls-22{fill:#f9f9f9;}.cls-23{fill:#1f1f1f;}.cls-24{fill:#f99d28;}.cls-25{fill:#55c9e9;}.cls-26{font-size:22.11px;font-family:LondrinaSolid-Regular, Londrina Solid;}.cls-27{fill:#29abe2;}.cls-28{fill:#da1c4b;}.cls-29{fill:#ccdde7;}.cls-30{fill:lime;}.cls-31{fill:#220f0f;}.cls-32{fill:blue;}</style><linearGradient id="linear-gradient" x1="321.68" y1="286" x2="321.68" y2="431.12" gradientUnits="userSpaceOnUse"><stop offset="0"/><stop offset="1" stop-opacity="0"/></linearGradient><linearGradient id="linear-gradient-2" x1="271.06" y1="741.83" x2="199.38" y2="741.83" xlink:href="#linear-gradient"/><linearGradient id="linear-gradient-3" x1="364.96" y1="741.83" x2="441.39" y2="741.83" xlink:href="#linear-gradient"/></defs><title>racerBlueFemale</title><g class="cls-1"><g id="Layer_2" data-name="Layer 2"><g id="Layer_1-2" data-name="Layer 1"><rect class="cls-2" width="1024" height="1024"/><rect class="cls-3" x="624" y="524" width="400" height="240"/><rect class="cls-3" width="643" height="490"/><rect class="cls-3" x="824" y="134" width="200" height="390"/><path class="cls-4" d="M366,299h0a89.81,89.81,0,0,0-19.13,2.07h0a89.33,89.33,0,0,1-19.14,2.07H315.59a89.26,89.26,0,0,1-19.14-2.07h0A89.81,89.81,0,0,0,277.32,299h0a43.74,43.74,0,0,0-33,15c-6.51,7.48-12.32,16.72-11.37,25.21l15.3,137,71.88,5.58,1.52-2.82,1.52,2.82,71.87-5.58,15.31-137c.95-8.49-4.86-17.73-11.38-25.21A43.71,43.71,0,0,0,366,299Z"/><path class="cls-5" d="M442.55,216.37h8.29a18.41,18.41,0,0,1,18.41,18.41v1.43a18.41,18.41,0,0,1-18.41,18.41h-8.29a0,0,0,0,1,0,0V216.37A0,0,0,0,1,442.55,216.37Z"/><path class="cls-3" d="M437.85,216.37h8.29a18.41,18.41,0,0,1,18.41,18.41v1.43a18.41,18.41,0,0,1-18.41,18.41h-8.29a0,0,0,0,1,0,0V216.37A0,0,0,0,1,437.85,216.37Z"/><ellipse class="cls-5" cx="451.21" cy="235.5" rx="7.93" ry="4.4" transform="translate(132.36 632.21) rotate(-78.77)"/><path class="cls-5" d="M173.56,216.37h8.29a18.41,18.41,0,0,1,18.41,18.41v1.43a18.41,18.41,0,0,1-18.41,18.41h-8.29a0,0,0,0,1,0,0V216.37A0,0,0,0,1,173.56,216.37Z" transform="translate(373.83 471) rotate(-180)"/><path class="cls-3" d="M178.26,216.37h8.29A18.41,18.41,0,0,1,205,234.78v1.43a18.41,18.41,0,0,1-18.41,18.41h-8.29a0,0,0,0,1,0,0V216.37a0,0,0,0,1,0,0Z" transform="translate(383.22 471) rotate(-180)"/><ellipse class="cls-5" cx="191.61" cy="235.5" rx="4.4" ry="7.93" transform="translate(-42.19 41.82) rotate(-11.23)"/><polygon class="cls-3" points="579.88 654.47 544.43 654.47 491.56 654.47 460 654.47 460 654.47 445.83 654.47 428.62 681.05 422.17 725.5 423.38 763.65 432.45 812.23 457.05 819.12 460 823.21 460 823.21 491.56 823.21 544.43 823.21 579.88 823.21 615.98 823.21 615.98 654.47 579.88 654.47"/><polygon class="cls-3" points="194.91 654.47 180.74 654.47 180.74 654.47 149.18 654.47 96.31 654.47 60.86 654.47 24.76 654.47 24.76 823.21 60.86 823.21 96.31 823.21 149.18 823.21 180.74 823.21 180.74 823.21 183.69 819.12 208.29 812.23 217.36 763.65 218.57 725.5 212.12 681.05 194.91 654.47"/><rect class="cls-3" x="624" y="864.49" width="400" height="159.51"/><rect class="cls-6" x="992" width="32" height="32"/><ellipse class="cls-3" cx="320.36" cy="746.08" rx="73.24" ry="132.26"/><rect class="cls-7" x="5.44" y="507.74" width="614.17" height="489.56"/><rect class="cls-7" x="629.1" y="767.18" width="394.9" height="246.93"/><rect class="cls-8" x="631.59" y="912.37" width="383.62" height="40.99"/><rect class="cls-9" x="631.59" y="987.53" width="383.62" height="36.47"/><rect class="cls-8" x="631.59" y="987.53" width="383.62" height="6.96"/><g class="cls-10"><rect x="164.96" y="654.47" width="7.84" height="188.74" transform="translate(337.77 1497.67) rotate(-180)"/><rect x="467.85" y="654.47" width="7.84" height="188.74" transform="translate(943.55 1497.67) rotate(-180)"/></g><rect class="cls-11" x="705.4" y="548.73" width="285.42" height="178.39"/><rect class="cls-9" x="826.55" y="153.03" width="182.54" height="361.07"/><rect class="cls-12" x="656" y="34.77" width="316.94" height="92.48"/><rect class="cls-8" x="9.43" y="432.44" width="622.16" height="49.42"/><rect class="cls-7" x="9.43" y="432.44" width="622.16" height="4.64"/><rect class="cls-7" x="293.24" y="442.33" width="59.86" height="28.08" rx="2.43" ry="2.43"/><rect class="cls-13" x="268.16" y="447.02" width="46.4" height="18.71" rx="4.45" ry="4.45"/><rect class="cls-8" x="271.77" y="450.32" width="39.18" height="12.1" rx="1.92" ry="1.92"/><rect class="cls-9" x="643" y="145.1" width="175.65" height="366.9"/><rect class="cls-14" x="697.98" y="376.04" width="56.45" height="27.03" rx="9.24" ry="9.24"/><rect class="cls-14" x="697.98" y="200.52" width="56.45" height="27.03" rx="9.24" ry="9.24"/><path class="cls-15" d="M703.84,500.28l-59.29-19V324.8h18.5L663.1,353c0,.11,0,.21,0,.32L664.54,369a3.85,3.85,0,0,0,.08.47l6,26.1a1.05,1.05,0,0,0,.05.19l4,13.8c0,.11.07.23.11.34l11.5,28.5L694.39,458a28.55,28.55,0,0,0,6.24,9.36l.59.59A28.61,28.61,0,0,0,715,475.57l4.78,1.11a28.41,28.41,0,0,0,6.49.75,28.89,28.89,0,0,0,4.55-.37l6-1a28.71,28.71,0,0,0,22.35-18.33L771.06,426l11.26-31.08,18.46-49.12a3.55,3.55,0,0,0,.23-1.2l.11-13.64v-.16l-.43-11.6L821,322.58V355l-14.44,98-12.27,47.19Z"/><path class="cls-9" d="M804.34,323.36l13.19,2.19v29.24l-14.37,97.6-11.54,44.39H704.39l-56.34-18.1V328.31h11.51l0,24.67c0,.21,0,.41,0,.62l1.43,15.67a7.21,7.21,0,0,0,.15.93l6,26.11.09.38,4,13.8c.07.22.15.45.24.67l11.49,28.5,0,0,8.08,19.59a32.17,32.17,0,0,0,7,10.49l.59.59a32.12,32.12,0,0,0,15.5,8.6l4.78,1.11a31.89,31.89,0,0,0,7.28.84,32.31,32.31,0,0,0,5.11-.41l6-1A32.21,32.21,0,0,0,762.51,459l11.83-31.77,0-.06,11.23-31L804.06,347a7,7,0,0,0,.45-2.4l.11-13.64v-.32l-.28-7.32m-7.31-8.3.59,15.88-.11,13.64L779,393.74l-11.25,31.05L756,456.55a25.23,25.23,0,0,1-19.62,16.09l-6,1a25.49,25.49,0,0,1-4,.32,25,25,0,0,1-5.7-.66l-4.78-1.11a25.16,25.16,0,0,1-12.13-6.73l-.59-.59a25.08,25.08,0,0,1-5.47-8.21L689.55,437l-11.5-28.5-4-13.8-6-26.11L666.6,353l-.05-31.66h-25.5V483.78l62.24,20H797l13-50,14.5-98.48V319.61L797,315.06Z"/><path class="cls-15" d="M703.84,324.81l-59.29-19.05V145.34h18.5l.05,32.16c0,.11,0,.21,0,.32l1.43,15.67a3.69,3.69,0,0,0,.08.46l6,26.11a1.8,1.8,0,0,0,.05.19l4,13.79a3.38,3.38,0,0,0,.11.34l11.5,28.5,8.09,19.62a28.61,28.61,0,0,0,6.24,9.35l.59.59A28.71,28.71,0,0,0,715,300.11l4.78,1.11a28.87,28.87,0,0,0,11,.38l6-1a28.72,28.72,0,0,0,22.35-18.32l11.83-31.77,11.26-31.08,18.7-49.1a3.61,3.61,0,0,0,.22-1.22l.12-13.64a1.48,1.48,0,0,0,0-.21l-.6-11.54L821,147.11v32.47l-14.44,98-12.27,47.19Z"/><path class="cls-9" d="M804.47,147.92l13.06,2.16v29.24l-14.37,97.6-11.54,44.39H704.39l-56.34-18.1V148.84h11.51l0,28.67q0,.31,0,.63l1.43,15.66a7.36,7.36,0,0,0,.15.94l6,26.1.09.38,4,13.8c.07.23.15.45.24.67l11.49,28.5,0,.05,8.08,19.59a32.21,32.21,0,0,0,7,10.5l.59.59a32.28,32.28,0,0,0,15.5,8.6l4.78,1.11a32.22,32.22,0,0,0,12.39.42l6-1a32.2,32.2,0,0,0,25.07-20.56l11.83-31.76,0-.06,11.22-31,18.7-49.11a7,7,0,0,0,.45-2.43l.12-13.64c0-.14,0-.28,0-.42l-.38-7.19M797,139.59l.83,15.88-.12,13.64L779,218.27l-11.25,31L756,281.09a25.15,25.15,0,0,1-7.8,10.82h0a25.15,25.15,0,0,1-11.82,5.26l-6,1a25.25,25.25,0,0,1-9.7-.33l-4.78-1.11A25.32,25.32,0,0,1,703.69,290l-.59-.59a25,25,0,0,1-5.47-8.22l-8.08-19.59-11.5-28.5-4-13.8-6-26.1L666.6,177.5l-.05-35.65h-25.5V308.31l62.24,20H797l13-50,14.5-98.49V144.14L797,139.59Z"/><rect class="cls-16" x="124.45" y="930.3" width="383.62" height="38.76"/><rect class="cls-16" x="124.45" y="533.55" width="383.62" height="38.76"/><polygon class="cls-8" points="614.28 654.21 459.65 654.21 459.65 654.47 445.83 654.47 428.62 681.05 422.17 725.5 423.38 763.65 432.45 812.23 457.05 819.12 460 843.21 460 843.21 485.19 843.21 485.19 828.99 614.28 828.99 614.28 654.21"/><rect class="cls-17" x="267.94" y="804.02" width="27.27" height="15.91" rx="5.09" ry="5.09"/><rect class="cls-8" x="267.94" y="824.12" width="27.27" height="6.58"/><rect class="cls-8" x="267.94" y="833.42" width="27.27" height="6.58"/><rect class="cls-8" x="267.94" y="842.73" width="27.27" height="6.58"/><polygon class="cls-8" points="212.12 681.05 194.91 654.47 180.74 654.47 180.74 654.47 179.38 654.47 179.38 654.21 24.76 654.21 24.76 828.99 155.55 828.99 155.55 843.21 180.74 843.21 180.74 843.21 183.69 819.12 208.29 812.23 217.36 763.65 218.57 725.5 212.12 681.05"/><rect class="cls-8" x="316.99" y="758.52" width="4.12" height="209.85"/><rect class="cls-8" x="282.99" y="541.06" width="78.37" height="23.74" rx="6.41" ry="6.41"/><rect class="cls-8" x="5.44" y="494.89" width="614.17" height="12.85"/><rect class="cls-8" x="5.44" y="997.3" width="614.17" height="12.86"/><polygon class="cls-18" points="218.57 725.5 217.36 763.65 214 781.65 199.65 743.38 215.16 702.01 218.57 725.5"/><polygon class="cls-19" points="441.09 743.38 426.74 781.65 423.38 763.65 422.17 725.5 425.58 702.01 441.09 743.38"/><rect class="cls-2" x="281.99" y="581.96" width="78.37" height="84.47" rx="9.59" ry="9.59"/><path class="cls-20" d="M332.35,609.67a56.76,56.76,0,0,1,6,.43v6c0,7.94-.74,15.71-.74,23.66a7,7,0,0,0,.06,1.11c.8.18,1.29-3.39,2.65-3.39.74,0,7.45,1.54,7.45,2.28-.24,2.77-7,13.24-7.45,13.74-1.91.06-3.7.12-5.61.12-2.16,0-4.25-.06-6.47-.25-.25-3.51-.31-6.9-.31-10.35,0-9.43.68-18.54.68-28,0-1.42,0-2.9-.06-4.31C328.59,609.79,330.81,609.67,332.35,609.67Z"/><path class="cls-20" d="M296.18,622.17c-1-9.79,8.44-13.55,17.5-12.57,11.09,2,10.54,18,9.8,30.2-.19,1.72,0,3.38-.49,5.05a2.71,2.71,0,0,1-.31.86c-2.16,4.93-8.81,7.58-14.67,7.58-7.76.19-12.32-7.15-10.53-13.74,2.4-.43,5.23-.25,8.13-.43h.12v.06a7,7,0,0,0,1.42,4.25,3.2,3.2,0,0,0,4.5-.06c3.08-2.59,1.42-9.06,1.6-13.62v-.06a14.14,14.14,0,0,1-3.14,1.36c-2.22.55-5.05,1.11-7.46.43a9.4,9.4,0,0,1-4.25-2.65c-1.23-1.17-1.85-3.27-2.09-5.18Zm7.34.07a2.86,2.86,0,0,0,.06.8,2.5,2.5,0,0,0,2,2,4.72,4.72,0,0,0,4.56-1.85,2.75,2.75,0,0,0-1.05-3.94,4.5,4.5,0,0,0-3.76.18,2.93,2.93,0,0,0-1.78,2v.81Z"/><rect class="cls-20" x="292.05" y="596.73" width="57.02" height="6.11"/><rect class="cls-21" x="594.67" y="650.26" width="19.61" height="178.73"/><rect class="cls-21" x="24.76" y="650.26" width="22.05" height="178.73"/><path class="cls-22" d="M401.87,727.12H422.5a16.33,16.33,0,0,1,16.33,16.33v0a16.33,16.33,0,0,1-16.33,16.33H401.87a0,0,0,0,1,0,0V727.12A0,0,0,0,1,401.87,727.12Z" transform="translate(840.7 1486.91) rotate(-180)"/><circle class="cls-23" cx="418.2" cy="743.45" r="12.94"/><path class="cls-24" d="M418.2,736.24v14.42a7.21,7.21,0,1,0,0-14.42Z"/><rect class="cls-25" x="444.65" y="727.12" width="11.64" height="32.52"/><rect class="cls-2" x="350.84" y="823.09" width="28.12" height="30.31" rx="3.44" ry="3.44" transform="translate(796.01 1644.45) rotate(175.39)"/><text class="cls-26" transform="translate(355.22 843.99) rotate(-4.61)">16</text><rect class="cls-20" x="355.6" y="845.86" width="20.46" height="2.19" transform="translate(798.55 1661.77) rotate(175.39)"/><path class="cls-2" d="M375.23,805.25a2.71,2.71,0,0,0,2.3-3.06l0-.29-.93-6.54,0-.29a2.71,2.71,0,0,0-3.06-2.3l-.29,0-16.93,2.41h0l-3,.43-7,1-.29,0a2.69,2.69,0,0,0-2.29,3.06l0,.29.93,6.54,0,.29a2.7,2.7,0,0,0,3.06,2.29l.29,0,6.43-.91h0l2.82-.4.75-.11h0l16.93-2.41Z"/><path class="cls-23" d="M352.17,801a4.31,4.31,0,0,1-1.78.26c.06-.9-1.53-1-1.53-.07a.72.72,0,0,0,.05.32.82.82,0,0,0,.85.39,2.94,2.94,0,0,1,2.24.93,2.52,2.52,0,0,1,.58,2.52A2.28,2.28,0,0,1,350.5,807c-1.39.17-3-.49-3.17-2v-.07a17,17,0,0,1,1.81-.29c.22,1,1.95.76,1.59-.31-.21-.75-1.16-.71-1.85-.74a1.69,1.69,0,0,1-.86-.28,2.56,2.56,0,0,1,.14-4.29,3.63,3.63,0,0,1,2.65-.27,2,2,0,0,1,1.38,2.19Z"/><path class="cls-23" d="M358.29,799.82c0,.11,0,.21,0,.31a2.9,2.9,0,0,1-2.87,2.88c.1.43.09.68.5,3h0l0,0a7.93,7.93,0,0,1-2,.35c-.45-2.29-.84-5.54-1.34-8.16,1.88-.82,5.12-1.06,5.67,1.61Zm-3.66-.24h0a8.24,8.24,0,0,0,.38,1.77h0c.5-.11,1.2-.14,1.52-.58a.83.83,0,0,0-.4-1.14A1.68,1.68,0,0,0,354.63,799.58Z"/><path class="cls-23" d="M364.46,803.2a4.89,4.89,0,0,1,.14,1.56c-1.61.24-3.31.62-4.86.72-.42-2.75-1-5.37-1.23-8.11,1.82-.37,4.89-.89,4.9-.82a12.2,12.2,0,0,1,.26,1.68v0a24.12,24.12,0,0,1-3.09.61h0a6.84,6.84,0,0,0,.22,1.39h0c.48,0,1-.13,1.47-.19h0a13.5,13.5,0,0,1,.28,1.65c-.47.2-1.27.19-1.42.35a6.12,6.12,0,0,0,.23,1.48h0c1-.16,2-.22,3.12-.42Z"/><path class="cls-23" d="M370.27,802.31a4.93,4.93,0,0,1,.15,1.57c-1.62.23-3.32.61-4.87.72-.42-2.76-1-5.38-1.23-8.12,1.83-.37,4.89-.89,4.9-.82a12.11,12.11,0,0,1,.26,1.69h0a24,24,0,0,1-3.08.61h0a6.84,6.84,0,0,0,.22,1.39h0c.48,0,1-.13,1.46-.19h0a11.82,11.82,0,0,1,.28,1.65c-.47.2-1.27.19-1.42.35a6.56,6.56,0,0,0,.23,1.48h0c1.05-.16,2-.22,3.12-.42Z"/><path class="cls-23" d="M375.39,797.45a2.78,2.78,0,0,1,.22.73,15.62,15.62,0,0,1,.18,2.25s0,0,0,0a8.56,8.56,0,0,1-1.12,2.74c-1,.2-2.12.36-3.11.52h0a76,76,0,0,1-1.44-8.1l0-.06A14.4,14.4,0,0,1,373,795a2.36,2.36,0,0,1,1.45.79A5.64,5.64,0,0,1,375.39,797.45ZM374,798.76c-.17-.47-.4-1-1-1.15a2.49,2.49,0,0,0-.89.15h0v0c.19.84.27,2,.49,3.07.2.12.54,0,.82-.06.09,0,.12-.05.2-.1a1.27,1.27,0,0,0,.31-.43A1.88,1.88,0,0,0,374,798.76Z"/><rect class="cls-2" x="279.9" y="874.42" width="82.84" height="37.41" rx="5.19" ry="5.19"/><path class="cls-20" d="M356.74,878.75a1.33,1.33,0,0,1,1.32,1.32v26.1a1.32,1.32,0,0,1-1.32,1.32H285.89a1.32,1.32,0,0,1-1.32-1.32v-26.1a1.33,1.33,0,0,1,1.32-1.32h70.85m0-2.52H285.89a3.84,3.84,0,0,0-3.85,3.84v26.1a3.85,3.85,0,0,0,3.85,3.85h70.85a3.86,3.86,0,0,0,3.85-3.85v-26.1a3.85,3.85,0,0,0-3.85-3.84Z"/><path class="cls-27" d="M289.35,895.06a7.39,7.39,0,1,0,7.39-7.4A7.39,7.39,0,0,0,289.35,895.06Zm12.14-7.49a4.75,4.75,0,1,1-4.75-4.76A4.75,4.75,0,0,1,301.49,887.57Zm3.61-.39v11.74h-2.75V887.18Z"/><path class="cls-28" d="M315.4,892.57c.13-.53-.54-1-1.06-1-.94.17-1,1.25,0,1.59,1.15.17,2.25.38,2.72,1a2.68,2.68,0,0,1,.2,2.56,2.79,2.79,0,0,1-2.75,1.38c-2.07.08-3.47-.94-3.47-2.58v-.08a21.79,21.79,0,0,1,2.28,0c0,.94,2,1.28,1.93.1.12-1-1.28-.79-2.42-1.28a2.19,2.19,0,0,1,0-4.23,8.92,8.92,0,0,1,3.45,0,2.48,2.48,0,0,1,1.34,2.49A7.12,7.12,0,0,1,315.4,892.57Z"/><path class="cls-28" d="M320.79,886.74c0,2.53-.14,8.58,0,11.07-.2.23-1.9,0-2.17.09.29-3.72-.28-7.48.09-11.21Z"/><path class="cls-28" d="M323.93,890.15v0c0,2.48-.15,5.13,0,7.62-.21.23-1.9,0-2.18.09.2-2.61-.15-5.37.09-7.79h0a3.34,3.34,0,0,1,.44,0c.26,0,.74,0,1.4,0Zm-.06-3.32c0,.26.05,1.36.05,2-.19.27-1.28.06-2.09.1,0-.6-.07-1.18-.06-2.12Z"/><path class="cls-28" d="M330.7,897.36c-.71,1-2.39.68-3.58.68a2.5,2.5,0,0,1-1.32-.68c-1.11-1-.64-3.1-.81-4.44a6.94,6.94,0,0,1,.1-1.11,5.28,5.28,0,0,1,.24-.91c.3-.63,1.34-.89,2.32-.89.41,0,.77,0,1.2,0a2.69,2.69,0,0,1,1.71.65c.58.42.55,1.42.6,2.77a6.45,6.45,0,0,1-2-.07,1.08,1.08,0,0,0-1.42-1,1,1,0,0,0-.52.34.5.5,0,0,0-.14.31c-.08.63,0,1.28-.09,2-.08,1,1.29,1,1.77.7a1.55,1.55,0,0,0,.37-.82,16.06,16.06,0,0,1,2,0A6,6,0,0,1,330.7,897.36Z"/><path class="cls-28" d="M334.21,890.08c0,.68-.06,1.53,0,2,.71-.62,1-1.5,1.58-2.21a13,13,0,0,0,2.43,0c-.76,1.17-1.68,2.3-2.54,3.45.92,1.5,1.89,2.93,2.68,4.52a17.11,17.11,0,0,1-2.48,0,33.09,33.09,0,0,0-1.67-3,17.78,17.78,0,0,1-.06,3c-.46,0-1.42.08-2,0-.14-3.82,0-7.45,0-11.19a18.2,18.2,0,0,1,2.09,0Z"/><path class="cls-28" d="M345.46,889.73a13,13,0,0,1,0,1.53c-.07,1.09,0,2.09-.08,3.15l-.05.51a4.47,4.47,0,0,1-.58,2.08,2.78,2.78,0,0,1-1.59.94,5,5,0,0,1-1.76.16,2.17,2.17,0,0,1-2-1.08,3.54,3.54,0,0,1-.37-1.71,45.89,45.89,0,0,1-.08-4.84,4.11,4.11,0,0,1,.82-2.64,1.56,1.56,0,0,1,.35-.27,4.51,4.51,0,0,1,4.46.27,2.44,2.44,0,0,1,.63.94A3.3,3.3,0,0,1,345.46,889.73Zm-1.92,1.76s-.05-.53-.06-.88a1.55,1.55,0,0,0-.81-1.31,1.26,1.26,0,0,0-1.2.21,2.07,2.07,0,0,0-.72,1.07,9.51,9.51,0,0,0-.14,2.52,16.84,16.84,0,0,0,.29,2.18,1.47,1.47,0,0,0,2.33.2c.39-.51.23-.51.31-1.4,0-.42,0-.76,0-.81v-.74Z"/><path class="cls-28" d="M348.61,890.15v0c0,2.48-.15,5.13,0,7.62-.2.23-1.9,0-2.18.09.2-2.61-.15-5.37.09-7.79h0a3.34,3.34,0,0,1,.44,0c.26,0,.74,0,1.4,0Zm-.06-3.32c0,.26.05,1.36.05,2-.19.27-1.28.06-2.09.1,0-.6-.07-1.18-.06-2.12Z"/><path class="cls-28" d="M351.82,886.74c0,2.53-.14,8.58,0,11.07-.2.23-1.89,0-2.17.09.29-3.72-.28-7.48.09-11.21Z"/><rect class="cls-28" x="311.02" y="899.94" width="40.8" height="2.11"/><rect class="cls-28" x="311.02" y="882.81" width="40.8" height="2.11"/><path class="cls-2" d="M639.77,894.45a2.46,2.46,0,0,0,2.49,2.42h.27l6-.07h.27a2.46,2.46,0,0,0,2.43-2.49V894L651,878.51h0l0-2.73-.07-6.45v-.27a2.46,2.46,0,0,0-2.48-2.43h-.27l-6,.07h-.27a2.46,2.46,0,0,0-2.42,2.49v.27l.07,5.9h0l0,2.58v.69h0l.18,15.54Z"/><path class="cls-23" d="M646.36,874.11a3.89,3.89,0,0,1,0-1.63c.8.15,1.06-1.27.24-1.37a.57.57,0,0,0-.29,0c-.35.12-.42.41-.46.71a2.66,2.66,0,0,1-1.1,1.91,2.29,2.29,0,0,1-2.34.23,2.07,2.07,0,0,1-1.3-2.08c0-1.27.79-2.67,2.18-2.62h.07a15.64,15.64,0,0,1,0,1.67c-.92.07-.91,1.66.1,1.47.69-.1.77-1,.88-1.58a1.63,1.63,0,0,1,.35-.75,2.34,2.34,0,0,1,3.86.64,3.37,3.37,0,0,1-.07,2.42,1.86,1.86,0,0,1-2.14,1Z"/><path class="cls-23" d="M646.66,879.75h-.28a2.64,2.64,0,0,1-2.26-2.93c-.4,0-.62,0-2.73.11h0v0a6.69,6.69,0,0,1-.09-1.81c2.11-.14,5.09-.1,7.51-.24.51,1.78.35,4.73-2.12,4.91Zm.65-3.26a0,0,0,0,0,0,0,7.74,7.74,0,0,0-1.64.13v0c0,.45,0,1.08.34,1.43a.77.77,0,0,0,1.08-.22A1.56,1.56,0,0,0,647.31,876.49Z"/><path class="cls-23" d="M642.89,884.92a4.56,4.56,0,0,1-1.43-.06c0-1.48-.16-3.06-.07-4.47,2.53,0,5-.23,7.45-.15.12,1.69.23,4.51.16,4.51a9.9,9.9,0,0,1-1.54,0h0a22.23,22.23,0,0,1-.2-2.85v0h0a5.94,5.94,0,0,0-1.27,0h0c0,.44,0,.89,0,1.34h0a12.38,12.38,0,0,1-1.51.06c-.13-.45,0-1.17-.15-1.32a5.53,5.53,0,0,0-1.36,0h0c0,1,0,1.87,0,2.86Z"/><path class="cls-23" d="M643,890.26a4.55,4.55,0,0,1-1.43-.06c0-1.48-.16-3.06-.07-4.46,2.52-.06,5-.24,7.45-.16.12,1.69.23,4.51.16,4.51a10,10,0,0,1-1.55,0h0a24.53,24.53,0,0,1-.19-2.86v0h0a6,6,0,0,0-1.28,0h0c0,.44,0,.9,0,1.34h0a12.46,12.46,0,0,1-1.52.06c-.12-.45,0-1.17-.14-1.32a6.05,6.05,0,0,0-1.36,0h0c0,1,0,1.87,0,2.86Z"/><path class="cls-23" d="M646.79,895.44a2.78,2.78,0,0,1-.69.12,15.56,15.56,0,0,1-2.05-.11h0a7.87,7.87,0,0,1-2.34-1.34c-.05-1-.08-1.94-.1-2.86h0a69,69,0,0,1,7.47-.34l0,0a12.88,12.88,0,0,1,.17,2.63,2.09,2.09,0,0,1-.89,1.2A4.75,4.75,0,0,1,646.79,895.44Zm-1-1.37c.45-.1,1-.24,1.16-.73a2.83,2.83,0,0,0,0-.82v0h0c-.78.07-1.84,0-2.82.08-.14.17-.09.48,0,.74,0,.08,0,.12.07.2a1.14,1.14,0,0,0,.36.33A1.7,1.7,0,0,0,645.76,894.07Z"/><path class="cls-2" d="M811.3,869.06a2.46,2.46,0,0,0-2.48-2.43h-.27l-6,.07h-.27a2.46,2.46,0,0,0-2.42,2.49v.27L800,885h0l0,2.72.08,6.46v.27a2.46,2.46,0,0,0,2.49,2.42h.27l6-.07h.27a2.46,2.46,0,0,0,2.43-2.49V894l-.07-5.9h0l0-2.58v-.7h0l-.18-15.53Z"/><path class="cls-23" d="M804.71,889.4a3.9,3.9,0,0,1,0,1.63c-.8-.16-1.06,1.27-.24,1.37a.57.57,0,0,0,.29,0c.35-.12.42-.41.45-.72a2.64,2.64,0,0,1,1.1-1.9,2.29,2.29,0,0,1,2.34-.23,2.05,2.05,0,0,1,1.3,2.07c0,1.28-.79,2.68-2.18,2.62h-.06a13.42,13.42,0,0,1,0-1.67c.93-.08.91-1.67-.1-1.47-.69.1-.77,1-.88,1.58a1.53,1.53,0,0,1-.35.75,2.33,2.33,0,0,1-3.85-.64,3.32,3.32,0,0,1,.07-2.42,1.83,1.83,0,0,1,2.13-1Z"/><path class="cls-23" d="M804.42,883.76h.28a2.63,2.63,0,0,1,2.25,2.93c.41-.05.62,0,2.74-.11h0v0a6.41,6.41,0,0,1,.08,1.82c-2.11.14-5.08.1-7.5.24-.52-1.78-.35-4.73,2.11-4.91Zm-.65,3.26a0,0,0,0,0,0,0,7.64,7.64,0,0,0,1.63-.13v0c0-.45,0-1.09-.35-1.43a.76.76,0,0,0-1.07.22A1.53,1.53,0,0,0,803.77,887Z"/><path class="cls-23" d="M808.18,878.59a4.55,4.55,0,0,1,1.43.06c0,1.48.17,3.06.08,4.46-2.53.06-5,.24-7.45.16-.13-1.69-.23-4.51-.17-4.51a10,10,0,0,1,1.55,0h0a22.52,22.52,0,0,1,.19,2.86v0h0a6,6,0,0,0,1.28,0h0c0-.44,0-.89,0-1.34h0a12.46,12.46,0,0,1,1.52-.06c.13.45,0,1.17.15,1.32a5.54,5.54,0,0,0,1.36,0h0c0-1,0-1.87,0-2.86Z"/><path class="cls-23" d="M808.06,873.25a4.55,4.55,0,0,1,1.43.06c0,1.48.17,3.05.08,4.46-2.53.06-5,.24-7.45.16-.12-1.69-.23-4.51-.17-4.51a10.07,10.07,0,0,1,1.55,0h0a22.49,22.49,0,0,1,.2,2.85v0h0a5.94,5.94,0,0,0,1.27,0h0c0-.44,0-.9,0-1.34h0a10.59,10.59,0,0,1,1.51-.06c.13.45,0,1.17.15,1.32a6.09,6.09,0,0,0,1.36,0h0c0-1,.05-1.87,0-2.86Z"/><path class="cls-23" d="M804.29,868.07A2.32,2.32,0,0,1,805,868a13.86,13.86,0,0,1,2,.11h0a8,8,0,0,1,2.34,1.33c.05,1,.07,2,.09,2.87h0a71.52,71.52,0,0,1-7.47.34l0,0a12.73,12.73,0,0,1-.17-2.62,2.09,2.09,0,0,1,.89-1.2A4.81,4.81,0,0,1,804.29,868.07Zm1,1.37c-.44.1-1,.24-1.15.73a2.52,2.52,0,0,0,0,.82v0h0c.79-.07,1.85,0,2.82-.08.14-.17.09-.48.05-.74,0-.08,0-.12-.07-.2a1.1,1.1,0,0,0-.35-.33A1.73,1.73,0,0,0,805.31,869.44Z"/><path class="cls-29" d="M315.36,773.35l-5.37,4a2.31,2.31,0,0,0-.18,3.54l2.81,2.58a2.31,2.31,0,0,0,3.71-.86l2.55-6.61A2.3,2.3,0,0,0,315.36,773.35Z"/><rect class="cls-30" x="992" width="32" height="32"/><g class="cls-10"><path d="M321,5V151.59c-46.33,0-83.91,36.38-84.07,44.26v.05L235.3,213c-1.2,12.75-16.54,22.95-26.23,15.52s-30.16-18.38-57.22,27.74S0,318.87,0,318.87V5Z"/><path d="M321,5V151.59c46.33,0,83.91,36.38,84.07,44.26v.05l1.61,17.1c1.2,12.75,16.54,22.95,26.23,15.52s30.16-18.38,57.22,27.74S642,318.87,642,318.87V5Z"/></g><path class="cls-31" d="M321,0V146.59c-46.33,0-83.91,36.38-84.07,44.26v.05L235.3,208c-1.2,12.75-16.54,22.95-26.23,15.52s-30.16-18.38-57.22,27.74S0,313.87,0,313.87V0Z"/><path class="cls-31" d="M321,0V146.59c46.33,0,83.91,36.38,84.07,44.26v.05l1.61,17.1c1.2,12.75,16.54,22.95,26.23,15.52s30.16-18.38,57.22,27.74S642,313.87,642,313.87V0Z"/><path class="cls-31" d="M370.8,201.55a5,5,0,0,1-1.51-.23,52.12,52.12,0,0,0-15.05-2,5,5,0,0,1,0-10,62.27,62.27,0,0,1,18.06,2.45,5,5,0,0,1-1.5,9.77Z"/><path class="cls-31" d="M272.85,201.55a5,5,0,0,1-1.5-9.77,62.22,62.22,0,0,1,18.06-2.45,5,5,0,0,1,0,10,52.2,52.2,0,0,0-15.06,2A4.88,4.88,0,0,1,272.85,201.55Z"/><path class="cls-31" d="M354.78,209.56h0a7.09,7.09,0,0,1,7.09,7.09v14.61a0,0,0,0,1,0,0h-7.09a7.09,7.09,0,0,1-7.09-7.09v-7.52a7.09,7.09,0,0,1,7.09-7.09Z" transform="translate(134.37 575.19) rotate(-90)"/><path class="cls-31" d="M288.68,209.56h7.09a0,0,0,0,1,0,0v14.61a7.09,7.09,0,0,1-7.09,7.09h0a7.09,7.09,0,0,1-7.09-7.09v-7.52A7.09,7.09,0,0,1,288.68,209.56Z" transform="translate(68.27 509.1) rotate(-90)"/><rect class="cls-31" x="343.93" y="213.32" width="14.17" height="21.7" rx="7.09" ry="7.09"/><rect class="cls-31" x="285.36" y="213.32" width="14.17" height="21.7" rx="7.09" ry="7.09" transform="translate(584.89 448.34) rotate(180)"/><path class="cls-10" d="M331.27,241.63l-1.1-.18a53.09,53.09,0,0,0-16.69,0l-1.1.18a2.44,2.44,0,0,0-1.94,3.13c1.5,4.85,6,6.49,11.37,6.49h0c5.34,0,9.86-1.64,11.37-6.49A2.44,2.44,0,0,0,331.27,241.63Z"/><path class="cls-28" d="M335.12,259.62c-4.22,1.94-8.95,2-13.5,2s-9.28-.05-13.51-2c-2.16-1-4.71,1.07-3.54,3.29,2,3.79,8.51,7.19,17.05,7.18s15-3.39,17-7.18C339.84,260.69,337.29,258.6,335.12,259.62Z"/><rect class="cls-32" x="992" width="32" height="32"/></g></g></g></svg>