<svg xmlns="http://www.w3.org/2000/svg" xmlns:xlink="http://www.w3.org/1999/xlink" viewBox="0 0 1024 1024"><defs><style>.cls-1{isolation:isolate;}.cls-2{fill:#fff;}.cls-3{fill:#f7b889;}.cls-4{fill:#f8c79d;}.cls-5{opacity:0.1;mix-blend-mode:multiply;fill:url(#linear-gradient);}.cls-15,.cls-6{opacity:0.15;mix-blend-mode:overlay;}.cls-6{fill:url(#linear-gradient-2);}.cls-7{fill:#eb986d;}.cls-8{fill:red;}.cls-9{fill:#f47d36;}.cls-10{fill:#e54325;}.cls-11{fill:#141414;}.cls-12{fill:url(#linear-gradient-3);}.cls-13{fill:#252525;}.cls-14{fill:#d3eef4;}.cls-16{fill:#f69878;}.cls-17{fill:#f37b67;opacity:0.5;}.cls-18{fill:#202020;}.cls-19{fill:#e4783e;}.cls-20{fill:#373737;}.cls-21{fill:#f6a563;}.cls-22{fill:url(#linear-gradient-4);}.cls-23{fill:url(#linear-gradient-5);}.cls-24{fill:url(#linear-gradient-6);}.cls-25{fill:url(#linear-gradient-7);}.cls-26,.cls-30,.cls-31,.cls-32,.cls-33,.cls-34{fill:#1f1f1f;}.cls-27{font-size:22.11px;font-family:LondrinaSolid-Regular, Londrina Solid;}.cls-27,.cls-28{fill:#1a1a1a;}.cls-29{fill:#ccdde7;}.cls-30,.cls-31,.cls-32,.cls-33,.cls-34{stroke:#1f1f1f;stroke-miterlimit:10;}.cls-30{stroke-width:1.41px;}.cls-31{stroke-width:1.02px;}.cls-32{stroke-width:1.15px;}.cls-33{stroke-width:1.29px;}.cls-34{stroke-width:1.05px;}.cls-35{fill:lime;}.cls-36{fill:#220f0f;}.cls-37{fill:#f45151;}.cls-38{fill:#4d160e;}.cls-39{fill:blue;}</style><linearGradient id="linear-gradient" x1="321.5" y1="490" x2="321.5" y2="187.52" gradientUnits="userSpaceOnUse"><stop offset="0" stop-color="#f69878"/><stop offset="1" stop-color="#f69878" stop-opacity="0"/></linearGradient><linearGradient id="linear-gradient-2" x1="321.68" y1="286" x2="321.68" y2="431.12" gradientUnits="userSpaceOnUse"><stop offset="0"/><stop offset="1" stop-opacity="0"/></linearGradient><linearGradient id="linear-gradient-3" x1="819.81" y1="914.06" x2="819.81" y2="780.48" gradientUnits="userSpaceOnUse"><stop offset="0" stop-color="#e54325" stop-opacity="0"/><stop offset="0.28" stop-color="#e54325" stop-opacity="0.01"/><stop offset="0.42" stop-color="#e54325" stop-opacity="0.04"/><stop offset="0.53" stop-color="#e54325" stop-opacity="0.1"/><stop offset="0.62" stop-color="#e54325" stop-opacity="0.18"/><stop offset="0.71" stop-color="#e54325" stop-opacity="0.29"/><stop offset="0.79" stop-color="#e54325" stop-opacity="0.42"/><stop offset="0.86" stop-color="#e54325" stop-opacity="0.58"/><stop offset="0.93" stop-color="#e54325" stop-opacity="0.76"/><stop offset="0.99" stop-color="#e54325" stop-opacity="0.97"/><stop offset="1" stop-color="#e54325"/></linearGradient><linearGradient id="linear-gradient-4" x1="614.28" y1="748.71" x2="422.17" y2="748.71" xlink:href="#linear-gradient-3"/><linearGradient id="linear-gradient-5" x1="24.76" y1="748.71" x2="218.57" y2="748.71" xlink:href="#linear-gradient-3"/><linearGradient id="linear-gradient-6" x1="271.06" y1="741.83" x2="199.38" y2="741.83" xlink:href="#linear-gradient-2"/><linearGradient id="linear-gradient-7" x1="364.96" y1="741.83" x2="441.39" y2="741.83" xlink:href="#linear-gradient-2"/></defs><title>racerOrangeFemale</title><g class="cls-1"><g id="Layer_2" data-name="Layer 2"><g id="Layer_1-2" data-name="Layer 1"><rect class="cls-2" width="1024" height="1024"/><rect class="cls-3" x="624" y="524" width="400" height="240"/><rect class="cls-4" width="643" height="490"/><rect class="cls-5" y="139.59" width="643" height="350.41"/><rect class="cls-4" x="824" y="134" width="200" height="390"/><path class="cls-6" d="M366,299h0a89.81,89.81,0,0,0-19.13,2.07h0a89.33,89.33,0,0,1-19.14,2.07H315.59a89.26,89.26,0,0,1-19.14-2.07h0A89.81,89.81,0,0,0,277.32,299h0a43.74,43.74,0,0,0-33,15c-6.51,7.48-12.32,16.72-11.37,25.21l15.3,137,71.88,5.58,1.52-2.82,1.52,2.82,71.87-5.58,15.31-137c.95-8.49-4.86-17.73-11.38-25.21A43.71,43.71,0,0,0,366,299Z"/><path class="cls-7" d="M442.55,216.37h8.29a18.41,18.41,0,0,1,18.41,18.41v1.43a18.41,18.41,0,0,1-18.41,18.41h-8.29a0,0,0,0,1,0,0V216.37A0,0,0,0,1,442.55,216.37Z"/><path class="cls-4" d="M437.85,216.37h8.29a18.41,18.41,0,0,1,18.41,18.41v1.43a18.41,18.41,0,0,1-18.41,18.41h-8.29a0,0,0,0,1,0,0V216.37A0,0,0,0,1,437.85,216.37Z"/><ellipse class="cls-7" cx="451.21" cy="235.5" rx="7.93" ry="4.4" transform="translate(132.36 632.21) rotate(-78.77)"/><path class="cls-7" d="M173.56,216.37h8.29a18.41,18.41,0,0,1,18.41,18.41v1.43a18.41,18.41,0,0,1-18.41,18.41h-8.29a0,0,0,0,1,0,0V216.37A0,0,0,0,1,173.56,216.37Z" transform="translate(373.83 471) rotate(-180)"/><path class="cls-4" d="M178.26,216.37h8.29A18.41,18.41,0,0,1,205,234.78v1.43a18.41,18.41,0,0,1-18.41,18.41h-8.29a0,0,0,0,1,0,0V216.37A0,0,0,0,1,178.26,216.37Z" transform="translate(383.22 471) rotate(-180)"/><ellipse class="cls-7" cx="191.61" cy="235.5" rx="4.4" ry="7.93" transform="translate(-42.19 41.82) rotate(-11.23)"/><polygon class="cls-4" points="579.88 654.47 544.43 654.47 491.56 654.47 460 654.47 460 654.47 445.83 654.47 428.62 681.05 422.17 725.5 423.38 763.65 432.45 812.23 457.05 819.12 460 823.21 460 823.21 491.56 823.21 544.43 823.21 579.88 823.21 615.98 823.21 615.98 654.47 579.88 654.47"/><polygon class="cls-4" points="194.91 654.47 180.74 654.47 180.74 654.47 149.18 654.47 96.31 654.47 60.86 654.47 24.76 654.47 24.76 823.21 60.86 823.21 96.31 823.21 149.18 823.21 180.74 823.21 180.74 823.21 183.69 819.12 208.29 812.23 217.36 763.65 218.57 725.5 212.12 681.05 194.91 654.47"/><rect class="cls-4" x="624" y="864.49" width="400" height="159.51"/><rect class="cls-8" x="992" width="32" height="32"/><ellipse class="cls-4" cx="320.36" cy="746.08" rx="73.24" ry="132.26"/><rect class="cls-9" x="619.61" y="763.63" width="404.39" height="260.37"/><rect class="cls-10" x="631.59" y="912.37" width="383.62" height="40.99"/><rect class="cls-11" x="629.1" y="988.53" width="394.9" height="35.47"/><rect class="cls-10" x="629.1" y="987.53" width="394.9" height="6.96"/><rect class="cls-10" x="626.62" y="780.48" width="386.38" height="12.89"/><rect class="cls-12" x="626.62" y="780.48" width="386.38" height="133.58"/><rect class="cls-13" x="9.43" y="432.44" width="622.16" height="49.42"/><rect class="cls-10" x="9.43" y="432.44" width="622.16" height="4.64"/><rect class="cls-10" x="293.24" y="442.33" width="59.86" height="28.08" rx="2.43" ry="2.43"/><rect class="cls-14" x="268.16" y="447.02" width="46.4" height="18.71" rx="4.45" ry="4.45"/><rect class="cls-13" x="271.77" y="450.32" width="39.18" height="12.1" rx="1.92" ry="1.92"/><path class="cls-2" d="M538.38,459.7l4.26-10.76h-5.85l-5.64,14.21H547l1.38-3.45Z"/><path class="cls-2" d="M554,448.94l-5.64,14.21h5.82l5.64-14.21Z"/><path class="cls-2" d="M568.53,457.73h4.05l-.84,1.92a10.29,10.29,0,0,1-1.23.28A10.4,10.4,0,0,1,569,460a8.19,8.19,0,0,1-1.82-.19,5.32,5.32,0,0,1-1.5-.57,3,3,0,0,1-1-.95,2.34,2.34,0,0,1-.37-1.32,3.59,3.59,0,0,1,.52-1.86,5,5,0,0,1,1.47-1.55,7.8,7.8,0,0,1,2.25-1.05,10.12,10.12,0,0,1,2.9-.39,9.53,9.53,0,0,1,3,.42,8.89,8.89,0,0,1,2.21,1.05l3.9-2.56a7.67,7.67,0,0,0-1.38-.91,12.25,12.25,0,0,0-1.94-.77,18.09,18.09,0,0,0-2.46-.54,20.61,20.61,0,0,0-2.92-.2,20.4,20.4,0,0,0-5.48.69,15.06,15.06,0,0,0-4.27,1.87,9.2,9.2,0,0,0-2.77,2.71,5.85,5.85,0,0,0-1,3.24,4.61,4.61,0,0,0,.87,2.82,6.72,6.72,0,0,0,2.31,1.95,12,12,0,0,0,3.25,1.14,19,19,0,0,0,3.71.36,21.59,21.59,0,0,0,4.32-.4,21.33,21.33,0,0,0,3.54-1l3-7.17h-9.63Z"/><path class="cls-2" d="M596.64,448.94l-2.1,5.32h-7.41l2.13-5.32h-5.85l-5.64,14.21h5.85l2.13-5.4h7.41l-2.16,5.4h5.85l5.64-14.21Z"/><path class="cls-2" d="M603.24,448.94l-1.38,3.45h6.3l-4.29,10.76h5.85L614,452.39h6.3l1.35-3.45Z"/><path class="cls-2" d="M633.66,456a9,9,0,0,0-1.73-.82c-.67-.24-1.4-.47-2.2-.67s-1.31-.35-1.77-.49a10.82,10.82,0,0,1-1.07-.36,1.74,1.74,0,0,1-.52-.32.5.5,0,0,1-.15-.37c0-.29.2-.53.61-.72a3.84,3.84,0,0,1,1.67-.3,9.76,9.76,0,0,1,3,.43,12.08,12.08,0,0,1,2.57,1.13l3.6-2.72a13.06,13.06,0,0,0-3.68-1.54,19.25,19.25,0,0,0-4.93-.57,16.58,16.58,0,0,0-3.56.36,10.71,10.71,0,0,0-2.82,1,5.64,5.64,0,0,0-1.86,1.54,3.13,3.13,0,0,0-.67,1.94,2.49,2.49,0,0,0,.39,1.39,3.63,3.63,0,0,0,1.09,1,7.56,7.56,0,0,0,1.71.81c.67.24,1.43.47,2.27.68s1.33.36,1.78.5a9.21,9.21,0,0,1,1.07.39,1.36,1.36,0,0,1,.52.34.62.62,0,0,1,.14.38c0,.32-.22.58-.66.77a4.36,4.36,0,0,1-1.71.28,12,12,0,0,1-6.48-1.93l-3.75,2.62a12.71,12.71,0,0,0,4.18,1.92,21.19,21.19,0,0,0,5.57.68,17.66,17.66,0,0,0,3.6-.35,10.65,10.65,0,0,0,2.83-1,5.62,5.62,0,0,0,1.85-1.55,3.38,3.38,0,0,0,.66-2,2.45,2.45,0,0,0-.41-1.4A3.71,3.71,0,0,0,633.66,456Z"/><path class="cls-2" d="M654.38,450.44a8,8,0,0,0-2.88-1.14,21.68,21.68,0,0,0-4.31-.36h-6.87l-5.65,14.21h5.86l1.62-4.08h3.44a20.73,20.73,0,0,0,4.27-.4,11.68,11.68,0,0,0,3.28-1.14,6.15,6.15,0,0,0,2.13-1.8,4,4,0,0,0,.77-2.39A3.38,3.38,0,0,0,654.38,450.44Zm-5.5,5a7.53,7.53,0,0,1-3.34.6h-2.2l1.48-3.76H647a4.53,4.53,0,0,1,2.48.55,1.18,1.18,0,0,1,.61,1A1.82,1.82,0,0,1,648.88,455.4Z"/><path class="cls-2" d="M674.46,452.29l1.35-3.35H659l-5.65,14.21h17l1.32-3.35H660.42l.9-2.26h10l1.24-3.1h-10l.88-2.15Z"/><path class="cls-2" d="M693,452.29l1.36-3.35H677.54l-5.64,14.21h17l1.33-3.35H679l.9-2.26h10l1.23-3.1h-10l.87-2.15Z"/><path class="cls-2" d="M711.12,450.76a10.46,10.46,0,0,0-3.19-1.32,21.2,21.2,0,0,0-5-.5h-6.77l-5.65,14.21h8.46a27.46,27.46,0,0,0,6.4-.67,14.56,14.56,0,0,0,4.62-2,8.79,8.79,0,0,0,2.58-2.58,5.8,5.8,0,0,0,.86-3A4.81,4.81,0,0,0,711.12,450.76ZM707,456.87a4.47,4.47,0,0,1-1.33,1.34,7.6,7.6,0,0,1-2.61,1.08,15,15,0,0,1-3.39.37h-1.91l2.87-7.23h1.68a11.73,11.73,0,0,1,2.53.23,5,5,0,0,1,1.59.64,2.75,2.75,0,0,1,.78.82,2.39,2.39,0,0,1,.26,1.13A3.07,3.07,0,0,1,707,456.87Z"/><path class="cls-2" d="M4.9,448.94l-2.1,5.32H0v3.49H1.42L0,461.3v1.85H5.11l5.64-14.21Z"/><path class="cls-2" d="M11.5,448.94l-1.38,3.45h6.3l-4.29,10.76H18l4.26-10.76h6.3l1.35-3.45Z"/><path class="cls-2" d="M41.92,456a8.9,8.9,0,0,0-1.72-.82c-.68-.24-1.41-.47-2.21-.67s-1.31-.35-1.77-.49a10.48,10.48,0,0,1-1.06-.36,1.82,1.82,0,0,1-.53-.32.5.5,0,0,1-.15-.37c0-.29.2-.53.61-.72a3.87,3.87,0,0,1,1.67-.3,9.87,9.87,0,0,1,3,.43,12,12,0,0,1,2.56,1.13l3.6-2.72a13,13,0,0,0-3.67-1.54,19.38,19.38,0,0,0-4.94-.57,16.42,16.42,0,0,0-3.55.36,10.78,10.78,0,0,0-2.83,1,5.6,5.6,0,0,0-1.85,1.54,3.14,3.14,0,0,0-.68,1.94,2.49,2.49,0,0,0,.39,1.39,3.68,3.68,0,0,0,1.1,1,7.47,7.47,0,0,0,1.7.81c.67.24,1.43.47,2.27.68s1.34.36,1.78.5a9.21,9.21,0,0,1,1.07.39,1.51,1.51,0,0,1,.53.34.6.6,0,0,1,.13.38c0,.32-.22.58-.66.77a4.36,4.36,0,0,1-1.71.28,12,12,0,0,1-6.48-1.93l-3.75,2.62A12.67,12.67,0,0,0,29,462.71a21.06,21.06,0,0,0,5.56.68,17.59,17.59,0,0,0,3.6-.35A10.72,10.72,0,0,0,41,462a5.48,5.48,0,0,0,1.84-1.55,3.31,3.31,0,0,0,.66-2,2.38,2.38,0,0,0-.41-1.4A3.6,3.6,0,0,0,41.92,456Z"/><path class="cls-2" d="M62.65,450.44a8.07,8.07,0,0,0-2.88-1.14,21.79,21.79,0,0,0-4.32-.36H48.58l-5.64,14.21h5.85l1.62-4.08h3.45a20.7,20.7,0,0,0,4.26-.4,11.75,11.75,0,0,0,3.29-1.14,6.34,6.34,0,0,0,2.13-1.8,4.07,4.07,0,0,0,.76-2.39A3.37,3.37,0,0,0,62.65,450.44Zm-5.51,5a7.53,7.53,0,0,1-3.34.6H51.61l1.47-3.76h2.16a4.55,4.55,0,0,1,2.49.55,1.19,1.19,0,0,1,.6,1A1.82,1.82,0,0,1,57.14,455.4Z"/><path class="cls-2" d="M82.72,452.29l1.35-3.35H67.24L61.6,463.15h17l1.32-3.35H68.68l.9-2.26h10l1.23-3.1h-10l.87-2.15Z"/><path class="cls-2" d="M101.29,452.29l1.35-3.35H85.81l-5.64,14.21h17l1.32-3.35H87.25l.9-2.26h10l1.23-3.1h-10l.87-2.15Z"/><path class="cls-2" d="M119.38,450.76a10.28,10.28,0,0,0-3.18-1.32,21.26,21.26,0,0,0-5-.5h-6.78l-5.64,14.21h8.46a27.37,27.37,0,0,0,6.39-.67,14.37,14.37,0,0,0,4.62-2,8.55,8.55,0,0,0,2.58-2.58,5.72,5.72,0,0,0,.87-3A4.79,4.79,0,0,0,119.38,450.76Zm-4.17,6.11a4.32,4.32,0,0,1-1.32,1.34,7.6,7.6,0,0,1-2.61,1.08,15,15,0,0,1-3.39.37H106l2.88-7.23h1.68a11.63,11.63,0,0,1,2.52.23,4.92,4.92,0,0,1,1.59.64,2.52,2.52,0,0,1,.78.82,2.28,2.28,0,0,1,.27,1.13A3,3,0,0,1,115.21,456.87Z"/><g class="cls-15"><rect x="164.96" y="654.47" width="7.84" height="188.74" transform="translate(337.77 1497.67) rotate(-180)"/><rect x="467.85" y="654.47" width="7.84" height="188.74" transform="translate(943.55 1497.67) rotate(-180)"/></g><path class="cls-16" d="M366.51,745.37c0,31.64-20.33,85.91-45.4,85.91S275.7,777,275.7,745.37,296,717,321.11,717,366.51,713.74,366.51,745.37Z"/><path class="cls-17" d="M364.05,767.18c-6.13,29.92-23,64.1-42.94,64.1s-36.82-34.18-42.95-64.1c7.67,27.58,24,55.75,42.95,55.75S356.38,794.76,364.05,767.18Z"/><rect class="cls-9" y="507.74" width="624" height="489.56"/><rect class="cls-18" x="705.4" y="548.73" width="285.42" height="178.39"/><rect class="cls-11" x="826.55" y="145.1" width="182.54" height="366.9"/><rect class="cls-19" x="656" y="34.77" width="316.94" height="92.48"/><rect class="cls-11" x="643" y="145.1" width="183.55" height="366.9"/><rect class="cls-20" x="697.98" y="376.04" width="56.45" height="27.03" rx="9.24" ry="9.24"/><rect class="cls-20" x="697.98" y="200.52" width="56.45" height="27.03" rx="9.24" ry="9.24"/><path class="cls-21" d="M703.84,500.28l-59.29-19V324.8h18.5L663.1,353c0,.11,0,.21,0,.32L664.54,369a3.85,3.85,0,0,0,.08.47l6,26.1a1.05,1.05,0,0,0,.05.19l4,13.8c0,.11.07.23.11.34l11.5,28.5L694.39,458a28.55,28.55,0,0,0,6.24,9.36l.59.59A28.61,28.61,0,0,0,715,475.57l4.78,1.11a28.41,28.41,0,0,0,6.49.75,28.89,28.89,0,0,0,4.55-.37l6-1a28.71,28.71,0,0,0,22.35-18.33L771.06,426l11.26-31.08,18.46-49.12a3.55,3.55,0,0,0,.23-1.2l.11-13.64v-.16l-.43-11.6L821,322.58V355l-14.44,98-12.27,47.19Z"/><path class="cls-11" d="M804.34,323.36l13.19,2.19v29.24l-14.37,97.6-11.54,44.39H704.39l-56.34-18.1V328.31h11.51l0,24.67c0,.21,0,.41,0,.62l1.43,15.67a7.21,7.21,0,0,0,.15.93l6,26.11.09.38,4,13.8c.07.22.15.45.24.67l11.49,28.5,0,0,8.08,19.59a32.17,32.17,0,0,0,7,10.49l.59.59a32.12,32.12,0,0,0,15.5,8.6l4.78,1.11a31.89,31.89,0,0,0,7.28.84,32.31,32.31,0,0,0,5.11-.41l6-1A32.21,32.21,0,0,0,762.51,459l11.83-31.77,0-.06,11.23-31L804.06,347a7,7,0,0,0,.45-2.4l.11-13.64v-.32l-.28-7.32m-7.31-8.3.59,15.88-.11,13.64L779,393.74l-11.25,31.05L756,456.55a25.23,25.23,0,0,1-19.62,16.09l-6,1a25.49,25.49,0,0,1-4,.32,25,25,0,0,1-5.7-.66l-4.78-1.11a25.16,25.16,0,0,1-12.13-6.73l-.59-.59a25.08,25.08,0,0,1-5.47-8.21L689.55,437l-11.5-28.5-4-13.8-6-26.11L666.6,353l-.05-31.66h-25.5V483.78l62.24,20H797l13-50,14.5-98.48V319.61L797,315.06Z"/><path class="cls-21" d="M703.84,324.81l-59.29-19.05V145.34h18.5l.05,32.16c0,.11,0,.21,0,.32l1.43,15.67a3.69,3.69,0,0,0,.08.46l6,26.11a1.8,1.8,0,0,0,.05.19l4,13.79a3.38,3.38,0,0,0,.11.34l11.5,28.5,8.09,19.62a28.61,28.61,0,0,0,6.24,9.35l.59.59A28.71,28.71,0,0,0,715,300.11l4.78,1.11a28.87,28.87,0,0,0,11,.38l6-1a28.72,28.72,0,0,0,22.35-18.32l11.83-31.77,11.26-31.08,18.7-49.1a3.61,3.61,0,0,0,.22-1.22l.12-13.64a1.48,1.48,0,0,0,0-.21l-.6-11.54L821,147.11v32.47l-14.44,98-12.27,47.19Z"/><path class="cls-11" d="M804.47,147.92l13.06,2.16v29.24l-14.37,97.6-11.54,44.39H704.39l-56.34-18.1V148.84h11.51l0,28.67q0,.31,0,.63l1.43,15.66a7.36,7.36,0,0,0,.15.94l6,26.1.09.38,4,13.8c.07.23.15.45.24.67l11.49,28.5,0,.05,8.08,19.59a32.21,32.21,0,0,0,7,10.5l.59.59a32.28,32.28,0,0,0,15.5,8.6l4.78,1.11a32.22,32.22,0,0,0,12.39.42l6-1a32.2,32.2,0,0,0,25.07-20.56l11.83-31.76,0-.06,11.22-31,18.7-49.11a7,7,0,0,0,.45-2.43l.12-13.64c0-.14,0-.28,0-.42l-.38-7.19M797,139.59l.83,15.88-.12,13.64L779,218.27l-11.25,31L756,281.09a25.15,25.15,0,0,1-7.8,10.82h0a25.15,25.15,0,0,1-11.82,5.26l-6,1a25.25,25.25,0,0,1-9.7-.33l-4.78-1.11A25.32,25.32,0,0,1,703.69,290l-.59-.59a25,25,0,0,1-5.47-8.22l-8.08-19.59-11.5-28.5-4-13.8-6-26.1L666.6,177.5l-.05-35.65h-25.5V308.31l62.24,20H797l13-50,14.5-98.49V144.14L797,139.59Z"/><polygon class="cls-22" points="614.28 654.21 459.65 654.21 459.65 654.47 445.83 654.47 428.62 681.05 422.17 725.5 423.38 763.65 432.45 812.23 457.05 819.12 460 843.21 460 843.21 485.19 843.21 485.19 828.99 614.28 828.99 614.28 654.21"/><rect class="cls-10" x="267.94" y="804.02" width="27.27" height="15.91"/><rect class="cls-10" x="267.94" y="824.12" width="27.27" height="15.91"/><polygon class="cls-23" points="212.12 681.05 194.91 654.47 180.74 654.47 180.74 654.47 179.38 654.47 179.38 654.21 24.76 654.21 24.76 828.99 155.55 828.99 155.55 843.21 180.74 843.21 180.74 843.21 183.69 819.12 208.29 812.23 217.36 763.65 218.57 725.5 212.12 681.05"/><rect class="cls-10" x="316.99" y="758.52" width="4.12" height="209.85"/><rect class="cls-10" x="282.99" y="561.2" width="78.37" height="15.83" rx="5.23" ry="5.23"/><rect class="cls-10" x="282.99" y="540.41" width="78.37" height="15.83" rx="5.23" ry="5.23"/><rect class="cls-10" y="490" width="624" height="17.74"/><polygon class="cls-2" points="295.29 902.33 270.4 903.61 280.34 875.45 314 870.72 312.12 873.68 351.58 870.67 346.3 889.22 358.36 886.27 357.88 888.19 372.78 886.31 359.44 910.85 336.35 912.24 337.46 913.37 288.64 917.83 295.29 902.33"/><path class="cls-2" d="M349.55,872.33l-5.4,19,12.16-3L355.9,890l14.17-1.78L358.52,909.4,333,910.94l1.21,1.23L291,916.11l6.61-15.4L272.56,902l8.89-25.2L311,872.66l-1.74,2.74,40.3-3.07M317,868.79l-6.43.9L281,873.83l-1.81.26-.6,1.72L269.73,901l-1.49,4.22,4.48-.23L293,904l-4.7,11-2,4.63,5-.46,43.15-3.94,6.31-.57-1-1,19-1.15,1.66-.1.79-1.46L372.7,889.6l2.8-5.14-5.81.73-9.83,1.24.55-2.2-4.82,1.17-7.14,1.75,4-14,1.18-4.14-4.29.32L315,872l2-3.17Z"/><polygon class="cls-24" points="218.57 725.5 217.36 763.65 214 781.65 199.65 743.38 215.16 702.01 218.57 725.5"/><polygon class="cls-25" points="441.09 743.38 426.74 781.65 423.38 763.65 422.17 725.5 425.58 702.01 441.09 743.38"/><rect class="cls-26" x="281.99" y="581.96" width="78.37" height="84.47" rx="9.59" ry="9.59"/><path class="cls-2" d="M349.45,601.78h-2l1.44-5.38h-3.38l.46-1.72h5.37Z"/><path class="cls-2" d="M343.65,601.78h-2l1.91-7.1h2Z"/><path class="cls-2" d="M338.76,594.54a4.46,4.46,0,0,1,1.26.18,3.21,3.21,0,0,1,1.1.57,3,3,0,0,1,.78,1,3.19,3.19,0,0,1,.29,1.41,4.08,4.08,0,0,1-1.27,3,4.33,4.33,0,0,1-1.44.94,4.84,4.84,0,0,1-1.85.34,4.49,4.49,0,0,1-1-.1,4.26,4.26,0,0,1-.83-.27,3,3,0,0,1-.66-.39,2.19,2.19,0,0,1-.46-.45l1.32-1.27a2.66,2.66,0,0,0,.74.52,2.28,2.28,0,0,0,1,.21,2.42,2.42,0,0,0,1-.2,2.39,2.39,0,0,0,.76-.52,2.49,2.49,0,0,0,.5-.77,2.69,2.69,0,0,0,.17-.93,1.69,1.69,0,0,0-.12-.66,1.42,1.42,0,0,0-.35-.48,1.44,1.44,0,0,0-.5-.28,1.83,1.83,0,0,0-.62-.1,2.24,2.24,0,0,0-.94.2l-.29,1h1.37l-.37,1.44h-3.26l1-3.58a6.18,6.18,0,0,1,1.19-.51A5.26,5.26,0,0,1,338.76,594.54Z"/><path class="cls-2" d="M333.69,601.78h-2l.72-2.66h-2.51l-.71,2.66h-2l1.91-7.1h2l-.73,2.7h2.5l.72-2.7h2Z"/><path class="cls-2" d="M325.33,600.05h2.13l-.47,1.73h-6.21l.45-1.73h2.13l1.44-5.37h2Z"/><path class="cls-2" d="M319.21,594.56a4.85,4.85,0,0,1,1.88.34,3.8,3.8,0,0,1,1.42,1l-1.27,1.3a3.19,3.19,0,0,0-2.19-1,1.13,1.13,0,0,0-.58.14.47.47,0,0,0-.22.39.41.41,0,0,0,.05.19.67.67,0,0,0,.17.17,2.85,2.85,0,0,0,.36.19l.61.25a6.86,6.86,0,0,1,.76.34,2.58,2.58,0,0,1,.58.4,1.75,1.75,0,0,1,.37.53,1.6,1.6,0,0,1,.13.69,2,2,0,0,1-.23,1,2.42,2.42,0,0,1-.62.77,3.1,3.1,0,0,1-1,.49,3.87,3.87,0,0,1-1.2.18,4.57,4.57,0,0,1-1.67-.28,3.89,3.89,0,0,1-1.24-.77l1.22-1.36a3.84,3.84,0,0,0,.86.56,2.29,2.29,0,0,0,1,.22,1,1,0,0,0,.57-.15.45.45,0,0,0,.2-.36.3.3,0,0,0-.05-.19.52.52,0,0,0-.17-.15,2.85,2.85,0,0,0-.36-.19L318,599a6.5,6.5,0,0,1-.75-.33,2.88,2.88,0,0,1-.58-.42,1.56,1.56,0,0,1-.38-.53,1.68,1.68,0,0,1-.14-.7,2.36,2.36,0,0,1,.22-1,2.23,2.23,0,0,1,.63-.77,2.66,2.66,0,0,1,1-.5A3.89,3.89,0,0,1,319.21,594.56Z"/><path class="cls-2" d="M314.46,601.78h-2.32a5,5,0,0,1-1.46-.18,2.49,2.49,0,0,1-1-.57,2,2,0,0,1-.56-1.45,2.7,2.7,0,0,1,.26-1.19,2.67,2.67,0,0,1,.72-.91,3.41,3.41,0,0,1,1.11-.56,4.73,4.73,0,0,1,1.44-.2h1.17l.55-2h2Zm-1.77-3.53a1.87,1.87,0,0,0-1.13.3,1,1,0,0,0-.4.81.65.65,0,0,0,.21.49,1.15,1.15,0,0,0,.84.28h.73l.49-1.88Z"/><path class="cls-2" d="M308.15,601.78h-5.69l.46-1.67h3.73l.29-1.08h-3.38l.41-1.55h3.39l.3-1.13h-3.79l.45-1.67h5.74Z"/><path class="cls-2" d="M301.87,601.78h-5.69l.46-1.67h3.73l.3-1.08h-3.39l.42-1.55h3.38l.31-1.13h-3.8l.45-1.67h5.74Z"/><path class="cls-2" d="M295.6,601.78h-2.29a5.15,5.15,0,0,1-1.71-.25,3,3,0,0,1-1.07-.66,2.8,2.8,0,0,1-.77-2.08,3.8,3.8,0,0,1,.29-1.51,4,4,0,0,1,.87-1.29,4.32,4.32,0,0,1,1.56-1,6.45,6.45,0,0,1,2.16-.33h2.86Zm-1.19-5.36a3.6,3.6,0,0,0-1.15.19,2.36,2.36,0,0,0-.88.53,2,2,0,0,0-.44.67,2.06,2.06,0,0,0-.17.81,1.62,1.62,0,0,0,.09.57,1.27,1.27,0,0,0,.27.41,1.41,1.41,0,0,0,.54.32,2.54,2.54,0,0,0,.85.11h.57l1-3.61Z"/><path class="cls-2" d="M341.07,623.28v-.06c0-.06-.07-.18-.07-.24-.3-3-2-4-3.88-3.58-5.73,1-5.3,10.35-.43,11.83,4.19.62,9.8-.31,13.31,0,.06,0,.12,0,.12.06,0,8.2.13,13.56.13,21.26h-.07c-.8,0-24.64.62-26.24.37-.25-.18.18-8.93.18-9.12,1.79-.24,15.34-.43,16.82-.43H341v-.18c0-.07-.06-.13-.06-.19-.18-.68-.06-1.6-.37-2.09l-.06-.07-.06-.06h-.06a17.7,17.7,0,0,1-6.47.13c-9.92-1.48-11.71-13.31-10.42-23,2.47-11.46,26.93-12.5,26.68,1.36a19.16,19.16,0,0,1-.37,3.57V623Z"/><path class="cls-2" d="M310.51,623.28v-.06c0-.06-.06-.18-.06-.24-.31-3-2-4-3.88-3.58-5.74,1-5.3,10.35-.44,11.83,4.19.62,9.8-.31,13.31,0,.06,0,.13,0,.13.06,0,8.2.12,13.56.12,21.26h-.06c-.8,0-24.65.62-26.25.37-.25-.18.18-8.93.18-9.12,1.79-.24,15.35-.43,16.83-.43h.06v-.18c0-.07-.06-.13-.06-.19-.19-.68-.07-1.6-.37-2.09l-.07-.07-.06-.06h-.06a17.7,17.7,0,0,1-6.47.13c-9.92-1.48-11.71-13.31-10.41-23,2.46-11.46,26.92-12.5,26.68,1.36a20,20,0,0,1-.37,3.57V623Z"/><rect class="cls-13" x="594.67" y="650.26" width="19.61" height="178.73"/><rect class="cls-13" x="24.76" y="650.26" width="22.05" height="178.73"/><path class="cls-26" d="M413.88,742.18h20.63a16.33,16.33,0,0,1,16.33,16.33v0a16.33,16.33,0,0,1-16.33,16.33H413.88a0,0,0,0,1,0,0V742.18a0,0,0,0,1,0,0Z" transform="translate(864.72 1517.03) rotate(180)"/><circle class="cls-2" cx="430.21" cy="758.52" r="12.94"/><polygon class="cls-26" points="421.78 760.5 431.33 763.63 431.33 759.74 440.93 761.3 427.46 753.41 427.46 756.49 421.78 754.48 421.78 760.5"/><rect class="cls-9" x="456.66" y="742.18" width="11.64" height="32.52"/><rect class="cls-9" x="192.6" y="722.58" width="11.64" height="32.52" transform="translate(396.83 1477.67) rotate(-180)"/><rect class="cls-9" x="174.7" y="722.58" width="11.64" height="32.52" transform="translate(361.04 1477.67) rotate(-180)"/><rect class="cls-2" x="350.84" y="823.09" width="28.12" height="30.31" rx="3.44" ry="3.44" transform="translate(796.01 1644.45) rotate(175.39)"/><text class="cls-27" transform="translate(353.97 844.09) rotate(-4.61)">55</text><rect class="cls-28" x="355.6" y="845.86" width="20.46" height="2.19" transform="translate(798.55 1661.77) rotate(175.39)"/><path class="cls-2" d="M375.23,805.25a2.71,2.71,0,0,0,2.3-3.06l0-.29-.93-6.54,0-.29a2.71,2.71,0,0,0-3.06-2.3l-.29,0-16.93,2.41h0l-3,.43-7,1-.29,0a2.69,2.69,0,0,0-2.29,3.06l0,.29.93,6.54,0,.29a2.7,2.7,0,0,0,3.06,2.29l.29,0,6.43-.91h0l2.82-.4.75-.11h0l16.93-2.41Z"/><path class="cls-26" d="M352.17,801a4.31,4.31,0,0,1-1.78.26c.06-.9-1.53-1-1.53-.07a.72.72,0,0,0,.05.32.82.82,0,0,0,.85.39,2.94,2.94,0,0,1,2.24.93,2.52,2.52,0,0,1,.58,2.52A2.28,2.28,0,0,1,350.5,807c-1.39.17-3-.49-3.17-2v-.07a17,17,0,0,1,1.81-.29c.22,1,1.95.76,1.59-.31-.21-.75-1.16-.71-1.85-.74a1.69,1.69,0,0,1-.86-.28,2.56,2.56,0,0,1,.14-4.29,3.63,3.63,0,0,1,2.65-.27,2,2,0,0,1,1.38,2.19Z"/><path class="cls-26" d="M358.29,799.82c0,.11,0,.21,0,.31a2.9,2.9,0,0,1-2.87,2.88c.1.43.09.68.5,3h0l0,0a7.93,7.93,0,0,1-2,.35c-.45-2.29-.84-5.54-1.34-8.16,1.88-.82,5.12-1.06,5.67,1.61Zm-3.66-.24h0a8.24,8.24,0,0,0,.38,1.77h0c.5-.11,1.2-.14,1.52-.58a.83.83,0,0,0-.4-1.14A1.68,1.68,0,0,0,354.63,799.58Z"/><path class="cls-26" d="M364.46,803.2a4.89,4.89,0,0,1,.14,1.56c-1.61.24-3.31.62-4.86.72-.42-2.75-1-5.37-1.23-8.11,1.82-.37,4.89-.89,4.9-.82a12.2,12.2,0,0,1,.26,1.68v0a24.12,24.12,0,0,1-3.09.61h0a6.84,6.84,0,0,0,.22,1.39h0c.48,0,1-.13,1.47-.19h0a13.5,13.5,0,0,1,.28,1.65c-.47.2-1.27.19-1.42.35a6.12,6.12,0,0,0,.23,1.48h0c1-.16,2-.22,3.12-.42Z"/><path class="cls-26" d="M370.27,802.31a4.93,4.93,0,0,1,.15,1.57c-1.62.23-3.32.61-4.87.72-.42-2.76-1-5.38-1.23-8.12,1.83-.37,4.89-.89,4.9-.82a12.11,12.11,0,0,1,.26,1.69h0a24,24,0,0,1-3.08.61h0a6.84,6.84,0,0,0,.22,1.39h0c.48,0,1-.13,1.46-.19h0a11.82,11.82,0,0,1,.28,1.65c-.47.2-1.27.19-1.42.35a6.56,6.56,0,0,0,.23,1.48h0c1.05-.16,2-.22,3.12-.42Z"/><path class="cls-26" d="M375.39,797.45a2.78,2.78,0,0,1,.22.73,15.62,15.62,0,0,1,.18,2.25s0,0,0,0a8.56,8.56,0,0,1-1.12,2.74c-1,.2-2.12.36-3.11.52h0a76,76,0,0,1-1.44-8.1l0-.06A14.4,14.4,0,0,1,373,795a2.36,2.36,0,0,1,1.45.79A5.64,5.64,0,0,1,375.39,797.45ZM374,798.76c-.17-.47-.4-1-1-1.15a2.49,2.49,0,0,0-.89.15h0v0c.19.84.27,2,.49,3.07.2.12.54,0,.82-.06.09,0,.12-.05.2-.1a1.27,1.27,0,0,0,.31-.43A1.88,1.88,0,0,0,374,798.76Z"/><path class="cls-10" d="M673.11,887.48a2.46,2.46,0,0,0,2.46-2.46v-6.53a2.46,2.46,0,0,0-2.46-2.46H647.86a2.46,2.46,0,0,0-2.46,2.46V885a2.46,2.46,0,0,0,2.46,2.46h25.25Z"/><path class="cls-2" d="M653.39,885.89c-.3,0-.79.08-4.3.06v-.2c.09-3.27,0-4.41-.05-7.47a3.46,3.46,0,0,1,1.75,0c0,1.89.08,4,.07,5.9h0c.28-.09,2.47.08,2.82,0a1.85,1.85,0,0,1,0,.24,3.16,3.16,0,0,0,0,.43C653.73,885.94,653.7,885.89,653.39,885.89Z"/><path class="cls-2" d="M656.12,878.21v0c0,2.49-.1,5.09.06,7.56-.23.24-1.67,0-2,.12.18-2.63-.23-5.29,0-7.74v0c.08,0,.35,0,.45,0,.26,0,.54,0,1.2,0Z"/><path class="cls-2" d="M661.33,882h0a8.81,8.81,0,0,1,0,2.46,1.44,1.44,0,0,1-1,1.31,3.74,3.74,0,0,1-2.31.1,1.77,1.77,0,0,1-1-1.28c0-.16-.1-.47-.14-.76a17.6,17.6,0,0,1-.13-2.49,11.44,11.44,0,0,1,.09-1.43,1.79,1.79,0,0,1,.63-1.26,2,2,0,0,1,1.06-.41c1.62-.23,3,.56,2.81,2.34v.07s-.12,0-.35,0a5.81,5.81,0,0,1-1,0c-.09-.29-.33-.9-.75-.89-.25,0-.49,0-.67.12a1.06,1.06,0,0,0-.11.3,10.7,10.7,0,0,0-.14,3.14,1.45,1.45,0,0,0,.37,1,.88.88,0,0,0,.26.1,1.44,1.44,0,0,0,.67-.11.53.53,0,0,0,.33-.39c0-.12.1-.62,0-.66s-.67,0-.81,0c-.06-.47,0-.64,0-1.14h0s0,0,0,0l0,0A7.32,7.32,0,0,1,661.33,882Z"/><path class="cls-2" d="M666.86,885.69c-.5.09-1.16,0-1.52.08h0c-.15-1-.06-2.07-.19-3h0a3,3,0,0,0-1.26,0c-.08,1,.1,2,0,2.92-.35.21-1.22-.06-1.48.08-.1-1.23-.25-5.37-.23-7.59h0c.43.08,1-.1,1.38,0,.14,1,.07,1.93.26,2.86h0a4.24,4.24,0,0,0,1.18,0h0a20.83,20.83,0,0,0,0-2.85,4.85,4.85,0,0,1,1.49-.13Z"/><path class="cls-2" d="M671.87,879.82a6.57,6.57,0,0,0-1.32,0h0v0c0,.21,0,1,.11,5.76h0c-.53.09-1.26,0-1.78.1,0-.13.08-1.75-.14-5.81h0c-.34-.17-1.13-.06-1.31-.12a8.31,8.31,0,0,1-.06-1.71v0a41.56,41.56,0,0,1,4.6,0A8.73,8.73,0,0,1,671.87,879.82Z"/><path class="cls-10" d="M805.33,887.48a2.46,2.46,0,0,0,2.45-2.46v-6.53a2.46,2.46,0,0,0-2.45-2.46H780.07a2.46,2.46,0,0,0-2.45,2.46V885a2.46,2.46,0,0,0,2.45,2.46h25.26Z"/><path class="cls-2" d="M784.59,880.74a3.94,3.94,0,0,1-1.64,0c.17-.79-1.25-1.07-1.36-.25a.71.71,0,0,0,0,.29c.12.35.41.42.71.46a2.65,2.65,0,0,1,1.9,1.13,2.28,2.28,0,0,1,.2,2.34,2.07,2.07,0,0,1-2.09,1.27c-1.28,0-2.67-.82-2.6-2.21v-.06a15.65,15.65,0,0,1,1.67,0c.07.93,1.66.93,1.47-.08-.09-.7-1-.79-1.57-.9a1.61,1.61,0,0,1-.74-.36,2.33,2.33,0,0,1,.68-3.84,3.27,3.27,0,0,1,2.42.09,1.85,1.85,0,0,1,1,2.15Z"/><path class="cls-2" d="M790.23,880.51a2.53,2.53,0,0,1,0,.28,2.62,2.62,0,0,1-3,2.22c0,.4,0,.62.07,2.73h0l0,0a6.81,6.81,0,0,1-1.82.06c-.11-2.11,0-5.09-.15-7.51,1.79-.49,4.74-.3,4.89,2.18Zm-3.25-.69h0a8.58,8.58,0,0,0,.11,1.64h0c.46,0,1.09,0,1.44-.34a.75.75,0,0,0-.21-1.07A1.54,1.54,0,0,0,787,879.82Z"/><path class="cls-2" d="M795.35,884.33a4.54,4.54,0,0,1-.07,1.43c-1.48,0-3.06.13-4.47,0,0-2.52-.18-4.95-.06-7.45,1.69-.1,4.51-.17,4.51-.11a10,10,0,0,1,0,1.55h0a22.27,22.27,0,0,1-2.85.16h0a6.05,6.05,0,0,0,0,1.28h0c.44,0,.9,0,1.34,0h0a12.47,12.47,0,0,1,0,1.51c-.45.12-1.17,0-1.32.13a5.64,5.64,0,0,0,0,1.37h0c1,0,1.86.06,2.85,0Z"/><path class="cls-2" d="M800.7,884.28a4.54,4.54,0,0,1-.08,1.43c-1.48,0-3.06.13-4.46,0,0-2.53-.19-5-.07-7.45,1.69-.1,4.51-.18,4.51-.11a11.44,11.44,0,0,1,0,1.55h0a24.55,24.55,0,0,1-2.86.16h0a6,6,0,0,0,0,1.27h0c.44,0,.9,0,1.34,0h0a9.49,9.49,0,0,1,0,1.52c-.44.12-1.16,0-1.31.13a5.13,5.13,0,0,0,0,1.36h0c1,0,1.86.07,2.86,0Z"/><path class="cls-2" d="M805.92,880.57a2.61,2.61,0,0,1,.11.68,15.46,15.46,0,0,1-.13,2s0,0,0,0a7.92,7.92,0,0,1-1.36,2.32c-1,.05-1.95.06-2.87.07h0a69.71,69.71,0,0,1-.25-7.47l0,0a13.6,13.6,0,0,1,2.63-.13,2.05,2.05,0,0,1,1.19.9A4.81,4.81,0,0,1,805.92,880.57Zm-1.38,1c-.09-.45-.23-1-.72-1.16a2.52,2.52,0,0,0-.82,0h0v.05c.06.78,0,1.84,0,2.82.16.14.48.09.74.05.08,0,.12,0,.2-.06a1,1,0,0,0,.33-.36A1.7,1.7,0,0,0,804.54,881.57Z"/><path class="cls-29" d="M315.36,773.35l-5.37,4a2.31,2.31,0,0,0-.18,3.54l2.81,2.58a2.31,2.31,0,0,0,3.71-.86l2.55-6.61A2.3,2.3,0,0,0,315.36,773.35Z"/><polygon class="cls-30" points="281.45 876.8 310.99 872.66 309.25 875.4 349.55 872.33 344.15 891.29 356.31 888.32 355.9 889.95 370.07 888.17 358.52 909.4 332.96 910.94 334.17 912.17 291.01 916.11 297.62 900.71 272.56 902 281.45 876.8"/><polygon class="cls-2" points="349.82 918.19 366.9 921.6 361.05 928.19 349.82 918.19"/><path class="cls-2" d="M353.51,920l11.33,2.26L361,926.66,353.51,920m-7.38-3.68,5.94,5.29,7.45,6.64,1.61,1.44,1.44-1.62,3.89-4.37,2.5-2.82-3.7-.74-11.32-2.26-7.81-1.56Z"/><polygon class="cls-31" points="353.51 920.03 364.84 922.29 360.96 926.66 353.51 920.03"/><polygon class="cls-2" points="362.08 863.84 363.81 867.96 367.02 863.35 371.54 873.1 356.35 880.12 362.08 863.84"/><path class="cls-2" d="M366.81,865.79l3.11,6.72-11.46,5.3,3.72-10.58,1.37,3.25,3.26-4.69M362,860.46l-2.1,6L356.16,877l-1.92,5.44,5.24-2.42,11.47-5.3,2.21-1-1-2.22L369,864.76l-1.79-3.85-2.42,3.49-.73,1.05-2.1-5Z"/><polygon class="cls-32" points="358.46 877.81 362.18 867.23 363.55 870.48 366.81 865.79 369.92 872.51 358.46 877.81"/><polygon class="cls-2" points="259.95 875.24 267.47 871.13 267.83 875.12 272.13 872.02 266.49 889.6 259.95 875.24"/><path class="cls-2" d="M266.3,873.33l.38,4.3,2.88-2.07-3.29,10.26-4.55-10,4.58-2.5m8.41-4.85L269,872.61l-.33-3.68-3.67,2-4.57,2.5-2.23,1.22,1.05,2.32,4.55,10,2.93,6.44,2.17-6.74,3.29-10.25,2.54-7.92Z"/><polygon class="cls-33" points="266.27 885.82 269.56 875.56 266.68 877.63 266.3 873.33 261.72 875.83 266.27 885.82"/><polygon class="cls-2" points="268.91 915.98 278.98 911.79 274.46 919.75 268.91 915.98"/><path class="cls-2" d="M276.41,914.06l-2.33,4.09-2.85-1.94,5.18-2.15m5.14-4.55-6,2.5-5.18,2.15-3.8,1.58,3.4,2.31,2.85,1.94,2,1.35,1.19-2.09,2.32-4.09,3.21-5.65Z"/><polygon class="cls-34" points="276.41 914.06 271.23 916.21 274.08 918.15 276.41 914.06"/><path class="cls-2" d="M283.7,881.64l4.11-.24-2.35,11.35,7-.41-.76,3.64-11.15.64Z"/><path class="cls-2" d="M295.75,880.94l4.09-.23-3.11,15-4.09.24Z"/><path class="cls-2" d="M306.78,895.41a9.24,9.24,0,0,1-2.62-.23,6.72,6.72,0,0,1-2.36-1,6.11,6.11,0,0,1-1.74-1.93,6.62,6.62,0,0,1-.78-2.89,8.37,8.37,0,0,1,.5-3.41,8.63,8.63,0,0,1,1.78-2.92,9.53,9.53,0,0,1,2.89-2.12,10.08,10.08,0,0,1,3.81-.93,8.68,8.68,0,0,1,2.06.09,8.17,8.17,0,0,1,1.77.46,6.82,6.82,0,0,1,1.4.72,5.31,5.31,0,0,1,1,.88l-2.58,2.82a5.61,5.61,0,0,0-1.61-1,4.83,4.83,0,0,0-2.13-.31,4.9,4.9,0,0,0-2,.52,4.75,4.75,0,0,0-1.51,1.18,4.89,4.89,0,0,0-.95,1.66,5.16,5.16,0,0,0-.25,2,3.36,3.36,0,0,0,.34,1.36,3,3,0,0,0,.77.94,3.16,3.16,0,0,0,1.09.53,4.23,4.23,0,0,0,1.29.13,5.51,5.51,0,0,0,1.09-.18,4.73,4.73,0,0,0,.84-.34l.48-2-2.85.16.61-3,6.77-.39-1.68,7.56a11.46,11.46,0,0,1-2.43,1.2A10.45,10.45,0,0,1,306.78,895.41Z"/><path class="cls-2" d="M316.45,879.75l4.11-.24-1.17,5.61,5.2-.3,1.16-5.61,4.11-.23-3.11,15-4.11.24,1.19-5.7-5.2.3-1.18,5.7-4.11.23Z"/><path class="cls-2" d="M334.05,882.33l-4.43.25.76-3.63,12.93-.75-.75,3.64-4.42.25-2.35,11.35-4.11.23Z"/><path class="cls-2" d="M306,908.87a8.06,8.06,0,0,1-3.08-.37,6.57,6.57,0,0,1-2.38-1.42l1.93-2.24a5.18,5.18,0,0,0,3.64,1.35,1.67,1.67,0,0,0,.92-.28.7.7,0,0,0,.33-.64.75.75,0,0,0-.09-.3,1,1,0,0,0-.31-.27,4.58,4.58,0,0,0-.6-.27,9.9,9.9,0,0,0-1-.35,12.15,12.15,0,0,1-1.27-.48,4,4,0,0,1-1-.6,2.67,2.67,0,0,1-.65-.81,2.83,2.83,0,0,1-.28-1.11,3.45,3.45,0,0,1,.28-1.6,3.76,3.76,0,0,1,.95-1.3,4.88,4.88,0,0,1,1.49-.89,6.25,6.25,0,0,1,1.93-.4,7.4,7.4,0,0,1,2.73.3,6.3,6.3,0,0,1,2.09,1.14l-1.85,2.31a5.64,5.64,0,0,0-1.46-.84,3.92,3.92,0,0,0-1.65-.25,1.58,1.58,0,0,0-.9.29.73.73,0,0,0-.3.61.5.5,0,0,0,.1.29,1,1,0,0,0,.3.24,3.64,3.64,0,0,0,.6.26c.26.1.59.21,1,.34a9.42,9.42,0,0,1,1.24.48,3.8,3.8,0,0,1,1,.61,2.66,2.66,0,0,1,.67.82,2.8,2.8,0,0,1,.29,1.12,3.71,3.71,0,0,1-.27,1.64,3.81,3.81,0,0,1-.94,1.32,4.83,4.83,0,0,1-1.5.9A6.38,6.38,0,0,1,306,908.87Z"/><path class="cls-2" d="M313.07,896.73l3.76-.22a8.24,8.24,0,0,1,2.38.16,3.77,3.77,0,0,1,1.63.83,3.17,3.17,0,0,1,1,2.3,4.45,4.45,0,0,1-.3,2,4.25,4.25,0,0,1-1.09,1.53,5.32,5.32,0,0,1-1.74,1,8.17,8.17,0,0,1-2.32.45l-1.88.11-.7,3.35-3.2.19Zm3.19,5.55a2.94,2.94,0,0,0,1.8-.59,1.54,1.54,0,0,0,.58-1.34,1.13,1.13,0,0,0-.38-.79,1.84,1.84,0,0,0-1.39-.36l-1.18.07-.63,3.08Z"/><path class="cls-2" d="M323.29,896.14l9.21-.53-.58,2.75-6.05.35-.37,1.77,5.49-.32-.53,2.56L325,903l-.39,1.85,6.15-.35-.57,2.75-9.3.54Z"/><path class="cls-2" d="M333.45,895.56l9.22-.54-.58,2.76-6,.34-.37,1.77,5.48-.31-.53,2.55-5.48.32-.39,1.85,6.14-.36-.56,2.75-9.3.54Z"/><path class="cls-2" d="M343.62,895l3.71-.22a8.09,8.09,0,0,1,2.79.25,5,5,0,0,1,1.8,1,4.56,4.56,0,0,1,1.44,3.3,6.38,6.38,0,0,1-.33,2.47,6.61,6.61,0,0,1-1.29,2.17,6.87,6.87,0,0,1-2.44,1.72,10.33,10.33,0,0,1-3.47.75l-4.63.26Zm2.42,8.56a5.63,5.63,0,0,0,1.84-.4,3.64,3.64,0,0,0,1.38-1,3.41,3.41,0,0,0,.85-2.45,2.6,2.6,0,0,0-.2-.9,1.69,1.69,0,0,0-.47-.64,2.14,2.14,0,0,0-.9-.47,4.18,4.18,0,0,0-1.39-.11l-.92,0L345,903.59Z"/><circle class="cls-26" cx="281.58" cy="811.98" r="10.92"/><polygon class="cls-2" points="279.9 804.86 277.27 812.92 280.54 812.92 279.23 821.02 285.89 809.66 283.29 809.66 284.98 804.86 279.9 804.86"/><circle class="cls-26" cx="121.66" cy="711.76" r="19.26"/><polygon class="cls-2" points="134.21 708.8 120 704.16 120 709.93 105.71 707.61 125.76 719.37 125.76 714.78 134.21 717.76 134.21 708.8"/><circle class="cls-26" cx="519.37" cy="711.76" r="19.26"/><polygon class="cls-2" points="506.82 714.72 521.03 719.37 521.03 713.59 535.32 715.91 515.27 704.16 515.27 708.75 506.82 705.76 506.82 714.72"/><circle class="cls-26" cx="660.48" cy="914.06" r="19.26"/><polygon class="cls-2" points="657.52 901.51 652.88 915.73 658.65 915.73 656.33 930.01 668.09 909.97 663.5 909.97 666.49 901.51 657.52 901.51"/><circle class="cls-26" cx="792.7" cy="914.06" r="19.26"/><polygon class="cls-2" points="789.74 901.51 785.09 915.73 790.87 915.73 788.55 930.01 800.31 909.97 795.72 909.97 798.7 901.51 789.74 901.51"/><path class="cls-2" d="M599.74,784.92a3.56,3.56,0,0,1,0,1.49c-.72-.16-1,1.13-.24,1.24a.62.62,0,0,0,.27,0c.31-.11.38-.37.42-.65a2.41,2.41,0,0,1,1-1.72,2.09,2.09,0,0,1,2.13-.17A1.87,1.87,0,0,1,604.5,787c0,1.17-.76,2.43-2,2.36h-.06a11.08,11.08,0,0,1,0-1.52c.84-.06.86-1.51-.06-1.34-.64.08-.73.86-.83,1.42a1.46,1.46,0,0,1-.34.68,2.13,2.13,0,0,1-3.5-.65,3,3,0,0,1,.1-2.2,1.68,1.68,0,0,1,2-.86Z"/><path class="cls-2" d="M599.56,779.78h.26a2.4,2.4,0,0,1,2,2.71c.37,0,.57,0,2.5,0h0v0a6.07,6.07,0,0,1,0,1.66c-1.92.09-4.64,0-6.84.09-.44-1.63-.25-4.32,2-4.44Zm-.65,3a0,0,0,0,0,0,0,7,7,0,0,0,1.49-.1v0c0-.41,0-1-.29-1.31a.69.69,0,0,0-1,.19A1.38,1.38,0,0,0,598.91,782.74Z"/><path class="cls-2" d="M603.08,775.14a3.76,3.76,0,0,1,1.3.07c0,1.35.1,2.79,0,4.07-2.31,0-4.52.14-6.8,0-.08-1.54-.13-4.11-.07-4.11a9.47,9.47,0,0,1,1.41,0h0a22.3,22.3,0,0,1,.13,2.6v0h0a5.7,5.7,0,0,0,1.17,0h0c0-.4,0-.82,0-1.22h0a10.48,10.48,0,0,1,1.38,0c.11.41,0,1.07.12,1.2a5.14,5.14,0,0,0,1.24,0h0c0-.88.07-1.7,0-2.6Z"/><path class="cls-2" d="M603.06,770.27a4,4,0,0,1,1.3.08c0,1.35.1,2.79,0,4.07-2.31,0-4.52.14-6.8,0-.08-1.54-.13-4.12-.07-4.12a9.48,9.48,0,0,1,1.41,0h0a22.3,22.3,0,0,1,.13,2.6v0h0a5.61,5.61,0,0,0,1.16,0h0c0-.4,0-.82,0-1.23h0a10.64,10.64,0,0,1,1.39,0c.11.41,0,1.06.11,1.2a5.13,5.13,0,0,0,1.24,0h0c0-.88.07-1.7,0-2.61Z"/><path class="cls-2" d="M599.7,765.49a2.28,2.28,0,0,1,.63-.09,12.86,12.86,0,0,1,1.87.13h0a7.36,7.36,0,0,1,2.11,1.25c0,.88,0,1.78,0,2.62h0a65.9,65.9,0,0,1-6.82.18l0,0a11.93,11.93,0,0,1-.1-2.39,1.87,1.87,0,0,1,.83-1.09A4.41,4.41,0,0,1,599.7,765.49Zm.91,1.27c-.4.08-.9.2-1.06.65a2,2,0,0,0,0,.74v0h0c.71,0,1.67,0,2.57,0,.13-.15.09-.43.06-.67,0-.07,0-.11-.07-.18a1,1,0,0,0-.31-.31A1.6,1.6,0,0,0,600.61,766.76Z"/><path class="cls-2" d="M42.1,770.29a3.69,3.69,0,0,1,0-1.48c.73.15,1-1.14.25-1.25a.61.61,0,0,0-.27,0c-.32.11-.39.37-.43.65a2.4,2.4,0,0,1-1,1.72,2.1,2.1,0,0,1-2.14.17,1.9,1.9,0,0,1-1.15-1.91c0-1.17.77-2.43,2-2.36h.06c.07.47,0,1.08,0,1.52-.85.06-.86,1.51.06,1.35.64-.09.72-.87.83-1.43a1.46,1.46,0,0,1,.34-.68,2.12,2.12,0,0,1,3.49.65,3,3,0,0,1-.1,2.2,1.68,1.68,0,0,1-2,.87Z"/><path class="cls-2" d="M42.28,775.43a1.13,1.13,0,0,1-.26,0,2.42,2.42,0,0,1-2-2.71c-.36,0-.56,0-2.49,0h0v0a6.48,6.48,0,0,1,0-1.66c1.93-.08,4.64,0,6.85-.09.44,1.64.24,4.32-2,4.44Zm.64-3a0,0,0,0,0,0,0,7.88,7.88,0,0,0-1.49.1v0c0,.41,0,1,.3,1.31a.69.69,0,0,0,1-.18A1.4,1.4,0,0,0,42.92,772.47Z"/><path class="cls-2" d="M38.76,780.07a3.75,3.75,0,0,1-1.3-.07c0-1.35-.1-2.79,0-4.07,2.31,0,4.52-.14,6.8,0,.08,1.54.13,4.11.07,4.11a8.3,8.3,0,0,1-1.41,0h0a20.3,20.3,0,0,1-.13-2.6v0h0a5.6,5.6,0,0,0-1.16,0h0c0,.4,0,.82,0,1.22h0a10.4,10.4,0,0,1-1.38,0c-.11-.41,0-1.06-.11-1.2a5.13,5.13,0,0,0-1.24,0h0c0,.88-.07,1.7,0,2.6Z"/><path class="cls-2" d="M38.78,784.94a4,4,0,0,1-1.3-.08c0-1.35-.1-2.79,0-4.07,2.3,0,4.52-.14,6.79,0,.09,1.54.14,4.12.08,4.12a9.48,9.48,0,0,1-1.41,0h0a20.3,20.3,0,0,1-.13-2.6v0h0a5,5,0,0,0-1.16,0h0c0,.4,0,.82,0,1.23h0a10.46,10.46,0,0,1-1.38,0c-.11-.41,0-1.06-.11-1.2a4.64,4.64,0,0,0-1.24,0h0c0,.87-.08,1.69,0,2.6Z"/><path class="cls-2" d="M42.13,789.72a2.21,2.21,0,0,1-.62.09,12.86,12.86,0,0,1-1.87-.13h0a7.23,7.23,0,0,1-2.11-1.25c0-.88,0-1.78,0-2.62h0a65.71,65.71,0,0,1,6.81-.18l0,0a11.93,11.93,0,0,1,.11,2.39,1.91,1.91,0,0,1-.83,1.09A4.46,4.46,0,0,1,42.13,789.72Zm-.91-1.27c.41-.08.91-.2,1.06-.65a2.3,2.3,0,0,0,0-.74v0h0c-.71.05-1.68,0-2.57,0-.13.15-.09.43-.06.67,0,.07,0,.11.06.18a1,1,0,0,0,.32.31A1.55,1.55,0,0,0,41.22,788.45Z"/><rect class="cls-35" x="992" width="32" height="32"/><rect class="cls-10" y="997.3" width="629.1" height="26.7"/><rect class="cls-36" x="343.93" y="213.32" width="14.17" height="21.7" rx="7.09" ry="7.09"/><path class="cls-36" d="M352.79,211.55h0a7.09,7.09,0,0,1,7.09,7.09v10.63a0,0,0,0,1,0,0h-7.09a7.09,7.09,0,0,1-7.09-7.09v-3.54A7.09,7.09,0,0,1,352.79,211.55Z" transform="translate(132.38 573.2) rotate(-90)"/><path class="cls-15" d="M329.57,241.91h0a35.21,35.21,0,0,1-15.49,0h0a2,2,0,0,0-1.6,2.54c1.22,4,4.94,5.35,9.33,5.36h0c4.4,0,8.12-1.36,9.34-5.36A2,2,0,0,0,329.57,241.91Z"/><path class="cls-37" d="M331.17,267.94h0a42.45,42.45,0,0,0-18.7,0h0a2.41,2.41,0,0,1-1.93-3.06c1.48-4.83,6-6.47,11.27-6.47h0c5.3,0,9.79,1.64,11.26,6.47A2.4,2.4,0,0,1,331.17,267.94Z"/><path class="cls-38" d="M340.93,204.54c3.61-2.06,7.82-2.48,11.88-2.84s8.27-.68,12.18.72c2,.74,4.12-1.32,2.9-3.21-2.1-3.21-8.15-5.74-15.75-5.06s-13.12,4.2-14.62,7.73C336.65,204,339.08,205.62,340.93,204.54Z"/><path class="cls-38" d="M301.61,207.2c-3.61-2.06-7.82-2.49-11.87-2.84s-8.27-.68-12.19.72c-2,.73-4.11-1.32-2.89-3.21,2.1-3.21,8.14-5.74,15.74-5.06s13.12,4.2,14.62,7.73C305.9,206.61,303.46,208.27,301.61,207.2Z"/><rect class="cls-36" x="285.36" y="213.32" width="14.17" height="21.7" rx="7.09" ry="7.09" transform="translate(584.89 448.34) rotate(-180)"/><path class="cls-36" d="M290.67,211.55h7.09a0,0,0,0,1,0,0v10.63a7.09,7.09,0,0,1-7.09,7.09h0a7.09,7.09,0,0,1-7.09-7.09v-3.54a7.09,7.09,0,0,1,7.09-7.09Z" transform="translate(70.26 511.09) rotate(-90)"/><g class="cls-15"><path d="M321,5V151.59c-46.33,0-83.91,36.38-84.07,44.26v.05L235.3,213c-1.2,12.75-16.54,22.95-26.23,15.52s-30.16-18.38-57.22,27.74S0,318.87,0,318.87V5Z"/><path d="M321,5V151.59c46.33,0,83.91,36.38,84.07,44.26v.05l1.61,17.1c1.2,12.75,16.54,22.95,26.23,15.52s30.16-18.38,57.22,27.74S642,318.87,642,318.87V5Z"/></g><path class="cls-38" d="M321,0V146.59c-46.33,0-83.91,36.38-84.07,44.26v.05L235.3,208c-1.2,12.75-16.54,22.95-26.23,15.52s-30.16-18.38-57.22,27.74S0,313.87,0,313.87V0Z"/><path class="cls-38" d="M321,0V146.59c46.33,0,83.91,36.38,84.07,44.26v.05l1.61,17.1c1.2,12.75,16.54,22.95,26.23,15.52s30.16-18.38,57.22,27.74S642,313.87,642,313.87V0Z"/><rect class="cls-39" x="992" width="32" height="32"/></g></g></g></svg>