<svg xmlns="http://www.w3.org/2000/svg" xmlns:xlink="http://www.w3.org/1999/xlink" viewBox="0 0 1024 1024"><defs><style>.cls-1{isolation:isolate;}.cls-2{fill:#fff;}.cls-3{fill:#f58c6a;}.cls-4{fill:#f69878;}.cls-14,.cls-5{opacity:0.15;}.cls-14,.cls-29,.cls-5{mix-blend-mode:overlay;}.cls-5{fill:url(#linear-gradient);}.cls-15,.cls-6{fill:#f37b67;}.cls-7{fill:url(#linear-gradient-2);}.cls-8{fill:url(#linear-gradient-3);}.cls-9{fill:red;}.cls-10{opacity:0.1;mix-blend-mode:multiply;fill:url(#linear-gradient-4);}.cls-11{fill:#aa1f4a;}.cls-12{fill:#da1c4b;}.cls-13{fill:#cfe0e9;}.cls-15{opacity:0.5;}.cls-16{fill:#e4783e;}.cls-17{fill:#d3eef4;}.cls-18{fill:#c9dce6;}.cls-19{fill:#f6a563;}.cls-20{fill:#a3204c;}.cls-21{fill:url(#linear-gradient-5);}.cls-22{fill:url(#linear-gradient-6);}.cls-23{fill:#1a1a1a;}.cls-24{fill:#f9f9f9;}.cls-25{fill:#1f1f1f;}.cls-26{fill:#ccdde7;}.cls-27{fill:url(#linear-gradient-7);}.cls-28{fill:lime;}.cls-29{fill:url(#linear-gradient-8);}.cls-30{fill:#a36841;}.cls-31{fill:blue;}.cls-32{fill:#220f0f;}.cls-33{fill:#dd2b26;}</style><linearGradient id="linear-gradient" x1="321.68" y1="286" x2="321.68" y2="431.12" gradientUnits="userSpaceOnUse"><stop offset="0"/><stop offset="1" stop-opacity="0"/></linearGradient><linearGradient id="linear-gradient-2" x1="438.5" y1="235.5" x2="507.96" y2="235.5" gradientUnits="userSpaceOnUse"><stop offset="0" stop-color="#f69878"/><stop offset="1" stop-color="#f37b67"/></linearGradient><linearGradient id="linear-gradient-3" x1="202" y1="235.5" x2="152.85" y2="235.5" gradientTransform="translate(383.22 471) rotate(180)" xlink:href="#linear-gradient-2"/><linearGradient id="linear-gradient-4" x1="321.5" y1="490" x2="321.5" y2="187.52" gradientUnits="userSpaceOnUse"><stop offset="0" stop-color="#f69878"/><stop offset="1" stop-color="#f69878" stop-opacity="0"/></linearGradient><linearGradient id="linear-gradient-5" x1="271.06" y1="741.83" x2="199.38" y2="741.83" xlink:href="#linear-gradient"/><linearGradient id="linear-gradient-6" x1="364.96" y1="741.83" x2="441.39" y2="741.83" xlink:href="#linear-gradient"/><linearGradient id="linear-gradient-7" x1="819.81" y1="914.06" x2="819.81" y2="780.48" gradientUnits="userSpaceOnUse"><stop offset="0" stop-color="#aa1f4a" stop-opacity="0"/><stop offset="0.3" stop-color="#aa1f4a" stop-opacity="0.01"/><stop offset="0.45" stop-color="#aa1f4a" stop-opacity="0.06"/><stop offset="0.58" stop-color="#aa1f4a" stop-opacity="0.14"/><stop offset="0.68" stop-color="#aa1f4a" stop-opacity="0.25"/><stop offset="0.77" stop-color="#aa1f4a" stop-opacity="0.39"/><stop offset="0.86" stop-color="#aa1f4a" stop-opacity="0.57"/><stop offset="0.93" stop-color="#aa1f4a" stop-opacity="0.78"/><stop offset="1" stop-color="#aa1f4a"/></linearGradient><linearGradient id="linear-gradient-8" x1="320.89" y1="903.7" x2="320.89" y2="869.42" gradientUnits="userSpaceOnUse"><stop offset="0" stop-opacity="0"/><stop offset="1"/></linearGradient></defs><title>racerRedFemale</title><g class="cls-1"><g id="Layer_2" data-name="Layer 2"><g id="Layer_1-2" data-name="Layer 1"><rect class="cls-2" width="1024" height="1024"/><rect class="cls-3" x="624" y="524" width="400" height="240"/><rect class="cls-4" width="643" height="490"/><path class="cls-5" d="M366,299h0a89.81,89.81,0,0,0-19.13,2.07h0a89.33,89.33,0,0,1-19.14,2.07H315.59a89.26,89.26,0,0,1-19.14-2.07h0A89.81,89.81,0,0,0,277.32,299h0a43.74,43.74,0,0,0-33,15c-6.51,7.48-12.32,16.72-11.37,25.21l15.3,137,71.88,5.58,1.52-2.82,1.52,2.82,71.87-5.58,15.31-137c.95-8.49-4.86-17.73-11.38-25.21A43.71,43.71,0,0,0,366,299Z"/><rect class="cls-4" x="824" y="134" width="200" height="390"/><path class="cls-6" d="M442.55,216.37h8.29a18.41,18.41,0,0,1,18.41,18.41v1.43a18.41,18.41,0,0,1-18.41,18.41h-8.29a0,0,0,0,1,0,0V216.37A0,0,0,0,1,442.55,216.37Z"/><path class="cls-7" d="M437.85,216.37h8.29a18.41,18.41,0,0,1,18.41,18.41v1.43a18.41,18.41,0,0,1-18.41,18.41h-8.29a0,0,0,0,1,0,0V216.37a0,0,0,0,1,0,0Z"/><ellipse class="cls-6" cx="451.21" cy="235.5" rx="7.93" ry="4.4" transform="translate(132.36 632.21) rotate(-78.77)"/><path class="cls-6" d="M173.56,216.37h8.29a18.41,18.41,0,0,1,18.41,18.41v1.43a18.41,18.41,0,0,1-18.41,18.41h-8.29a0,0,0,0,1,0,0V216.37a0,0,0,0,1,0,0Z" transform="translate(373.83 471) rotate(-180)"/><path class="cls-8" d="M178.26,216.37h8.29A18.41,18.41,0,0,1,205,234.78v1.43a18.41,18.41,0,0,1-18.41,18.41h-8.29a0,0,0,0,1,0,0V216.37A0,0,0,0,1,178.26,216.37Z" transform="translate(383.22 471) rotate(-180)"/><ellipse class="cls-6" cx="191.61" cy="235.5" rx="4.4" ry="7.93" transform="translate(-42.19 41.82) rotate(-11.23)"/><polygon class="cls-4" points="579.88 654.47 544.43 654.47 491.56 654.47 460 654.47 460 654.47 445.83 654.47 428.62 681.05 422.17 725.5 423.38 763.65 432.45 812.23 457.05 819.12 460 823.21 460 823.21 491.56 823.21 544.43 823.21 579.88 823.21 615.98 823.21 615.98 654.47 579.88 654.47"/><polygon class="cls-4" points="212.12 681.05 194.91 654.47 180.74 654.47 180.74 654.47 149.18 654.47 96.31 654.47 60.86 654.47 24.76 654.47 24.76 823.21 60.86 823.21 96.31 823.21 149.18 823.21 180.74 823.21 180.74 823.21 183.69 819.12 208.29 812.23 217.36 763.65 218.57 725.5 212.12 681.05"/><rect class="cls-4" x="624" y="864.49" width="400" height="159.51"/><rect class="cls-9" x="992" width="32" height="32"/><rect class="cls-10" y="139.59" width="643" height="350.41"/><ellipse class="cls-4" cx="320.36" cy="746.08" rx="73.24" ry="132.26"/><rect class="cls-11" x="5.44" y="494.89" width="614.17" height="515.27"/><rect class="cls-12" x="629.1" y="767.18" width="394.9" height="246.93"/><rect class="cls-13" x="631.59" y="987.53" width="383.62" height="36.47"/><rect class="cls-11" x="631.59" y="987.53" width="383.62" height="6.96"/><g class="cls-14"><rect x="164.96" y="654.47" width="7.84" height="188.74" transform="translate(337.77 1497.67) rotate(-180)"/><rect x="467.85" y="654.47" width="7.84" height="188.74" transform="translate(943.55 1497.67) rotate(-180)"/></g><path class="cls-4" d="M366.51,745.37c0,31.64-20.33,85.91-45.4,85.91S275.7,777,275.7,745.37,296,717,321.11,717,366.51,713.74,366.51,745.37Z"/><path class="cls-15" d="M364.05,767.18c-6.13,29.92-23,64.1-42.94,64.1s-36.82-34.18-42.95-64.1c7.67,27.58,24,55.75,42.95,55.75S356.38,794.76,364.05,767.18Z"/><rect class="cls-12" x="5.44" y="507.74" width="614.17" height="489.56"/><rect class="cls-13" x="705.4" y="548.73" width="285.42" height="178.39"/><rect class="cls-2" x="826.55" y="153.03" width="182.54" height="361.07"/><rect class="cls-16" x="656" y="34.77" width="316.94" height="92.48"/><rect class="cls-11" x="9.43" y="432.44" width="622.16" height="49.42"/><rect class="cls-12" x="9.43" y="432.44" width="622.16" height="4.64"/><rect class="cls-12" x="293.24" y="442.33" width="59.86" height="28.08" rx="2.43" ry="2.43"/><rect class="cls-17" x="268.16" y="447.02" width="46.4" height="18.71" rx="4.45" ry="4.45"/><rect class="cls-11" x="271.77" y="450.32" width="39.18" height="12.1" rx="1.92" ry="1.92"/><rect class="cls-18" x="643" y="145.1" width="175.65" height="366.9"/><rect class="cls-2" x="697.98" y="376.04" width="56.45" height="27.03" rx="9.24" ry="9.24"/><rect class="cls-2" x="697.98" y="200.52" width="56.45" height="27.03" rx="9.24" ry="9.24"/><path class="cls-19" d="M703.84,500.28l-59.29-19V324.8h18.5L663.1,353c0,.11,0,.21,0,.32L664.54,369a3.85,3.85,0,0,0,.08.47l6,26.1a1.05,1.05,0,0,0,.05.19l4,13.8a3.38,3.38,0,0,0,.11.34l11.5,28.5L694.39,458a28.55,28.55,0,0,0,6.24,9.36l.59.59A28.61,28.61,0,0,0,715,475.57l4.78,1.11a28.41,28.41,0,0,0,6.49.75,28.89,28.89,0,0,0,4.55-.37l6-1a28.71,28.71,0,0,0,22.35-18.33L771.06,426l11.26-31.08,18.46-49.12a3.55,3.55,0,0,0,.23-1.2l.11-13.64v-.16l-.43-11.6L821,322.58V355l-14.44,98-12.27,47.19Z"/><path class="cls-18" d="M804.34,323.36l13.19,2.19v29.24l-14.37,97.6-11.54,44.39H704.39l-56.34-18.1V328.31h11.51l0,24.67c0,.21,0,.41,0,.62l1.43,15.67a7.21,7.21,0,0,0,.15.93l6,26.11.09.38,4,13.8c.07.22.15.45.24.67l11.49,28.5,0,0,8.08,19.59a32.17,32.17,0,0,0,7,10.49l.59.59a32.12,32.12,0,0,0,15.5,8.6l4.78,1.11a31.89,31.89,0,0,0,7.28.84,32.31,32.31,0,0,0,5.11-.41l6-1A32.21,32.21,0,0,0,762.51,459l11.83-31.77,0-.06,11.23-31L804.06,347a7,7,0,0,0,.45-2.4l.11-13.64v-.32l-.28-7.32m-7.31-8.3.59,15.88-.11,13.64L779,393.74l-11.25,31.05L756,456.55a25.19,25.19,0,0,1-19.62,16.09l-6,1a25.49,25.49,0,0,1-4,.32,25,25,0,0,1-5.7-.66l-4.78-1.11a25.16,25.16,0,0,1-12.13-6.73l-.59-.59a25.08,25.08,0,0,1-5.47-8.21L689.55,437l-11.5-28.5-4-13.8-6-26.11L666.6,353l-.05-31.66h-25.5V483.78l62.24,20H797l13-50,14.5-98.48V319.61L797,315.06Z"/><path class="cls-19" d="M703.84,324.81l-59.29-19.05V145.34h18.5l.05,32.16c0,.11,0,.21,0,.32l1.43,15.67a3.69,3.69,0,0,0,.08.46l6,26.11a1.8,1.8,0,0,0,.05.19l4,13.79a3.38,3.38,0,0,0,.11.34l11.5,28.5,8.09,19.62a28.61,28.61,0,0,0,6.24,9.35l.59.59A28.71,28.71,0,0,0,715,300.11l4.78,1.11a28.87,28.87,0,0,0,11,.38l6-1a28.72,28.72,0,0,0,22.35-18.32l11.83-31.77,11.26-31.08,18.7-49.1a3.61,3.61,0,0,0,.22-1.22l.12-13.64a1.48,1.48,0,0,0,0-.21l-.6-11.54L821,147.11v32.47l-14.44,98-12.27,47.19Z"/><path class="cls-18" d="M804.47,147.92l13.06,2.16v29.24l-14.37,97.6-11.54,44.39H704.39l-56.34-18.1V148.84h11.51l0,28.67q0,.31,0,.63l1.43,15.66a7.36,7.36,0,0,0,.15.94l6,26.1.09.38,4,13.8c.07.23.15.45.24.67l11.49,28.5,0,.05,8.08,19.59a32.21,32.21,0,0,0,7,10.5l.59.59a32.28,32.28,0,0,0,15.5,8.6l4.78,1.11a32.22,32.22,0,0,0,12.39.42l6-1a32.2,32.2,0,0,0,25.07-20.56l11.83-31.76,0-.06,11.22-31,18.7-49.11a7,7,0,0,0,.45-2.43l.12-13.64c0-.14,0-.28,0-.42l-.38-7.19M797,139.59l.83,15.88-.12,13.64L779,218.27l-11.25,31L756,281.09a25.15,25.15,0,0,1-7.8,10.82h0a25.15,25.15,0,0,1-11.82,5.26l-6,1a25.25,25.25,0,0,1-9.7-.33l-4.78-1.11A25.32,25.32,0,0,1,703.69,290l-.59-.59a25,25,0,0,1-5.47-8.22l-8.08-19.59-11.5-28.5-4-13.8-6-26.1L666.6,177.5l-.05-35.65h-25.5V308.31l62.24,20H797l13-50,14.5-98.49V144.14L797,139.59Z"/><polygon class="cls-11" points="614.28 654.21 459.65 654.21 459.65 654.47 445.83 654.47 428.62 681.05 422.17 725.5 423.38 763.65 432.45 812.23 457.05 819.12 460 843.21 460 843.21 485.19 843.21 485.19 828.99 614.28 828.99 614.28 654.21"/><rect class="cls-11" x="267.94" y="804.02" width="27.27" height="15.91"/><rect class="cls-11" x="267.94" y="824.12" width="27.27" height="15.91"/><polygon class="cls-11" points="212.12 681.05 194.91 654.47 180.74 654.47 180.74 654.47 179.38 654.47 179.38 654.21 24.76 654.21 24.76 828.99 155.55 828.99 155.55 843.21 180.74 843.21 180.74 843.21 183.69 819.12 208.29 812.23 217.36 763.65 218.57 725.5 212.12 681.05"/><path class="cls-20" d="M317,758.52h4.12a0,0,0,0,1,0,0V966.31a2.06,2.06,0,0,1-2.06,2.06h0a2.06,2.06,0,0,1-2.06-2.06V758.52a0,0,0,0,1,0,0Z"/><rect class="cls-11" x="282.99" y="545.38" width="78.37" height="23.74" rx="6.41" ry="6.41"/><rect class="cls-11" x="5.44" y="494.89" width="614.17" height="12.85"/><rect class="cls-11" x="5.44" y="997.3" width="614.17" height="12.86"/><polygon class="cls-21" points="218.57 725.5 217.36 763.65 214 781.65 199.65 743.38 215.16 702.01 218.57 725.5"/><polygon class="cls-22" points="441.09 743.38 426.74 781.65 423.38 763.65 422.17 725.5 425.58 702.01 441.09 743.38"/><rect class="cls-23" x="281.99" y="581.96" width="78.37" height="84.47" rx="9.59" ry="9.59"/><path class="cls-2" d="M349.19,644.79c-.3,2.71-.24,5.91-.3,8.38v.06c-8.57.18-18.73.68-26.81-.12V653c.19-3.2-.06-5.36-.06-8.56,4.93-11.4,12.26-22.74,18.18-34.38,2.46,0,6.9-.68,9.36,0-5.6,12-11.27,23-16.2,34.13,4.74.31,11.52.74,15.71.56Z"/><path class="cls-2" d="M316.67,609.61h2.77a.22.22,0,0,1,.06.18c-.49,5.55.49,11-2.16,15.28-3.94,4.44-8.87,6-13.12,9.43-3.33,2.15-2.77,8.32,1,8.81,4,0,4.37-4.5,4.56-7.46v-.12h.06a39.09,39.09,0,0,1,9.12-.31h.06v.13c1,5.66-.06,10.84-3.08,14.23-3.27,4.25-13.19,4.37-17.62,2.59-3.7-1.91-5.61-5.86-6-10.29-.06-1.73-.19-3.89-.13-5.55.74-9.12,11.47-9.06,15.9-14.48.31-.8,1.36-3.26.68-3.57-5.48-.19-9.86.12-15.22.12-.68-1.66-.49-3.88-.43-5.91A10.26,10.26,0,0,0,293,610c0-.07.06-.07.24-.07Z"/><rect class="cls-12" x="292.05" y="596.73" width="57.02" height="6.11"/><rect class="cls-13" x="594.67" y="650.26" width="19.61" height="178.73"/><rect class="cls-13" x="24.76" y="650.26" width="22.05" height="178.73"/><path class="cls-24" d="M401.87,727.12H422.5a16.33,16.33,0,0,1,16.33,16.33v0a16.33,16.33,0,0,1-16.33,16.33H401.87a0,0,0,0,1,0,0V727.12a0,0,0,0,1,0,0Z" transform="translate(840.7 1486.91) rotate(180)"/><circle class="cls-25" cx="418.2" cy="743.45" r="12.94"/><path class="cls-12" d="M418.2,736.24v14.42a7.21,7.21,0,1,0,0-14.42Z"/><rect class="cls-2" x="444.65" y="727.12" width="11.64" height="32.52"/><rect class="cls-23" x="349.94" y="811.83" width="28.12" height="30.31" rx="3.44" ry="3.44" transform="translate(793.29 1622.05) rotate(175.39)"/><path class="cls-2" d="M353.36,820.36c0-1-.08-2.13-.13-3v0a84,84,0,0,1,9.59-.73v0c0,1.15.18,1.92.27,3.06-1.43,4.22-3.73,8.49-5.51,12.82a14.49,14.49,0,0,1-3.35.27c1.66-4.45,3.37-8.54,4.81-12.67-1.7,0-4.14.07-5.63.25Z"/><path class="cls-2" d="M366,832l-1,.08a.07.07,0,0,1,0-.06c0-2-.5-3.91.33-5.53,1.28-1.7,3-2.39,4.42-3.75,1.13-.87.75-3.06-.63-3.12-1.43.11-1.44,1.73-1.42,2.8v0h0a14.06,14.06,0,0,1-3.25.38h0v-.05a6,6,0,0,1,.69-5.18c1-1.61,4.59-1.94,6.23-1.43a4.44,4.44,0,0,1,2.45,3.51c.07.61.18,1.38.21,2,0,3.28-3.84,3.57-5.27,5.63-.09.3-.39,1.21-.14,1.3,2-.09,3.52-.33,5.44-.48a5.39,5.39,0,0,1,.32,2.1,3.6,3.6,0,0,0,.13,1s0,0-.09,0Z"/><rect class="cls-2" x="354.69" y="834.6" width="20.46" height="2.19" transform="translate(795.84 1639.37) rotate(175.39)"/><path class="cls-2" d="M375.23,805.25a2.71,2.71,0,0,0,2.3-3.06l0-.29-.93-6.54,0-.29a2.71,2.71,0,0,0-3.06-2.3l-.29,0-16.93,2.41h0l-3,.43-7,1-.29,0a2.69,2.69,0,0,0-2.29,3.06l0,.29.93,6.54,0,.29a2.7,2.7,0,0,0,3.06,2.29l.29,0,6.43-.91h0l2.82-.4.75-.11h0l16.93-2.41Z"/><path class="cls-12" d="M347.82,806.88l.51-8.52,5.19-.72-.09,1.56-3.47.48-.12,1.87,3.06-.42-.1,1.56-3.05.43-.2,3.52Z"/><path class="cls-12" d="M358.9,805.35l-.47-2-2.65.37-.7,2.16-1.84.25,3.12-8.88,2.19-.31,2.09,8.16Zm-1.5-6.66h-.09l-1.05,3.49,1.85-.26Z"/><path class="cls-12" d="M361.06,803.69l1.17-1.22a1.89,1.89,0,0,0,1.91.73c1-.14,1.51-.72,1.41-1.41-.07-.49-.52-.67-1.07-.72l-.56,0a2.15,2.15,0,0,1-2.29-1.94c-.21-1.5.91-2.85,2.82-3.11a3.44,3.44,0,0,1,3,.76L366.36,798a1.79,1.79,0,0,0-1.76-.5c-.86.12-1.34.6-1.26,1.18s.42.63,1,.68l.54,0c1.31.11,2.24.63,2.42,1.93a3.15,3.15,0,0,1-3,3.37A3.24,3.24,0,0,1,361.06,803.69Z"/><path class="cls-12" d="M372.11,796.61l-.41,7-1.72.24.41-7-2.19.3.1-1.56,6.1-.85-.1,1.57Z"/><path class="cls-2" d="M639.77,894.45a2.46,2.46,0,0,0,2.49,2.42h.27l6-.07h.27a2.46,2.46,0,0,0,2.43-2.49V894L651,878.51h0l0-2.73-.07-6.45v-.27a2.46,2.46,0,0,0-2.48-2.43h-.27l-6,.07h-.27a2.46,2.46,0,0,0-2.42,2.49v.27l.07,5.9h0l0,2.58v.69h0l.18,15.54Z"/><path class="cls-12" d="M640.93,868.94l8,1.42.11,5-1.47-.27-.08-3.33-1.75-.32.06,2.94-1.47-.27-.06-2.93L641,870.6Z"/><path class="cls-12" d="M641.16,879.59l1.94-.23-.06-2.55-2-.89,0-1.77,8.07,3.92,0,2.12-7.95,1.08Zm6.47-.68v-.09l-3.18-1.39,0,1.79Z"/><path class="cls-12" d="M642.49,881.81l1,1.24a1.8,1.8,0,0,0-.9,1.73c0,1,.52,1.51,1.18,1.49.48,0,.7-.41.8-.93l.1-.53c.23-1.17.81-1.93,2.09-1.95,1.45,0,2.59,1.17,2.63,3a3.3,3.3,0,0,1-1,2.76l-1.1-1.18a1.69,1.69,0,0,0,.67-1.61c0-.83-.42-1.33-1-1.32s-.64.32-.76.87l-.1.51c-.25,1.23-.85,2.05-2.09,2.08a3,3,0,0,1-2.87-3.17A3.08,3.08,0,0,1,642.49,881.81Z"/><path class="cls-12" d="M648,893.05l-6.54-1.16,0-1.66,6.55,1.16-.05-2.1,1.47.26.13,5.86-1.47-.26Z"/><path class="cls-26" d="M315.36,773.35l-5.37,4a2.31,2.31,0,0,0-.18,3.54l2.81,2.58a2.31,2.31,0,0,0,3.71-.86l2.55-6.61A2.3,2.3,0,0,0,315.36,773.35Z"/><path class="cls-2" d="M326.37,869.76a3.58,3.58,0,0,1-3.52-4.29,4.85,4.85,0,0,1-.61-.29,3.58,3.58,0,0,1-2.05.66h-2.26a3.51,3.51,0,0,1-1.51-.34,3.57,3.57,0,0,1-1.5.34h-2.26l-.34,0-.37,0h-1.69a5.69,5.69,0,0,1-1.82-.29,6.75,6.75,0,0,1-4.89.1,3.57,3.57,0,0,1-1.13.19H300.8a5.28,5.28,0,0,1-2.74-.72,3.54,3.54,0,0,1-2.14.72h-2.26a3.56,3.56,0,0,1-1.66-.42,9.59,9.59,0,0,1-3.56.64c-4.76,0-7.83-3.18-7.83-8.11a19.89,19.89,0,0,1,.54-4.36c1.72-7.72,6.75-8.88,9.61-8.88a8.28,8.28,0,0,1,3.14.6,3.65,3.65,0,0,1,2.67-1.18h2.25a3.58,3.58,0,0,1,2.79,1.31,3.54,3.54,0,0,1,.74,2.93,5.24,5.24,0,0,1,1.8.85,7.12,7.12,0,0,1,3.71-1.05,6.36,6.36,0,0,1,2,.32,3.87,3.87,0,0,1,.77-.08h2.25a3.78,3.78,0,0,0,1.81,0H317a3.68,3.68,0,0,1,.66.06,6.31,6.31,0,0,1,1.95-.3,6.06,6.06,0,0,1,2.58.57,6.38,6.38,0,0,1,2.7-.57,6,6,0,0,1,2.7.63,3.73,3.73,0,0,1,1.64-.39h2.26a3.49,3.49,0,0,1,.71.07,6.46,6.46,0,0,1,2-.31,6.65,6.65,0,0,1,1.25.12c0-.18.08-.37.14-.56a5,5,0,0,1,5-3.69,4.54,4.54,0,0,1,4.75,4.15l.62,0a7.73,7.73,0,0,1,3.55.81,3.56,3.56,0,0,1,1.95-.57h2.25a3.54,3.54,0,0,1,.73.07,6.5,6.5,0,0,1,2-.31c3.43,0,5.73,2.47,5.73,6.16a11.64,11.64,0,0,1-.26,2.14l-.4,2a3.56,3.56,0,0,1,.58,1.95,3.8,3.8,0,0,1-.11.89l-.33,1.66a3.61,3.61,0,0,1-3.52,2.87h-1.63a5.25,5.25,0,0,1-2.73-.72,3.6,3.6,0,0,1-2.14.72h-2.26a3.55,3.55,0,0,1-1.66-.41,8.26,8.26,0,0,1-3.25.63,7.84,7.84,0,0,1-3.09-.58,3.4,3.4,0,0,1-1.55.36h-1.6a5.25,5.25,0,0,1-2.66-.67,7,7,0,0,1-3.33.89l-.17.83a3.57,3.57,0,0,1-3.51,2.87Z"/><path class="cls-2" d="M340.63,845.24a3.33,3.33,0,0,1,3.57,3.3,4.64,4.64,0,0,1-.14,1.08,7.16,7.16,0,0,1,1.94-.26,6.21,6.21,0,0,1,3.67,1.09,2.39,2.39,0,0,1,1.82-.85h2.26a2.56,2.56,0,0,1,.79.13,5.17,5.17,0,0,1,2-.37c2.76,0,4.54,1.95,4.54,5a11.74,11.74,0,0,1-.27,2l-.47,2.39a2.48,2.48,0,0,1,.65,1.66,2.35,2.35,0,0,1-.07.6l-.34,1.71a2.42,2.42,0,0,1-2.35,1.91h-1.63a3.79,3.79,0,0,1-2.84-1.13,2.42,2.42,0,0,1-2,1.13h-2.26a2.4,2.4,0,0,1-1.57-.58,7,7,0,0,1-3.34.81,6.44,6.44,0,0,1-3.16-.75,2.32,2.32,0,0,1-1.48.52h-1.6a3.83,3.83,0,0,1-2.63-.91,5.83,5.83,0,0,1-3.49,1.14,4.62,4.62,0,0,1-.84-.06l-.37,1.84a2.39,2.39,0,0,1-2.34,1.91h-2.26a2.38,2.38,0,0,1-2.35-2.85l.22-1.12a3.54,3.54,0,0,1-2.1-1,2.41,2.41,0,0,1-1.95,1h-2.26a2.35,2.35,0,0,1-1.51-.54,2.38,2.38,0,0,1-1.5.54h-2.26a1.69,1.69,0,0,1-.33,0,2.34,2.34,0,0,1-.38,0h-1.69a4.28,4.28,0,0,1-1.87-.4,5,5,0,0,1-2.55.63,5,5,0,0,1-2.28-.53,2.36,2.36,0,0,1-1.14.3H300.8a3.8,3.8,0,0,1-2.85-1.13,2.4,2.4,0,0,1-2,1.13h-2.26a2.43,2.43,0,0,1-1.55-.57,8.17,8.17,0,0,1-3.67.8c-4.09,0-6.64-2.65-6.64-6.92a18.6,18.6,0,0,1,.52-4.1c1.45-6.57,5.39-7.94,8.44-7.94a6.69,6.69,0,0,1,3.57,1,2.4,2.4,0,0,1,2.24-1.55h2.25a2.36,2.36,0,0,1,1.86.88,2.39,2.39,0,0,1,.49,2l-.24,1.18a4.31,4.31,0,0,1,3.14,1.39,5.89,5.89,0,0,1,3.79-1.39,5,5,0,0,1,2,.39,2.21,2.21,0,0,1,.82-.15h2.25a2.27,2.27,0,0,1,.91.18,2.33,2.33,0,0,1,.9-.18H317a2.58,2.58,0,0,1,.73.11,5,5,0,0,1,1.88-.35,4.67,4.67,0,0,1,2.57.75,5,5,0,0,1,2.71-.75,4.6,4.6,0,0,1,2.73.86,2.42,2.42,0,0,1,1.61-.62h2.26a2.38,2.38,0,0,1,.76.13,5.18,5.18,0,0,1,2-.37,5.24,5.24,0,0,1,2.35.57,3.71,3.71,0,0,1,0-.47,4.75,4.75,0,0,1,.21-1.37,3.83,3.83,0,0,1,3.89-2.85m0-2.39a6.23,6.23,0,0,0-6,4.13h-.38a7.75,7.75,0,0,0-2.12.29,4.46,4.46,0,0,0-.63,0H329.2a4.69,4.69,0,0,0-1.62.29,7.05,7.05,0,0,0-2.72-.53,7.68,7.68,0,0,0-2.69.47,7.62,7.62,0,0,0-2.59-.47,7.23,7.23,0,0,0-2,.28,3.64,3.64,0,0,0-.57,0H314.7a4.58,4.58,0,0,0-.9.09,4.53,4.53,0,0,0-.91-.09h-2.25a5.09,5.09,0,0,0-.69,0,7.64,7.64,0,0,0-2.09-.29,8.4,8.4,0,0,0-3.66.86,6.45,6.45,0,0,0-.59-.29,4.78,4.78,0,0,0-4.79-4.61h-2.25a4.8,4.8,0,0,0-2.94,1,9.62,9.62,0,0,0-2.87-.42c-3.21,0-8.88,1.27-10.78,9.81a21.11,21.11,0,0,0-.57,4.62c0,5.57,3.63,9.31,9,9.31a10.85,10.85,0,0,0,3.51-.55,4.72,4.72,0,0,0,1.71.32h2.26a4.74,4.74,0,0,0,2.2-.54,6.55,6.55,0,0,0,2.68.54h1.62a4.48,4.48,0,0,0,1.1-.13,7.46,7.46,0,0,0,2.32.36,7.64,7.64,0,0,0,2.65-.45,6.87,6.87,0,0,0,1.77.22h4.66a4.84,4.84,0,0,1,3,0h2.26a4.59,4.59,0,0,0,1.43-.22,4.78,4.78,0,0,0,4.75,4.14h2.26a4.78,4.78,0,0,0,4.67-3.76,8.18,8.18,0,0,0,2.34-.68,6.78,6.78,0,0,0,2.66.52h1.6a4.88,4.88,0,0,0,1.57-.26,9.87,9.87,0,0,0,6.29,0,4.64,4.64,0,0,0,1.69.31h2.26a4.73,4.73,0,0,0,2.19-.54,6.55,6.55,0,0,0,2.68.54h1.63a4.8,4.8,0,0,0,4.69-3.82l.34-1.67a5.2,5.2,0,0,0,.13-1.12,4.7,4.7,0,0,0-.52-2.15l.29-1.43,0-.15a12.7,12.7,0,0,0,.28-2.36c0-4.33-2.85-7.36-6.93-7.36a7.63,7.63,0,0,0-2.11.29,4.89,4.89,0,0,0-.66,0h-2.26a4.76,4.76,0,0,0-2,.43,9.16,9.16,0,0,0-3.14-.66,5.71,5.71,0,0,0-5.74-4.13Z"/><path d="M360.32,858.76a2.48,2.48,0,0,1,.65,1.66,2.35,2.35,0,0,1-.07.6l-.34,1.71a2.42,2.42,0,0,1-2.35,1.91h-1.63a3.79,3.79,0,0,1-2.84-1.13,2.42,2.42,0,0,1-2,1.13h-2.26a2.4,2.4,0,0,1-1.57-.58,7,7,0,0,1-3.34.81,6.44,6.44,0,0,1-3.16-.75,2.32,2.32,0,0,1-1.48.52h-1.6a3.85,3.85,0,0,1-2.63-.91,5.83,5.83,0,0,1-3.49,1.14,4.62,4.62,0,0,1-.84-.06l-.37,1.84a2.39,2.39,0,0,1-2.34,1.91h-2.26a2.38,2.38,0,0,1-2.35-2.85l.22-1.12a3.54,3.54,0,0,1-2.1-1,2.41,2.41,0,0,1-1.95,1h-2.26a2.35,2.35,0,0,1-1.51-.54,2.38,2.38,0,0,1-1.51.54h-2.25a1.69,1.69,0,0,1-.33,0,2.34,2.34,0,0,1-.38,0h-1.69a4.28,4.28,0,0,1-1.87-.4,5,5,0,0,1-2.55.63,5,5,0,0,1-2.28-.53,2.36,2.36,0,0,1-1.14.3H300.8a3.8,3.8,0,0,1-2.85-1.13,2.4,2.4,0,0,1-2,1.13h-2.26a2.43,2.43,0,0,1-1.55-.57,8.17,8.17,0,0,1-3.67.8c-4.09,0-6.64-2.65-6.64-6.92a18.6,18.6,0,0,1,.52-4.1c1.45-6.57,5.39-7.94,8.44-7.94a6.69,6.69,0,0,1,3.57,1,2.4,2.4,0,0,1,2.24-1.55h2.25a2.36,2.36,0,0,1,1.86.88,2.39,2.39,0,0,1,.49,2l-.24,1.18a4.31,4.31,0,0,1,3.14,1.39,5.89,5.89,0,0,1,3.79-1.39,5,5,0,0,1,2,.39,2.21,2.21,0,0,1,.82-.15h2.25a2.27,2.27,0,0,1,.91.18,2.33,2.33,0,0,1,.9-.18H317a2.58,2.58,0,0,1,.73.11,5,5,0,0,1,1.88-.35,4.67,4.67,0,0,1,2.57.75,5,5,0,0,1,2.71-.75,4.6,4.6,0,0,1,2.73.86,2.42,2.42,0,0,1,1.61-.62h2.26a2.38,2.38,0,0,1,.76.13,5.18,5.18,0,0,1,2-.37,5.24,5.24,0,0,1,2.35.57,3.71,3.71,0,0,1,0-.47,4.75,4.75,0,0,1,.21-1.37,3.83,3.83,0,0,1,3.89-2.85,3.33,3.33,0,0,1,3.57,3.3,4.64,4.64,0,0,1-.14,1.08,7.16,7.16,0,0,1,1.94-.26,6.21,6.21,0,0,1,3.67,1.09,2.39,2.39,0,0,1,1.82-.85h2.26a2.56,2.56,0,0,1,.79.13,5.17,5.17,0,0,1,2-.37c2.76,0,4.54,1.95,4.54,5a11.74,11.74,0,0,1-.27,2Z"/><path class="cls-12" d="M284.19,858a15.88,15.88,0,0,1,.46-3.58c.9-4,2.9-6.07,6.11-6.07a3.79,3.79,0,0,1,4,3.24l-2.12.88c-.12-1.39-.78-2.06-2.1-2.06-1.91,0-2.83,1-3.38,3.83l-.43,2.2a7.46,7.46,0,0,0-.2,1.48c0,1.72.69,2.55,2.14,2.55s2.38-.65,3-2.26l2,.9a5.34,5.34,0,0,1-5.22,3.42C285.65,862.48,284.19,860.93,284.19,858Z"/><path class="cls-12" d="M296.57,847.71h2.26l-1.32,6.52h.28c.57-1.63,1.51-2.47,2.94-2.47s2.15.88,2.15,2.57a8.3,8.3,0,0,1-.22,1.53l-.9,4.56h1l-.38,1.83h-1.63c-.94,0-1.37-.4-1.37-1.28a2.8,2.8,0,0,1,.08-.57l.84-4.22a9.25,9.25,0,0,0,.16-1.4c0-.8-.3-1.12-1-1.12a1.78,1.78,0,0,0-1.54.91,5.48,5.48,0,0,0-.94,2.16l-1.12,5.52h-2.26Z"/><path class="cls-12" d="M310.26,862.25c-.94,0-1.37-.4-1.37-1.24a3.25,3.25,0,0,1,.07-.63L309,860h-.25c-.69,1.79-1.55,2.51-3,2.51-1.61,0-2.49-1-2.49-3.26a13.67,13.67,0,0,1,.25-2.41c.59-3.23,2-5,4.27-5a2,2,0,0,1,2.16,2h.25l.35-1.77h2.26l-1.69,8.43h1.12l-.37,1.83Zm-1.65-2.66a6.19,6.19,0,0,0,.91-2.06l.41-2.06a1.42,1.42,0,0,0-1.52-1.81c-1.27,0-1.9.81-2.23,2.46l-.34,1.63a10.22,10.22,0,0,0-.2,1.45,1.2,1.2,0,0,0,1.28,1.38A1.94,1.94,0,0,0,308.61,859.59Z"/><path class="cls-12" d="M312.66,862.25l2-10.26H317l-.45,2.24h.27c.57-1.63,1.44-2.47,2.79-2.47s2.07.84,2.1,2.47h.26c.59-1.63,1.51-2.47,2.93-2.47s2.08.88,2.08,2.57a8.51,8.51,0,0,1-.22,1.55l-.9,4.52h1l-.37,1.85h-1.63c-.95,0-1.38-.4-1.38-1.28a2.27,2.27,0,0,1,.08-.57l.86-4.32a7.94,7.94,0,0,0,.16-1.3c0-.8-.27-1.12-.94-1.12s-.94.26-1.4.91a5.7,5.7,0,0,0-.94,2.08l-1.12,5.6h-2.26l1.28-6.39a5.32,5.32,0,0,0,.12-1.08c0-.8-.28-1.12-.93-1.12a1.69,1.69,0,0,0-1.41.91,5.27,5.27,0,0,0-.94,2.08l-1.12,5.6Z"/><path class="cls-12" d="M329.2,852h2.26l-.46,2.28h.26c.69-1.79,1.55-2.51,2.95-2.51,1.61,0,2.49,1,2.49,3.26a14.69,14.69,0,0,1-.25,2.41c-.59,3.23-2,5.05-4.27,5.05a2,2,0,0,1-2.16-2h-.25l-1.14,5.7h-2.26Zm4.67,6.13.34-1.63a11.15,11.15,0,0,0,.19-1.45c0-.87-.43-1.38-1.27-1.38a2,2,0,0,0-1.69,1,6.13,6.13,0,0,0-.91,2.07l-.41,2a1.43,1.43,0,0,0,1.51,1.83C332.91,860.58,333.54,859.77,333.87,858.12Z"/><path class="cls-12" d="M338.29,862.25c-.94,0-1.37-.38-1.37-1.26a2.85,2.85,0,0,1,.08-.65l1.66-8.35h2.26l-1.69,8.41h1l-.38,1.85Zm.63-12.79a2.38,2.38,0,0,1,.12-.69,1.45,1.45,0,0,1,1.59-1.14c.75,0,1.18.33,1.18.9a2.33,2.33,0,0,1-.12.69,1.46,1.46,0,0,1-1.59,1.14C339.35,850.36,338.92,850,338.92,849.46Z"/><path class="cls-12" d="M341,858.55a10.84,10.84,0,0,1,.2-2.08c.61-2.93,2.08-4.71,4.77-4.71,2.36,0,3.52,1.29,3.52,3.92a10.86,10.86,0,0,1-.2,2.09c-.61,2.93-2.08,4.71-4.77,4.71C342.18,862.48,341,861.19,341,858.55Zm5.78-.41.37-1.92a4.73,4.73,0,0,0,.1-.93c0-1.16-.47-1.69-1.48-1.69s-1.72.73-2.06,2.5l-.37,1.92a4.73,4.73,0,0,0-.1.93c0,1.16.47,1.69,1.47,1.69S346.46,859.91,346.8,858.14Z"/><path class="cls-12" d="M349.45,862.25l2-10.26h2.26l-.45,2.24h.27c.57-1.63,1.52-2.47,2.95-2.47s2.14.88,2.14,2.57a9.68,9.68,0,0,1-.21,1.57l-.91,4.52h1l-.37,1.83h-1.63c-.94,0-1.38-.4-1.38-1.28a2.8,2.8,0,0,1,.08-.57l.85-4.22a9.25,9.25,0,0,0,.16-1.4c0-.8-.3-1.12-1-1.12a1.75,1.75,0,0,0-1.53.91,5.27,5.27,0,0,0-.94,2.08l-1.12,5.6Z"/><path class="cls-2" d="M811.6,869.06a2.46,2.46,0,0,0-2.48-2.43h-.27l-6,.07h-.27a2.46,2.46,0,0,0-2.42,2.49v.27l.18,15.53h0l0,2.72.08,6.46v.27a2.46,2.46,0,0,0,2.49,2.42h.27l6-.07h.27a2.46,2.46,0,0,0,2.43-2.49V894l-.07-5.9h0l0-2.58v-.7h0l-.18-15.53Z"/><path class="cls-12" d="M810.45,894.57l-8-1.42-.11-5,1.47.27.07,3.33,1.76.32-.07-2.93,1.47.26.07,2.94,3.31.58Z"/><path class="cls-12" d="M810.22,883.92l-1.94.23.05,2.55,2,.89,0,1.77-8.07-3.92,0-2.12,8-1.08Zm-6.47.68v.09l3.19,1.39,0-1.79Z"/><path class="cls-12" d="M808.89,881.7l-1-1.24a1.81,1.81,0,0,0,.9-1.73c0-1-.52-1.5-1.18-1.49-.48,0-.7.41-.8.93l-.11.53c-.22,1.17-.8,1.93-2.08,1.95-1.45,0-2.6-1.17-2.64-3a3.34,3.34,0,0,1,1-2.76l1.1,1.18a1.69,1.69,0,0,0-.67,1.61c0,.83.42,1.33,1,1.32s.64-.32.75-.87l.11-.51c.24-1.23.84-2.05,2.09-2.08a3,3,0,0,1,2.87,3.17A3.08,3.08,0,0,1,808.89,881.7Z"/><path class="cls-12" d="M803.41,870.46l6.54,1.16,0,1.66-6.54-1.16,0,2.1L802,874l-.13-5.86,1.47.26Z"/><rect class="cls-27" x="626.62" y="780.48" width="386.38" height="133.58"/><path class="cls-12" d="M353.32,556.35a14.15,14.15,0,0,1-.39,3.07c-.78,3.46-2.49,5.2-5.23,5.2a3.26,3.26,0,0,1-3.47-2.78l1.82-.76c.1,1.2.67,1.77,1.8,1.77,1.63,0,2.42-.88,2.89-3.28l.37-1.89a6.25,6.25,0,0,0,.17-1.26c0-1.48-.59-2.18-1.83-2.18a2.44,2.44,0,0,0-2.54,1.93l-1.7-.77a4.56,4.56,0,0,1,4.47-2.93C352.07,552.47,353.32,553.8,353.32,556.35Z"/><path class="cls-12" d="M342.72,565.12h-1.94l1.13-5.58h-.24a2.61,2.61,0,0,1-2.52,2.11c-1.24,0-1.83-.75-1.83-2.2a7.63,7.63,0,0,1,.18-1.31l.77-3.9h-.89l.32-1.57h1.4c.81,0,1.18.34,1.18,1.09a2.63,2.63,0,0,1-.07.49l-.72,3.62a7.52,7.52,0,0,0-.14,1.19c0,.69.25,1,.84,1a1.5,1.5,0,0,0,1.32-.77,4.6,4.6,0,0,0,.8-1.85l1-4.73h1.94Z"/><path class="cls-12" d="M331,552.67c.81,0,1.18.34,1.18,1.06a2.42,2.42,0,0,1-.07.54l-.07.35h.22c.59-1.53,1.33-2.15,2.53-2.15,1.38,0,2.13.87,2.13,2.79a11.81,11.81,0,0,1-.22,2.07c-.5,2.76-1.73,4.32-3.65,4.32a1.69,1.69,0,0,1-1.85-1.71H331l-.3,1.51h-1.93l1.44-7.21h-1l.32-1.57Zm1.41,2.27a5.42,5.42,0,0,0-.77,1.77l-.35,1.77a1.21,1.21,0,0,0,1.29,1.54c1.1,0,1.63-.69,1.92-2.1l.29-1.4a9.15,9.15,0,0,0,.16-1.24c0-.74-.37-1.18-1.09-1.18A1.68,1.68,0,0,0,332.4,554.94Z"/><path class="cls-12" d="M328.94,552.67l-1.75,8.78h-1.94l.39-1.91h-.23c-.49,1.39-1.23,2.11-2.39,2.11s-1.77-.72-1.8-2.11H321c-.51,1.39-1.3,2.11-2.51,2.11s-1.78-.75-1.78-2.2a7.85,7.85,0,0,1,.18-1.33l.78-3.87h-.9l.32-1.58h1.4c.81,0,1.18.34,1.18,1.09a2,2,0,0,1-.07.49l-.74,3.7a6.54,6.54,0,0,0-.13,1.11c0,.69.23,1,.8,1a1.41,1.41,0,0,0,1.2-.77,5,5,0,0,0,.81-1.78l.95-4.8h1.94l-1.09,5.47a4.45,4.45,0,0,0-.1.92c0,.69.23,1,.79,1a1.46,1.46,0,0,0,1.21-.77,4.75,4.75,0,0,0,.81-1.78l.95-4.8Z"/><path class="cls-12" d="M314.77,561.45h-1.93l.39-2H313c-.59,1.53-1.33,2.15-2.53,2.15-1.38,0-2.13-.87-2.13-2.79a11.81,11.81,0,0,1,.22-2.07c.5-2.76,1.73-4.32,3.65-4.32a1.69,1.69,0,0,1,1.85,1.72h.22l1-4.88h1.94Zm-4-5.25-.29,1.4a9.07,9.07,0,0,0-.16,1.25,1,1,0,0,0,1.09,1.17,1.68,1.68,0,0,0,1.45-.84,5.47,5.47,0,0,0,.77-1.76l.35-1.76a1.22,1.22,0,0,0-1.29-1.56C311.59,554.1,311.06,554.79,310.77,556.2Z"/><path class="cls-12" d="M307,552.67c.8,0,1.17.32,1.17,1.08a2.41,2.41,0,0,1-.06.55l-1.43,7.15h-1.94l1.45-7.2h-.89l.32-1.58Zm-.54,11a2.35,2.35,0,0,1-.1.59,1.27,1.27,0,0,1-1.37,1c-.64,0-1-.29-1-.78a2,2,0,0,1,.11-.58,1.24,1.24,0,0,1,1.36-1C306.08,562.85,306.45,563.14,306.45,563.62Z"/><path class="cls-12" d="M304.65,555.83a9.33,9.33,0,0,1-.17,1.79c-.52,2.5-1.78,4-4.09,4-2,0-3-1.11-3-3.36a9.16,9.16,0,0,1,.17-1.78c.52-2.51,1.78-4,4.09-4C303.66,552.47,304.65,553.58,304.65,555.83Zm-4.95.36-.32,1.65a4.07,4.07,0,0,0-.08.79c0,1,.4,1.44,1.26,1.44s1.48-.62,1.77-2.13l.32-1.65a4.07,4.07,0,0,0,.08-.79c0-1-.4-1.45-1.26-1.45S300,554.67,299.7,556.19Z"/><path class="cls-12" d="M297.43,552.67l-1.75,8.78h-1.93l.38-1.91h-.23c-.49,1.39-1.3,2.11-2.53,2.11s-1.83-.75-1.83-2.2a8.08,8.08,0,0,1,.18-1.35l.78-3.86h-.89l.32-1.57h1.39c.81,0,1.18.34,1.18,1.09a2,2,0,0,1-.07.49l-.72,3.62a7.45,7.45,0,0,0-.13,1.19c0,.69.25,1,.84,1a1.5,1.5,0,0,0,1.31-.77,4.75,4.75,0,0,0,.81-1.78l1-4.8Z"/><rect class="cls-12" x="192.6" y="722.58" width="11.64" height="32.52" transform="translate(396.83 1477.67) rotate(-180)"/><rect class="cls-12" x="174.7" y="722.58" width="11.64" height="32.52" transform="translate(361.04 1477.67) rotate(-180)"/><circle class="cls-12" cx="281.58" cy="822.33" r="9.11"/><path class="cls-2" d="M281.58,814.24a8.1,8.1,0,1,1-8.1,8.09,8.09,8.09,0,0,1,8.1-8.09m0-2a10.12,10.12,0,1,0,10.11,10.11,10.13,10.13,0,0,0-10.11-10.11Z"/><circle class="cls-23" cx="281.58" cy="824.74" r="3.52"/><circle class="cls-23" cx="281.58" cy="818.03" r="1.68"/><circle class="cls-23" cx="277.1" cy="820.24" r="1.68"/><circle class="cls-23" cx="286.06" cy="820.24" r="1.68"/><rect class="cls-28" x="992" width="32" height="32"/><rect class="cls-11" x="626.62" y="780.48" width="386.38" height="12.89"/><path class="cls-29" d="M377.33,885.09c-10.89,12.3-32,20.64-56.22,20.64-24.58,0-45.93-8.57-56.67-21.16A42.95,42.95,0,0,0,299,887.24a67.56,67.56,0,0,1,44.82,0,42.92,42.92,0,0,0,33.53-2.15Z"/><g class="cls-14"><path d="M321,5V151.59c-46.33,0-83.91,36.38-84.07,44.26v.05L235.3,213c-1.2,12.75-16.54,22.95-26.23,15.52s-30.16-18.38-57.22,27.74S0,318.87,0,318.87V5Z"/><path d="M321,5V151.59c46.33,0,83.91,36.38,84.07,44.26v.05l1.61,17.1c1.2,12.75,16.54,22.95,26.23,15.52s30.16-18.38,57.22,27.74S642,318.87,642,318.87V5Z"/></g><path class="cls-30" d="M321,0V146.59c-46.33,0-83.91,36.38-84.07,44.26v.05L235.3,208c-1.2,12.75-16.54,22.95-26.23,15.52s-30.16-18.38-57.22,27.74S0,313.87,0,313.87V0Z"/><path class="cls-30" d="M321,0V146.59c46.33,0,83.91,36.38,84.07,44.26v.05l1.61,17.1c1.2,12.75,16.54,22.95,26.23,15.52s30.16-18.38,57.22,27.74S642,313.87,642,313.87V0Z"/><path class="cls-30" d="M342.62,200.26a5.27,5.27,0,0,0,1.49.31,52.16,52.16,0,0,1,14.8,3.42,5,5,0,0,0,3.51-9.36,62.14,62.14,0,0,0-17.78-4,5,5,0,0,0-2,9.68Z"/><path class="cls-30" d="M299.08,200.39a5,5,0,0,0-1.89-9.7,62.33,62.33,0,0,0-17.83,3.8,5,5,0,1,0,3.39,9.41,52.25,52.25,0,0,1,14.84-3.22A4.93,4.93,0,0,0,299.08,200.39Z"/><g class="cls-14"><path d="M331.17,245.9c-1.22,4-4.95,5.36-9.36,5.36v-9.14l7.76,1.24A2,2,0,0,1,331.17,245.9Z"/><path d="M312.48,245.9c1.22,4,4.95,5.36,9.35,5.36v-9.14l-7.75,1.24A2,2,0,0,0,312.48,245.9Z"/></g><rect class="cls-31" x="992" width="32" height="32"/><rect class="cls-32" x="343.93" y="213.32" width="14.17" height="21.7" rx="7.09" ry="7.09"/><rect class="cls-32" x="285.36" y="213.32" width="14.17" height="21.7" rx="7.09" ry="7.09" transform="translate(584.89 448.34) rotate(-180)"/><path d="M338.09,255.88v1.24a16.18,16.18,0,0,1-5.54,12.22c-.43.37-.86.72-1.32,1.05l-.66.44a16.86,16.86,0,0,1-2.09,1.13,16.14,16.14,0,0,1-6.22,1.42h-.88a16.1,16.1,0,0,1-6.22-1.42,15.54,15.54,0,0,1-2.09-1.13c-.23-.14-.44-.29-.66-.45a16.37,16.37,0,0,1-6.86-13.26v-1.24Z"/><ellipse class="cls-33" cx="321.82" cy="268.68" rx="6.73" ry="4.71"/><path class="cls-2" d="M306.91,255.88a4.75,4.75,0,0,0,4.74,4.74H332a4.73,4.73,0,0,0,4.74-4.74Z"/><path class="cls-2" d="M330.57,270.83a16.86,16.86,0,0,1-2.09,1.13,16.14,16.14,0,0,1-6.22,1.42h-.88a16.1,16.1,0,0,1-6.22-1.42,15.54,15.54,0,0,1-2.09-1.13c1.57-1.35,4.9-1.35,8.75-1.35S329,269.48,330.57,270.83Z"/></g></g></g></svg>