<svg xmlns="http://www.w3.org/2000/svg" xmlns:xlink="http://www.w3.org/1999/xlink" viewBox="0 0 1024 1024"><defs><style>.cls-1{isolation:isolate;}.cls-2{fill:#fff;}.cls-3{fill:#f39454;}.cls-4{fill:#f6a563;}.cls-5{opacity:0.1;mix-blend-mode:multiply;fill:url(#linear-gradient);}.cls-12,.cls-6{opacity:0.15;}.cls-12,.cls-27,.cls-28,.cls-6{mix-blend-mode:overlay;}.cls-6{fill:url(#linear-gradient-2);}.cls-7{fill:#e4783e;}.cls-8{fill:red;}.cls-9{fill:#aa1f4a;}.cls-10{fill:#da1c4b;}.cls-11{fill:#cfe0e9;}.cls-13{fill:#f69878;}.cls-14{fill:#f37b67;opacity:0.5;}.cls-15{fill:#d3eef4;}.cls-16{fill:#c9dce6;}.cls-17{fill:#a3204c;}.cls-18{fill:url(#linear-gradient-3);}.cls-19{fill:url(#linear-gradient-4);}.cls-20{fill:#1a1a1a;}.cls-21{fill:#f9f9f9;}.cls-22{fill:#1f1f1f;}.cls-23{fill:#ccdde7;}.cls-24{fill:url(#linear-gradient-5);}.cls-25{fill:lime;}.cls-26{fill:#220f0f;}.cls-27,.cls-28{opacity:0.25;}.cls-28{fill:none;stroke:#000;stroke-linecap:round;stroke-miterlimit:10;stroke-width:5px;}.cls-29{fill:blue;}</style><linearGradient id="linear-gradient" x1="321.5" y1="490" x2="321.5" y2="187.52" gradientUnits="userSpaceOnUse"><stop offset="0" stop-color="#f69878"/><stop offset="1" stop-color="#f69878" stop-opacity="0"/></linearGradient><linearGradient id="linear-gradient-2" x1="321.68" y1="286" x2="321.68" y2="431.12" gradientUnits="userSpaceOnUse"><stop offset="0"/><stop offset="1" stop-opacity="0"/></linearGradient><linearGradient id="linear-gradient-3" x1="271.06" y1="741.83" x2="199.38" y2="741.83" xlink:href="#linear-gradient-2"/><linearGradient id="linear-gradient-4" x1="364.96" y1="741.83" x2="441.39" y2="741.83" xlink:href="#linear-gradient-2"/><linearGradient id="linear-gradient-5" x1="819.81" y1="914.06" x2="819.81" y2="780.48" gradientUnits="userSpaceOnUse"><stop offset="0" stop-color="#aa1f4a" stop-opacity="0"/><stop offset="0.3" stop-color="#aa1f4a" stop-opacity="0.01"/><stop offset="0.45" stop-color="#aa1f4a" stop-opacity="0.06"/><stop offset="0.58" stop-color="#aa1f4a" stop-opacity="0.14"/><stop offset="0.68" stop-color="#aa1f4a" stop-opacity="0.25"/><stop offset="0.77" stop-color="#aa1f4a" stop-opacity="0.39"/><stop offset="0.86" stop-color="#aa1f4a" stop-opacity="0.57"/><stop offset="0.93" stop-color="#aa1f4a" stop-opacity="0.78"/><stop offset="1" stop-color="#aa1f4a"/></linearGradient></defs><title>racerRedMale</title><g class="cls-1"><g id="Layer_2" data-name="Layer 2"><g id="Layer_1-2" data-name="Layer 1"><rect class="cls-2" width="1024" height="1024"/><rect class="cls-3" x="624" y="524" width="400" height="240"/><rect class="cls-4" width="643" height="490"/><rect class="cls-5" y="139.59" width="643" height="350.41"/><rect class="cls-4" x="824" y="134" width="200" height="390"/><path class="cls-6" d="M366,299h0a89.81,89.81,0,0,0-19.13,2.07h0a89.33,89.33,0,0,1-19.14,2.07H315.59a89.26,89.26,0,0,1-19.14-2.07h0A89.81,89.81,0,0,0,277.32,299h0a43.74,43.74,0,0,0-33,15c-6.51,7.48-12.32,16.72-11.37,25.21l15.3,137,71.88,5.58,1.52-2.82,1.52,2.82,71.87-5.58,15.31-137c.95-8.49-4.86-17.73-11.38-25.21A43.71,43.71,0,0,0,366,299Z"/><path class="cls-7" d="M442.55,216.37h8.29a18.41,18.41,0,0,1,18.41,18.41v1.43a18.41,18.41,0,0,1-18.41,18.41h-8.29a0,0,0,0,1,0,0V216.37a0,0,0,0,1,0,0Z"/><path class="cls-4" d="M437.85,216.37h8.29a18.41,18.41,0,0,1,18.41,18.41v1.43a18.41,18.41,0,0,1-18.41,18.41h-8.29a0,0,0,0,1,0,0V216.37A0,0,0,0,1,437.85,216.37Z"/><ellipse class="cls-7" cx="451.21" cy="235.5" rx="7.93" ry="4.4" transform="translate(132.36 632.21) rotate(-78.77)"/><path class="cls-7" d="M173.56,216.37h8.29a18.41,18.41,0,0,1,18.41,18.41v1.43a18.41,18.41,0,0,1-18.41,18.41h-8.29a0,0,0,0,1,0,0V216.37A0,0,0,0,1,173.56,216.37Z" transform="translate(373.83 471) rotate(-180)"/><path class="cls-4" d="M178.26,216.37h8.29A18.41,18.41,0,0,1,205,234.78v1.43a18.41,18.41,0,0,1-18.41,18.41h-8.29a0,0,0,0,1,0,0V216.37a0,0,0,0,1,0,0Z" transform="translate(383.22 471) rotate(-180)"/><ellipse class="cls-7" cx="191.61" cy="235.5" rx="4.4" ry="7.93" transform="matrix(0.98, -0.19, 0.19, 0.98, -42.19, 41.82)"/><polygon class="cls-4" points="579.88 654.47 544.43 654.47 491.56 654.47 460 654.47 460 654.47 445.83 654.47 428.62 681.05 422.17 725.5 423.38 763.65 432.45 812.23 457.05 819.12 460 823.21 460 823.21 491.56 823.21 544.43 823.21 579.88 823.21 615.98 823.21 615.98 654.47 579.88 654.47"/><polygon class="cls-4" points="194.91 654.47 180.74 654.47 180.74 654.47 149.18 654.47 96.31 654.47 60.86 654.47 24.76 654.47 24.76 823.21 60.86 823.21 96.31 823.21 149.18 823.21 180.74 823.21 180.74 823.21 183.69 819.12 208.29 812.23 217.36 763.65 218.57 725.5 212.12 681.05 194.91 654.47"/><rect class="cls-4" x="624" y="864.49" width="400" height="159.51"/><rect class="cls-8" x="992" width="32" height="32"/><ellipse class="cls-4" cx="320.36" cy="746.08" rx="73.24" ry="132.26"/><rect class="cls-9" x="5.44" y="494.89" width="614.17" height="515.27"/><rect class="cls-10" x="629.1" y="767.18" width="394.9" height="246.93"/><rect class="cls-11" x="631.59" y="987.53" width="383.62" height="36.47"/><rect class="cls-9" x="631.59" y="987.53" width="383.62" height="6.96"/><g class="cls-12"><rect x="164.96" y="654.47" width="7.84" height="188.74" transform="translate(337.77 1497.67) rotate(-180)"/><rect x="467.85" y="654.47" width="7.84" height="188.74" transform="translate(943.55 1497.67) rotate(-180)"/></g><path class="cls-13" d="M366.51,745.37c0,31.64-20.33,85.91-45.4,85.91S275.7,777,275.7,745.37,296,717,321.11,717,366.51,713.74,366.51,745.37Z"/><path class="cls-14" d="M364.05,767.18c-6.13,29.92-23,64.1-42.94,64.1s-36.82-34.18-42.95-64.1c7.67,27.58,24,55.75,42.95,55.75S356.38,794.76,364.05,767.18Z"/><rect class="cls-10" x="5.44" y="507.74" width="614.17" height="489.56"/><rect class="cls-11" x="705.4" y="548.73" width="285.42" height="178.39"/><rect class="cls-2" x="826.55" y="153.03" width="182.54" height="361.07"/><rect class="cls-7" x="656" y="34.77" width="316.94" height="92.48"/><rect class="cls-9" x="9.43" y="432.44" width="622.16" height="49.42"/><rect class="cls-10" x="9.43" y="432.44" width="622.16" height="4.64"/><rect class="cls-10" x="293.24" y="442.33" width="59.86" height="28.08" rx="2.43" ry="2.43"/><rect class="cls-15" x="268.16" y="447.02" width="46.4" height="18.71" rx="4.45" ry="4.45"/><rect class="cls-9" x="271.77" y="450.32" width="39.18" height="12.1" rx="1.92" ry="1.92"/><rect class="cls-16" x="643" y="145.1" width="175.65" height="366.9"/><rect class="cls-2" x="697.98" y="376.04" width="56.45" height="27.03" rx="9.24" ry="9.24"/><rect class="cls-2" x="697.98" y="200.52" width="56.45" height="27.03" rx="9.24" ry="9.24"/><path class="cls-4" d="M703.84,500.28l-59.29-19V324.8h18.5L663.1,353c0,.11,0,.21,0,.32L664.54,369a3.85,3.85,0,0,0,.08.47l6,26.1a1.05,1.05,0,0,0,.05.19l4,13.8c0,.11.07.23.11.34l11.5,28.5L694.39,458a28.55,28.55,0,0,0,6.24,9.36l.59.59A28.61,28.61,0,0,0,715,475.57l4.78,1.11a28.41,28.41,0,0,0,6.49.75,28.89,28.89,0,0,0,4.55-.37l6-1a28.71,28.71,0,0,0,22.35-18.33L771.06,426l11.26-31.08,18.46-49.12a3.55,3.55,0,0,0,.23-1.2l.11-13.64v-.16l-.43-11.6L821,322.58V355l-14.44,98-12.27,47.19Z"/><path class="cls-16" d="M804.34,323.36l13.19,2.19v29.24l-14.37,97.6-11.54,44.39H704.39l-56.34-18.1V328.31h11.51l0,24.67c0,.21,0,.41,0,.62l1.43,15.67a7.21,7.21,0,0,0,.15.93l6,26.11.09.38,4,13.8c.07.22.15.45.24.67l11.49,28.5,0,0,8.08,19.59a32.17,32.17,0,0,0,7,10.49l.59.59a32.12,32.12,0,0,0,15.5,8.6l4.78,1.11a31.89,31.89,0,0,0,7.28.84,32.31,32.31,0,0,0,5.11-.41l6-1A32.21,32.21,0,0,0,762.51,459l11.83-31.77,0-.06,11.23-31L804.06,347a7,7,0,0,0,.45-2.4l.11-13.64v-.32l-.28-7.32m-7.31-8.3.59,15.88-.11,13.64L779,393.74l-11.25,31.05L756,456.55a25.23,25.23,0,0,1-19.62,16.09l-6,1a25.49,25.49,0,0,1-4,.32,25,25,0,0,1-5.7-.66l-4.78-1.11a25.16,25.16,0,0,1-12.13-6.73l-.59-.59a25.08,25.08,0,0,1-5.47-8.21L689.55,437l-11.5-28.5-4-13.8-6-26.11L666.6,353l-.05-31.66h-25.5V483.78l62.24,20H797l13-50,14.5-98.48V319.61L797,315.06Z"/><path class="cls-4" d="M703.84,324.81l-59.29-19.05V145.34h18.5l.05,32.16c0,.11,0,.21,0,.32l1.43,15.67a3.69,3.69,0,0,0,.08.46l6,26.11a1.8,1.8,0,0,0,.05.19l4,13.79a3.38,3.38,0,0,0,.11.34l11.5,28.5,8.09,19.62a28.61,28.61,0,0,0,6.24,9.35l.59.59A28.71,28.71,0,0,0,715,300.11l4.78,1.11a28.87,28.87,0,0,0,11,.38l6-1a28.72,28.72,0,0,0,22.35-18.32l11.83-31.77,11.26-31.08,18.7-49.1a3.61,3.61,0,0,0,.22-1.22l.12-13.64a1.48,1.48,0,0,0,0-.21l-.6-11.54L821,147.11v32.47l-14.44,98-12.27,47.19Z"/><path class="cls-16" d="M804.47,147.92l13.06,2.16v29.24l-14.37,97.6-11.54,44.39H704.39l-56.34-18.1V148.84h11.51l0,28.67q0,.31,0,.63l1.43,15.66a7.36,7.36,0,0,0,.15.94l6,26.1.09.38,4,13.8c.07.23.15.45.24.67l11.49,28.5,0,.05,8.08,19.59a32.21,32.21,0,0,0,7,10.5l.59.59a32.28,32.28,0,0,0,15.5,8.6l4.78,1.11a32.22,32.22,0,0,0,12.39.42l6-1a32.2,32.2,0,0,0,25.07-20.56l11.83-31.76,0-.06,11.22-31,18.7-49.11a7,7,0,0,0,.45-2.43l.12-13.64c0-.14,0-.28,0-.42l-.38-7.19M797,139.59l.83,15.88-.12,13.64L779,218.27l-11.25,31L756,281.09a25.15,25.15,0,0,1-7.8,10.82h0a25.15,25.15,0,0,1-11.82,5.26l-6,1a25.25,25.25,0,0,1-9.7-.33l-4.78-1.11A25.32,25.32,0,0,1,703.69,290l-.59-.59a25,25,0,0,1-5.47-8.22l-8.08-19.59-11.5-28.5-4-13.8-6-26.1L666.6,177.5l-.05-35.65h-25.5V308.31l62.24,20H797l13-50,14.5-98.49V144.14L797,139.59Z"/><polygon class="cls-9" points="614.28 654.21 459.65 654.21 459.65 654.47 445.83 654.47 428.62 681.05 422.17 725.5 423.38 763.65 432.45 812.23 457.05 819.12 460 843.21 460 843.21 485.19 843.21 485.19 828.99 614.28 828.99 614.28 654.21"/><rect class="cls-9" x="267.94" y="804.02" width="27.27" height="15.91"/><rect class="cls-9" x="267.94" y="824.12" width="27.27" height="15.91"/><polygon class="cls-9" points="212.12 681.05 194.91 654.47 180.74 654.47 180.74 654.47 179.38 654.47 179.38 654.21 24.76 654.21 24.76 828.99 155.55 828.99 155.55 843.21 180.74 843.21 180.74 843.21 183.69 819.12 208.29 812.23 217.36 763.65 218.57 725.5 212.12 681.05"/><path class="cls-17" d="M317,758.52h4.12a0,0,0,0,1,0,0V966.31a2.06,2.06,0,0,1-2.06,2.06h0a2.06,2.06,0,0,1-2.06-2.06V758.52A0,0,0,0,1,317,758.52Z"/><rect class="cls-9" x="282.99" y="545.38" width="78.37" height="23.74" rx="6.41" ry="6.41"/><rect class="cls-9" x="5.44" y="494.89" width="614.17" height="12.85"/><rect class="cls-9" x="5.44" y="997.3" width="614.17" height="12.86"/><polygon class="cls-18" points="218.57 725.5 217.36 763.65 214 781.65 199.65 743.38 215.16 702.01 218.57 725.5"/><polygon class="cls-19" points="441.09 743.38 426.74 781.65 423.38 763.65 422.17 725.5 425.58 702.01 441.09 743.38"/><rect class="cls-20" x="281.99" y="581.96" width="78.37" height="84.47" rx="9.59" ry="9.59"/><path class="cls-2" d="M349.19,644.79c-.3,2.71-.24,5.91-.3,8.38v.06c-8.57.18-18.73.68-26.81-.12V653c.19-3.2-.06-5.36-.06-8.56,4.93-11.4,12.26-22.74,18.18-34.38,2.46,0,6.9-.68,9.36,0-5.6,12-11.27,23-16.2,34.13,4.74.31,11.52.74,15.71.56Z"/><path class="cls-2" d="M316.67,609.61h2.77a.22.22,0,0,1,.06.18c-.49,5.55.49,11-2.16,15.28-3.94,4.44-8.87,6-13.12,9.43-3.33,2.15-2.77,8.32,1,8.81,4,0,4.37-4.5,4.56-7.46v-.12h.06a39.09,39.09,0,0,1,9.12-.31h.06v.13c1,5.66-.06,10.84-3.08,14.23-3.27,4.25-13.19,4.37-17.62,2.59-3.7-1.91-5.61-5.86-6-10.29-.06-1.73-.19-3.89-.13-5.55.74-9.12,11.47-9.06,15.9-14.48.31-.8,1.36-3.26.68-3.57-5.48-.19-9.86.12-15.22.12-.68-1.66-.49-3.88-.43-5.91A10.26,10.26,0,0,0,293,610c0-.07.06-.07.24-.07Z"/><rect class="cls-10" x="292.05" y="596.73" width="57.02" height="6.11"/><rect class="cls-11" x="594.67" y="650.26" width="19.61" height="178.73"/><rect class="cls-11" x="24.76" y="650.26" width="22.05" height="178.73"/><path class="cls-21" d="M401.87,727.12H422.5a16.33,16.33,0,0,1,16.33,16.33v0a16.33,16.33,0,0,1-16.33,16.33H401.87a0,0,0,0,1,0,0V727.12A0,0,0,0,1,401.87,727.12Z" transform="translate(840.7 1486.91) rotate(-180)"/><circle class="cls-22" cx="418.2" cy="743.45" r="12.94"/><path class="cls-10" d="M418.2,736.24v14.42a7.21,7.21,0,1,0,0-14.42Z"/><rect class="cls-2" x="444.65" y="727.12" width="11.64" height="32.52"/><rect class="cls-20" x="350.84" y="823.09" width="28.12" height="30.31" rx="3.44" ry="3.44" transform="translate(796.01 1644.45) rotate(175.39)"/><path class="cls-2" d="M354.27,831.61c0-1-.08-2.12-.13-3v0a88.76,88.76,0,0,1,9.59-.73v0c0,1.15.18,1.91.27,3.06-1.44,4.22-3.73,8.48-5.51,12.82a15.68,15.68,0,0,1-3.35.27c1.66-4.46,3.37-8.55,4.81-12.68-1.7,0-4.14.07-5.64.26Z"/><path class="cls-2" d="M366.92,843.26l-1,.08a.11.11,0,0,1,0-.07c0-2-.49-3.91.33-5.53,1.29-1.7,3-2.39,4.42-3.75,1.13-.86.76-3-.62-3.12-1.44.12-1.44,1.74-1.42,2.8v.05h0a14.05,14.05,0,0,1-3.25.37h0v0a6,6,0,0,1,.7-5.18c1-1.62,4.59-2,6.22-1.44a4.44,4.44,0,0,1,2.46,3.51c.07.62.18,1.38.2,2,0,3.28-3.83,3.57-5.26,5.64-.09.29-.4,1.21-.14,1.29,2-.09,3.52-.32,5.44-.48a5.67,5.67,0,0,1,.32,2.11,3.89,3.89,0,0,0,.12,1s0,0-.08,0Z"/><rect class="cls-2" x="355.6" y="845.86" width="20.46" height="2.19" transform="translate(798.55 1661.77) rotate(175.39)"/><path class="cls-2" d="M375.23,805.25a2.71,2.71,0,0,0,2.3-3.06l0-.29-.93-6.54,0-.29a2.71,2.71,0,0,0-3.06-2.3l-.29,0-16.93,2.41h0l-3,.43-7,1-.29,0a2.69,2.69,0,0,0-2.29,3.06l0,.29.93,6.54,0,.29a2.7,2.7,0,0,0,3.06,2.29l.29,0,6.43-.91h0l2.82-.4.75-.11h0l16.93-2.41Z"/><path class="cls-10" d="M347.82,806.88l.51-8.52,5.19-.72-.09,1.56-3.47.48-.12,1.87,3.06-.42-.1,1.56-3.05.43-.2,3.52Z"/><path class="cls-10" d="M358.9,805.35l-.47-2-2.65.37-.7,2.16-1.84.25,3.12-8.88,2.19-.31,2.09,8.16Zm-1.5-6.66h-.09l-1.05,3.49,1.85-.26Z"/><path class="cls-10" d="M361.06,803.69l1.17-1.22a1.89,1.89,0,0,0,1.91.73c1-.14,1.51-.72,1.41-1.41-.07-.49-.52-.67-1.07-.72l-.56,0a2.15,2.15,0,0,1-2.29-1.94c-.21-1.5.91-2.85,2.82-3.11a3.44,3.44,0,0,1,3,.76L366.36,798a1.79,1.79,0,0,0-1.76-.5c-.86.12-1.34.6-1.26,1.18s.42.63,1,.68l.54,0c1.31.11,2.24.63,2.42,1.93a3.15,3.15,0,0,1-3,3.37A3.24,3.24,0,0,1,361.06,803.69Z"/><path class="cls-10" d="M372.11,796.61l-.41,7-1.72.24.41-7-2.19.3.1-1.56,6.1-.85-.1,1.57Z"/><path class="cls-2" d="M639.77,894.45a2.46,2.46,0,0,0,2.49,2.42h.27l6-.07h.27a2.46,2.46,0,0,0,2.43-2.49V894L651,878.51h0l0-2.73-.07-6.45v-.27a2.46,2.46,0,0,0-2.48-2.43h-.27l-6,.07h-.27a2.46,2.46,0,0,0-2.42,2.49v.27l.07,5.9h0l0,2.58v.69h0l.18,15.54Z"/><path class="cls-10" d="M640.93,868.94l8,1.42.11,5-1.47-.27-.08-3.33-1.75-.32.06,2.94-1.47-.27-.06-2.93L641,870.6Z"/><path class="cls-10" d="M641.16,879.59l1.94-.23-.06-2.55-2-.89,0-1.77,8.07,3.92,0,2.12-7.95,1.08Zm6.47-.68v-.09l-3.18-1.39,0,1.79Z"/><path class="cls-10" d="M642.49,881.81l1,1.24a1.8,1.8,0,0,0-.9,1.73c0,1,.52,1.51,1.18,1.49.48,0,.7-.41.8-.93l.1-.53c.23-1.17.81-1.93,2.09-1.95,1.45,0,2.59,1.17,2.63,3a3.3,3.3,0,0,1-1,2.76l-1.1-1.18a1.69,1.69,0,0,0,.67-1.61c0-.83-.42-1.33-1-1.32s-.64.32-.76.87l-.1.51c-.25,1.23-.85,2.05-2.09,2.08a3,3,0,0,1-2.87-3.17A3.08,3.08,0,0,1,642.49,881.81Z"/><path class="cls-10" d="M648,893.05l-6.54-1.16,0-1.66,6.55,1.16-.05-2.1,1.47.26.13,5.86-1.47-.26Z"/><path class="cls-23" d="M315.36,773.35l-5.37,4a2.31,2.31,0,0,0-.18,3.54l2.81,2.58a2.31,2.31,0,0,0,3.71-.86l2.55-6.61A2.3,2.3,0,0,0,315.36,773.35Z"/><path class="cls-2" d="M328.2,909.94a4.91,4.91,0,0,1-3.8-1.79,4.83,4.83,0,0,1-1-4.09,6.4,6.4,0,0,1-.84-.39,4.94,4.94,0,0,1-2.81.9h-3.1a4.89,4.89,0,0,1-2.07-.46,4.91,4.91,0,0,1-2.06.46h-3.1a3.44,3.44,0,0,1-.46,0l-.51,0h-2.31a7.8,7.8,0,0,1-2.5-.4,9.12,9.12,0,0,1-6.7.14,4.8,4.8,0,0,1-1.55.26h-2.23a7.28,7.28,0,0,1-3.75-1,4.86,4.86,0,0,1-2.93,1h-3.1a5,5,0,0,1-2.29-.57,13.28,13.28,0,0,1-4.88.88c-6.52,0-10.73-4.37-10.73-11.13a27.78,27.78,0,0,1,.74-6c2.36-10.58,9.26-12.16,13.17-12.16a11.15,11.15,0,0,1,4.32.82,5,5,0,0,1,3.65-1.63h3.1a4.91,4.91,0,0,1,4.83,5.82,7.38,7.38,0,0,1,2.47,1.16,9.81,9.81,0,0,1,5.09-1.44,8.66,8.66,0,0,1,2.75.44,5.19,5.19,0,0,1,1.05-.11h3.1a4.69,4.69,0,0,1,1.24.16,4.61,4.61,0,0,1,1.23-.16h3.12a5.38,5.38,0,0,1,.9.08,8.77,8.77,0,0,1,2.67-.41,8.38,8.38,0,0,1,3.54.79,8.77,8.77,0,0,1,3.7-.79,8.08,8.08,0,0,1,3.71.87,5,5,0,0,1,2.24-.54h3.1a4.57,4.57,0,0,1,1,.1,9.12,9.12,0,0,1,2.8-.43,8.83,8.83,0,0,1,1.71.17,7.1,7.1,0,0,1,.2-.76,6.88,6.88,0,0,1,6.89-5.06,6.22,6.22,0,0,1,6.52,5.68l.84,0a10.55,10.55,0,0,1,4.87,1.11,5,5,0,0,1,2.67-.78h3.1a4.85,4.85,0,0,1,1,.1,9,9,0,0,1,2.78-.43c4.71,0,7.87,3.39,7.87,8.44a16.48,16.48,0,0,1-.36,3l-.54,2.73a5,5,0,0,1,.79,2.68,4.91,4.91,0,0,1-.15,1.22l-.46,2.27a5,5,0,0,1-4.82,3.94h-2.24a7.2,7.2,0,0,1-3.74-1,5,5,0,0,1-2.93,1h-3.1a5,5,0,0,1-2.28-.56,11.44,11.44,0,0,1-4.46.87,10.78,10.78,0,0,1-4.23-.8,4.86,4.86,0,0,1-2.13.49h-2.19a7.34,7.34,0,0,1-3.65-.91,9.75,9.75,0,0,1-4.57,1.22l-.22,1.12a4.91,4.91,0,0,1-4.82,3.94Z"/><path class="cls-2" d="M347.75,876.33a4.56,4.56,0,0,1,4.9,4.52,5.88,5.88,0,0,1-.19,1.47,10.34,10.34,0,0,1,2.65-.34,8.49,8.49,0,0,1,5,1.49,3.27,3.27,0,0,1,2.51-1.16h3.1a3.31,3.31,0,0,1,1.08.18,6.94,6.94,0,0,1,2.7-.51c3.79,0,6.23,2.67,6.23,6.8a16.07,16.07,0,0,1-.36,2.8l-.65,3.28a3.41,3.41,0,0,1,.9,2.28,3.68,3.68,0,0,1-.1.82l-.48,2.34a3.31,3.31,0,0,1-3.21,2.63h-2.24a5.16,5.16,0,0,1-3.89-1.56,3.34,3.34,0,0,1-2.79,1.56h-3.09a3.28,3.28,0,0,1-2.15-.81,9.42,9.42,0,0,1-4.59,1.12,8.9,8.9,0,0,1-4.33-1,3.2,3.2,0,0,1-2,.72h-2.19a5.34,5.34,0,0,1-3.61-1.25,8,8,0,0,1-4.79,1.56,7.12,7.12,0,0,1-1.14-.08l-.51,2.52a3.28,3.28,0,0,1-3.21,2.62h-3.1a3.25,3.25,0,0,1-3.21-3.91l.29-1.53a4.93,4.93,0,0,1-2.88-1.33,3.28,3.28,0,0,1-2.67,1.4h-3.1a3.27,3.27,0,0,1-2.07-.74,3.28,3.28,0,0,1-2.06.74h-3.1a2,2,0,0,1-.44,0,3.07,3.07,0,0,1-.53,0h-2.31a5.85,5.85,0,0,1-2.57-.56,7.3,7.3,0,0,1-6.62.15,3.24,3.24,0,0,1-1.56.41h-2.23a5.17,5.17,0,0,1-3.9-1.56,3.32,3.32,0,0,1-2.79,1.56h-3.09a3.35,3.35,0,0,1-2.13-.79,11.23,11.23,0,0,1-5,1.1c-5.6,0-9.09-3.64-9.09-9.49a26,26,0,0,1,.7-5.62c2-9,7.39-10.89,11.57-10.89a9.18,9.18,0,0,1,4.9,1.32,3.27,3.27,0,0,1,3.07-2.12h3.1a3.27,3.27,0,0,1,3.21,3.92l-.33,1.62a5.94,5.94,0,0,1,4.31,1.9,8.07,8.07,0,0,1,5.2-1.9,6.83,6.83,0,0,1,2.69.53,2.92,2.92,0,0,1,1.11-.2h3.1a3.22,3.22,0,0,1,1.24.24,3.28,3.28,0,0,1,1.23-.24h3.12a3.41,3.41,0,0,1,1,.15,6.72,6.72,0,0,1,2.57-.48,6.36,6.36,0,0,1,3.52,1,6.86,6.86,0,0,1,3.72-1,6.22,6.22,0,0,1,3.74,1.18,3.34,3.34,0,0,1,2.21-.85h3.1a3.09,3.09,0,0,1,1.05.18A7,7,0,0,1,339,882a7.26,7.26,0,0,1,3.23.77,4.6,4.6,0,0,1-.05-.64,6.35,6.35,0,0,1,.3-1.88,5.24,5.24,0,0,1,5.32-3.9m0-3.28a8.53,8.53,0,0,0-8.27,5.67l-.53,0a10.63,10.63,0,0,0-2.9.39,6.36,6.36,0,0,0-.87-.06h-3.1a6.45,6.45,0,0,0-2.22.39,9.83,9.83,0,0,0-3.73-.72,10.45,10.45,0,0,0-3.69.65,10,10,0,0,0-3.55-.65,10.32,10.32,0,0,0-2.79.38,6.81,6.81,0,0,0-.78-.05H312.2a6.42,6.42,0,0,1-2.47,0h-3.1a5.86,5.86,0,0,0-.94.07,10.08,10.08,0,0,0-2.86-.4,11.53,11.53,0,0,0-5,1.18,7.61,7.61,0,0,0-.81-.4,6.54,6.54,0,0,0-6.55-6.32h-3.1a6.55,6.55,0,0,0-4,1.39,13.11,13.11,0,0,0-3.95-.58c-4.4,0-12.17,1.74-14.77,13.45a29.13,29.13,0,0,0-.78,6.33c0,7.64,5,12.77,12.37,12.77a15.36,15.36,0,0,0,4.82-.75,6.7,6.7,0,0,0,2.35.43h3.09a6.45,6.45,0,0,0,3-.73,9.21,9.21,0,0,0,3.67.73h2.23a6.28,6.28,0,0,0,1.5-.17,10.79,10.79,0,0,0,6.82-.13,9.63,9.63,0,0,0,2.43.3h2.31a4.1,4.1,0,0,0,.5,0,3.7,3.7,0,0,0,.47,0h3.1a6.47,6.47,0,0,0,2.05-.33,6.66,6.66,0,0,0,2.08.33h3.1a6.47,6.47,0,0,0,2-.3,6.57,6.57,0,0,0,6.51,5.68h3.1a6.54,6.54,0,0,0,6.4-5.17,11.06,11.06,0,0,0,3.21-.92,9.24,9.24,0,0,0,3.65.71h2.19a6.51,6.51,0,0,0,2.15-.36,12.64,12.64,0,0,0,4.21.68,13.06,13.06,0,0,0,4.42-.74,6.53,6.53,0,0,0,2.32.42h3.09a6.5,6.5,0,0,0,3-.74,9,9,0,0,0,3.67.74h2.24a6.57,6.57,0,0,0,6.42-5.23l.47-2.3a6.47,6.47,0,0,0,.17-1.53,6.54,6.54,0,0,0-.7-2.95l.4-2v-.06l0-.14a17.73,17.73,0,0,0,.39-3.25c0-5.93-3.91-10.08-9.51-10.08a10.61,10.61,0,0,0-2.89.39,6.65,6.65,0,0,0-.89-.06h-3.1a6.7,6.7,0,0,0-2.73.59,12.43,12.43,0,0,0-4.29-.91,7.84,7.84,0,0,0-7.88-5.66Z"/><path d="M374.75,894.86a3.41,3.41,0,0,1,.9,2.28,3.68,3.68,0,0,1-.1.82l-.48,2.34a3.31,3.31,0,0,1-3.21,2.63h-2.24a5.16,5.16,0,0,1-3.89-1.56,3.34,3.34,0,0,1-2.79,1.56h-3.09a3.28,3.28,0,0,1-2.15-.81,9.42,9.42,0,0,1-4.59,1.12,8.9,8.9,0,0,1-4.33-1,3.2,3.2,0,0,1-2,.72h-2.19a5.34,5.34,0,0,1-3.61-1.25,8,8,0,0,1-4.79,1.56,7.12,7.12,0,0,1-1.14-.08l-.51,2.52a3.28,3.28,0,0,1-3.21,2.62h-3.1a3.25,3.25,0,0,1-3.21-3.91l.29-1.53a4.93,4.93,0,0,1-2.88-1.33,3.28,3.28,0,0,1-2.67,1.4h-3.1a3.27,3.27,0,0,1-2.07-.74,3.28,3.28,0,0,1-2.06.74h-3.1a2,2,0,0,1-.44,0,3.07,3.07,0,0,1-.53,0h-2.31a5.85,5.85,0,0,1-2.57-.56,7.3,7.3,0,0,1-6.62.15,3.24,3.24,0,0,1-1.56.41h-2.23a5.17,5.17,0,0,1-3.9-1.56,3.32,3.32,0,0,1-2.79,1.56h-3.09a3.35,3.35,0,0,1-2.13-.79,11.23,11.23,0,0,1-5,1.1c-5.6,0-9.09-3.64-9.09-9.49a26,26,0,0,1,.7-5.62c2-9,7.39-10.89,11.57-10.89a9.18,9.18,0,0,1,4.9,1.32,3.27,3.27,0,0,1,3.07-2.12h3.1a3.27,3.27,0,0,1,3.21,3.92l-.33,1.62a5.94,5.94,0,0,1,4.31,1.9,8.07,8.07,0,0,1,5.2-1.9,6.83,6.83,0,0,1,2.69.53,2.92,2.92,0,0,1,1.11-.2h3.1a3.22,3.22,0,0,1,1.24.24,3.28,3.28,0,0,1,1.23-.24h3.12a3.41,3.41,0,0,1,1,.15,6.72,6.72,0,0,1,2.57-.48,6.38,6.38,0,0,1,3.52,1,6.86,6.86,0,0,1,3.72-1,6.22,6.22,0,0,1,3.74,1.18,3.34,3.34,0,0,1,2.21-.85h3.1a3.09,3.09,0,0,1,1.05.18A7,7,0,0,1,339,882a7.26,7.26,0,0,1,3.23.77,4.6,4.6,0,0,1-.05-.64,6.35,6.35,0,0,1,.3-1.88,5.24,5.24,0,0,1,5.32-3.9,4.56,4.56,0,0,1,4.9,4.52,5.82,5.82,0,0,1-.19,1.47,10.34,10.34,0,0,1,2.65-.34,8.49,8.49,0,0,1,5,1.49,3.27,3.27,0,0,1,2.51-1.16h3.1a3.31,3.31,0,0,1,1.08.18,6.94,6.94,0,0,1,2.7-.51c3.79,0,6.23,2.67,6.23,6.8a16.37,16.37,0,0,1-.36,2.81Z"/><path class="cls-10" d="M270.38,893.75a21.86,21.86,0,0,1,.62-4.91c1.24-5.55,4-8.32,8.37-8.32a5.2,5.2,0,0,1,5.55,4.44L282,886.18c-.16-1.92-1.07-2.83-2.88-2.83-2.61,0-3.88,1.4-4.63,5.25l-.59,3a10.27,10.27,0,0,0-.27,2c0,2.37.94,3.5,2.93,3.5s3.26-.89,4.07-3.1l2.72,1.24A7.32,7.32,0,0,1,276.2,900C272.37,900,270.38,897.84,270.38,893.75Z"/><path class="cls-10" d="M287.34,879.71h3.1l-1.8,8.94H289c.78-2.23,2.07-3.39,4-3.39s2.94,1.21,2.94,3.53a11.19,11.19,0,0,1-.3,2.1l-1.23,6.25h1.42l-.51,2.5h-2.23c-1.3,0-1.89-.54-1.89-1.75a3.49,3.49,0,0,1,.11-.78l1.16-5.79a13.58,13.58,0,0,0,.21-1.91c0-1.11-.4-1.54-1.34-1.54a2.44,2.44,0,0,0-2.11,1.24,7.66,7.66,0,0,0-1.29,3l-1.53,7.57h-3.1Z"/><path class="cls-10" d="M306.12,899.64c-1.3,0-1.89-.54-1.89-1.69a3.88,3.88,0,0,1,.11-.87l.11-.56h-.35c-1,2.45-2.13,3.45-4,3.45-2.21,0-3.42-1.4-3.42-4.48a19.15,19.15,0,0,1,.35-3.31c.8-4.41,2.77-6.92,5.84-6.92a2.71,2.71,0,0,1,3,2.75h.35l.49-2.43h3.1l-2.32,11.56H309l-.52,2.5ZM303.86,896a8.41,8.41,0,0,0,1.23-2.83l.57-2.83a1.94,1.94,0,0,0-2.07-2.48c-1.76,0-2.62,1.11-3.07,3.37l-.46,2.23a13.6,13.6,0,0,0-.27,2,1.64,1.64,0,0,0,1.75,1.88A2.68,2.68,0,0,0,303.86,896Z"/><path class="cls-10" d="M309.4,899.64l2.8-14.06h3.1l-.62,3.07h.38c.78-2.23,2-3.39,3.82-3.39s2.83,1.16,2.88,3.39h.36c.8-2.23,2.07-3.39,4-3.39s2.85,1.21,2.85,3.53a12.37,12.37,0,0,1-.29,2.13l-1.24,6.19h1.43l-.52,2.53h-2.23c-1.29,0-1.89-.54-1.89-1.75a3.21,3.21,0,0,1,.11-.78l1.19-5.92a12.06,12.06,0,0,0,.21-1.78c0-1.11-.38-1.54-1.29-1.54-.76,0-1.29.35-1.91,1.24a7.83,7.83,0,0,0-1.3,2.86l-1.53,7.67h-3.1l1.75-8.75a7.33,7.33,0,0,0,.16-1.48c0-1.11-.37-1.54-1.26-1.54a2.34,2.34,0,0,0-1.94,1.24A7.62,7.62,0,0,0,314,892l-1.53,7.67Z"/><path class="cls-10" d="M332.08,885.58h3.1l-.62,3.13h.35c.94-2.45,2.12-3.45,4-3.45,2.21,0,3.42,1.4,3.42,4.47A19,19,0,0,1,342,893c-.81,4.42-2.78,6.93-5.85,6.93a2.71,2.71,0,0,1-3-2.75h-.35L331.3,905h-3.1Zm6.41,8.41.46-2.24a14.38,14.38,0,0,0,.27-2c0-1.19-.6-1.89-1.75-1.89a2.67,2.67,0,0,0-2.32,1.35,8.35,8.35,0,0,0-1.24,2.83l-.57,2.8a2,2,0,0,0,2.08,2.5C337.17,897.35,338,896.25,338.49,894Z"/><path class="cls-10" d="M344.55,899.64c-1.3,0-1.89-.51-1.89-1.72a4,4,0,0,1,.11-.89l2.29-11.45h3.1l-2.32,11.53h1.43l-.51,2.53Zm.86-17.53a3.19,3.19,0,0,1,.16-.94,2,2,0,0,1,2.18-1.57c1,0,1.62.46,1.62,1.24a3.25,3.25,0,0,1-.16.95,2,2,0,0,1-2.18,1.56C346,883.35,345.41,882.89,345.41,882.11Z"/><path class="cls-10" d="M348.29,894.58a14.84,14.84,0,0,1,.27-2.85c.84-4,2.85-6.47,6.55-6.47,3.23,0,4.82,1.78,4.82,5.39a14.84,14.84,0,0,1-.27,2.85c-.84,4-2.86,6.47-6.55,6.47C349.88,900,348.29,898.19,348.29,894.58Zm7.92-.57.51-2.64a6.48,6.48,0,0,0,.14-1.26c0-1.59-.65-2.32-2-2.32-1.57,0-2.38,1-2.83,3.42l-.51,2.64a6,6,0,0,0-.14,1.27c0,1.59.65,2.31,2,2.31C354.94,897.43,355.75,896.44,356.21,894Z"/><path class="cls-10" d="M359.84,899.64l2.81-14.06h3.09l-.62,3.07h.38c.78-2.23,2.07-3.39,4-3.39s2.94,1.21,2.94,3.53a11.7,11.7,0,0,1-.3,2.15l-1.24,6.2h1.43l-.51,2.5h-2.24c-1.29,0-1.88-.54-1.88-1.75a4.17,4.17,0,0,1,.1-.78l1.16-5.79a12.31,12.31,0,0,0,.22-1.91c0-1.11-.41-1.54-1.35-1.54a2.41,2.41,0,0,0-2.1,1.24,7.45,7.45,0,0,0-1.29,2.86l-1.54,7.67Z"/><path class="cls-2" d="M811.6,869.06a2.46,2.46,0,0,0-2.48-2.43h-.27l-6,.07h-.27a2.46,2.46,0,0,0-2.42,2.49v.27l.18,15.53h0l0,2.72.08,6.46v.27a2.46,2.46,0,0,0,2.49,2.42h.27l6-.07h.27a2.46,2.46,0,0,0,2.43-2.49V894l-.07-5.9h0l0-2.58v-.7h0l-.18-15.53Z"/><path class="cls-10" d="M810.45,894.57l-8-1.42-.11-5,1.47.27.07,3.33,1.76.32-.07-2.93,1.47.26.07,2.94,3.31.58Z"/><path class="cls-10" d="M810.22,883.92l-1.94.23.05,2.55,2,.89,0,1.77-8.07-3.92,0-2.12,8-1.08Zm-6.47.68v.09l3.19,1.39,0-1.79Z"/><path class="cls-10" d="M808.89,881.7l-1-1.24a1.81,1.81,0,0,0,.9-1.73c0-1-.52-1.5-1.18-1.49-.48,0-.7.41-.8.93l-.11.53c-.22,1.17-.8,1.93-2.08,1.95-1.45,0-2.6-1.17-2.64-3a3.34,3.34,0,0,1,1-2.76l1.1,1.18a1.69,1.69,0,0,0-.67,1.61c0,.83.42,1.33,1,1.32s.64-.32.75-.87l.11-.51c.24-1.23.84-2.05,2.09-2.08a3,3,0,0,1,2.87,3.17A3.08,3.08,0,0,1,808.89,881.7Z"/><path class="cls-10" d="M803.41,870.46l6.54,1.16,0,1.66-6.54-1.16,0,2.1L802,874l-.13-5.86,1.47.26Z"/><rect class="cls-24" x="626.62" y="780.48" width="386.38" height="133.58"/><path class="cls-10" d="M353.32,556.35a14.15,14.15,0,0,1-.39,3.07c-.78,3.46-2.49,5.2-5.23,5.2a3.26,3.26,0,0,1-3.47-2.78l1.82-.76c.1,1.2.67,1.77,1.8,1.77,1.63,0,2.42-.88,2.89-3.28l.37-1.89a6.25,6.25,0,0,0,.17-1.26c0-1.48-.59-2.18-1.83-2.18a2.44,2.44,0,0,0-2.54,1.93l-1.7-.77a4.56,4.56,0,0,1,4.47-2.93C352.07,552.47,353.32,553.8,353.32,556.35Z"/><path class="cls-10" d="M342.72,565.12h-1.94l1.13-5.58h-.24a2.61,2.61,0,0,1-2.52,2.11c-1.24,0-1.83-.75-1.83-2.2a7.63,7.63,0,0,1,.18-1.31l.77-3.9h-.89l.32-1.57h1.4c.81,0,1.18.34,1.18,1.09a2.63,2.63,0,0,1-.07.49l-.72,3.62a7.52,7.52,0,0,0-.14,1.19c0,.69.25,1,.84,1a1.5,1.5,0,0,0,1.32-.77,4.6,4.6,0,0,0,.8-1.85l1-4.73h1.94Z"/><path class="cls-10" d="M331,552.67c.81,0,1.18.34,1.18,1.06a2.42,2.42,0,0,1-.07.54l-.07.35h.22c.59-1.53,1.33-2.15,2.53-2.15,1.38,0,2.13.87,2.13,2.79a11.81,11.81,0,0,1-.22,2.07c-.5,2.76-1.73,4.32-3.65,4.32a1.69,1.69,0,0,1-1.85-1.71H331l-.3,1.51h-1.93l1.44-7.21h-1l.32-1.57Zm1.41,2.27a5.42,5.42,0,0,0-.77,1.77l-.35,1.77a1.21,1.21,0,0,0,1.29,1.54c1.1,0,1.63-.69,1.92-2.1l.29-1.4a9.15,9.15,0,0,0,.16-1.24c0-.74-.37-1.18-1.09-1.18A1.68,1.68,0,0,0,332.4,554.94Z"/><path class="cls-10" d="M328.94,552.67l-1.75,8.78h-1.94l.39-1.91h-.23c-.49,1.39-1.23,2.11-2.39,2.11s-1.77-.72-1.8-2.11H321c-.51,1.39-1.3,2.11-2.51,2.11s-1.78-.75-1.78-2.2a7.85,7.85,0,0,1,.18-1.33l.78-3.87h-.9l.32-1.58h1.4c.81,0,1.18.34,1.18,1.09a2,2,0,0,1-.07.49l-.74,3.7a6.54,6.54,0,0,0-.13,1.11c0,.69.23,1,.8,1a1.41,1.41,0,0,0,1.2-.77,5,5,0,0,0,.81-1.78l.95-4.8h1.94l-1.09,5.47a4.45,4.45,0,0,0-.1.92c0,.69.23,1,.79,1a1.46,1.46,0,0,0,1.21-.77,4.75,4.75,0,0,0,.81-1.78l.95-4.8Z"/><path class="cls-10" d="M314.77,561.45h-1.93l.39-2H313c-.59,1.53-1.33,2.15-2.53,2.15-1.38,0-2.13-.87-2.13-2.79a11.81,11.81,0,0,1,.22-2.07c.5-2.76,1.73-4.32,3.65-4.32a1.69,1.69,0,0,1,1.85,1.72h.22l1-4.88h1.94Zm-4-5.25-.29,1.4a9.07,9.07,0,0,0-.16,1.25,1,1,0,0,0,1.09,1.17,1.68,1.68,0,0,0,1.45-.84,5.47,5.47,0,0,0,.77-1.76l.35-1.76a1.22,1.22,0,0,0-1.29-1.56C311.59,554.1,311.06,554.79,310.77,556.2Z"/><path class="cls-10" d="M307,552.67c.8,0,1.17.32,1.17,1.08a2.41,2.41,0,0,1-.06.55l-1.43,7.15h-1.94l1.45-7.2h-.89l.32-1.58Zm-.54,11a2.35,2.35,0,0,1-.1.59,1.27,1.27,0,0,1-1.37,1c-.64,0-1-.29-1-.78a2,2,0,0,1,.11-.58,1.24,1.24,0,0,1,1.36-1C306.08,562.85,306.45,563.14,306.45,563.62Z"/><path class="cls-10" d="M304.65,555.83a9.33,9.33,0,0,1-.17,1.79c-.52,2.5-1.78,4-4.09,4-2,0-3-1.11-3-3.36a9.16,9.16,0,0,1,.17-1.78c.52-2.51,1.78-4,4.09-4C303.66,552.47,304.65,553.58,304.65,555.83Zm-4.95.36-.32,1.65a4.07,4.07,0,0,0-.08.79c0,1,.4,1.44,1.26,1.44s1.48-.62,1.77-2.13l.32-1.65a4.07,4.07,0,0,0,.08-.79c0-1-.4-1.45-1.26-1.45S300,554.67,299.7,556.19Z"/><path class="cls-10" d="M297.43,552.67l-1.75,8.78h-1.93l.38-1.91h-.23c-.49,1.39-1.3,2.11-2.53,2.11s-1.83-.75-1.83-2.2a8.08,8.08,0,0,1,.18-1.35l.78-3.86h-.89l.32-1.57h1.39c.81,0,1.18.34,1.18,1.09a2,2,0,0,1-.07.49l-.72,3.62a7.45,7.45,0,0,0-.13,1.19c0,.69.25,1,.84,1a1.5,1.5,0,0,0,1.31-.77,4.75,4.75,0,0,0,.81-1.78l1-4.8Z"/><rect class="cls-10" x="192.6" y="722.58" width="11.64" height="32.52" transform="translate(396.83 1477.67) rotate(-180)"/><rect class="cls-10" x="174.7" y="722.58" width="11.64" height="32.52" transform="translate(361.04 1477.67) rotate(-180)"/><circle class="cls-10" cx="281.58" cy="822.33" r="9.11"/><path class="cls-2" d="M281.58,814.24a8.1,8.1,0,1,1-8.1,8.09,8.09,8.09,0,0,1,8.1-8.09m0-2a10.12,10.12,0,1,0,10.11,10.11,10.13,10.13,0,0,0-10.11-10.11Z"/><circle class="cls-20" cx="281.58" cy="824.74" r="3.52"/><circle class="cls-20" cx="281.58" cy="818.03" r="1.68"/><circle class="cls-20" cx="277.1" cy="820.24" r="1.68"/><circle class="cls-20" cx="286.06" cy="820.24" r="1.68"/><rect class="cls-25" x="992" width="32" height="32"/><rect class="cls-9" x="626.62" y="780.48" width="386.38" height="12.89"/><ellipse class="cls-26" cx="287.04" cy="220.5" rx="8.96" ry="9.35"/><ellipse class="cls-26" cx="356.43" cy="220.5" rx="8.96" ry="9.35"/><g class="cls-27"><path d="M333.81,242.61c-1.57,5.14-6.35,6.87-12,6.87V237.76l9.95,1.59A2.56,2.56,0,0,1,333.81,242.61Z"/><path d="M309.84,242.61c1.57,5.14,6.35,6.87,12,6.87V237.76l-9.95,1.59A2.56,2.56,0,0,0,309.84,242.61Z"/></g><path class="cls-12" d="M321.74,275.26a5.93,5.93,0,0,0-3.7,2.09,2.55,2.55,0,0,0,2.36,4.12l4.43-.67a2.54,2.54,0,0,0,1.05-4.63A6,6,0,0,0,321.74,275.26Z"/><path class="cls-12" d="M321.62,3.39V156H274.27a34.46,34.46,0,0,0-34,28.64.17.17,0,0,1,0,.07c-.09.45-.15.9-.21,1.35h-.81l6.93,64.32.14,1.34a6.08,6.08,0,0,1-6.05,6.72h-3.12a19.3,19.3,0,0,1-15.62-8c-6.26-8.66-14.95-17.48-18.8-26.29a20.22,20.22,0,0,0-21.69-11.6,6,6,0,0,0-1.84.63l-1.39.74a5.58,5.58,0,0,0-1.64,1.25c-4.27,4.75-10,21.42-18.73,32.95s-53,33.69-69.35,41.06l-29,13.47-.65.27-20.78,7.79a6,6,0,0,1-1,.28L11.5,315.88,11,316l-4.11.49A6.19,6.19,0,0,1,0,310.29V9.6A6.21,6.21,0,0,1,6.2,3.39Z"/><path class="cls-26" d="M321.62,0V163.71h-7.07c-19.17,0-19.7-5.71-35.75-7.69a100.93,100.93,0,0,0-12.46-.67c-20.78,0-25.21,18.63-26,29.31a.17.17,0,0,1,0,.07,55.3,55.3,0,0,0-.15,6.06l6.2,57.54a5.94,5.94,0,0,1-.14,2.07,6.09,6.09,0,0,1-5.91,4.67h-3.12a19.3,19.3,0,0,1-15.62-8c-6.26-8.66-14.95-17.48-18.8-26.29a20.21,20.21,0,0,0-21.69-11.6,5.74,5.74,0,0,0-1.84.63l-1.39.74a5.73,5.73,0,0,0-1.64,1.24c-4.27,4.76-10,21.43-18.73,33s-53,33.69-69.35,41.06l-29,13.47-.44.18-21,7.88a7.08,7.08,0,0,1-1,.28l-25.17,4.87-.44.07L6.93,313A6.2,6.2,0,0,1,0,306.88V0Z"/><path class="cls-12" d="M321.62,3.39V156H369a34.46,34.46,0,0,1,34,28.64.17.17,0,0,0,0,.07c.09.45.15.9.21,1.35H404l-6.93,64.32-.14,1.33a6.09,6.09,0,0,0,6.06,6.73h3.11a19.3,19.3,0,0,0,15.62-8c6.26-8.66,14.95-17.48,18.8-26.29a20.22,20.22,0,0,1,21.69-11.6,6,6,0,0,1,1.84.63l1.39.74a5.58,5.58,0,0,1,1.64,1.25c4.27,4.75,9.95,21.42,18.73,32.95s53,33.69,69.35,41.06l29,13.47.65.27,20.78,7.79a6,6,0,0,0,1,.28l25.15,4.87.46.07,4.11.49a6.19,6.19,0,0,0,6.93-6.15V9.6A6.21,6.21,0,0,0,637,3.39Z"/><path class="cls-26" d="M321.62,0V163.71h7.07c19.17,0,19.7-5.71,35.75-7.69a100.93,100.93,0,0,1,12.46-.67c20.78,0,25.21,18.63,26.05,29.31a.17.17,0,0,0,0,.07,55.3,55.3,0,0,1,.15,6.06l-6.2,57.54a5.94,5.94,0,0,0,.14,2.07,6.09,6.09,0,0,0,5.91,4.67h3.12a19.3,19.3,0,0,0,15.62-8c6.26-8.66,14.95-17.48,18.8-26.29a20.21,20.21,0,0,1,21.69-11.6,5.74,5.74,0,0,1,1.84.63l1.39.74a5.73,5.73,0,0,1,1.64,1.24c4.27,4.76,9.95,21.43,18.73,33s53,33.69,69.35,41.06l29,13.47.42.18,21,7.88a7.08,7.08,0,0,0,1,.28l25.16,4.87.46.07,4.1.48a6.2,6.2,0,0,0,6.93-6.16V0Z"/><path class="cls-26" d="M344.81,202.9a5.76,5.76,0,0,1-2.18-11.09c7.53-3.08,14.67-5.58,25.84-5.05a5.76,5.76,0,1,1-.56,11.5c-9.54-.47-15.32,1.91-20.92,4.2A5.59,5.59,0,0,1,344.81,202.9Z"/><path class="cls-26" d="M298.65,210.05a5.84,5.84,0,0,1-2.18-.43c-5.6-2.29-11.41-4.67-20.92-4.2a5.76,5.76,0,0,1-.55-11.5c11.15-.54,18.31,2,25.84,5.05a5.76,5.76,0,0,1-2.19,11.08Z"/><path class="cls-28" d="M307.74,266.45s29.32.4,33.22-6"/><rect class="cls-29" x="992" width="32" height="32"/></g></g></g></svg>