<svg xmlns="http://www.w3.org/2000/svg" xmlns:xlink="http://www.w3.org/1999/xlink" viewBox="0 0 1024 1024"><defs><style>.cls-1{isolation:isolate;}.cls-2{fill:#fff;}.cls-3{fill:#f7b889;}.cls-4{fill:#f8c79d;}.cls-5{opacity:0.1;mix-blend-mode:multiply;fill:url(#linear-gradient);}.cls-15,.cls-6{opacity:0.15;}.cls-15,.cls-29,.cls-30,.cls-6{mix-blend-mode:overlay;}.cls-6{fill:url(#linear-gradient-2);}.cls-7{fill:#eb986d;}.cls-8{fill:red;}.cls-9{fill:#5f2c82;}.cls-10{fill:#442256;}.cls-11{fill:#141414;}.cls-12{fill:url(#linear-gradient-3);}.cls-13{fill:#252525;}.cls-14{fill:#d3eef4;}.cls-16{fill:#202020;}.cls-17{fill:#e4783e;}.cls-18{fill:#373737;}.cls-19{fill:#f6a563;}.cls-20{fill:url(#linear-gradient-4);}.cls-21{fill:url(#linear-gradient-5);}.cls-22{fill:url(#linear-gradient-6);}.cls-23{fill:url(#linear-gradient-7);}.cls-24{fill:#1f1f1f;}.cls-25{fill:#d5e26d;}.cls-26{fill:#ccdde7;}.cls-27{fill:lime;}.cls-28{fill:#220f0f;}.cls-29,.cls-30{opacity:0.25;}.cls-30{fill:none;stroke:#000;stroke-linecap:round;stroke-miterlimit:10;stroke-width:5px;}.cls-31{fill:blue;}</style><linearGradient id="linear-gradient" x1="321.5" y1="490" x2="321.5" y2="187.52" gradientUnits="userSpaceOnUse"><stop offset="0" stop-color="#f69878"/><stop offset="1" stop-color="#f69878" stop-opacity="0"/></linearGradient><linearGradient id="linear-gradient-2" x1="321.68" y1="286" x2="321.68" y2="431.12" gradientUnits="userSpaceOnUse"><stop offset="0"/><stop offset="1" stop-opacity="0"/></linearGradient><linearGradient id="linear-gradient-3" x1="819.81" y1="914.06" x2="819.81" y2="780.48" gradientUnits="userSpaceOnUse"><stop offset="0" stop-color="#442256" stop-opacity="0"/><stop offset="0.36" stop-color="#442256" stop-opacity="0.03"/><stop offset="0.55" stop-color="#442256" stop-opacity="0.12"/><stop offset="0.7" stop-color="#442256" stop-opacity="0.27"/><stop offset="0.82" stop-color="#442256" stop-opacity="0.49"/><stop offset="0.93" stop-color="#442256" stop-opacity="0.77"/><stop offset="1" stop-color="#442256"/></linearGradient><linearGradient id="linear-gradient-4" x1="614.28" y1="748.71" x2="422.17" y2="748.71" xlink:href="#linear-gradient-3"/><linearGradient id="linear-gradient-5" x1="24.76" y1="748.71" x2="218.57" y2="748.71" xlink:href="#linear-gradient-3"/><linearGradient id="linear-gradient-6" x1="271.06" y1="741.83" x2="199.38" y2="741.83" xlink:href="#linear-gradient-2"/><linearGradient id="linear-gradient-7" x1="364.96" y1="741.83" x2="441.39" y2="741.83" xlink:href="#linear-gradient-2"/></defs><title>racerPurpleMale</title><g class="cls-1"><g id="Layer_2" data-name="Layer 2"><g id="Layer_1-2" data-name="Layer 1"><rect class="cls-2" width="1024" height="1024"/><rect class="cls-3" x="624" y="524" width="400" height="240"/><rect class="cls-4" width="643" height="490"/><rect class="cls-5" y="139.59" width="643" height="350.41"/><rect class="cls-4" x="824" y="134" width="200" height="390"/><path class="cls-6" d="M366,299h0a89.81,89.81,0,0,0-19.13,2.07h0a89.33,89.33,0,0,1-19.14,2.07H315.59a89.26,89.26,0,0,1-19.14-2.07h0A89.81,89.81,0,0,0,277.32,299h0a43.74,43.74,0,0,0-33,15c-6.51,7.48-12.32,16.72-11.37,25.21l15.3,137,71.88,5.58,1.52-2.82,1.52,2.82,71.87-5.58,15.31-137c.95-8.49-4.86-17.73-11.38-25.21A43.71,43.71,0,0,0,366,299Z"/><path class="cls-7" d="M442.55,216.37h8.29a18.41,18.41,0,0,1,18.41,18.41v1.43a18.41,18.41,0,0,1-18.41,18.41h-8.29a0,0,0,0,1,0,0V216.37A0,0,0,0,1,442.55,216.37Z"/><path class="cls-4" d="M437.85,216.37h8.29a18.41,18.41,0,0,1,18.41,18.41v1.43a18.41,18.41,0,0,1-18.41,18.41h-8.29a0,0,0,0,1,0,0V216.37a0,0,0,0,1,0,0Z"/><ellipse class="cls-7" cx="451.21" cy="235.5" rx="7.93" ry="4.4" transform="translate(132.36 632.21) rotate(-78.77)"/><path class="cls-7" d="M173.56,216.37h8.29a18.41,18.41,0,0,1,18.41,18.41v1.43a18.41,18.41,0,0,1-18.41,18.41h-8.29a0,0,0,0,1,0,0V216.37a0,0,0,0,1,0,0Z" transform="translate(373.83 471) rotate(-180)"/><path class="cls-4" d="M178.26,216.37h8.29A18.41,18.41,0,0,1,205,234.78v1.43a18.41,18.41,0,0,1-18.41,18.41h-8.29a0,0,0,0,1,0,0V216.37A0,0,0,0,1,178.26,216.37Z" transform="translate(383.22 471) rotate(-180)"/><ellipse class="cls-7" cx="191.61" cy="235.5" rx="4.4" ry="7.93" transform="translate(-42.19 41.82) rotate(-11.23)"/><polygon class="cls-4" points="579.88 654.47 544.43 654.47 491.56 654.47 460 654.47 460 654.47 445.83 654.47 428.62 681.05 422.17 725.5 423.38 763.65 432.45 812.23 457.05 819.12 460 823.21 460 823.21 491.56 823.21 544.43 823.21 579.88 823.21 615.98 823.21 615.98 654.47 579.88 654.47"/><polygon class="cls-4" points="194.91 654.47 180.74 654.47 180.74 654.47 149.18 654.47 96.31 654.47 60.86 654.47 24.76 654.47 24.76 823.21 60.86 823.21 96.31 823.21 149.18 823.21 180.74 823.21 180.74 823.21 183.69 819.12 208.29 812.23 217.36 763.65 218.57 725.5 212.12 681.05 194.91 654.47"/><rect class="cls-4" x="624" y="864.49" width="400" height="159.51"/><rect class="cls-8" x="992" width="32" height="32"/><ellipse class="cls-4" cx="320.36" cy="746.08" rx="73.24" ry="132.26"/><rect class="cls-9" x="5.44" y="507.74" width="614.17" height="489.56"/><rect class="cls-10" x="124.45" y="930.3" width="383.62" height="38.76"/><rect class="cls-10" x="124.45" y="533.55" width="383.62" height="38.76"/><rect class="cls-9" x="629.1" y="767.18" width="394.9" height="246.93"/><rect class="cls-10" x="631.59" y="912.37" width="383.62" height="40.99"/><rect class="cls-11" x="631.59" y="988.53" width="383.62" height="35.47"/><rect class="cls-10" x="631.59" y="987.53" width="383.62" height="6.96"/><rect class="cls-10" x="626.62" y="780.48" width="386.38" height="12.89"/><rect class="cls-12" x="626.62" y="780.48" width="386.38" height="133.58"/><rect class="cls-13" x="9.43" y="432.44" width="622.16" height="49.42"/><rect class="cls-10" x="9.43" y="432.44" width="622.16" height="4.64"/><rect class="cls-9" x="293.24" y="442.33" width="59.86" height="28.08" rx="2.43" ry="2.43"/><rect class="cls-14" x="268.16" y="447.02" width="46.4" height="18.71" rx="4.45" ry="4.45"/><rect class="cls-13" x="271.77" y="450.32" width="39.18" height="12.1" rx="1.92" ry="1.92"/><path class="cls-2" d="M567.34,447.17h17.5l-.83,4.06h-12v8.61c-.12,1.23.72,1.76,2.51,1.59h5.95l0-3.19h-4v-3.84h8.88v12.13l-4.82.76v-3.23l-1.84,1.41-7.13,0a4.42,4.42,0,0,1-4.52-5v-8.09l2.92-1.2-4.35,0Z"/><path class="cls-2" d="M592.12,447v1.77l1.29-1.77h11c1.35.3,2,1.86,1.91,4.66V463.9c-.27,1-1.3,1.51-3.11,1.55H590.51c-1.89.07-3-.6-3.28-2V447.84Zm0,4v10.43h9.27V451Z"/><path class="cls-2" d="M616.68,453.87h7l-.75,3.49h-7Z"/><path class="cls-2" d="M40.28,447.17h17.5l-.84,4.06H45v8.61c-.12,1.23.71,1.76,2.51,1.59h6l0-3.19h-4v-3.84h8.89v11.07l0,1.06-4.81.76v-3.23l-1.85,1.41-7.13,0a5.2,5.2,0,0,1-3.45-1.5A5.23,5.23,0,0,1,40,460.52v-8.09l2.93-1.2-4.35,0Z"/><path class="cls-2" d="M65.05,447v1.77l1.3-1.77h11c1.36.3,2,1.86,1.91,4.66V463.9c-.26,1-1.3,1.51-3.1,1.55H63.44c-1.88.07-3-.6-3.27-2V447.84Zm0,4v10.43h9.27V451Z"/><path class="cls-2" d="M24.74,453.87h7L31,457.35H24Z"/><g class="cls-15"><rect x="164.96" y="654.47" width="7.84" height="188.74" transform="translate(337.77 1497.67) rotate(-180)"/><rect x="467.85" y="654.47" width="7.84" height="188.74" transform="translate(943.55 1497.67) rotate(-180)"/></g><rect class="cls-16" x="705.4" y="548.73" width="285.42" height="178.39"/><rect class="cls-11" x="826.55" y="153.03" width="182.54" height="361.07"/><rect class="cls-17" x="656" y="34.77" width="316.94" height="92.48"/><rect class="cls-11" x="643" y="145.1" width="175.65" height="366.9"/><rect class="cls-18" x="697.98" y="376.04" width="56.45" height="27.03" rx="9.24" ry="9.24"/><rect class="cls-18" x="697.98" y="200.52" width="56.45" height="27.03" rx="9.24" ry="9.24"/><path class="cls-19" d="M703.84,500.28l-59.29-19V324.8h18.5L663.1,353c0,.11,0,.21,0,.32L664.54,369a3.85,3.85,0,0,0,.08.47l6,26.1a1.05,1.05,0,0,0,.05.19l4,13.8c0,.11.07.23.11.34l11.5,28.5L694.39,458a28.55,28.55,0,0,0,6.24,9.36l.59.59A28.61,28.61,0,0,0,715,475.57l4.78,1.11a28.41,28.41,0,0,0,6.49.75,28.89,28.89,0,0,0,4.55-.37l6-1a28.71,28.71,0,0,0,22.35-18.33L771.06,426l11.26-31.08,18.46-49.12a3.55,3.55,0,0,0,.23-1.2l.11-13.64v-.16l-.43-11.6L821,322.58V355l-14.44,98-12.27,47.19Z"/><path class="cls-11" d="M804.34,323.36l13.19,2.19v29.24l-14.37,97.6-11.54,44.39H704.39l-56.34-18.1V328.31h11.51l0,24.67c0,.21,0,.41,0,.62l1.43,15.67a7.21,7.21,0,0,0,.15.93l6,26.11c0,.13.06.25.1.38l4,13.8c.07.22.15.45.24.67l11.49,28.5,0,0,8.07,19.59a32,32,0,0,0,7,10.49l.58.59a32.2,32.2,0,0,0,15.5,8.6l4.78,1.11a31.89,31.89,0,0,0,7.28.84,32.31,32.31,0,0,0,5.11-.41l6-1A32.21,32.21,0,0,0,762.51,459l11.83-31.77,0-.06,11.23-31L804.06,347a7,7,0,0,0,.45-2.4l.11-13.64v-.32l-.28-7.32m-7.31-8.3.59,15.88-.11,13.64L779,393.74l-11.25,31.05L756,456.55a25.23,25.23,0,0,1-19.62,16.09l-6,1a25.49,25.49,0,0,1-4,.32,25,25,0,0,1-5.7-.66l-4.78-1.11a25.16,25.16,0,0,1-12.13-6.73l-.59-.59a25.08,25.08,0,0,1-5.47-8.21L689.55,437l-11.5-28.5-4-13.8-6-26.11L666.6,353l-.05-31.66h-25.5V483.78l62.24,20H797l13-50,14.5-98.48V319.61L797,315.06Z"/><path class="cls-19" d="M703.84,324.81l-59.29-19.05V145.34h18.5l.05,32.16c0,.11,0,.21,0,.32l1.43,15.67a3.69,3.69,0,0,0,.08.46l6,26.11a1.8,1.8,0,0,0,.05.19l4,13.79a3.38,3.38,0,0,0,.11.34l11.5,28.5,8.09,19.62a28.61,28.61,0,0,0,6.24,9.35l.59.59A28.71,28.71,0,0,0,715,300.11l4.78,1.11a28.87,28.87,0,0,0,11,.38l6-1a28.72,28.72,0,0,0,22.35-18.32l11.83-31.77,11.26-31.08,18.7-49.1a3.61,3.61,0,0,0,.22-1.22l.12-13.64a1.48,1.48,0,0,0,0-.21l-.6-11.54L821,147.11v32.47l-14.44,98-12.27,47.19Z"/><path class="cls-11" d="M804.47,147.92l13.06,2.16v29.24l-14.37,97.6-11.54,44.39H704.39l-56.34-18.1V148.84h11.51l0,28.67q0,.31,0,.63l1.43,15.66a7.36,7.36,0,0,0,.15.94l6,26.1c0,.13.06.25.1.38l4,13.8c.07.23.15.45.24.67l11.49,28.5,0,.05,8.07,19.59a32.08,32.08,0,0,0,7,10.5l.58.59a32.28,32.28,0,0,0,15.5,8.6l4.78,1.11a32.22,32.22,0,0,0,12.39.42l6-1a32.2,32.2,0,0,0,25.07-20.56l11.83-31.76,0-.06,11.23-31,18.69-49.11a7,7,0,0,0,.45-2.43l.12-13.64c0-.14,0-.28,0-.42l-.38-7.19M797,139.59l.83,15.88-.12,13.64L779,218.27l-11.25,31L756,281.09a25.15,25.15,0,0,1-7.8,10.82h0a25.15,25.15,0,0,1-11.82,5.26l-6,1a25.25,25.25,0,0,1-9.7-.33l-4.78-1.11A25.32,25.32,0,0,1,703.69,290l-.59-.59a25,25,0,0,1-5.47-8.22l-8.08-19.59-11.5-28.5-4-13.8-6-26.1L666.6,177.5l-.05-35.65h-25.5V308.31l62.24,20H797l13-50,14.5-98.49V144.14L797,139.59Z"/><polygon class="cls-20" points="614.28 654.21 459.65 654.21 459.65 654.47 445.83 654.47 428.62 681.05 422.17 725.5 423.38 763.65 432.45 812.23 457.05 819.12 460 843.21 460 843.21 485.19 843.21 485.19 828.99 614.28 828.99 614.28 654.21"/><rect class="cls-10" x="267.94" y="804.02" width="27.27" height="15.91"/><rect class="cls-10" x="267.94" y="824.12" width="27.27" height="15.91"/><polygon class="cls-21" points="212.12 681.05 194.91 654.47 180.74 654.47 180.74 654.47 179.38 654.47 179.38 654.21 24.76 654.21 24.76 828.99 155.55 828.99 155.55 843.21 180.74 843.21 180.74 843.21 183.69 819.12 208.29 812.23 217.36 763.65 218.57 725.5 212.12 681.05"/><rect class="cls-10" x="316.99" y="758.52" width="4.12" height="209.85"/><rect class="cls-9" x="282.99" y="544.41" width="78.37" height="15.83" rx="5.23" ry="5.23"/><rect class="cls-10" x="5.44" y="494.89" width="614.17" height="12.85"/><rect class="cls-10" x="5.44" y="997.3" width="614.17" height="12.86"/><polygon class="cls-22" points="218.57 725.5 217.36 763.65 214 781.65 199.65 743.38 215.16 702.01 218.57 725.5"/><polygon class="cls-23" points="441.09 743.38 426.74 781.65 423.38 763.65 422.17 725.5 425.58 702.01 441.09 743.38"/><rect class="cls-24" x="288.54" y="584.72" width="65.26" height="86.89" rx="3.86" ry="3.86"/><path class="cls-25" d="M342.92,659H325.58q-3-.4-3.17-4l0-26.56c-.08-2.71,1-4,3.23-4l17.39,0q3.38-.26,3.12,3.81l0,26.69C346.25,657.44,345.18,658.79,342.92,659Zm-5.07-6.85c1.94,0,2.83-.48,2.66-1.48l0-17.95q-.39-1.73-2.82-1.47h-7.39c-1.51-.24-2.28.29-2.33,1.57l0,17.7c-.12,1.1.85,1.64,2.89,1.63Zm-3.76-5.21q-3.3.55-2.82-5.43c-.32-4.11.62-5.93,2.82-5.44q3.23-.4,2.82,5.44Q337.24,647.56,334.09,646.93Z"/><path class="cls-25" d="M318.12,659H294.45v-6.8l11.05-27.75,7,0-11.63,27.67,11.63.05v-3.65h5.63Z"/><path class="cls-2" d="M341.05,613.68h-7.21l.34-2h4.93v-4.35c.05-.63-.3-.89-1-.81h-2.45v1.61h1.64V610H333.6v-6.14l2-.38v1.63l.76-.71h2.94a2,2,0,0,1,1.43.76,3.09,3.09,0,0,1,.43,1.76V611l-1.2.61h1.79Z"/><path class="cls-2" d="M330.83,613.76v-.9l-.53.9h-4.53c-.55-.16-.82-.94-.78-2.36v-6.17c.11-.51.53-.77,1.28-.79h5.23a1.14,1.14,0,0,1,1.35,1v7.89Zm0-2v-5.28H327v5.28Z"/><path class="cls-2" d="M323.24,610.29h-2.89l.31-1.77h2.89Z"/><path class="cls-2" d="M318.73,613.68h-7.22l.35-2h4.93v-4.35c0-.63-.3-.89-1-.81H313.3v1.61H315V610h-3.67v-6.14l2-.38v1.63l.76-.71H317a2,2,0,0,1,1.42.76,3,3,0,0,1,.44,1.76V611l-1.2.61h1.79Z"/><path class="cls-2" d="M308.51,613.76v-.9l-.53.9h-4.53c-.55-.16-.82-.94-.79-2.36v-6.17c.11-.51.54-.77,1.29-.79h5.23a1.15,1.15,0,0,1,1.35,1v7.89Zm0-2v-5.28h-3.82v5.28Z"/><path class="cls-2" d="M341.7,601.61h-5.83v-1.68h3.37V599h-2.66l.18-1.62h2.48v-2.08l-3.47.4-.49-1.77,6.14-.78.19,1.78-.7.12v2.32h.73l-.16,1.52h-.58v.69l-1,.34h1.74Z"/><path class="cls-2" d="M334.89,601.64h-1.71v-1.27l-.2.49a5.55,5.55,0,0,1-1.67-.67,4.66,4.66,0,0,1-1.11-1.22l-.09-.24v2.9h-1.7V595a1.37,1.37,0,0,1,.4-1,2.13,2.13,0,0,1,1.77-.44v1.66c-.39,0-.56.29-.49.76a2.2,2.2,0,0,0,.17.87,3.68,3.68,0,0,0,1.12,1.25,5,5,0,0,0,1.79,1v-5.56h1.71Z"/><path class="cls-2" d="M327.75,601.61h-5.83v-1.68h3.37V599h-2.67l.19-1.62h2.48v-2.08l-3.47.4-.49-1.77,6.14-.78.19,1.78-.7.12v2.32h.73l-.16,1.52H327v.69l-.94.34h1.74Z"/><path class="cls-2" d="M320.6,601.66h-5.08a.86.86,0,0,1-.73-.69V598.6a1.94,1.94,0,0,1,.5-1.1,5,5,0,0,1,1.15-.64l-.47-.75a1.94,1.94,0,0,0-1.46-.93l.13-1.82,1,.18c.62.13,1.27.77,2,1.93l.37.71.92-.44v-2.1h1.65v1.57l.65,1.38-.64.4v2.48l-.81.45H321Zm-1.75-1.76v-2.26l-1.76.69c-.43.16-.64.41-.64.76v.81Z"/><path class="cls-2" d="M313.52,601.61h-6.21l.3-1.77h4.23V596.1c.05-.53-.25-.76-.89-.69h-2.11v1.39h1.41v1.68h-3.15v-5.27l1.71-.33v1.4l.65-.61H312a1.68,1.68,0,0,1,1.22.65,2.6,2.6,0,0,1,.38,1.52v3.52l-1,.51h1.55Z"/><path class="cls-2" d="M305.45,601.64l-2.24-4.39a3.33,3.33,0,0,0-.85,1.65,8.59,8.59,0,0,0-.13,2.51l-1.63-.07a10.76,10.76,0,0,1,.66-4.36,9.57,9.57,0,0,1,1.58-2.23,11.46,11.46,0,0,1,2.24-1.82l.71,1.66-1.52,1.24,2.46,4.73Z"/><rect class="cls-13" x="594.67" y="650.26" width="19.61" height="178.73"/><rect class="cls-13" x="24.76" y="650.26" width="22.05" height="178.73"/><path class="cls-24" d="M413.88,742.18h20.63a16.33,16.33,0,0,1,16.33,16.33v0a16.33,16.33,0,0,1-16.33,16.33H413.88a0,0,0,0,1,0,0V742.18a0,0,0,0,1,0,0Z" transform="translate(864.72 1517.03) rotate(180)"/><circle class="cls-25" cx="430.21" cy="758.52" r="11.63"/><circle class="cls-24" cx="430.21" cy="758.52" r="7.72"/><rect class="cls-9" x="456.66" y="742.18" width="11.64" height="32.52"/><rect class="cls-9" x="192.6" y="722.58" width="11.64" height="32.52" transform="translate(396.83 1477.67) rotate(-180)"/><rect class="cls-9" x="174.7" y="722.58" width="11.64" height="32.52" transform="translate(361.04 1477.67) rotate(-180)"/><rect class="cls-24" x="350.84" y="823.09" width="28.12" height="30.31" rx="3.44" ry="3.44" transform="translate(796.01 1644.45) rotate(175.39)"/><path class="cls-25" d="M354.73,829.68l7.35-.59c.86,0,1.35.57,1.48,1.59l.9,11.25q.19,1.73-1.23,1.8l-7.37.59c-.95.15-1.43-.36-1.46-1.51l-.9-11.31C353.38,830.45,353.79,829.84,354.73,829.68Zm2.39,2.73c-.83.06-1.18.3-1.08.72l.6,7.6c.15.48.56.66,1.25.53L361,841q1,.07.93-.75l-.59-7.5c0-.47-.41-.66-1.28-.59Zm1.77,2.08c.92-.23,1.38.5,1.38,2.21.28,1.73-.06,2.53-1,2.39-.9.19-1.36-.54-1.38-2.2C357.65,835.18,358,834.38,358.89,834.49Z"/><path class="cls-25" d="M365.25,828.83l10-.81.24,2.89-3.74,12.14-3,.21,4-12.12-4.93.37.12,1.55-2.39.2Z"/><rect class="cls-2" x="355.14" y="845.86" width="21.38" height="2.19" transform="translate(798.55 1661.77) rotate(175.39)"/><path class="cls-24" d="M375.23,805.25a2.71,2.71,0,0,0,2.3-3.06l0-.29-.93-6.54,0-.29a2.71,2.71,0,0,0-3.06-2.3l-.29,0-16.93,2.41h0l-3,.43-7,1-.29,0a2.69,2.69,0,0,0-2.29,3.06l0,.29.93,6.54,0,.29a2.7,2.7,0,0,0,3.06,2.29l.29,0,6.43-.91h0l2.82-.4.75-.11h0l16.93-2.41Z"/><path class="cls-25" d="M346.44,799.34l5.23-.67-.05,1.52-3.58.46.41,3.16c0,.45.3.61.83.48l1.77-.23-.15-1.16-1.19.15-.18-1.41,2.65-.33.53,4.06,0,.38-1.4.47-.16-1.19-.48.59-2.13.28a1.52,1.52,0,0,1-1.11-.41,2.37,2.37,0,0,1-.48-1.24l-.38-3,.82-.55-1.3.17Z"/><path class="cls-25" d="M353.84,798.34l.09.65.3-.7,3.28-.42c.42.06.68.6.79,1.63l.57,4.48c0,.37-.31.6-.85.69l-3.79.48a.83.83,0,0,1-1.07-.61l-.74-5.71Zm.19,1.46.49,3.83,2.77-.36-.49-3.82Z"/><path class="cls-25" d="M359.67,800.14l2.09-.27-.06,1.31-2.09.27Z"/><path class="cls-25" d="M362.62,797.26l5.23-.67-.06,1.52-3.57.46.4,3.16c0,.45.3.61.83.48l1.78-.23-.16-1.16-1.19.15-.18-1.41,2.66-.33.52,4,0,.39-1.4.47-.15-1.19-.49.59-2.13.28a1.44,1.44,0,0,1-1.1-.42,2.15,2.15,0,0,1-.48-1.23l-.39-3,.82-.55-1.3.17Z"/><path class="cls-25" d="M370,796.26l.09.65.3-.7,3.28-.43c.42.07.68.61.79,1.64l.58,4.48c0,.37-.32.6-.86.69l-3.79.48a.83.83,0,0,1-1.07-.61l-.74-5.71Zm.19,1.46.49,3.83,2.78-.36-.5-3.82Z"/><path class="cls-26" d="M315.36,773.35l-5.37,4a2.31,2.31,0,0,0-.18,3.54l2.81,2.58a2.31,2.31,0,0,0,3.71-.86l2.55-6.61A2.3,2.3,0,0,0,315.36,773.35Z"/><circle class="cls-24" cx="281.58" cy="811.98" r="10.92"/><polygon class="cls-2" points="279.9 804.86 277.27 812.92 280.54 812.92 279.23 821.02 285.89 809.66 283.29 809.66 284.98 804.86 279.9 804.86"/><circle class="cls-10" cx="121.66" cy="711.76" r="19.26"/><circle class="cls-10" cx="519.37" cy="711.76" r="19.26"/><rect class="cls-24" x="279.76" y="874.69" width="82.84" height="46.41" rx="5.19" ry="5.19" transform="translate(642.35 1795.79) rotate(180)"/><path class="cls-25" d="M357.1,878a2.35,2.35,0,0,1,2.35,2.35v35.09a2.35,2.35,0,0,1-2.35,2.35H285.25a2.35,2.35,0,0,1-2.35-2.35V880.35a2.35,2.35,0,0,1,2.35-2.35H357.1m0-1.5H285.25a3.85,3.85,0,0,0-3.85,3.85v35.09a3.85,3.85,0,0,0,3.85,3.85H357.1a3.85,3.85,0,0,0,3.85-3.85V880.35a3.85,3.85,0,0,0-3.85-3.85Z"/><path class="cls-2" d="M290.87,881.56h11.37l-.54,3.24h-7.76v6.85c-.08,1,.46,1.4,1.63,1.26h3.86v-2.53h-2.59v-3.07h5.77V897l-3.13.61V895l-1.2,1.12h-4.63a3.1,3.1,0,0,1-2.24-1.19,4.73,4.73,0,0,1-.69-2.78v-6.44l1.9-1h-2.83Z"/><path class="cls-2" d="M307,881.44v1.41l.84-1.41h7.12c.88.24,1.29,1.48,1.24,3.71v9.73c-.17.79-.84,1.2-2,1.24h-8.24a1.82,1.82,0,0,1-2.13-1.6V882.1Zm0,3.18v8.32h6v-8.32Z"/><path class="cls-2" d="M318.92,886.9h4.56l-.49,2.78h-4.55Z"/><path class="cls-2" d="M326,881.56h11.37l-.54,3.24h-7.77v6.85c-.07,1,.47,1.4,1.63,1.26h3.87v-2.53H332v-3.07h5.77V897l-3.13.61V895l-1.2,1.12h-4.63a3.1,3.1,0,0,1-2.24-1.19,4.73,4.73,0,0,1-.69-2.78v-6.44l1.9-1h-2.83Z"/><path class="cls-2" d="M342.11,881.44v1.41l.85-1.41h7.12c.88.24,1.29,1.48,1.24,3.71v9.73c-.17.79-.84,1.2-2,1.24h-8.23a1.81,1.81,0,0,1-2.13-1.6V882.1Zm0,3.18v8.32h6v-8.32Z"/><path class="cls-2" d="M289.85,900.57H299v2.64h-5.3v1.48h4.19l-.29,2.55h-3.9v3.27l5.46-.63.77,2.8-9.66,1.22-.3-2.8,1.1-.19v-3.65H290l.25-2.39h.91v-1.07l1.5-.55h-2.75Z"/><path class="cls-2" d="M300.58,900.52h2.69v2l.31-.78a8.56,8.56,0,0,1,2.62,1.06,7.2,7.2,0,0,1,1.76,1.93l.13.37v-4.57h2.67V911a2.08,2.08,0,0,1-.61,1.52c-.46.53-1.39.76-2.8.69v-2.63c.62,0,.88-.44.78-1.19a3.58,3.58,0,0,0-.27-1.37,6,6,0,0,0-1.77-2,7.76,7.76,0,0,0-2.81-1.6v8.76h-2.7Z"/><path class="cls-2" d="M311.82,900.57H321v2.64h-5.3v1.48h4.19l-.29,2.55h-3.9v3.27l5.45-.63.78,2.8-9.66,1.22-.3-2.8,1.09-.19v-3.65h-1.15l.26-2.39h.91v-1.07l1.5-.55h-2.75Z"/><path class="cls-2" d="M323.07,900.5h8a1.37,1.37,0,0,1,1.16,1.08l0,3.73a3.13,3.13,0,0,1-.78,1.73,8,8,0,0,1-1.82,1l.74,1.17a3.09,3.09,0,0,0,2.31,1.47l-.22,2.86-1.49-.28q-1.45-.3-3.08-3l-.58-1.12-1.46.69v3.31l-2.6,0v-2.47l-1-2.18,1-.63,0-3.9,1.27-.71h-2Zm2.76,2.76v3.57l2.77-1.09c.68-.25,1-.65,1-1.2v-1.28Z"/><path class="cls-2" d="M334.24,900.57H344l-.46,2.78h-6.67v5.89c-.07.85.4,1.21,1.4,1.09h3.32v-2.18h-2.22v-2.64h5v8.31l-2.69.52v-2.21l-1,1h-4a2.7,2.7,0,0,1-1.93-1,4.13,4.13,0,0,1-.59-2.39v-5.54l1.63-.82h-2.43Z"/><path class="cls-2" d="M346.94,900.52l3.52,6.91a5.25,5.25,0,0,0,1.34-2.6,13.19,13.19,0,0,0,.2-3.94l2.58.11q0,4.9-1.05,6.87a15.07,15.07,0,0,1-2.48,3.5,18.08,18.08,0,0,1-3.54,2.87l-1.1-2.61,2.38-2-3.87-7.45Z"/><path class="cls-24" d="M645.59,902.47a2.7,2.7,0,0,0,2.72,2.68h.3l6.6,0h.29a2.7,2.7,0,0,0,2.69-2.72v-.29l-.12-17.1h0l0-3,0-7.11v-.29a2.7,2.7,0,0,0-2.72-2.69H655l-6.6.05h-.3a2.7,2.7,0,0,0-2.68,2.72v.3l.05,6.5h0l0,2.84v.76h0l.12,17.1Z"/><path class="cls-25" d="M655.3,874.73l0,5.27-1.5-.26,0-3.6-3.18,0c-.45,0-.65.21-.59.75v1.8h1.17v-1.2h1.42l0,2.67-4.1,0h-.39l-.27-1.45H649l-.52-.56V876a1.44,1.44,0,0,1,.56-1,2.24,2.24,0,0,1,1.29-.31l3,0,.43.88v-1.31Z"/><path class="cls-25" d="M655.31,882.2h-.66l.65.4,0,3.3c-.11.41-.69.6-1.72.57l-4.52,0c-.36-.09-.55-.4-.57-.94l0-3.83a.84.84,0,0,1,.75-1l5.76,0Zm-1.48,0-3.86,0V885l3.85,0Z"/><path class="cls-25" d="M652.74,887.73v2.11l-1.29-.23v-2.12Z"/><path class="cls-25" d="M655.19,891l0,5.28-1.5-.26,0-3.6-3.18,0c-.45,0-.65.21-.59.75V895h1.18v-1.2h1.42l0,2.68-4.09,0H648l-.27-1.46h1.19l-.52-.56v-2.15a1.46,1.46,0,0,1,.56-1,2.32,2.32,0,0,1,1.29-.31l3,0,.44.89v-1.32Z"/><path class="cls-25" d="M655.2,898.5h-.66l.66.39,0,3.31c-.11.4-.69.59-1.72.56l-4.51,0c-.37-.08-.56-.39-.57-.94l0-3.82a.84.84,0,0,1,.75-1l5.76,0Zm-1.48,0-3.85,0,0,2.79,3.85,0Z"/><path class="cls-24" d="M790.22,874.59a2.7,2.7,0,0,0-2.72-2.69h-.3l-6.6.05h-.3a2.7,2.7,0,0,0-2.68,2.72v.3l.12,17.1h0l0,3,0,7.1v.3a2.7,2.7,0,0,0,2.72,2.68h.3l6.6,0h.29a2.7,2.7,0,0,0,2.69-2.72v-.29l0-6.5h0l0-2.84V892h0l-.12-17.1Z"/><path class="cls-25" d="M780.51,902.33l0-5.28,1.5.26,0,3.6,3.18,0c.45,0,.65-.22.59-.76v-1.79h-1.18v1.2H783.2l0-2.68,4.09,0h.39l.27,1.45h-1.19l.52.56v2.15a1.46,1.46,0,0,1-.56,1,2.24,2.24,0,0,1-1.29.31l-3,0-.44-.88v1.31Z"/><path class="cls-25" d="M780.5,894.86h.66l-.66-.39,0-3.31c.12-.4.7-.59,1.73-.56l4.51,0c.37.08.56.4.57.94l0,3.82a.83.83,0,0,1-.75,1l-5.76,0Zm1.48,0,3.85,0,0-2.8-3.85,0Z"/><path class="cls-25" d="M783.07,889.33v-2.11l1.29.23,0,2.11Z"/><path class="cls-25" d="M780.61,886l0-5.27,1.5.26,0,3.6,3.18,0c.45,0,.65-.21.59-.75v-1.8h-1.18v1.2h-1.42l0-2.67,4.09,0h.39l.27,1.45h-1.19l.52.56v2.14a1.48,1.48,0,0,1-.56,1,2.24,2.24,0,0,1-1.29.31l-3,0-.44-.88v1.31Z"/><path class="cls-25" d="M780.61,878.55h.65l-.65-.4,0-3.3c.12-.41.69-.6,1.73-.57l4.51,0c.37.09.56.4.57.94l0,3.83a.84.84,0,0,1-.75,1l-5.77,0Zm1.48,0,3.85,0,0-2.79-3.86,0Z"/><path class="cls-24" d="M174.31,752a2.71,2.71,0,0,0,2.73,2.69h.29l6.6,0h.3a2.7,2.7,0,0,0,2.68-2.73v-.29l-.12-17.1h0l0-3-.05-7.1v-.3a2.71,2.71,0,0,0-2.72-2.69h-.3l-6.6,0h-.29a2.71,2.71,0,0,0-2.69,2.73v.29l0,6.5h0l0,2.84v.76h0l.12,17.1Z"/><path class="cls-25" d="M184,724.24l0,5.27-1.5-.26,0-3.6-3.18,0c-.45,0-.65.21-.59.75v1.8h1.18V727h1.42l0,2.68-4.09,0h-.39l-.27-1.45h1.19l-.52-.56v-2.15a1.44,1.44,0,0,1,.56-1,2.24,2.24,0,0,1,1.29-.31l3,0,.44.88v-1.31Z"/><path class="cls-25" d="M184,731.71h-.66l.66.4,0,3.3c-.12.41-.7.6-1.73.57l-4.51,0c-.37-.08-.56-.4-.57-.94l0-3.82a.85.85,0,0,1,.75-1l5.76,0Zm-1.48,0-3.85,0,0,2.8,3.85,0Z"/><path class="cls-25" d="M181.46,737.24v2.11l-1.29-.23,0-2.12Z"/><path class="cls-25" d="M183.92,740.55l0,5.27-1.5-.26,0-3.6-3.18,0q-.69-.06-.6.75v1.79h1.18v-1.21h1.42l0,2.68-4.09,0h-.39l-.27-1.46h1.19l-.52-.56v-2.15a1.45,1.45,0,0,1,.56-1,2.23,2.23,0,0,1,1.29-.32l3,0,.44.89V740Z"/><path class="cls-25" d="M183.92,748h-.65l.65.39,0,3.31c-.12.41-.69.59-1.73.56l-4.51,0c-.37-.08-.56-.39-.57-.94l0-3.82a.85.85,0,0,1,.75-1l5.77,0Zm-1.47,0-3.86,0,0,2.79,3.86,0Z"/><rect class="cls-27" x="992" width="32" height="32"/><ellipse class="cls-28" cx="291.04" cy="220.5" rx="8.96" ry="9.35"/><ellipse class="cls-28" cx="352.43" cy="220.5" rx="8.96" ry="9.35"/><g class="cls-29"><path d="M329.66,239.18a30.6,30.6,0,0,1-15.67,0,2.08,2.08,0,0,0-2.36,2c0,4.24,4.46,7,10.18,7h0c5.72,0,10.21-2.75,10.18-7A2.09,2.09,0,0,0,329.66,239.18Z"/></g><path class="cls-15" d="M321.62,3.39V156H274.27a34.46,34.46,0,0,0-34,28.64.17.17,0,0,1,0,.07c-.09.45-.15.9-.21,1.35h-.81l6.93,64.32.14,1.34a6.08,6.08,0,0,1-6.05,6.72h-3.12a19.3,19.3,0,0,1-15.62-8c-6.26-8.66-14.95-17.48-18.8-26.29a20.22,20.22,0,0,0-21.69-11.6,6,6,0,0,0-1.84.63l-1.39.74a5.58,5.58,0,0,0-1.64,1.25c-4.27,4.75-10,21.42-18.73,32.95s-53,33.69-69.35,41.06l-29,13.47-.65.27-20.78,7.79a6,6,0,0,1-1,.28L11.5,315.88,11,316l-4.11.49A6.19,6.19,0,0,1,0,310.29V9.6A6.21,6.21,0,0,1,6.2,3.39Z"/><path class="cls-28" d="M321.62,0V163.71h-7.07c-19.17,0-19.7-5.71-35.75-7.69a100.93,100.93,0,0,0-12.46-.67c-20.78,0-25.21,18.63-26,29.31a.17.17,0,0,1,0,.07,55.3,55.3,0,0,0-.15,6.06l6.2,57.54a5.94,5.94,0,0,1-.14,2.07,6.09,6.09,0,0,1-5.91,4.67h-3.12a19.3,19.3,0,0,1-15.62-8c-6.26-8.66-14.95-17.48-18.8-26.29a20.21,20.21,0,0,0-21.69-11.6,5.74,5.74,0,0,0-1.84.63l-1.39.74a5.73,5.73,0,0,0-1.64,1.24c-4.27,4.76-10,21.43-18.73,33s-53,33.69-69.35,41.06l-29,13.47-.42.18-21,7.88a7.08,7.08,0,0,1-1,.28l-25.16,4.87-.46.07-4.1.48A6.2,6.2,0,0,1,0,306.88V0Z"/><path class="cls-15" d="M321.62,3.39V156H369a34.46,34.46,0,0,1,34,28.64.17.17,0,0,0,0,.07c.09.45.15.9.21,1.35H404l-6.93,64.32-.14,1.34a6.08,6.08,0,0,0,6,6.72h3.12a19.3,19.3,0,0,0,15.62-8c6.26-8.66,14.95-17.48,18.8-26.29a20.22,20.22,0,0,1,21.69-11.6,6,6,0,0,1,1.84.63l1.39.74a5.58,5.58,0,0,1,1.64,1.25c4.27,4.75,9.95,21.42,18.73,32.95s53,33.69,69.35,41.06l29,13.47.65.27,20.78,7.79a6,6,0,0,0,1,.28l25.16,4.87.44.07,4.12.49a6.19,6.19,0,0,0,6.93-6.15V9.6A6.21,6.21,0,0,0,637,3.39Z"/><path class="cls-28" d="M321.62,0V163.71h7.07c19.17,0,19.7-5.71,35.75-7.69a100.93,100.93,0,0,1,12.46-.67c20.78,0,25.21,18.63,26.05,29.31a.17.17,0,0,0,0,.07,55.3,55.3,0,0,1,.15,6.06l-6.2,57.54a5.94,5.94,0,0,0,.14,2.07,6.09,6.09,0,0,0,5.91,4.67h3.12a19.3,19.3,0,0,0,15.62-8c6.26-8.66,14.95-17.48,18.8-26.29a20.21,20.21,0,0,1,21.69-11.6,5.74,5.74,0,0,1,1.84.63l1.39.74a5.73,5.73,0,0,1,1.64,1.24c4.27,4.76,9.95,21.43,18.73,33s53,33.69,69.35,41.06l29,13.47.42.18,21,7.88a7.08,7.08,0,0,0,1,.28l25.17,4.87.44.07,4.11.48a6.2,6.2,0,0,0,6.93-6.16V0Z"/><path class="cls-30" d="M311.9,263.5s9.93-4.43,19.85.56"/><path d="M371.74,215.09a47,47,0,0,0-32.48-.35c-2.08.78-2.46-2.09-.47-3.47A56,56,0,0,1,360,202.51c5.91-1.15,11.8,4.36,13.34,10.84C373.61,214.6,372.86,215.41,371.74,215.09Z"/><path d="M271.73,215.09a46.92,46.92,0,0,1,32.47-.35c2.08.78,2.47-2.09.48-3.47a56,56,0,0,0-21.18-8.76c-5.91-1.15-11.8,4.36-13.34,10.84C269.86,214.6,270.6,215.41,271.73,215.09Z"/><rect class="cls-31" x="992" width="32" height="32"/></g></g></g></svg>