{
  "accessors": [
    {
      "name": "Mesh1 Tall_Rock_1 Model_1_positions",
      "componentType": 5126,
      "count": 68,
      "min": [
        0,
        0,
        -1.4199999570846558
      ],
      "max": [
        1.2297600507736206,
        1.590000033378601,
        0
      ],
      "type": "VEC3",
      "bufferView": 0,
      "byteOffset": 0
    },
    {
      "name": "Mesh1 Tall_Rock_1 Model_1_normals",
      "componentType": 5126,
      "count": 68,
      "min": [
        -0.9923040270805359,
        -1,
        -0.9470009803771973
      ],
      "max": [
        0.9923040270805359,
        1,
        0.862991988658905
      ],
      "type": "VEC3",
      "bufferView": 0,
      "byteOffset": 816
    },
    {
      "name": "Mesh1 Tall_Rock_1 Model_1_texcoords",
      "componentType": 5126,
      "count": 68,
      "min": [
        -48.917301177978516,
        -63.132198333740234
      ],
      "max": [
        48.917301177978516,
        13.308899879455566
      ],
      "type": "VEC2",
      "bufferView": 1,
      "byteOffset": 0
    },
    {
      "name": "Mesh1 Tall_Rock_1 Model_1_0_indices",
      "componentType": 5123,
      "count": 114,
      "min": [
        0
      ],
      "max": [
        67
      ],
      "type": "SCALAR",
      "bufferView": 2,
      "byteOffset": 0
    }
  ],
  "asset": {
    "generator": "obj2gltf",
    "version": "2.0"
  },
  "buffers": [
    {
      "name": "naturePack_029",
      "byteLength": 2404,
      "uri": "data:application/octet-stream;base64,"
    }
  ],
  "bufferViews": [
    {
      "name": "bufferView_0",
      "buffer": 0,
      "byteLength": 1632,
      "byteOffset": 0,
      "byteStride": 12,
      "target": 34962
    },
    {
      "name": "bufferView_1",
      "buffer": 0,
      "byteLength": 544,
      "byteOffset": 1632,
      "byteStride": 8,
      "target": 34962
    },
    {
      "name": "bufferView_2",
      "buffer": 0,
      "byteLength": 228,
      "byteOffset": 2176,
      "target": 34963
    }
  ],
  "materials": [
    {
      "name": "Stone",
      "pbrMetallicRoughness": {
        "baseColorFactor": [
          0.72549,
          0.752941,
          0.788235,
          1
        ],
        "metallicFactor": 0,
        "roughnessFactor": 1
      },
      "emissiveFactor": [
        0,
        0,
        0
      ],
      "alphaMode": "OPAQUE",
      "doubleSided": false
    }
  ],
  "meshes": [
    {
      "name": "Mesh1 Tall_Rock_1 Model_1",
      "primitives": [
        {
          "attributes": {
            "POSITION": 0,
            "NORMAL": 1,
            "TEXCOORD_0": 2
          },
          "indices": 3,
          "material": 0,
          "mode": 4
        }
      ]
    }
  ],
  "nodes": [
    {
      "name": "Mesh1 Tall_Rock_1 Model",
      "mesh": 0
    }
  ],
  "scene": 0,
  "scenes": [
    {
      "nodes": [
        0
      ]
    }
  ]
}
