{
  "accessors": [
    {
      "name": "Mesh1 Tent Model_1_positions",
      "componentType": 5126,
      "count": 70,
      "min": [
        0,
        0,
        -3
      ],
      "max": [
        3,
        2.855030059814453,
        0
      ],
      "type": "VEC3",
      "bufferView": 0,
      "byteOffset": 0
    },
    {
      "name": "Mesh1 Tent Model_1_normals",
      "componentType": 5126,
      "count": 70,
      "min": [
        -0.9366179704666138,
        -1,
        -1
      ],
      "max": [
        0.9366179704666138,
        0.46510401368141174,
        1
      ],
      "type": "VEC3",
      "bufferView": 0,
      "byteOffset": 840
    },
    {
      "name": "Mesh1 Tent Model_1_texcoords",
      "componentType": 5126,
      "count": 70,
      "min": [
        -118.11000061035156,
        -125.97200012207031
      ],
      "max": [
        118.11000061035156,
        55.93349838256836
      ],
      "type": "VEC2",
      "bufferView": 1,
      "byteOffset": 0
    },
    {
      "name": "Mesh1 Tent Model_1_0_indices",
      "componentType": 5123,
      "count": 132,
      "min": [
        0
      ],
      "max": [
        69
      ],
      "type": "SCALAR",
      "bufferView": 2,
      "byteOffset": 0
    },
    {
      "name": "Mesh1 Tent Model_1_1_indices",
      "componentType": 5123,
      "count": 12,
      "min": [
        57
      ],
      "max": [
        64
      ],
      "type": "SCALAR",
      "bufferView": 2,
      "byteOffset": 264
    }
  ],
  "asset": {
    "generator": "obj2gltf",
    "version": "2.0"
  },
  "buffers": [
    {
      "name": "naturePack_107",
      "byteLength": 2528,
      "uri": "data:application/octet-stream;base64,"
    }
  ],
  "bufferViews": [
    {
      "name": "bufferView_0",
      "buffer": 0,
      "byteLength": 1680,
      "byteOffset": 0,
      "byteStride": 12,
      "target": 34962
    },
    {
      "name": "bufferView_1",
      "buffer": 0,
      "byteLength": 560,
      "byteOffset": 1680,
      "byteStride": 8,
      "target": 34962
    },
    {
      "name": "bufferView_2",
      "buffer": 0,
      "byteLength": 288,
      "byteOffset": 2240,
      "target": 34963
    }
  ],
  "materials": [
    {
      "name": "Green_Roof",
      "pbrMetallicRoughness": {
        "baseColorFactor": [
          0.309804,
          0.466667,
          0.458824,
          1
        ],
        "metallicFactor": 0,
        "roughnessFactor": 1
      },
      "emissiveFactor": [
        0,
        0,
        0
      ],
      "alphaMode": "OPAQUE",
      "doubleSided": false
    },
    {
      "name": "Leafs",
      "pbrMetallicRoughness": {
        "baseColorFactor": [
          0.270588,
          0.407843,
          0.4,
          1
        ],
        "metallicFactor": 0,
        "roughnessFactor": 1
      },
      "emissiveFactor": [
        0,
        0,
        0
      ],
      "alphaMode": "OPAQUE",
      "doubleSided": false
    }
  ],
  "meshes": [
    {
      "name": "Mesh1 Tent Model_1",
      "primitives": [
        {
          "attributes": {
            "POSITION": 0,
            "NORMAL": 1,
            "TEXCOORD_0": 2
          },
          "indices": 3,
          "material": 0,
          "mode": 4
        },
        {
          "attributes": {
            "POSITION": 0,
            "NORMAL": 1,
            "TEXCOORD_0": 2
          },
          "indices": 4,
          "material": 1,
          "mode": 4
        }
      ]
    }
  ],
  "nodes": [
    {
      "name": "Mesh1 Tent Model",
      "mesh": 0
    }
  ],
  "scene": 0,
  "scenes": [
    {
      "nodes": [
        0
      ]
    }
  ]
}
