{
  "accessors": [
    {
      "name": "Mesh1 Brown_Cliff_End_Green_Top Model_1_positions",
      "componentType": 5126,
      "count": 104,
      "min": [
        -0.6399999856948853,
        -5.414339948572303e-16,
        -3
      ],
      "max": [
        0.5,
        2.200000047683716,
        0
      ],
      "type": "VEC3",
      "bufferView": 0,
      "byteOffset": 0
    },
    {
      "name": "Mesh1 Brown_Cliff_End_Green_Top Model_1_normals",
      "componentType": 5126,
      "count": 104,
      "min": [
        -0.9606189727783203,
        -1,
        -1
      ],
      "max": [
        1,
        1,
        1
      ],
      "type": "VEC3",
      "bufferView": 0,
      "byteOffset": 1248
    },
    {
      "name": "Mesh1 Brown_Cliff_End_Green_Top Model_1_texcoords",
      "componentType": 5126,
      "count": 104,
      "min": [
        -120.73300170898438,
        -117.11000061035156
      ],
      "max": [
        118.11000061035156,
        8.221719741821289
      ],
      "type": "VEC2",
      "bufferView": 1,
      "byteOffset": 0
    },
    {
      "name": "Mesh1 Brown_Cliff_End_Green_Top Model_1_0_indices",
      "componentType": 5123,
      "count": 150,
      "min": [
        0
      ],
      "max": [
        103
      ],
      "type": "SCALAR",
      "bufferView": 2,
      "byteOffset": 0
    },
    {
      "name": "Mesh1 Brown_Cliff_End_Green_Top Model_1_1_indices",
      "componentType": 5123,
      "count": 36,
      "min": [
        4
      ],
      "max": [
        93
      ],
      "type": "SCALAR",
      "bufferView": 2,
      "byteOffset": 300
    }
  ],
  "asset": {
    "generator": "obj2gltf",
    "version": "2.0"
  },
  "buffers": [
    {
      "name": "naturePack_120",
      "byteLength": 3700,
      "uri": "data:application/octet-stream;base64,"
    }
  ],
  "bufferViews": [
    {
      "name": "bufferView_0",
      "buffer": 0,
      "byteLength": 2496,
      "byteOffset": 0,
      "byteStride": 12,
      "target": 34962
    },
    {
      "name": "bufferView_1",
      "buffer": 0,
      "byteLength": 832,
      "byteOffset": 2496,
      "byteStride": 8,
      "target": 34962
    },
    {
      "name": "bufferView_2",
      "buffer": 0,
      "byteLength": 372,
      "byteOffset": 3328,
      "target": 34963
    }
  ],
  "materials": [
    {
      "name": "Wood",
      "pbrMetallicRoughness": {
        "baseColorFactor": [
          0.666667,
          0.545098,
          0.356863,
          1
        ],
        "metallicFactor": 0,
        "roughnessFactor": 1
      },
      "emissiveFactor": [
        0,
        0,
        0
      ],
      "alphaMode": "OPAQUE",
      "doubleSided": false
    },
    {
      "name": "Leafs",
      "pbrMetallicRoughness": {
        "baseColorFactor": [
          0.270588,
          0.407843,
          0.4,
          1
        ],
        "metallicFactor": 0,
        "roughnessFactor": 1
      },
      "emissiveFactor": [
        0,
        0,
        0
      ],
      "alphaMode": "OPAQUE",
      "doubleSided": false
    }
  ],
  "meshes": [
    {
      "name": "Mesh1 Brown_Cliff_End_Green_Top Model_1",
      "primitives": [
        {
          "attributes": {
            "POSITION": 0,
            "NORMAL": 1,
            "TEXCOORD_0": 2
          },
          "indices": 3,
          "material": 0,
          "mode": 4
        },
        {
          "attributes": {
            "POSITION": 0,
            "NORMAL": 1,
            "TEXCOORD_0": 2
          },
          "indices": 4,
          "material": 1,
          "mode": 4
        }
      ]
    }
  ],
  "nodes": [
    {
      "name": "Mesh1 Brown_Cliff_End_Green_Top Model",
      "mesh": 0
    }
  ],
  "scene": 0,
  "scenes": [
    {
      "nodes": [
        0
      ]
    }
  ]
}
