{
  "accessors": [
    {
      "name": "Mesh1 Group1 Model_1_positions",
      "componentType": 5126,
      "count": 396,
      "min": [
        0,
        0,
        -1.7570099830627441
      ],
      "max": [
        1.8433500528335571,
        0.26499998569488525,
        0
      ],
      "type": "VEC3",
      "bufferView": 0,
      "byteOffset": 0
    },
    {
      "name": "Mesh1 Group1 Model_1_normals",
      "componentType": 5126,
      "count": 396,
      "min": [
        -0.8858810067176819,
        -1,
        -0.8798159956932068
      ],
      "max": [
        0.8798159956932068,
        1,
        0.8858810067176819
      ],
      "type": "VEC3",
      "bufferView": 0,
      "byteOffset": 4752
    },
    {
      "name": "Mesh1 Group1 Model_1_texcoords",
      "componentType": 5126,
      "count": 396,
      "min": [
        -75.81690216064453,
        -68.17369842529297
      ],
      "max": [
        77.42720031738281,
        47.25749969482422
      ],
      "type": "VEC2",
      "bufferView": 1,
      "byteOffset": 0
    },
    {
      "name": "Mesh1 Group1 Model_1_0_indices",
      "componentType": 5123,
      "count": 792,
      "min": [
        0
      ],
      "max": [
        395
      ],
      "type": "SCALAR",
      "bufferView": 2,
      "byteOffset": 0
    }
  ],
  "asset": {
    "generator": "obj2gltf",
    "version": "2.0"
  },
  "buffers": [
    {
      "name": "naturePack_077",
      "byteLength": 14256,
      "uri": "data:application/octet-stream;base64,"
    }
  ],
  "bufferViews": [
    {
      "name": "bufferView_0",
      "buffer": 0,
      "byteLength": 9504,
      "byteOffset": 0,
      "byteStride": 12,
      "target": 34962
    },
    {
      "name": "bufferView_1",
      "buffer": 0,
      "byteLength": 3168,
      "byteOffset": 9504,
      "byteStride": 8,
      "target": 34962
    },
    {
      "name": "bufferView_2",
      "buffer": 0,
      "byteLength": 1584,
      "byteOffset": 12672,
      "target": 34963
    }
  ],
  "materials": [
    {
      "name": "Stone",
      "pbrMetallicRoughness": {
        "baseColorFactor": [
          0.72549,
          0.752941,
          0.788235,
          1
        ],
        "metallicFactor": 0,
        "roughnessFactor": 1
      },
      "emissiveFactor": [
        0,
        0,
        0
      ],
      "alphaMode": "OPAQUE",
      "doubleSided": false
    }
  ],
  "meshes": [
    {
      "name": "Mesh1 Group1 Model_1",
      "primitives": [
        {
          "attributes": {
            "POSITION": 0,
            "NORMAL": 1,
            "TEXCOORD_0": 2
          },
          "indices": 3,
          "material": 0,
          "mode": 4
        }
      ]
    }
  ],
  "nodes": [
    {
      "name": "Mesh1 Group1 Model",
      "mesh": 0
    }
  ],
  "scene": 0,
  "scenes": [
    {
      "nodes": [
        0
      ]
    }
  ]
}
