{
  "accessors": [
    {
      "name": "Mesh1 Tree Model_1_positions",
      "componentType": 5126,
      "count": 88,
      "min": [
        0,
        -0.4958679974079132,
        -1.1799999475479126
      ],
      "max": [
        1.1799999475479126,
        2.6630399227142334,
        0
      ],
      "type": "VEC3",
      "bufferView": 0,
      "byteOffset": 0
    },
    {
      "name": "Mesh1 Tree Model_1_normals",
      "componentType": 5126,
      "count": 88,
      "min": [
        -0.9947239756584167,
        -1,
        -0.9947239756584167
      ],
      "max": [
        0.9947239756584167,
        0.3138729929924011,
        0.9947239756584167
      ],
      "type": "VEC3",
      "bufferView": 0,
      "byteOffset": 1056
    },
    {
      "name": "Mesh1 Tree Model_1_texcoords",
      "componentType": 5126,
      "count": 88,
      "min": [
        -46.45669937133789,
        -105.83699798583984
      ],
      "max": [
        46.45669937133789,
        23.80340003967285
      ],
      "type": "VEC2",
      "bufferView": 1,
      "byteOffset": 0
    },
    {
      "name": "Mesh1 Tree Model_1_0_indices",
      "componentType": 5123,
      "count": 138,
      "min": [
        0
      ],
      "max": [
        87
      ],
      "type": "SCALAR",
      "bufferView": 2,
      "byteOffset": 0
    },
    {
      "name": "Mesh1 Tree Model_1_1_indices",
      "componentType": 5123,
      "count": 30,
      "min": [
        24
      ],
      "max": [
        43
      ],
      "type": "SCALAR",
      "bufferView": 2,
      "byteOffset": 276
    }
  ],
  "asset": {
    "generator": "obj2gltf",
    "version": "2.0"
  },
  "buffers": [
    {
      "name": "naturePack_114",
      "byteLength": 3152,
      "uri": "data:application/octet-stream;base64,"
    }
  ],
  "bufferViews": [
    {
      "name": "bufferView_0",
      "buffer": 0,
      "byteLength": 2112,
      "byteOffset": 0,
      "byteStride": 12,
      "target": 34962
    },
    {
      "name": "bufferView_1",
      "buffer": 0,
      "byteLength": 704,
      "byteOffset": 2112,
      "byteStride": 8,
      "target": 34962
    },
    {
      "name": "bufferView_2",
      "buffer": 0,
      "byteLength": 336,
      "byteOffset": 2816,
      "target": 34963
    }
  ],
  "materials": [
    {
      "name": "Leafs",
      "pbrMetallicRoughness": {
        "baseColorFactor": [
          0.270588,
          0.407843,
          0.4,
          1
        ],
        "metallicFactor": 0,
        "roughnessFactor": 1
      },
      "emissiveFactor": [
        0,
        0,
        0
      ],
      "alphaMode": "OPAQUE",
      "doubleSided": false
    },
    {
      "name": "Wood",
      "pbrMetallicRoughness": {
        "baseColorFactor": [
          0.666667,
          0.545098,
          0.356863,
          1
        ],
        "metallicFactor": 0,
        "roughnessFactor": 1
      },
      "emissiveFactor": [
        0,
        0,
        0
      ],
      "alphaMode": "OPAQUE",
      "doubleSided": false
    }
  ],
  "meshes": [
    {
      "name": "Mesh1 Tree Model_1",
      "primitives": [
        {
          "attributes": {
            "POSITION": 0,
            "NORMAL": 1,
            "TEXCOORD_0": 2
          },
          "indices": 3,
          "material": 0,
          "mode": 4
        },
        {
          "attributes": {
            "POSITION": 0,
            "NORMAL": 1,
            "TEXCOORD_0": 2
          },
          "indices": 4,
          "material": 1,
          "mode": 4
        }
      ]
    }
  ],
  "nodes": [
    {
      "name": "Mesh1 Tree Model",
      "mesh": 0
    }
  ],
  "scene": 0,
  "scenes": [
    {
      "nodes": [
        0
      ]
    }
  ]
}
