{
  "accessors": [
    {
      "name": "Mesh1 Grey_Cliff_Top_Corner Model_1_positions",
      "componentType": 5126,
      "count": 22,
      "min": [
        0,
        0,
        -0.9200000166893005
      ],
      "max": [
        0.9200000166893005,
        0.28999999165534973,
        8.662939682550948e-15
      ],
      "type": "VEC3",
      "bufferView": 0,
      "byteOffset": 0
    },
    {
      "name": "Mesh1 Grey_Cliff_Top_Corner Model_1_normals",
      "componentType": 5126,
      "count": 22,
      "min": [
        -0.6691910028457642,
        -1,
        -0.6691910028457642
      ],
      "max": [
        1,
        1,
        1
      ],
      "type": "VEC3",
      "bufferView": 0,
      "byteOffset": 264
    },
    {
      "name": "Mesh1 Grey_Cliff_Top_Corner Model_1_texcoords",
      "componentType": 5126,
      "count": 22,
      "min": [
        -51.2234992980957,
        -35.22050094604492
      ],
      "max": [
        36.22050094604492,
        2.2590999603271484
      ],
      "type": "VEC2",
      "bufferView": 1,
      "byteOffset": 0
    },
    {
      "name": "Mesh1 Grey_Cliff_Top_Corner Model_1_0_indices",
      "componentType": 5123,
      "count": 3,
      "min": [
        0
      ],
      "max": [
        2
      ],
      "type": "SCALAR",
      "bufferView": 2,
      "byteOffset": 0
    },
    {
      "name": "Mesh1 Grey_Cliff_Top_Corner Model_1_1_indices",
      "componentType": 5123,
      "count": 33,
      "min": [
        1
      ],
      "max": [
        21
      ],
      "type": "SCALAR",
      "bufferView": 2,
      "byteOffset": 8
    }
  ],
  "asset": {
    "generator": "obj2gltf",
    "version": "2.0"
  },
  "buffers": [
    {
      "name": "naturePack_142",
      "byteLength": 780,
      "uri": "data:application/octet-stream;base64,"
    }
  ],
  "bufferViews": [
    {
      "name": "bufferView_0",
      "buffer": 0,
      "byteLength": 528,
      "byteOffset": 0,
      "byteStride": 12,
      "target": 34962
    },
    {
      "name": "bufferView_1",
      "buffer": 0,
      "byteLength": 176,
      "byteOffset": 528,
      "byteStride": 8,
      "target": 34962
    },
    {
      "name": "bufferView_2",
      "buffer": 0,
      "byteLength": 76,
      "byteOffset": 704,
      "target": 34963
    }
  ],
  "materials": [
    {
      "name": "Leafs",
      "pbrMetallicRoughness": {
        "baseColorFactor": [
          0.270588,
          0.407843,
          0.4,
          1
        ],
        "metallicFactor": 0,
        "roughnessFactor": 1
      },
      "emissiveFactor": [
        0,
        0,
        0
      ],
      "alphaMode": "OPAQUE",
      "doubleSided": false
    },
    {
      "name": "Stone",
      "pbrMetallicRoughness": {
        "baseColorFactor": [
          0.72549,
          0.752941,
          0.788235,
          1
        ],
        "metallicFactor": 0,
        "roughnessFactor": 1
      },
      "emissiveFactor": [
        0,
        0,
        0
      ],
      "alphaMode": "OPAQUE",
      "doubleSided": false
    }
  ],
  "meshes": [
    {
      "name": "Mesh1 Grey_Cliff_Top_Corner Model_1",
      "primitives": [
        {
          "attributes": {
            "POSITION": 0,
            "NORMAL": 1,
            "TEXCOORD_0": 2
          },
          "indices": 3,
          "material": 0,
          "mode": 4
        },
        {
          "attributes": {
            "POSITION": 0,
            "NORMAL": 1,
            "TEXCOORD_0": 2
          },
          "indices": 4,
          "material": 1,
          "mode": 4
        }
      ]
    }
  ],
  "nodes": [
    {
      "name": "Mesh1 Grey_Cliff_Top_Corner Model",
      "mesh": 0
    }
  ],
  "scene": 0,
  "scenes": [
    {
      "nodes": [
        0
      ]
    }
  ]
}
