{
  "accessors": [
    {
      "name": "Mesh1 Water_lily Model_1_positions",
      "componentType": 5126,
      "count": 42,
      "min": [
        0,
        0,
        -0.6174489855766296
      ],
      "max": [
        0.5628190040588379,
        0.10000000149011612,
        0
      ],
      "type": "VEC3",
      "bufferView": 0,
      "byteOffset": 0
    },
    {
      "name": "Mesh1 Water_lily Model_1_normals",
      "componentType": 5126,
      "count": 42,
      "min": [
        -0.5764229893684387,
        -1,
        -0.9077720046043396
      ],
      "max": [
        0.9958850145339966,
        1,
        0.9077720046043396
      ],
      "type": "VEC3",
      "bufferView": 0,
      "byteOffset": 504
    },
    {
      "name": "Mesh1 Water_lily Model_1_texcoords",
      "componentType": 5126,
      "count": 42,
      "min": [
        -22.158199310302734,
        -23.30900001525879
      ],
      "max": [
        22.158199310302734,
        1
      ],
      "type": "VEC2",
      "bufferView": 1,
      "byteOffset": 0
    },
    {
      "name": "Mesh1 Water_lily Model_1_0_indices",
      "componentType": 5123,
      "count": 72,
      "min": [
        0
      ],
      "max": [
        41
      ],
      "type": "SCALAR",
      "bufferView": 2,
      "byteOffset": 0
    }
  ],
  "asset": {
    "generator": "obj2gltf",
    "version": "2.0"
  },
  "buffers": [
    {
      "name": "naturePack_110",
      "byteLength": 1488,
      "uri": "data:application/octet-stream;base64,"
    }
  ],
  "bufferViews": [
    {
      "name": "bufferView_0",
      "buffer": 0,
      "byteLength": 1008,
      "byteOffset": 0,
      "byteStride": 12,
      "target": 34962
    },
    {
      "name": "bufferView_1",
      "buffer": 0,
      "byteLength": 336,
      "byteOffset": 1008,
      "byteStride": 8,
      "target": 34962
    },
    {
      "name": "bufferView_2",
      "buffer": 0,
      "byteLength": 144,
      "byteOffset": 1344,
      "target": 34963
    }
  ],
  "materials": [
    {
      "name": "Green_leafs",
      "pbrMetallicRoughness": {
        "baseColorFactor": [
          0.298039,
          0.529412,
          0.427451,
          1
        ],
        "metallicFactor": 0,
        "roughnessFactor": 1
      },
      "emissiveFactor": [
        0,
        0,
        0
      ],
      "alphaMode": "OPAQUE",
      "doubleSided": false
    }
  ],
  "meshes": [
    {
      "name": "Mesh1 Water_lily Model_1",
      "primitives": [
        {
          "attributes": {
            "POSITION": 0,
            "NORMAL": 1,
            "TEXCOORD_0": 2
          },
          "indices": 3,
          "material": 0,
          "mode": 4
        }
      ]
    }
  ],
  "nodes": [
    {
      "name": "Mesh1 Water_lily Model",
      "mesh": 0
    }
  ],
  "scene": 0,
  "scenes": [
    {
      "nodes": [
        0
      ]
    }
  ]
}
