{
  "accessors": [
    {
      "name": "Mesh1 Group1 Model_1_positions",
      "componentType": 5126,
      "count": 150,
      "min": [
        0,
        0,
        -1.6218500137329102
      ],
      "max": [
        2.440000057220459,
        5.269999980926514,
        0
      ],
      "type": "VEC3",
      "bufferView": 0,
      "byteOffset": 0
    },
    {
      "name": "Mesh1 Group1 Model_1_normals",
      "componentType": 5126,
      "count": 150,
      "min": [
        -1,
        -1,
        -0.9963889718055725
      ],
      "max": [
        1,
        1,
        1
      ],
      "type": "VEC3",
      "bufferView": 0,
      "byteOffset": 1800
    },
    {
      "name": "Mesh1 Group1 Model_1_texcoords",
      "componentType": 5126,
      "count": 150,
      "min": [
        -96.06300354003906,
        -206.47999572753906
      ],
      "max": [
        96.06300354003906,
        34.477699279785156
      ],
      "type": "VEC2",
      "bufferView": 1,
      "byteOffset": 0
    },
    {
      "name": "Mesh1 Group1 Model_1_0_indices",
      "componentType": 5123,
      "count": 258,
      "min": [
        0
      ],
      "max": [
        149
      ],
      "type": "SCALAR",
      "bufferView": 2,
      "byteOffset": 0
    }
  ],
  "asset": {
    "generator": "obj2gltf",
    "version": "2.0"
  },
  "buffers": [
    {
      "name": "naturePack_156",
      "byteLength": 5316,
      "uri": "data:application/octet-stream;base64,"
    }
  ],
  "bufferViews": [
    {
      "name": "bufferView_0",
      "buffer": 0,
      "byteLength": 3600,
      "byteOffset": 0,
      "byteStride": 12,
      "target": 34962
    },
    {
      "name": "bufferView_1",
      "buffer": 0,
      "byteLength": 1200,
      "byteOffset": 3600,
      "byteStride": 8,
      "target": 34962
    },
    {
      "name": "bufferView_2",
      "buffer": 0,
      "byteLength": 516,
      "byteOffset": 4800,
      "target": 34963
    }
  ],
  "materials": [
    {
      "name": "Stone",
      "pbrMetallicRoughness": {
        "baseColorFactor": [
          0.72549,
          0.752941,
          0.788235,
          1
        ],
        "metallicFactor": 0,
        "roughnessFactor": 1
      },
      "emissiveFactor": [
        0,
        0,
        0
      ],
      "alphaMode": "OPAQUE",
      "doubleSided": false
    }
  ],
  "meshes": [
    {
      "name": "Mesh1 Group1 Model_1",
      "primitives": [
        {
          "attributes": {
            "POSITION": 0,
            "NORMAL": 1,
            "TEXCOORD_0": 2
          },
          "indices": 3,
          "material": 0,
          "mode": 4
        }
      ]
    }
  ],
  "nodes": [
    {
      "name": "Mesh1 Group1 Model",
      "mesh": 0
    }
  ],
  "scene": 0,
  "scenes": [
    {
      "nodes": [
        0
      ]
    }
  ]
}
