{
  "accessors": [
    {
      "name": "Mesh1 Rock_3 Model_1_positions",
      "componentType": 5126,
      "count": 72,
      "min": [
        0,
        0,
        -0.848704993724823
      ],
      "max": [
        0.9800000190734863,
        0.6800000071525574,
        0
      ],
      "type": "VEC3",
      "bufferView": 0,
      "byteOffset": 0
    },
    {
      "name": "Mesh1 Rock_3 Model_1_normals",
      "componentType": 5126,
      "count": 72,
      "min": [
        -0.8590360283851624,
        -1,
        -0.9919289946556091
      ],
      "max": [
        0.8590360283851624,
        1,
        0.9919289946556091
      ],
      "type": "VEC3",
      "bufferView": 0,
      "byteOffset": 864
    },
    {
      "name": "Mesh1 Rock_3 Model_1_texcoords",
      "componentType": 5126,
      "count": 72,
      "min": [
        -38.582698822021484,
        -32.41360092163086
      ],
      "max": [
        34.72439956665039,
        11.707300186157227
      ],
      "type": "VEC2",
      "bufferView": 1,
      "byteOffset": 0
    },
    {
      "name": "Mesh1 Rock_3 Model_1_0_indices",
      "componentType": 5123,
      "count": 132,
      "min": [
        0
      ],
      "max": [
        71
      ],
      "type": "SCALAR",
      "bufferView": 2,
      "byteOffset": 0
    }
  ],
  "asset": {
    "generator": "obj2gltf",
    "version": "2.0"
  },
  "buffers": [
    {
      "name": "naturePack_137",
      "byteLength": 2568,
      "uri": "data:application/octet-stream;base64,"
    }
  ],
  "bufferViews": [
    {
      "name": "bufferView_0",
      "buffer": 0,
      "byteLength": 1728,
      "byteOffset": 0,
      "byteStride": 12,
      "target": 34962
    },
    {
      "name": "bufferView_1",
      "buffer": 0,
      "byteLength": 576,
      "byteOffset": 1728,
      "byteStride": 8,
      "target": 34962
    },
    {
      "name": "bufferView_2",
      "buffer": 0,
      "byteLength": 264,
      "byteOffset": 2304,
      "target": 34963
    }
  ],
  "materials": [
    {
      "name": "Stone",
      "pbrMetallicRoughness": {
        "baseColorFactor": [
          0.72549,
          0.752941,
          0.788235,
          1
        ],
        "metallicFactor": 0,
        "roughnessFactor": 1
      },
      "emissiveFactor": [
        0,
        0,
        0
      ],
      "alphaMode": "OPAQUE",
      "doubleSided": false
    }
  ],
  "meshes": [
    {
      "name": "Mesh1 Rock_3 Model_1",
      "primitives": [
        {
          "attributes": {
            "POSITION": 0,
            "NORMAL": 1,
            "TEXCOORD_0": 2
          },
          "indices": 3,
          "material": 0,
          "mode": 4
        }
      ]
    }
  ],
  "nodes": [
    {
      "name": "Mesh1 Rock_3 Model",
      "mesh": 0
    }
  ],
  "scene": 0,
  "scenes": [
    {
      "nodes": [
        0
      ]
    }
  ]
}
