{
  "accessors": [
    {
      "name": "Mesh1 Group1 Model_1_positions",
      "componentType": 5126,
      "count": 108,
      "min": [
        0,
        0,
        -0.7379999756813049
      ],
      "max": [
        0.6391270160675049,
        0.6200000047683716,
        0
      ],
      "type": "VEC3",
      "bufferView": 0,
      "byteOffset": 0
    },
    {
      "name": "Mesh1 Group1 Model_1_normals",
      "componentType": 5126,
      "count": 108,
      "min": [
        -0.9929119944572449,
        -1,
        -0.9945600032806396
      ],
      "max": [
        0.9929119944572449,
        1,
        0.9945600032806396
      ],
      "type": "VEC3",
      "bufferView": 0,
      "byteOffset": 1296
    },
    {
      "name": "Mesh1 Group1 Model_1_texcoords",
      "componentType": 5126,
      "count": 108,
      "min": [
        -25.423200607299805,
        -25.338600158691406
      ],
      "max": [
        25.423200607299805,
        11.532500267028809
      ],
      "type": "VEC2",
      "bufferView": 1,
      "byteOffset": 0
    },
    {
      "name": "Mesh1 Group1 Model_1_0_indices",
      "componentType": 5123,
      "count": 150,
      "min": [
        0
      ],
      "max": [
        107
      ],
      "type": "SCALAR",
      "bufferView": 2,
      "byteOffset": 0
    },
    {
      "name": "Mesh1 Group1 Model_1_1_indices",
      "componentType": 5123,
      "count": 30,
      "min": [
        52
      ],
      "max": [
        71
      ],
      "type": "SCALAR",
      "bufferView": 2,
      "byteOffset": 300
    }
  ],
  "asset": {
    "generator": "obj2gltf",
    "version": "2.0"
  },
  "buffers": [
    {
      "name": "naturePack_170",
      "byteLength": 3816,
      "uri": "data:application/octet-stream;base64,"
    }
  ],
  "bufferViews": [
    {
      "name": "bufferView_0",
      "buffer": 0,
      "byteLength": 2592,
      "byteOffset": 0,
      "byteStride": 12,
      "target": 34962
    },
    {
      "name": "bufferView_1",
      "buffer": 0,
      "byteLength": 864,
      "byteOffset": 2592,
      "byteStride": 8,
      "target": 34962
    },
    {
      "name": "bufferView_2",
      "buffer": 0,
      "byteLength": 360,
      "byteOffset": 3456,
      "target": 34963
    }
  ],
  "materials": [
    {
      "name": "Fall_Leafs",
      "pbrMetallicRoughness": {
        "baseColorFactor": [
          0.619608,
          0.356863,
          0.235294,
          1
        ],
        "metallicFactor": 0,
        "roughnessFactor": 1
      },
      "emissiveFactor": [
        0,
        0,
        0
      ],
      "alphaMode": "OPAQUE",
      "doubleSided": false
    },
    {
      "name": "Green_leafs",
      "pbrMetallicRoughness": {
        "baseColorFactor": [
          0.298039,
          0.529412,
          0.427451,
          1
        ],
        "metallicFactor": 0,
        "roughnessFactor": 1
      },
      "emissiveFactor": [
        0,
        0,
        0
      ],
      "alphaMode": "OPAQUE",
      "doubleSided": false
    }
  ],
  "meshes": [
    {
      "name": "Mesh1 Group1 Model_1",
      "primitives": [
        {
          "attributes": {
            "POSITION": 0,
            "NORMAL": 1,
            "TEXCOORD_0": 2
          },
          "indices": 3,
          "material": 0,
          "mode": 4
        },
        {
          "attributes": {
            "POSITION": 0,
            "NORMAL": 1,
            "TEXCOORD_0": 2
          },
          "indices": 4,
          "material": 1,
          "mode": 4
        }
      ]
    }
  ],
  "nodes": [
    {
      "name": "Mesh1 Group1 Model",
      "mesh": 0
    }
  ],
  "scene": 0,
  "scenes": [
    {
      "nodes": [
        0
      ]
    }
  ]
}
