{
  "accessors": [
    {
      "name": "Mesh1 Group1 Model_1_positions",
      "componentType": 5126,
      "count": 174,
      "min": [
        0,
        0,
        -0.7814099788665771
      ],
      "max": [
        0.7150700092315674,
        1.5399999618530273,
        -0.02500000037252903
      ],
      "type": "VEC3",
      "bufferView": 0,
      "byteOffset": 0
    },
    {
      "name": "Mesh1 Group1 Model_1_normals",
      "componentType": 5126,
      "count": 174,
      "min": [
        -1,
        -1,
        -1
      ],
      "max": [
        1,
        1,
        1
      ],
      "type": "VEC3",
      "bufferView": 0,
      "byteOffset": 2088
    },
    {
      "name": "Mesh1 Group1 Model_1_texcoords",
      "componentType": 5126,
      "count": 174,
      "min": [
        -38.502498626708984,
        -57.747398376464844
      ],
      "max": [
        38.502498626708984,
        1
      ],
      "type": "VEC2",
      "bufferView": 1,
      "byteOffset": 0
    },
    {
      "name": "Mesh1 Group1 Model_1_0_indices",
      "componentType": 5123,
      "count": 324,
      "min": [
        0
      ],
      "max": [
        173
      ],
      "type": "SCALAR",
      "bufferView": 2,
      "byteOffset": 0
    }
  ],
  "asset": {
    "generator": "obj2gltf",
    "version": "2.0"
  },
  "buffers": [
    {
      "name": "naturePack_056",
      "byteLength": 6216,
      "uri": "data:application/octet-stream;base64,"
    }
  ],
  "bufferViews": [
    {
      "name": "bufferView_0",
      "buffer": 0,
      "byteLength": 4176,
      "byteOffset": 0,
      "byteStride": 12,
      "target": 34962
    },
    {
      "name": "bufferView_1",
      "buffer": 0,
      "byteLength": 1392,
      "byteOffset": 4176,
      "byteStride": 8,
      "target": 34962
    },
    {
      "name": "bufferView_2",
      "buffer": 0,
      "byteLength": 648,
      "byteOffset": 5568,
      "target": 34963
    }
  ],
  "materials": [
    {
      "name": "Green_leafs",
      "pbrMetallicRoughness": {
        "baseColorFactor": [
          0.298039,
          0.529412,
          0.427451,
          1
        ],
        "metallicFactor": 0,
        "roughnessFactor": 1
      },
      "emissiveFactor": [
        0,
        0,
        0
      ],
      "alphaMode": "OPAQUE",
      "doubleSided": false
    }
  ],
  "meshes": [
    {
      "name": "Mesh1 Group1 Model_1",
      "primitives": [
        {
          "attributes": {
            "POSITION": 0,
            "NORMAL": 1,
            "TEXCOORD_0": 2
          },
          "indices": 3,
          "material": 0,
          "mode": 4
        }
      ]
    }
  ],
  "nodes": [
    {
      "name": "Mesh1 Group1 Model",
      "mesh": 0
    }
  ],
  "scene": 0,
  "scenes": [
    {
      "nodes": [
        0
      ]
    }
  ]
}
