{
  "accessors": [
    {
      "name": "Mesh1 Group2 Group1 Model_1_positions",
      "componentType": 5126,
      "count": 72,
      "min": [
        1.3308199644088745,
        0,
        -1.8443200588226318
      ],
      "max": [
        2.059659957885742,
        2.9179399013519287,
        -1.1354600191116333
      ],
      "type": "VEC3",
      "bufferView": 0,
      "byteOffset": 0
    },
    {
      "name": "Mesh1 Group2 Group1 Model_1_normals",
      "componentType": 5126,
      "count": 72,
      "min": [
        -0.9987000226974487,
        -1,
        -0.9999210238456726
      ],
      "max": [
        0.9987000226974487,
        1,
        0.9992820024490356
      ],
      "type": "VEC3",
      "bufferView": 0,
      "byteOffset": 4320
    },
    {
      "name": "Mesh1 Group2 Group1 Model_1_texcoords",
      "componentType": 5126,
      "count": 72,
      "min": [
        -36.3218994140625,
        -191.7689971923828
      ],
      "max": [
        36.3218994140625,
        2.268980026245117
      ],
      "type": "VEC2",
      "bufferView": 1,
      "byteOffset": 0
    },
    {
      "name": "Mesh1 Group2 Group1 Model_1_0_indices",
      "componentType": 5123,
      "count": 108,
      "min": [
        0
      ],
      "max": [
        71
      ],
      "type": "SCALAR",
      "bufferView": 2,
      "byteOffset": 0
    },
    {
      "name": "Mesh2 Group3 Group1 Model_1_positions",
      "componentType": 5126,
      "count": 288,
      "min": [
        -8.084690143912721e-13,
        2.6542398929595947,
        -3.183039903640747
      ],
      "max": [
        3.183039903640747,
        3.2504398822784424,
        -1.5208700184649038e-13
      ],
      "type": "VEC3",
      "bufferView": 0,
      "byteOffset": 864
    },
    {
      "name": "Mesh2 Group3 Group1 Model_1_normals",
      "componentType": 5126,
      "count": 288,
      "min": [
        -1,
        -1,
        -1
      ],
      "max": [
        1,
        1,
        1
      ],
      "type": "VEC3",
      "bufferView": 0,
      "byteOffset": 5184
    },
    {
      "name": "Mesh2 Group3 Group1 Model_1_texcoords",
      "componentType": 5126,
      "count": 288,
      "min": [
        -234.5500030517578,
        -166.02699279785156
      ],
      "max": [
        240.68499755859375,
        184.197998046875
      ],
      "type": "VEC2",
      "bufferView": 1,
      "byteOffset": 576
    },
    {
      "name": "Mesh2 Group3 Group1 Model_1_0_indices",
      "componentType": 5123,
      "count": 474,
      "min": [
        0
      ],
      "max": [
        287
      ],
      "type": "SCALAR",
      "bufferView": 2,
      "byteOffset": 216
    }
  ],
  "asset": {
    "generator": "obj2gltf",
    "version": "2.0"
  },
  "buffers": [
    {
      "name": "naturePack_061",
      "byteLength": 12684,
      "uri": "data:application/octet-stream;base64,"
    }
  ],
  "bufferViews": [
    {
      "name": "bufferView_0",
      "buffer": 0,
      "byteLength": 8640,
      "byteOffset": 0,
      "byteStride": 12,
      "target": 34962
    },
    {
      "name": "bufferView_1",
      "buffer": 0,
      "byteLength": 2880,
      "byteOffset": 8640,
      "byteStride": 8,
      "target": 34962
    },
    {
      "name": "bufferView_2",
      "buffer": 0,
      "byteLength": 1164,
      "byteOffset": 11520,
      "target": 34963
    }
  ],
  "materials": [
    {
      "name": "Wood",
      "pbrMetallicRoughness": {
        "baseColorFactor": [
          0.666667,
          0.545098,
          0.356863,
          1
        ],
        "metallicFactor": 0,
        "roughnessFactor": 1
      },
      "emissiveFactor": [
        0,
        0,
        0
      ],
      "alphaMode": "OPAQUE",
      "doubleSided": false
    },
    {
      "name": "Green_leafs",
      "pbrMetallicRoughness": {
        "baseColorFactor": [
          0.298039,
          0.529412,
          0.427451,
          1
        ],
        "metallicFactor": 0,
        "roughnessFactor": 1
      },
      "emissiveFactor": [
        0,
        0,
        0
      ],
      "alphaMode": "OPAQUE",
      "doubleSided": false
    }
  ],
  "meshes": [
    {
      "name": "Mesh1 Group2 Group1 Model_1",
      "primitives": [
        {
          "attributes": {
            "POSITION": 0,
            "NORMAL": 1,
            "TEXCOORD_0": 2
          },
          "indices": 3,
          "material": 0,
          "mode": 4
        }
      ]
    },
    {
      "name": "Mesh2 Group3 Group1 Model_1",
      "primitives": [
        {
          "attributes": {
            "POSITION": 4,
            "NORMAL": 5,
            "TEXCOORD_0": 6
          },
          "indices": 7,
          "material": 1,
          "mode": 4
        }
      ]
    }
  ],
  "nodes": [
    {
      "name": "Mesh1 Group2 Group1 Model",
      "mesh": 0
    },
    {
      "name": "Mesh2 Group3 Group1 Model",
      "mesh": 1
    }
  ],
  "scene": 0,
  "scenes": [
    {
      "nodes": [
        0,
        1
      ]
    }
  ]
}
