{
  "accessors": [
    {
      "name": "Mesh1 Fallen_Trunk Model_1_positions",
      "componentType": 5126,
      "count": 152,
      "min": [
        0,
        0,
        -1.1750500202178955
      ],
      "max": [
        2.190000057220459,
        0.795199990272522,
        0
      ],
      "type": "VEC3",
      "bufferView": 0,
      "byteOffset": 0
    },
    {
      "name": "Mesh1 Fallen_Trunk Model_1_normals",
      "componentType": 5126,
      "count": 152,
      "min": [
        -1,
        -1,
        -0.9998679757118225
      ],
      "max": [
        1,
        0.9999809861183167,
        0.9998679757118225
      ],
      "type": "VEC3",
      "bufferView": 0,
      "byteOffset": 1824
    },
    {
      "name": "Mesh1 Fallen_Trunk Model_1_texcoords",
      "componentType": 5126,
      "count": 152,
      "min": [
        -93.77850341796875,
        -90.30919647216797
      ],
      "max": [
        91.7697982788086,
        43.77410125732422
      ],
      "type": "VEC2",
      "bufferView": 1,
      "byteOffset": 0
    },
    {
      "name": "Mesh1 Fallen_Trunk Model_1_0_indices",
      "componentType": 5123,
      "count": 234,
      "min": [
        0
      ],
      "max": [
        151
      ],
      "type": "SCALAR",
      "bufferView": 2,
      "byteOffset": 0
    },
    {
      "name": "Mesh1 Fallen_Trunk Model_1_1_indices",
      "componentType": 5123,
      "count": 54,
      "min": [
        8
      ],
      "max": [
        130
      ],
      "type": "SCALAR",
      "bufferView": 2,
      "byteOffset": 468
    }
  ],
  "asset": {
    "generator": "obj2gltf",
    "version": "2.0"
  },
  "buffers": [
    {
      "name": "naturePack_138",
      "byteLength": 5440,
      "uri": "data:application/octet-stream;base64,"
    }
  ],
  "bufferViews": [
    {
      "name": "bufferView_0",
      "buffer": 0,
      "byteLength": 3648,
      "byteOffset": 0,
      "byteStride": 12,
      "target": 34962
    },
    {
      "name": "bufferView_1",
      "buffer": 0,
      "byteLength": 1216,
      "byteOffset": 3648,
      "byteStride": 8,
      "target": 34962
    },
    {
      "name": "bufferView_2",
      "buffer": 0,
      "byteLength": 576,
      "byteOffset": 4864,
      "target": 34963
    }
  ],
  "materials": [
    {
      "name": "Wood",
      "pbrMetallicRoughness": {
        "baseColorFactor": [
          0.666667,
          0.545098,
          0.356863,
          1
        ],
        "metallicFactor": 0,
        "roughnessFactor": 1
      },
      "emissiveFactor": [
        0,
        0,
        0
      ],
      "alphaMode": "OPAQUE",
      "doubleSided": false
    },
    {
      "name": "Light_Wood",
      "pbrMetallicRoughness": {
        "baseColorFactor": [
          0.937255,
          0.764706,
          0.501961,
          1
        ],
        "metallicFactor": 0,
        "roughnessFactor": 1
      },
      "emissiveFactor": [
        0,
        0,
        0
      ],
      "alphaMode": "OPAQUE",
      "doubleSided": false
    }
  ],
  "meshes": [
    {
      "name": "Mesh1 Fallen_Trunk Model_1",
      "primitives": [
        {
          "attributes": {
            "POSITION": 0,
            "NORMAL": 1,
            "TEXCOORD_0": 2
          },
          "indices": 3,
          "material": 0,
          "mode": 4
        },
        {
          "attributes": {
            "POSITION": 0,
            "NORMAL": 1,
            "TEXCOORD_0": 2
          },
          "indices": 4,
          "material": 1,
          "mode": 4
        }
      ]
    }
  ],
  "nodes": [
    {
      "name": "Mesh1 Fallen_Trunk Model",
      "mesh": 0
    }
  ],
  "scene": 0,
  "scenes": [
    {
      "nodes": [
        0
      ]
    }
  ]
}
