<svg xmlns="http://www.w3.org/2000/svg" xmlns:xlink="http://www.w3.org/1999/xlink" viewBox="0 0 1024 1024"><defs><style>.cls-1{isolation:isolate;}.cls-2{fill:#fff;}.cls-3{fill:#f58c6a;}.cls-4{fill:#f69878;}.cls-27,.cls-5{opacity:0.15;}.cls-15,.cls-16,.cls-17,.cls-27,.cls-28,.cls-30,.cls-5{mix-blend-mode:overlay;}.cls-5{fill:url(#linear-gradient);}.cls-6{fill:#f37b67;}.cls-7{fill:url(#linear-gradient-2);}.cls-8{fill:url(#linear-gradient-3);}.cls-9{fill:red;}.cls-10,.cls-15,.cls-30{opacity:0.1;}.cls-10{mix-blend-mode:multiply;fill:url(#linear-gradient-4);}.cls-11{fill:url(#linear-gradient-5);}.cls-12{fill:#61150d;}.cls-13{fill:#999;}.cls-14{fill:#4d160e;}.cls-16,.cls-17,.cls-28{opacity:0.25;}.cls-16{fill:url(#linear-gradient-6);}.cls-17{fill:url(#linear-gradient-7);}.cls-18{fill:#202020;}.cls-19{fill:#d4eef4;}.cls-20{fill:#0071bc;}.cls-21{fill:#abbfcf;}.cls-22{fill:url(#linear-gradient-8);}.cls-23{fill:#19090c;}.cls-24{fill:#badde2;}.cls-25{fill:lime;}.cls-26{fill:#220f0f;}.cls-29{fill:#a36841;}.cls-30{fill:url(#linear-gradient-9);}.cls-31{fill:#9d613d;}.cls-32{fill:blue;}</style><linearGradient id="linear-gradient" x1="321.68" y1="286" x2="321.68" y2="431.12" gradientUnits="userSpaceOnUse"><stop offset="0"/><stop offset="1" stop-opacity="0"/></linearGradient><linearGradient id="linear-gradient-2" x1="438.5" y1="235.5" x2="507.96" y2="235.5" gradientUnits="userSpaceOnUse"><stop offset="0" stop-color="#f69878"/><stop offset="1" stop-color="#f37b67"/></linearGradient><linearGradient id="linear-gradient-3" x1="202" y1="235.5" x2="152.85" y2="235.5" gradientTransform="translate(383.22 471) rotate(180)" xlink:href="#linear-gradient-2"/><linearGradient id="linear-gradient-4" x1="321.5" y1="490" x2="321.5" y2="187.52" gradientUnits="userSpaceOnUse"><stop offset="0" stop-color="#f69878"/><stop offset="1" stop-color="#f69878" stop-opacity="0"/></linearGradient><linearGradient id="linear-gradient-5" x1="824" y1="1024" x2="824" y2="764" gradientUnits="userSpaceOnUse"><stop offset="0" stop-color="#0d3543"/><stop offset="1" stop-color="#344d59"/></linearGradient><linearGradient id="linear-gradient-6" x1="657.77" y1="835.05" x2="657.77" y2="786.3" gradientUnits="userSpaceOnUse"><stop offset="0" stop-opacity="0"/><stop offset="1"/></linearGradient><linearGradient id="linear-gradient-7" x1="794.72" y1="835.05" x2="794.72" y2="786.3" xlink:href="#linear-gradient-6"/><linearGradient id="linear-gradient-8" x1="268.75" y1="995.55" x2="342.3" y2="996.51" xlink:href="#linear-gradient-6"/><linearGradient id="linear-gradient-9" x1="321.62" y1="143" x2="321.62" y2="255.45" xlink:href="#linear-gradient-6"/></defs><title>businessMaleA</title><g class="cls-1"><g id="Layer_2" data-name="Layer 2"><g id="Layer_1-2" data-name="Layer 1"><rect class="cls-2" width="1024" height="1024"/><rect class="cls-3" x="624" y="524" width="400" height="240"/><rect class="cls-4" width="643" height="490"/><path class="cls-5" d="M366,299h0a89.81,89.81,0,0,0-19.13,2.07h0a89.33,89.33,0,0,1-19.14,2.07H315.59a89.26,89.26,0,0,1-19.14-2.07h0A89.81,89.81,0,0,0,277.32,299h0a43.74,43.74,0,0,0-33,15c-6.51,7.48-12.32,16.72-11.37,25.21l15.3,137,71.88,5.58,1.52-2.82,1.52,2.82,71.87-5.58,15.31-137c.95-8.49-4.86-17.73-11.38-25.21A43.71,43.71,0,0,0,366,299Z"/><rect class="cls-4" x="824" y="134" width="200" height="390"/><path class="cls-6" d="M442.55,216.37h8.29a18.41,18.41,0,0,1,18.41,18.41v1.43a18.41,18.41,0,0,1-18.41,18.41h-8.29a0,0,0,0,1,0,0V216.37A0,0,0,0,1,442.55,216.37Z"/><path class="cls-7" d="M437.85,216.37h8.29a18.41,18.41,0,0,1,18.41,18.41v1.43a18.41,18.41,0,0,1-18.41,18.41h-8.29a0,0,0,0,1,0,0V216.37A0,0,0,0,1,437.85,216.37Z"/><ellipse class="cls-6" cx="451.21" cy="235.5" rx="7.93" ry="4.4" transform="translate(132.36 632.21) rotate(-78.77)"/><path class="cls-6" d="M173.56,216.37h8.29a18.41,18.41,0,0,1,18.41,18.41v1.43a18.41,18.41,0,0,1-18.41,18.41h-8.29a0,0,0,0,1,0,0V216.37a0,0,0,0,1,0,0Z" transform="translate(373.83 471) rotate(-180)"/><path class="cls-8" d="M178.26,216.37h8.29A18.41,18.41,0,0,1,205,234.78v1.43a18.41,18.41,0,0,1-18.41,18.41h-8.29a0,0,0,0,1,0,0V216.37A0,0,0,0,1,178.26,216.37Z" transform="translate(383.22 471) rotate(-180)"/><ellipse class="cls-6" cx="191.61" cy="235.5" rx="4.4" ry="7.93" transform="translate(-42.19 41.82) rotate(-11.23)"/><polygon class="cls-4" points="579.88 654.47 544.43 654.47 491.56 654.47 460 654.47 460 654.47 445.83 654.47 428.62 681.05 422.17 725.5 423.38 763.65 432.45 812.23 457.05 819.12 460 823.21 460 823.21 491.56 823.21 544.43 823.21 579.88 823.21 615.98 823.21 615.98 654.47 579.88 654.47"/><polygon class="cls-4" points="212.12 681.05 194.91 654.47 180.74 654.47 180.74 654.47 149.18 654.47 96.31 654.47 60.86 654.47 24.76 654.47 24.76 823.21 60.86 823.21 96.31 823.21 149.18 823.21 180.74 823.21 180.74 823.21 183.69 819.12 208.29 812.23 217.36 763.65 218.57 725.5 212.12 681.05"/><rect class="cls-4" x="624" y="864.49" width="400" height="159.51"/><rect class="cls-9" x="992" width="32" height="32"/><rect class="cls-10" y="139.59" width="643" height="350.41"/><ellipse class="cls-4" cx="320.36" cy="746.08" rx="73.24" ry="132.26"/><rect class="cls-2" x="180.89" y="490" width="262.21" height="534"/><rect class="cls-11" x="624" y="764" width="400" height="260"/><rect class="cls-12" x="653.6" y="141.89" width="156.93" height="355.73"/><rect class="cls-13" x="624" y="764" width="400" height="260"/><rect class="cls-14" x="713.32" y="386.11" width="26.58" height="5.41" rx="2.7" ry="2.7"/><rect class="cls-14" x="713.32" y="210.84" width="26.58" height="5.41" rx="2.7" ry="2.7"/><path class="cls-14" d="M806,315.06l-8.41,15.88-.11,13.64L779,393.74l-11.25,31.05L756,456.55a25.15,25.15,0,0,1-7.8,10.82h0a25.17,25.17,0,0,1-11.82,5.27l-6,1a25.15,25.15,0,0,1-9.7-.34l-4.78-1.11a25.16,25.16,0,0,1-12.13-6.73l-.59-.59a25.08,25.08,0,0,1-5.47-8.21L689.55,437l-11.5-28.5-4-13.8-6-26.11L666.6,353l-.05-26.66h-20.5V483.78l57.24,18H797l13-48,10.5-98.48V319.61Z"/><path class="cls-14" d="M806,139.59l-8.17,15.88-.12,13.64L779,218.27l-11.25,31L756,281.09a25.15,25.15,0,0,1-7.8,10.82h0a25.15,25.15,0,0,1-11.82,5.26l-6,1a25.14,25.14,0,0,1-9.7-.33l-4.78-1.11A25.32,25.32,0,0,1,703.69,290l-.59-.59a25,25,0,0,1-5.47-8.22l-8.08-19.59-11.5-28.5-4-13.8-6-26.1L666.6,177.5l-.05-26.65h-20.5V308.31l57.24,18H797l13-48,10.5-98.49V144.14Z"/><rect class="cls-15" x="631.59" y="786.3" width="383.62" height="16.15"/><path class="cls-13" d="M692.28,330.68l3.64,22.77a23.6,23.6,0,0,0,5.46,11.72l8.31,9.59a23.6,23.6,0,0,0,17.82,8.13h0a23.59,23.59,0,0,0,14.58-5.05l3.43-2.7a23.55,23.55,0,0,0,5.29-5.84l4.8-7.53a23.4,23.4,0,0,0,2.21-4.42L768.42,329H692.28Z"/><path class="cls-13" d="M692.28,154.72l3.64,22.77a23.6,23.6,0,0,0,5.46,11.72l8.31,9.58a23.58,23.58,0,0,0,17.82,8.14h0a23.59,23.59,0,0,0,14.58-5.05l3.43-2.71a23.37,23.37,0,0,0,5.29-5.84l4.8-7.52a23.79,23.79,0,0,0,2.21-4.43L768.42,153H692.28Z"/><path class="cls-16" d="M682.15,786.3a48.75,48.75,0,0,1-48.75,48.75V786.3Z"/><path class="cls-17" d="M770.35,786.3a48.75,48.75,0,0,0,48.75,48.75V786.3Z"/><rect class="cls-2" x="11.73" y="654.47" width="212.47" height="188.74" transform="translate(235.93 1497.67) rotate(-180)"/><rect class="cls-2" x="416.54" y="654.47" width="199.44" height="188.74" transform="translate(1032.52 1497.67) rotate(-180)"/><rect class="cls-18" y="495.68" width="624" height="22.13"/><rect class="cls-19" x="27.9" y="654.47" width="7.84" height="188.74" transform="translate(63.64 1497.67) rotate(-180)"/><rect class="cls-19" x="605" y="654.47" width="7.84" height="188.74" transform="translate(1217.84 1497.67) rotate(-180)"/><polygon class="cls-19" points="347.18 955.51 333.38 969.29 329.48 973.17 321.44 981.2 316.62 976.4 314.3 974.08 305.05 964.85 302.73 962.53 295.69 955.51 296.03 952.65 296.38 949.66 297.8 937.76 298.15 934.76 299.56 922.85 299.92 919.86 301.33 907.95 301.69 904.95 303.11 893.04 303.46 890.05 304.87 878.14 305.22 875.14 306.64 863.24 306.99 860.25 308.4 848.33 308.76 845.34 310.17 833.43 310.53 830.44 311.94 818.53 312.3 815.53 313.71 803.62 314.06 800.63 315.48 788.72 315.83 785.73 317.24 773.82 317.6 770.83 317.85 768.7 325.02 768.7 325.05 768.95 325.38 771.77 326.71 783 327.05 785.82 328.38 797.03 328.72 799.85 330.05 811.07 330.38 813.89 331.71 825.12 332.05 827.94 333.38 839.16 333.71 841.98 335.04 853.2 335.37 856.02 336.7 867.24 337.05 870.06 338.38 881.28 338.71 884.1 340.04 895.32 340.38 898.14 341.71 909.36 342.04 912.18 343.37 923.4 343.7 926.22 345.04 937.44 345.37 940.26 346.7 951.48 347.03 954.3 347.18 955.51"/><polygon class="cls-19" points="342.79 724.75 329.8 721.65 320.75 720.62 311.18 721.65 298.19 724.75 292.55 744.52 296.06 765.25 321.33 774.55 345.04 765.2 348.44 744.52 342.79 724.75"/><polygon class="cls-20" points="349.28 948.98 334.35 962.76 330.14 966.64 321.44 974.67 316.23 969.87 313.72 967.55 303.71 958.32 301.2 956 293.59 948.98 293.96 946.12 294.34 943.13 295.87 931.23 296.25 928.23 297.78 916.32 298.16 913.33 299.69 901.42 300.08 898.42 301.61 886.51 301.99 883.52 303.52 871.61 303.9 868.61 305.43 856.71 305.81 853.72 307.34 841.8 307.73 838.81 309.25 826.9 309.64 823.91 311.17 812 311.55 809 313.08 797.09 313.46 794.1 314.99 782.19 315.37 779.2 316.9 767.29 317.29 764.3 317.56 762.17 325.31 762.17 325.34 762.42 325.7 765.24 327.14 776.47 327.51 779.29 328.95 790.5 329.31 793.32 330.75 804.54 331.11 807.36 332.55 818.59 332.91 821.41 334.35 832.63 334.71 835.45 336.15 846.67 336.51 849.49 337.95 860.71 338.32 863.53 339.76 874.75 340.12 877.57 341.56 888.79 341.92 891.61 343.36 902.83 343.72 905.65 345.16 916.87 345.52 919.69 346.96 930.91 347.32 933.73 348.76 944.95 349.12 947.77 349.28 948.98"/><rect class="cls-18" y="984.67" width="624" height="22.13"/><path class="cls-21" d="M328.86,986H314a4.62,4.62,0,0,0-4.62,4.62v7.95a4.62,4.62,0,0,0,4.62,4.62h14.85a4.62,4.62,0,0,0,4.62-4.62v-7.95A4.62,4.62,0,0,0,328.86,986ZM331,998.16a2.39,2.39,0,0,1-2.38,2.39H314.21a2.39,2.39,0,0,1-2.38-2.39v-7.23a2.39,2.39,0,0,1,2.38-2.39h14.45a2.39,2.39,0,0,1,2.38,2.39Z"/><rect class="cls-21" x="316.41" y="987.77" width="3.22" height="13.54"/><path class="cls-21" d="M318,987.77h0a1.61,1.61,0,0,1,1.61,1.61v11.93a0,0,0,0,1,0,0h-3.22a0,0,0,0,1,0,0V989.39A1.61,1.61,0,0,1,318,987.77Z" transform="translate(1312.57 676.52) rotate(90)"/><polygon class="cls-22" points="300.83 984.56 276.95 993.83 303.83 1006.76 253.77 1006.76 259.88 984.56 300.83 984.56"/><rect class="cls-23" x="643" width="381" height="134"/><polygon class="cls-2" points="631.59 442.27 631.59 491.69 9.43 491.69 9.43 442.27 321.68 442.27 321.5 481.54 321.32 442.27 631.59 442.27"/><polygon class="cls-19" points="394.39 481.86 248.61 481.86 321.32 442.46 321.5 442.37 321.68 442.46 394.39 481.86"/><polygon class="cls-24" points="321.32 442.27 321.5 442.37 321.32 442.46 321.32 442.27"/><polygon class="cls-24" points="321.68 442.27 321.68 442.46 321.5 442.37 321.68 442.27"/><polygon class="cls-20" points="321.5 442.27 285.2 466.74 321.5 485.5 357.8 466.74 321.5 442.27"/><rect class="cls-25" x="992" width="32" height="32"/><ellipse class="cls-26" cx="287.04" cy="224.17" rx="8.96" ry="10.3"/><ellipse class="cls-26" cx="356.43" cy="224.17" rx="8.96" ry="10.3"/><g class="cls-27"><path d="M333.81,244.41c-1.57,5.14-6.35,6.87-12,6.87V239.56l9.95,1.59A2.56,2.56,0,0,1,333.81,244.41Z"/><path d="M309.84,244.41c1.57,5.14,6.35,6.87,12,6.87V239.56l-9.95,1.59A2.55,2.55,0,0,0,309.84,244.41Z"/></g><g class="cls-28"><path d="M327,267.51a63.9,63.9,0,0,0,16.68-5.44,2.32,2.32,0,0,0,1.23-3.21h0a2.38,2.38,0,0,0-3.05-.93,59.59,59.59,0,0,1-15.74,5.13Z"/><path d="M309.52,268.86A64.35,64.35,0,0,0,327,267.51l-.88-4.45a59.61,59.61,0,0,1-16.51,1.27,2.38,2.38,0,0,0-2.46,2h0A2.33,2.33,0,0,0,309.52,268.86Z"/></g><path class="cls-27" d="M327.87,273a6.83,6.83,0,0,0-4.25,2.4,2.92,2.92,0,0,0,2.72,4.72l5.08-.76a2.92,2.92,0,0,0,1.21-5.31A6.81,6.81,0,0,0,327.87,273Z"/><path class="cls-27" d="M321.62,3.39V156H274.27a34.46,34.46,0,0,0-34,28.64.17.17,0,0,1,0,.07c-.09.45-.15.9-.21,1.35h-.81l6.93,64.32.14,1.33a6.09,6.09,0,0,1-6.05,6.73h-3.12a19.3,19.3,0,0,1-15.62-8c-6.26-8.66-14.95-17.48-18.8-26.29a20.22,20.22,0,0,0-21.69-11.6,6,6,0,0,0-1.84.63l-1.39.74a5.58,5.58,0,0,0-1.64,1.25c-4.27,4.75-10,21.42-18.73,32.95s-53,33.69-69.35,41.06l-29,13.47-.43.19-21,7.87a6,6,0,0,1-1,.28l-25.16,4.87L11,316l-4.11.49A6.2,6.2,0,0,1,0,310.28V9.6A6.21,6.21,0,0,1,6.2,3.39Z"/><path class="cls-27" d="M321.62,3.39V156H369a34.46,34.46,0,0,1,34,28.64.17.17,0,0,0,0,.07c.09.45.15.9.21,1.35H404l-6.93,64.32-.14,1.33a6.09,6.09,0,0,0,6,6.73h3.12a19.3,19.3,0,0,0,15.62-8c6.26-8.66,14.95-17.48,18.8-26.29a20.22,20.22,0,0,1,21.69-11.6,6,6,0,0,1,1.84.63l1.39.74a5.58,5.58,0,0,1,1.64,1.25c4.27,4.75,9.95,21.42,18.73,32.95s53,33.69,69.35,41.06l29,13.47.43.19,21,7.87a6,6,0,0,0,1,.28l25.16,4.87.45.07,4.11.49a6.2,6.2,0,0,0,6.93-6.16V9.6A6.21,6.21,0,0,0,637,3.39Z"/><path class="cls-26" d="M240.28,184.73c0-.35.05-.72.1-1.09,0,.34-.06.69-.09,1A.17.17,0,0,1,240.28,184.73Z"/><path class="cls-29" d="M643.24,6.2V306.88a6.2,6.2,0,0,1-6.93,6.16l-4.11-.48-.45-.07-25.16-4.87a7.08,7.08,0,0,1-1-.28l-21-7.88a3.25,3.25,0,0,1-.43-.18l-29-13.47c-16.39-7.37-60.58-29.56-69.35-41.06s-14.46-28.2-18.73-33a5.73,5.73,0,0,0-1.64-1.24l-1.39-.74a5.74,5.74,0,0,0-1.84-.63,20.21,20.21,0,0,0-21.69,11.6c-3.85,8.81-12.54,17.63-18.8,26.29a19.3,19.3,0,0,1-15.62,8H403a6.09,6.09,0,0,1-5.91-4.67,5.94,5.94,0,0,1-.14-2.07l6.2-57.54c0-.09,0-.19,0-.29h.22c.18-6.55-.26-33-18.33-39.12-2.33-.44-4.83-.86-7.47-1.25h-.65c-7.61,0-9.75,2.57-11.42,5.78s-2.92,7.26-9,9.89c-31.62,13.65-59.81-9.86-88.8-10.43h-1.31c-15.13,0-21.59,9.87-24.3,19.36-.21.7-.39,1.39-.55,2.08-.11.49-.21,1-.31,1.44s-.13.63-.18.94c-.15.79-.27,1.56-.37,2.3,0,.38-.1.74-.14,1.1s-.07.62-.1.92a.76.76,0,0,0,0,.15c0,.37-.08.74-.1,1.09a55.3,55.3,0,0,0-.15,6.06l6.2,57.54a5.94,5.94,0,0,1-.14,2.07,6.09,6.09,0,0,1-5.91,4.67h-3.12a19.3,19.3,0,0,1-15.62-8c-6.26-8.66-14.95-17.48-18.8-26.29a20.21,20.21,0,0,0-21.69-11.6,5.74,5.74,0,0,0-1.84.63l-1.39.74a5.73,5.73,0,0,0-1.64,1.24c-4.27,4.76-10,21.43-18.73,33s-53,33.69-69.35,41.06l-29,13.47a3.25,3.25,0,0,1-.43.18l-21,7.88a7.08,7.08,0,0,1-1,.28l-25.16,4.87-.45.07L6.93,313A6.2,6.2,0,0,1,0,306.88V6.2A6.21,6.21,0,0,1,6.2,0H637A6.21,6.21,0,0,1,643.24,6.2Z"/><path class="cls-30" d="M643.24,6.2V306.88a6.2,6.2,0,0,1-6.93,6.16l-4.11-.48-.45-.07-25.16-4.87a7.08,7.08,0,0,1-1-.28l-21-7.88a3.25,3.25,0,0,1-.43-.18l-29-13.47c-16.39-7.37-60.58-29.56-69.35-41.06s-14.46-28.2-18.73-33a5.73,5.73,0,0,0-1.64-1.24l-1.39-.74a5.74,5.74,0,0,0-1.84-.63,20.21,20.21,0,0,0-21.69,11.6c-3.85,8.81-12.54,17.63-18.8,26.29a19.3,19.3,0,0,1-15.62,8H403a6.09,6.09,0,0,1-5.91-4.67,5.94,5.94,0,0,1-.14-2.07l6.2-57.54c0-.09,0-.19,0-.29h.22c.18-6.55-.26-33-18.33-39.12-2.33-.44-4.83-.86-7.47-1.25h-.65c-7.61,0-9.75,2.57-11.42,5.78s-2.92,7.26-9,9.89c-31.62,13.65-59.81-9.86-88.8-10.43h-1.31c-15.13,0-21.59,9.87-24.3,19.36-.21.7-.39,1.39-.55,2.08-.11.49-.21,1-.31,1.44s-.13.63-.18.94c-.15.79-.27,1.56-.37,2.3,0,.38-.1.74-.14,1.1s-.07.62-.1.92a.76.76,0,0,0,0,.15c0,.37-.08.74-.1,1.09a55.3,55.3,0,0,0-.15,6.06l6.2,57.54a5.94,5.94,0,0,1-.14,2.07,6.09,6.09,0,0,1-5.91,4.67h-3.12a19.3,19.3,0,0,1-15.62-8c-6.26-8.66-14.95-17.48-18.8-26.29a20.21,20.21,0,0,0-21.69-11.6,5.74,5.74,0,0,0-1.84.63l-1.39.74a5.73,5.73,0,0,0-1.64,1.24c-4.27,4.76-10,21.43-18.73,33s-53,33.69-69.35,41.06l-29,13.47a3.25,3.25,0,0,1-.43.18l-21,7.88a7.08,7.08,0,0,1-1,.28l-25.16,4.87-.45.07L6.93,313A6.2,6.2,0,0,1,0,306.88V6.2A6.21,6.21,0,0,1,6.2,0H637A6.21,6.21,0,0,1,643.24,6.2Z"/><path class="cls-31" d="M367.61,211.22a5,5,0,0,0,.41-9.87c-6.92-1.67-13.43-2.88-23-.93a5,5,0,1,0,2,9.87c8.18-1.68,13.5-.39,18.65.85A5.3,5.3,0,0,0,367.61,211.22Z"/><path class="cls-31" d="M275.86,211.22a5,5,0,0,1-.41-9.87c6.92-1.67,13.43-2.88,23-.93a5,5,0,0,1-2,9.87c-8.19-1.68-13.5-.39-18.65.85A5.31,5.31,0,0,1,275.86,211.22Z"/><rect class="cls-32" x="992" width="32" height="32"/></g></g></g></svg>