<svg xmlns="http://www.w3.org/2000/svg" xmlns:xlink="http://www.w3.org/1999/xlink" viewBox="0 0 1024 1024"><defs><style>.cls-1{isolation:isolate;}.cls-2{fill:#fff;}.cls-3{fill:#f7b889;}.cls-4{fill:#f8c79d;}.cls-5{opacity:0.1;mix-blend-mode:multiply;fill:url(#linear-gradient);}.cls-21,.cls-6{opacity:0.15;}.cls-13,.cls-14,.cls-20,.cls-21,.cls-22,.cls-6{mix-blend-mode:overlay;}.cls-6{fill:url(#linear-gradient-2);}.cls-7{fill:#eb986d;}.cls-8{fill:red;}.cls-9{fill:#a5ce39;}.cls-10{fill:#55b66a;}.cls-11{fill:#ccdde7;}.cls-12{fill:#2cb34f;}.cls-13,.cls-14,.cls-22{opacity:0.25;}.cls-13{fill:url(#linear-gradient-3);}.cls-14{fill:url(#linear-gradient-4);}.cls-15{fill:#d3eef4;}.cls-16{fill:#badde2;}.cls-17{fill:url(#linear-gradient-5);}.cls-18{fill:#abbfcf;}.cls-19{fill:url(#radial-gradient);}.cls-20{fill:url(#linear-gradient-6);}.cls-23{opacity:0.5;}.cls-24{fill:lime;}.cls-25{fill:#220f0f;}.cls-26{fill:#f45151;}.cls-27{fill:#e2472b;}.cls-28{fill:blue;}</style><linearGradient id="linear-gradient" x1="321.5" y1="490" x2="321.5" y2="187.52" gradientUnits="userSpaceOnUse"><stop offset="0" stop-color="#f69878"/><stop offset="1" stop-color="#f69878" stop-opacity="0"/></linearGradient><linearGradient id="linear-gradient-2" x1="321.68" y1="286" x2="321.68" y2="431.12" gradientUnits="userSpaceOnUse"><stop offset="0"/><stop offset="1" stop-opacity="0"/></linearGradient><linearGradient id="linear-gradient-3" x1="657.77" y1="835.05" x2="657.77" y2="786.3" gradientUnits="userSpaceOnUse"><stop offset="0" stop-opacity="0"/><stop offset="1"/></linearGradient><linearGradient id="linear-gradient-4" x1="794.72" y1="835.05" x2="794.72" y2="786.3" xlink:href="#linear-gradient-3"/><linearGradient id="linear-gradient-5" x1="258.3" y1="987.83" x2="316.29" y2="987.64" xlink:href="#linear-gradient-3"/><radialGradient id="radial-gradient" cx="321.11" cy="871.96" r="84.19" gradientTransform="translate(0 316.77) scale(1 0.64)" gradientUnits="userSpaceOnUse"><stop offset="0" stop-color="#badde2"/><stop offset="0.17" stop-color="#badde2" stop-opacity="0.99"/><stop offset="0.31" stop-color="#badde2" stop-opacity="0.94"/><stop offset="0.43" stop-color="#badde2" stop-opacity="0.87"/><stop offset="0.55" stop-color="#badde2" stop-opacity="0.76"/><stop offset="0.67" stop-color="#badde2" stop-opacity="0.62"/><stop offset="0.78" stop-color="#badde2" stop-opacity="0.45"/><stop offset="0.88" stop-color="#badde2" stop-opacity="0.25"/><stop offset="0.99" stop-color="#badde2" stop-opacity="0.03"/><stop offset="1" stop-color="#badde2" stop-opacity="0"/></radialGradient><linearGradient id="linear-gradient-6" x1="320.89" y1="903.7" x2="320.89" y2="869.42" xlink:href="#linear-gradient-3"/></defs><title>casualFemaleB</title><g class="cls-1"><g id="Layer_2" data-name="Layer 2"><g id="Layer_1-2" data-name="Layer 1"><rect class="cls-2" width="1024" height="1024"/><rect class="cls-3" x="624" y="524" width="400" height="240"/><rect class="cls-4" width="643" height="490"/><rect class="cls-5" y="139.59" width="643" height="350.41"/><rect class="cls-4" x="824" y="134" width="200" height="390"/><path class="cls-6" d="M366,299h0a89.81,89.81,0,0,0-19.13,2.07h0a89.33,89.33,0,0,1-19.14,2.07H315.59a89.26,89.26,0,0,1-19.14-2.07h0A89.81,89.81,0,0,0,277.32,299h0a43.74,43.74,0,0,0-33,15c-6.51,7.48-12.32,16.72-11.37,25.21l15.3,137,71.88,5.58,1.52-2.82,1.52,2.82,71.87-5.58,15.31-137c.95-8.49-4.86-17.73-11.38-25.21A43.71,43.71,0,0,0,366,299Z"/><path class="cls-7" d="M442.55,216.37h8.29a18.41,18.41,0,0,1,18.41,18.41v1.43a18.41,18.41,0,0,1-18.41,18.41h-8.29a0,0,0,0,1,0,0V216.37A0,0,0,0,1,442.55,216.37Z"/><path class="cls-4" d="M437.85,216.37h8.29a18.41,18.41,0,0,1,18.41,18.41v1.43a18.41,18.41,0,0,1-18.41,18.41h-8.29a0,0,0,0,1,0,0V216.37A0,0,0,0,1,437.85,216.37Z"/><ellipse class="cls-7" cx="451.21" cy="235.5" rx="7.93" ry="4.4" transform="translate(132.36 632.21) rotate(-78.77)"/><path class="cls-7" d="M173.56,216.37h8.29a18.41,18.41,0,0,1,18.41,18.41v1.43a18.41,18.41,0,0,1-18.41,18.41h-8.29a0,0,0,0,1,0,0V216.37A0,0,0,0,1,173.56,216.37Z" transform="translate(373.83 471) rotate(-180)"/><path class="cls-4" d="M178.26,216.37h8.29A18.41,18.41,0,0,1,205,234.78v1.43a18.41,18.41,0,0,1-18.41,18.41h-8.29a0,0,0,0,1,0,0V216.37a0,0,0,0,1,0,0Z" transform="translate(383.22 471) rotate(-180)"/><ellipse class="cls-7" cx="191.61" cy="235.5" rx="4.4" ry="7.93" transform="translate(-42.19 41.82) rotate(-11.23)"/><polygon class="cls-4" points="579.88 654.47 544.43 654.47 491.56 654.47 460 654.47 460 654.47 445.83 654.47 428.62 681.05 422.17 725.5 423.38 763.65 432.45 812.23 457.05 819.12 460 823.21 460 823.21 491.56 823.21 544.43 823.21 579.88 823.21 615.98 823.21 615.98 654.47 579.88 654.47"/><polygon class="cls-4" points="194.91 654.47 180.74 654.47 180.74 654.47 149.18 654.47 96.31 654.47 60.86 654.47 24.76 654.47 24.76 823.21 60.86 823.21 96.31 823.21 149.18 823.21 180.74 823.21 180.74 823.21 183.69 819.12 208.29 812.23 217.36 763.65 218.57 725.5 212.12 681.05 194.91 654.47"/><rect class="cls-4" x="624" y="864.49" width="400" height="159.51"/><rect class="cls-8" x="992" width="32" height="32"/><ellipse class="cls-4" cx="320.36" cy="746.08" rx="73.24" ry="132.26"/><rect class="cls-9" x="643" width="381" height="134"/><rect class="cls-10" x="643" y="134" width="181" height="390"/><polygon class="cls-2" points="685.44 439.39 707.95 424.66 745.85 424.66 766.21 445.84 763.57 471.33 735.92 484.58 701.16 478.78 685.44 439.39"/><polygon class="cls-2" points="685.44 264.47 707.95 249.74 745.85 249.74 766.21 270.93 763.57 296.42 735.92 309.66 701.16 303.87 685.44 264.47"/><rect class="cls-2" x="713.32" y="395.74" width="26.58" height="5.41" rx="2.7" ry="2.7"/><rect class="cls-2" x="713.32" y="386.11" width="26.58" height="5.41" rx="2.7" ry="2.7"/><rect class="cls-2" x="713.32" y="405.83" width="26.58" height="5.41" rx="2.7" ry="2.7"/><rect class="cls-2" x="713.32" y="221.15" width="26.58" height="5.41" rx="2.7" ry="2.7"/><rect class="cls-2" x="713.32" y="210.84" width="26.58" height="5.41" rx="2.7" ry="2.7"/><rect class="cls-2" x="713.32" y="231.25" width="26.58" height="5.41" rx="2.7" ry="2.7"/><path class="cls-11" d="M806,315.06l-8.41,15.88-.11,13.64L779,393.74l-11.25,31.05L756,456.55a25.15,25.15,0,0,1-7.8,10.82h0a25.17,25.17,0,0,1-11.82,5.27l-6,1a25.15,25.15,0,0,1-9.7-.34l-4.78-1.11a25.16,25.16,0,0,1-12.13-6.73l-.59-.59a25.08,25.08,0,0,1-5.47-8.21L689.55,437l-11.5-28.5-4-13.8-6-26.11L666.6,353l-.05-26.66h-20.5V483.78l57.24,18H797l13-48,10.5-98.48V319.61Z"/><path class="cls-11" d="M806,139.59l-8.17,15.88-.12,13.64L779,218.27l-11.25,31L756,281.09a25.15,25.15,0,0,1-7.8,10.82h0a25.15,25.15,0,0,1-11.82,5.26l-6,1a25.14,25.14,0,0,1-9.7-.33l-4.78-1.11A25.32,25.32,0,0,1,703.69,290l-.59-.59a25,25,0,0,1-5.47-8.22l-8.08-19.59-11.5-28.5-4-13.8-6-26.1L666.6,177.5l-.05-26.65h-20.5V308.31l57.24,18H797l13-48,10.5-98.49V144.14Z"/><path class="cls-2" d="M692.28,330.68l3.64,22.77a23.6,23.6,0,0,0,5.46,11.72l8.31,9.59a23.6,23.6,0,0,0,17.82,8.13h0a23.59,23.59,0,0,0,14.58-5.05l3.43-2.7a23.55,23.55,0,0,0,5.29-5.84l4.8-7.53a23.4,23.4,0,0,0,2.21-4.42L768.42,329H692.28Z"/><path class="cls-2" d="M692.28,154.72l3.64,22.77a23.6,23.6,0,0,0,5.46,11.72l8.31,9.58a23.58,23.58,0,0,0,17.82,8.14h0a23.59,23.59,0,0,0,14.58-5.05l3.43-2.71a23.37,23.37,0,0,0,5.29-5.84l4.8-7.52a23.79,23.79,0,0,0,2.21-4.43L768.42,153H692.28Z"/><rect class="cls-9" x="624" y="764" width="400" height="109.12"/><rect class="cls-2" x="631.59" y="968.54" width="383.62" height="48.93"/><rect class="cls-11" x="631.59" y="968.54" width="383.62" height="6.96"/><rect class="cls-12" x="624" y="864.42" width="400" height="8.7"/><rect class="cls-12" x="624" y="786.3" width="400" height="16.15"/><path class="cls-13" d="M682.15,786.3a48.75,48.75,0,0,1-48.75,48.75V786.3Z"/><path class="cls-14" d="M770.35,786.3a48.75,48.75,0,0,0,48.75,48.75V786.3Z"/><path class="cls-15" d="M180.74,484.58V1024H460V484.58Zm140.37,346.7c-25.08,0-45.41-54.27-45.41-85.91S296,717,321.11,717s45.4-3.3,45.4,28.33S346.18,831.28,321.11,831.28Z"/><rect class="cls-16" x="172.9" y="654.47" width="7.84" height="188.74" transform="translate(353.64 1497.67) rotate(-180)"/><rect class="cls-16" x="460" y="654.47" width="7.84" height="188.74" transform="translate(927.84 1497.67) rotate(-180)"/><polygon class="cls-17" points="291.02 968.77 268.5 984.65 293.85 1006.8 246.63 1006.8 252.39 968.77 291.02 968.77"/><path class="cls-18" d="M332.54,975.25H311.23a6.63,6.63,0,0,0-6.63,6.63v11.41a6.63,6.63,0,0,0,6.63,6.63h21.31a6.63,6.63,0,0,0,6.63-6.63V981.88A6.63,6.63,0,0,0,332.54,975.25Zm3.13,17.52a3.42,3.42,0,0,1-3.42,3.43H311.52a3.43,3.43,0,0,1-3.43-3.43V982.39a3.43,3.43,0,0,1,3.43-3.42h20.73a3.42,3.42,0,0,1,3.42,3.42Z"/><rect class="cls-18" x="314.68" y="977.86" width="4.63" height="19.44"/><path class="cls-18" d="M317,977.86h0a2.31,2.31,0,0,1,2.31,2.31V997.3a0,0,0,0,1,0,0h-4.63a0,0,0,0,1,0,0V980.18A2.31,2.31,0,0,1,317,977.86Z" transform="translate(1304.57 670.59) rotate(90)"/><rect class="cls-15" x="180.74" y="968.37" width="279.26" height="38.43"/><rect class="cls-15" x="180.74" y="494.89" width="279.26" height="38.43"/><path class="cls-19" d="M431.62,852.78v9.35a11.8,11.8,0,0,1-2.23,6.85c-26.89,37.44-65.45,60.91-108.29,60.91S239.71,906.42,212.82,869a11.8,11.8,0,0,1-2.23-6.85V853a11.62,11.62,0,0,1,17.2-10.17l.32.17a35.26,35.26,0,0,1,16.46,18.77A42.88,42.88,0,0,0,299,887.24a67.56,67.56,0,0,1,44.82,0,42.86,42.86,0,0,0,54.38-25.43,35.44,35.44,0,0,1,16.22-19l.18-.1A11.5,11.5,0,0,1,431.62,852.78Z"/><rect class="cls-16" x="180.74" y="997.3" width="279.26" height="13.26"/><rect class="cls-16" x="180.74" y="494.16" width="279.26" height="13.58"/><rect class="cls-15" x="205.31" y="834.28" width="229.44" height="116.08"/><path class="cls-20" d="M377.33,885.09c-10.89,12.3-32,20.64-56.22,20.64-24.58,0-45.93-8.57-56.67-21.16A42.95,42.95,0,0,0,299,887.24a67.56,67.56,0,0,1,44.82,0,42.92,42.92,0,0,0,33.53-2.15Z"/><g class="cls-21"><rect x="164.96" y="654.47" width="7.84" height="188.74" transform="translate(337.77 1497.67) rotate(-180)"/><rect x="467.85" y="654.47" width="7.84" height="188.74" transform="translate(943.55 1497.67) rotate(-180)"/></g><g class="cls-22"><path class="cls-23" d="M364.05,767.18c-6.13,29.92-23,64.1-42.94,64.1s-36.82-34.18-42.95-64.1c7.67,27.58,24,55.75,42.95,55.75S356.38,794.76,364.05,767.18Z"/></g><rect class="cls-24" x="992" width="32" height="32"/><rect class="cls-25" x="343.93" y="213.32" width="14.17" height="21.7" rx="7.09" ry="7.09"/><path class="cls-25" d="M352.79,211.55h0a7.09,7.09,0,0,1,7.09,7.09v10.63a0,0,0,0,1,0,0h-7.09a7.09,7.09,0,0,1-7.09-7.09v-3.54A7.09,7.09,0,0,1,352.79,211.55Z" transform="translate(132.38 573.2) rotate(-90)"/><path class="cls-21" d="M329.57,243.36h0a35.21,35.21,0,0,1-15.49,0h0a2,2,0,0,0-1.6,2.54c1.22,4,4.94,5.35,9.33,5.36h0c4.4,0,8.12-1.36,9.34-5.36A2,2,0,0,0,329.57,243.36Z"/><path class="cls-26" d="M338.33,256.43c-2.75,3.26-7.08,4.93-11.4,6s-9.14,1.79-13.61.25c-2.23-.8-4.73,1.06-3.33,3.1,2.33,3.44,10.4,6.4,19.43,4s13.36-8.39,13.25-12.19C342.6,255.32,339.7,254.78,338.33,256.43Z"/><path class="cls-27" d="M341.94,200.57c4-1.2,8.18-.67,12.21-.1s8.21,1.19,11.71,3.43c1.79,1.16,4.31-.37,3.54-2.49-1.32-3.6-6.64-7.41-14.21-8.45s-13.72,1.15-16,4.25C337.9,199,339.9,201.2,341.94,200.57Z"/><path class="cls-27" d="M299.31,207.52c-4-1.2-8.18-.67-12.21-.1s-8.21,1.19-11.72,3.43c-1.79,1.17-4.3-.37-3.54-2.48,1.33-3.6,6.65-7.42,14.21-8.46s13.73,1.16,16,4.26C303.35,206,301.35,208.16,299.31,207.52Z"/><rect class="cls-25" x="285.36" y="213.32" width="14.17" height="21.7" rx="7.09" ry="7.09" transform="translate(584.89 448.34) rotate(-180)"/><path class="cls-25" d="M290.67,211.55h7.09a0,0,0,0,1,0,0v10.63a7.09,7.09,0,0,1-7.09,7.09h0a7.09,7.09,0,0,1-7.09-7.09v-3.54A7.09,7.09,0,0,1,290.67,211.55Z" transform="translate(70.26 511.09) rotate(-90)"/><circle class="cls-21" cx="350.75" cy="249.42" r="2.56"/><circle class="cls-21" cx="359.38" cy="245.82" r="2.56"/><circle class="cls-21" cx="358.22" cy="255.16" r="2.56"/><circle class="cls-21" cx="292.49" cy="249.42" r="2.56"/><circle class="cls-21" cx="283.86" cy="245.82" r="2.56"/><circle class="cls-21" cx="285.03" cy="255.16" r="2.56"/><g class="cls-21"><path d="M321,5V151.59c-46.33,0-83.91,36.38-84.07,44.26v.05L235.3,213c-1.2,12.75-16.54,22.95-26.23,15.52s-30.16-18.38-57.22,27.74S0,318.87,0,318.87V5Z"/><path d="M321,5V151.59c46.33,0,83.91,36.38,84.07,44.26v.05l1.61,17.1c1.2,12.75,16.54,22.95,26.23,15.52s30.16-18.38,57.22,27.74S642,318.87,642,318.87V5Z"/></g><path class="cls-27" d="M321,0V146.59c-46.33,0-83.91,36.38-84.07,44.26v.05L235.3,208c-1.2,12.75-16.54,22.95-26.23,15.52s-30.16-18.38-57.22,27.74S0,313.87,0,313.87V0Z"/><path class="cls-27" d="M321,0V146.59c46.33,0,83.91,36.38,84.07,44.26v.05l1.61,17.1c1.2,12.75,16.54,22.95,26.23,15.52s30.16-18.38,57.22,27.74S642,313.87,642,313.87V0Z"/><rect class="cls-28" x="992" width="32" height="32"/></g></g></g></svg>