<svg xmlns="http://www.w3.org/2000/svg" xmlns:xlink="http://www.w3.org/1999/xlink" viewBox="0 0 1024 1024"><defs><style>.cls-1{isolation:isolate;}.cls-2{fill:#fff;}.cls-3{fill:#f58c6a;}.cls-4{fill:#f69878;}.cls-30,.cls-5{opacity:0.15;}.cls-19,.cls-23,.cls-29,.cls-30,.cls-5{mix-blend-mode:overlay;}.cls-5{fill:url(#linear-gradient);}.cls-6{fill:#f37b67;}.cls-7{fill:url(#linear-gradient-2);}.cls-8{fill:url(#linear-gradient-3);}.cls-9{fill:red;}.cls-10{opacity:0.1;fill:url(#linear-gradient-4);}.cls-10,.cls-21{mix-blend-mode:multiply;}.cls-11{fill:#753524;}.cls-12{fill:#451a15;}.cls-13{fill:#61150d;}.cls-14{fill:#687886;}.cls-15{fill:#5e1a16;}.cls-16{fill:#cfe0e9;}.cls-17{fill:#7c8d9c;}.cls-18{fill:url(#linear-gradient-5);}.cls-19{fill:#333;}.cls-19,.cls-21,.cls-29{opacity:0.25;}.cls-20{fill:#7f3116;}.cls-21{fill:#94a3a9;}.cls-22{fill:#abbfcf;}.cls-23{opacity:0.5;fill:url(#radial-gradient);}.cls-24{fill:#718191;}.cls-25{fill:#98aec2;}.cls-26{fill:#7d8c9b;}.cls-27{fill:lime;}.cls-28{fill:#220f0f;}.cls-31{fill:blue;}</style><linearGradient id="linear-gradient" x1="321.68" y1="286" x2="321.68" y2="431.12" gradientUnits="userSpaceOnUse"><stop offset="0"/><stop offset="1" stop-opacity="0"/></linearGradient><linearGradient id="linear-gradient-2" x1="438.5" y1="235.5" x2="507.96" y2="235.5" gradientUnits="userSpaceOnUse"><stop offset="0" stop-color="#f69878"/><stop offset="1" stop-color="#f37b67"/></linearGradient><linearGradient id="linear-gradient-3" x1="202" y1="235.5" x2="152.85" y2="235.5" gradientTransform="translate(383.22 471) rotate(180)" xlink:href="#linear-gradient-2"/><linearGradient id="linear-gradient-4" x1="321.5" y1="490" x2="321.5" y2="187.52" gradientUnits="userSpaceOnUse"><stop offset="0" stop-color="#f69878"/><stop offset="1" stop-color="#f69878" stop-opacity="0"/></linearGradient><linearGradient id="linear-gradient-5" x1="277.78" y1="992.48" x2="332.56" y2="993.2" gradientUnits="userSpaceOnUse"><stop offset="0" stop-opacity="0"/><stop offset="1"/></linearGradient><radialGradient id="radial-gradient" cx="321.74" cy="891.45" r="88.87" gradientTransform="translate(0 570.08) scale(1 0.36)" xlink:href="#linear-gradient"/></defs><title>fantasyMaleA</title><g class="cls-1"><g id="Layer_2" data-name="Layer 2"><g id="Layer_1-2" data-name="Layer 1"><rect class="cls-2" width="1024" height="1024"/><rect class="cls-3" x="624" y="524" width="400" height="240"/><rect class="cls-4" width="643" height="490"/><path class="cls-5" d="M366,299h0a89.81,89.81,0,0,0-19.13,2.07h0a89.33,89.33,0,0,1-19.14,2.07H315.59a89.26,89.26,0,0,1-19.14-2.07h0A89.81,89.81,0,0,0,277.32,299h0a43.74,43.74,0,0,0-33,15c-6.51,7.48-12.32,16.72-11.37,25.21l15.3,137,71.88,5.58,1.52-2.82,1.52,2.82,71.87-5.58,15.31-137c.95-8.49-4.86-17.73-11.38-25.21A43.71,43.71,0,0,0,366,299Z"/><rect class="cls-4" x="824" y="134" width="200" height="390"/><path class="cls-6" d="M442.55,216.37h8.29a18.41,18.41,0,0,1,18.41,18.41v1.43a18.41,18.41,0,0,1-18.41,18.41h-8.29a0,0,0,0,1,0,0V216.37A0,0,0,0,1,442.55,216.37Z"/><path class="cls-7" d="M437.85,216.37h8.29a18.41,18.41,0,0,1,18.41,18.41v1.43a18.41,18.41,0,0,1-18.41,18.41h-8.29a0,0,0,0,1,0,0V216.37A0,0,0,0,1,437.85,216.37Z"/><ellipse class="cls-6" cx="451.21" cy="235.5" rx="7.93" ry="4.4" transform="translate(132.36 632.21) rotate(-78.77)"/><path class="cls-6" d="M173.56,216.37h8.29a18.41,18.41,0,0,1,18.41,18.41v1.43a18.41,18.41,0,0,1-18.41,18.41h-8.29a0,0,0,0,1,0,0V216.37A0,0,0,0,1,173.56,216.37Z" transform="translate(373.83 471) rotate(-180)"/><path class="cls-8" d="M178.26,216.37h8.29A18.41,18.41,0,0,1,205,234.78v1.43a18.41,18.41,0,0,1-18.41,18.41h-8.29a0,0,0,0,1,0,0V216.37A0,0,0,0,1,178.26,216.37Z" transform="translate(383.22 471) rotate(-180)"/><ellipse class="cls-6" cx="191.61" cy="235.5" rx="4.4" ry="7.93" transform="translate(-42.19 41.82) rotate(-11.23)"/><polygon class="cls-4" points="579.88 654.47 544.43 654.47 491.56 654.47 460 654.47 460 654.47 445.83 654.47 428.62 681.05 422.17 725.5 423.38 763.65 432.45 812.23 457.05 819.12 460 823.21 460 823.21 491.56 823.21 544.43 823.21 579.88 823.21 615.98 823.21 615.98 654.47 579.88 654.47"/><polygon class="cls-4" points="212.12 681.05 194.91 654.47 180.74 654.47 180.74 654.47 149.18 654.47 96.31 654.47 60.86 654.47 24.76 654.47 24.76 823.21 60.86 823.21 96.31 823.21 149.18 823.21 180.74 823.21 180.74 823.21 183.69 819.12 208.29 812.23 217.36 763.65 218.57 725.5 212.12 681.05"/><rect class="cls-4" x="624" y="864.49" width="400" height="159.51"/><rect class="cls-9" x="992" width="32" height="32"/><rect class="cls-10" y="139.59" width="643" height="350.41"/><ellipse class="cls-4" cx="320.36" cy="746.08" rx="73.24" ry="132.26"/><rect class="cls-11" y="490" width="624" height="534"/><rect class="cls-12" x="643" width="381" height="134"/><rect class="cls-13" x="643" y="134" width="181" height="390"/><rect class="cls-14" x="36.48" y="654.47" width="66.84" height="188.74"/><rect class="cls-14" x="537.42" y="654.47" width="69.66" height="188.74"/><path class="cls-15" d="M337.13,726.25l-1.38-.28a21.58,21.58,0,0,0-2.28-.33l-10-.95a21.73,21.73,0,0,0-4.19,0l-10.72,1c-.8.07-1.6.19-2.4.34l-1.31.27c-10,2-17.81,10.36-19.77,21.16h0a28.81,28.81,0,0,0,.4,12.26h0A92.36,92.36,0,0,0,302.1,794l.56.72c10.1,12.94,28.58,12.58,38.23-.76l.48-.67a92.9,92.9,0,0,0,14.86-32.35l.33-1.35a29.15,29.15,0,0,0,.35-12.09v-.09C354.93,736.61,347.09,728.22,337.13,726.25Z"/><path class="cls-16" d="M48.74,822.44c-1.61,1.53-1.49,1-3.72,1s-2.22.95-4.45.95-2.23.22-4.45.22-3.36.66-5-.87,1.72-2.65,1.72-4.76S31,816.88,31,814.78s-.07-2.11-.07-4.22.17-2.1.17-4.21.07-2.11.07-4.22-.69-2.1-.69-4.21,2.31-2.11,2.31-4.22-2.28-2.11-2.28-4.21,2.48-2.11,2.48-4.22-.66-2.11-.66-4.22-.39-2.1-.39-4.21.46-2.11.46-4.22-2-2.11-2-4.22.38-2.11.38-4.21.82-2.11.82-4.22,1.16-2.11,1.16-4.22.41-2.11.41-4.22-.21-2.11-.21-4.22-.66-2.1-.66-4.21-1.64-2.11-1.64-4.22-.28-2.11-.28-4.22.7-2.11.7-4.22-.72-2.11-.72-4.22.05-2.11.05-4.22,0-2.11,0-4.22.3-2.11.3-4.22,1.58-2.1,1.58-4.21-2.1-2.11-2.1-4.22,2.68-2.11,2.68-4.22-.08-2.11-.08-4.22S31,694.58,31,692.48s.79-2.11.79-4.22-1.16-2.12-1.16-4.23-.44-2.11-.44-4.22,1.8-2.11,1.8-4.22.63-2.11.63-4.22-2-2.11-2-4.22-.08-2.11-.08-4.23.09-2.11.09-4.22-.3-2.54,1.23-4,2,1,4.22,1,2.23-1.28,4.45-1.28,2.23.64,4.46.64,3.33-2.64,4.95-1.11.62,2.64.62,4.74-1.22,2.11-1.22,4.22-1.09,2.1-1.09,4.21-.16,2.11-.16,4.21,1.66,2.11,1.66,4.22-1.7,2.11-1.7,4.22.6,2.11.6,4.21.57,2.11.57,4.22.82,2.11.82,4.21-1,2.11-1,4.22.61,2.11.61,4.22-.55,2.11-.55,4.21.37,2.11.37,4.22,1.1,2.11,1.1,4.22-.07,2.11-.07,4.22-.54,2.1-.54,4.21-1.57,2.11-1.57,4.22,1.26,2.11,1.26,4.22,1,2.11,1,4.22-1.49,2.11-1.49,4.22.75,2.1.75,4.21-.38,2.11-.38,4.22-.94,2.11-.94,4.22.34,2.11.34,4.22-.91,2.11-.91,4.22.17,2.11.17,4.22.11,2.11.11,4.21,1,2.11,1,4.22.19,2.11.19,4.22,1.33,2.11,1.33,4.22-2.59,2.11-2.59,4.22.55,2.11.55,4.22-.71,2.11-.71,4.22,2.59,2.11,2.59,4.22-2.15,2.11-2.15,4.22,1.9,2.11,1.9,4.22.26,2.12.26,4.23-2,2.11-2,4.22-.72,2.29-.45,4.39C48.48,821,50.28,821,48.74,822.44Z"/><path class="cls-16" d="M606.22,822.3c-1.61,1.54-1.37,1.26-3.59,1.26s-2.23-.93-4.45-.93-2.23.8-4.46.8-2.81,1.28-4.42-.25.64-2.08.64-4.19-1.16-2.11-1.16-4.21,1.2-2.11,1.2-4.22-.39-2.1-.39-4.21.06-2.11.06-4.22.87-2.1.87-4.21-1.1-2.11-1.1-4.22,1.11-2.11,1.11-4.21-2.13-2.11-2.13-4.22,1.83-2.11,1.83-4.22-.69-2.1-.69-4.21-.82-2.11-.82-4.22,0-2.11,0-4.22,2-2.11,2-4.21-2.82-2.11-2.82-4.22.46-2.11.46-4.22,1.76-2.11,1.76-4.22-.19-2.11-.19-4.22,0-2.1,0-4.21-1.45-2.11-1.45-4.22-.64-2.11-.64-4.22.87-2.11.87-4.22-.57-2.11-.57-4.22,1.14-2.11,1.14-4.22.78-2.11.78-4.22-.09-2.11-.09-4.22.35-2.1.35-4.21.44-2.11.44-4.22-1.83-2.11-1.83-4.22.87-2.11.87-4.22.29-2.11.29-4.21-.2-2.11-.2-4.22.76-2.12.76-4.23-1.17-2.11-1.17-4.22.17-2.11.17-4.22-.59-2.11-.59-4.22-.34-2.11-.34-4.22.66-2.11.66-4.23-.92-2.11-.92-4.22-1.36-3.49.17-4.94,2.9-.14,5.13-.14,2.22,2.25,4.45,2.25,2.23-2.75,4.45-2.75,2.65,0,4.27,1.55,1.49,1.91,1.49,4S606,660.79,606,662.9s1.3,2.1,1.3,4.21.95,2.11.95,4.21.22,2.11.22,4.22-.66,2.11-.66,4.22-2,2.11-2,4.21,1.92,2.11,1.92,4.22.07,2.11.07,4.21-.17,2.11-.17,4.22-.07,2.11-.07,4.22.69,2.11.69,4.21-2.31,2.11-2.31,4.22,2.28,2.11,2.28,4.22-2.48,2.11-2.48,4.22.65,2.1.65,4.21.4,2.11.4,4.22-.46,2.11-.46,4.22,2,2.11,2,4.22-.38,2.11-.38,4.22-.82,2.1-.82,4.21-1.16,2.11-1.16,4.22-.41,2.11-.41,4.22.21,2.11.21,4.22.66,2.11.66,4.22,1.64,2.11,1.64,4.22.28,2.11.28,4.21-.7,2.11-.7,4.22.72,2.11.72,4.22,0,2.11,0,4.22,0,2.11,0,4.22-.3,2.11-.3,4.22-1.58,2.11-1.58,4.22,2.1,2.11,2.1,4.22-2.68,2.11-2.68,4.22.08,2.11.08,4.22,1.79,2.12,1.79,4.23-.79,2.11-.79,4.22.92,2,1.15,4.11C608.32,820.67,607.75,820.85,606.22,822.3Z"/><path class="cls-15" d="M401.13,1010.3H373.08a2088.29,2088.29,0,0,1,0-512.11h28.05A1366.59,1366.59,0,0,0,401.13,1010.3Z"/><path class="cls-15" d="M268.41,1010.3H240.36a1366.59,1366.59,0,0,0,0-512.11h28.05A2088.29,2088.29,0,0,1,268.41,1010.3Z"/><rect class="cls-17" x="205.57" y="892.11" width="239.27" height="86.25"/><rect class="cls-14" x="205.57" y="943.58" width="239.27" height="34.78"/><rect class="cls-17" x="205.57" y="517.5" width="239.27" height="92.55"/><rect class="cls-13" x="624" y="764" width="400" height="260"/><rect class="cls-12" x="624" y="975.89" width="400" height="48.11"/><rect class="cls-13" y="978.37" width="629.1" height="28.43"/><rect class="cls-13" y="494.89" width="629.1" height="28.43"/><polygon class="cls-18" points="301.59 978.37 283.81 990.23 303.83 1006.76 266.55 1006.76 271.1 978.37 301.59 978.37"/><path class="cls-13" d="M903.48,653c0,.49-9.11,32.36-9.11,32.36l44.4,34.15L988,692.72s1-34,1-35.15S978.23,635,978.23,635L939.11,623.7l-23.89,4.12Z"/><path class="cls-13" d="M786,653.31c0,.49-9.1,32.37-9.1,32.37l44.39,34.15L870.52,693s1-34,1-35.15-10.79-22.61-10.79-22.61L821.59,624l-23.88,4.12Z"/><path class="cls-19" d="M682.15,786.3a49,49,0,0,1-1.74,13c-7.35,26.73-47,21-47-6.74V786.3Z"/><path class="cls-19" d="M770.35,786.3a48.61,48.61,0,0,0,1.74,13c7.35,26.73,47,21,47-6.74V786.3Z"/><path class="cls-12" d="M703.79,498.28l-58.62-17.12V319.81h17.88l.05,33.32,1.47,16.06,6.09,26.43,4.08,14.06,11.56,28.67L694.39,458a28.55,28.55,0,0,0,6.24,9.36l.59.59A28.61,28.61,0,0,0,715,475.57l4.78,1.11a28.41,28.41,0,0,0,6.49.75,28.89,28.89,0,0,0,4.55-.37l6-1a28.71,28.71,0,0,0,22.35-18.33L771.06,426l11.26-31.08,18.92-49.7.12-14.26.16-17.41H822V355l-15.43,98-12.25,45.23Z"/><path class="cls-20" d="M818.53,317.06v37.69l-15.36,97.57-11.5,42.46H704.3l-55.63-16.25V323.31h10.89l0,29.66v.32l0,.31,1.43,15.67,0,.47.11.46,6,26.11,0,.19.05.19,4,13.8.1.34.14.33,11.49,28.5v0l8.08,19.59a32,32,0,0,0,7,10.49l.58.59a32.2,32.2,0,0,0,15.5,8.6l4.78,1.11a31.83,31.83,0,0,0,7.28.84,32.31,32.31,0,0,0,5.11-.41l6-1A32.21,32.21,0,0,0,762.51,459l11.83-31.77,0,0v0l11.22-31,18.7-49.1.44-1.18v-1.25l.12-13.64.13-13.94h13.54m7-7H798.05l-.19,20.88-.12,13.64L779,393.74l-11.25,31.05L756,456.55a25.23,25.23,0,0,1-19.62,16.09l-6,1a25.49,25.49,0,0,1-4,.32,25,25,0,0,1-5.7-.66l-4.78-1.11a25.16,25.16,0,0,1-12.13-6.73l-.59-.59a25.08,25.08,0,0,1-5.47-8.21L689.55,437l-11.5-28.5-4-13.8-6-26.11L666.6,353l-.05-36.66H641.67V483.78l61.62,18H797l13-48,15.5-98.48V310.06Z"/><path class="cls-12" d="M703.79,322.81l-58.62-17.12V144.34h17.88l.05,33.32,1.47,16.06,6.09,26.43,4.08,14.07,11.56,28.66,8.09,19.62a28.61,28.61,0,0,0,6.24,9.35l.59.59A28.71,28.71,0,0,0,715,300.11l4.78,1.11a28.87,28.87,0,0,0,11,.38l6-1a28.72,28.72,0,0,0,22.35-18.32l11.83-31.77,11.26-31.08,18.92-49.69.12-14.27.16-17.41H822v41.47l-15.43,98-12.25,45.22Z"/><path class="cls-20" d="M818.53,141.59v37.7l-15.36,97.57-11.5,42.45H704.3l-55.63-16.24V147.84h10.89l0,29.67v.31l0,.32,1.43,15.66,0,.48.11.46,6,26.1,0,.19.05.19,4,13.8.1.34.14.33,11.49,28.5v.05l8.08,19.59a32.08,32.08,0,0,0,7,10.5l.58.59a32.28,32.28,0,0,0,15.5,8.6l4.78,1.11a32.22,32.22,0,0,0,12.39.42l6-1a32.2,32.2,0,0,0,25.07-20.56l11.83-31.76,0,0v0l11.22-31,18.7-49.11.44-1.17v-1.26l.12-13.64.13-13.94h13.54m7-7H798.05l-.19,20.88-.12,13.64L779,218.27l-11.25,31L756,281.09a25.2,25.2,0,0,1-19.62,16.08l-6,1a25.25,25.25,0,0,1-9.7-.33l-4.78-1.11A25.32,25.32,0,0,1,703.69,290l-.59-.59a25,25,0,0,1-5.47-8.22l-8.08-19.59-11.5-28.5-4-13.8-6-26.1L666.6,177.5l-.05-36.65H641.67V308.31l61.62,18H797l13-48,15.5-98.49V134.59Z"/><rect class="cls-21" x="631.59" y="780.97" width="383.62" height="15.98"/><rect class="cls-15" x="212.94" y="610.05" width="220.12" height="12.57"/><rect class="cls-15" x="205.57" y="872.04" width="239.27" height="20.07"/><line class="cls-15" x1="205.57" y1="610.05" x2="444.83" y2="610.05"/><rect class="cls-17" x="491.56" y="654.47" width="52.88" height="188.74"/><rect class="cls-17" x="460" y="654.47" width="31.56" height="188.74"/><polygon class="cls-17" points="445.83 654.47 428.62 681.05 422.17 725.5 423.38 763.65 432.45 812.23 457.05 819.12 460 843.21 460 654.47 445.83 654.47"/><polygon class="cls-14" points="441.84 660.63 427.78 644 398.78 664.83 386.2 725.39 386.2 767.14 399.6 825.41 450.76 834.71 450.76 660.72 441.84 660.63"/><rect class="cls-17" x="96.31" y="654.47" width="52.88" height="188.74"/><rect class="cls-17" x="149.18" y="654.47" width="31.56" height="188.74"/><polygon class="cls-17" points="194.91 654.47 212.12 681.05 218.57 725.5 217.36 763.65 208.29 812.23 183.69 819.12 180.74 843.21 180.74 654.47 194.91 654.47"/><polygon class="cls-14" points="198.87 660.63 210.93 640 243.93 662.83 254.52 725.39 254.52 767.14 242.11 826.41 189.95 834.71 189.95 660.72 198.87 660.63"/><rect class="cls-12" x="723.65" y="558.05" width="280.26" height="169.06"/><path class="cls-2" d="M41.84,822.44c-1.61,1.53-1.5,1-3.72,1s-2.23.95-4.45.95-2.23.22-4.46.22-3.35.66-5-.87S26,821.1,26,819,24,816.88,24,814.78s-.06-2.11-.06-4.22.17-2.1.17-4.21.06-2.11.06-4.22-.68-2.1-.68-4.21,2.3-2.11,2.3-4.22-2.27-2.11-2.27-4.21S26,787.38,26,785.27s-.65-2.11-.65-4.22S25,779,25,776.84s.45-2.11.45-4.22-2-2.11-2-4.22.38-2.11.38-4.21.83-2.11.83-4.22,1.15-2.11,1.15-4.22.41-2.11.41-4.22-.21-2.11-.21-4.22-.65-2.1-.65-4.21-1.65-2.11-1.65-4.22-.27-2.11-.27-4.22.69-2.11.69-4.22-.72-2.11-.72-4.22.05-2.11.05-4.22,0-2.11,0-4.22.3-2.11.3-4.22,1.58-2.1,1.58-4.21-2.1-2.11-2.1-4.22S26,703,26,700.91s-.08-2.11-.08-4.22-1.79-2.11-1.79-4.21.79-2.11.79-4.22-1.16-2.12-1.16-4.23-.45-2.11-.45-4.22,1.8-2.11,1.8-4.22.63-2.11.63-4.22-1.94-2.11-1.94-4.22-.09-2.11-.09-4.23.09-2.11.09-4.22-.3-2.54,1.23-4,2,1,4.22,1,2.23-1.28,4.46-1.28,2.22.64,4.45.64,3.34-2.64,5-1.11.61,2.64.61,4.74-1.22,2.11-1.22,4.22-1.09,2.1-1.09,4.21-.16,2.11-.16,4.21,1.67,2.11,1.67,4.22-1.71,2.11-1.71,4.22.61,2.11.61,4.21.57,2.11.57,4.22.81,2.11.81,4.21-1,2.11-1,4.22.61,2.11.61,4.22-.54,2.11-.54,4.21.36,2.11.36,4.22,1.11,2.11,1.11,4.22-.07,2.11-.07,4.22-.55,2.1-.55,4.21-1.56,2.11-1.56,4.22,1.25,2.11,1.25,4.22,1,2.11,1,4.22-1.48,2.11-1.48,4.22S43,740.9,43,743s-.37,2.11-.37,4.22-.94,2.11-.94,4.22.33,2.11.33,4.22-.91,2.11-.91,4.22.18,2.11.18,4.22.1,2.11.1,4.21,1,2.11,1,4.22.19,2.11.19,4.22,1.33,2.11,1.33,4.22-2.59,2.11-2.59,4.22.55,2.11.55,4.22-.72,2.11-.72,4.22,2.6,2.11,2.6,4.22-2.16,2.11-2.16,4.22,1.91,2.11,1.91,4.22.26,2.12.26,4.23-2,2.11-2,4.22-.73,2.29-.45,4.39C41.58,821,43.37,821,41.84,822.44Z"/><path class="cls-2" d="M615.12,822.3c-1.61,1.54-1.36,1.26-3.59,1.26s-2.22-.93-4.45-.93-2.22.8-4.45.8-2.81,1.28-4.43-.25.65-2.08.65-4.19-1.16-2.11-1.16-4.21,1.2-2.11,1.2-4.22-.39-2.1-.39-4.21,0-2.11,0-4.22.87-2.1.87-4.21-1.09-2.11-1.09-4.22,1.11-2.11,1.11-4.21-2.13-2.11-2.13-4.22,1.82-2.11,1.82-4.22-.69-2.1-.69-4.21-.82-2.11-.82-4.22,0-2.11,0-4.22,2-2.11,2-4.21-2.82-2.11-2.82-4.22.46-2.11.46-4.22,1.76-2.11,1.76-4.22-.19-2.11-.19-4.22V743.1c0-2.11-1.44-2.11-1.44-4.22s-.64-2.11-.64-4.22.87-2.11.87-4.22-.58-2.11-.58-4.22,1.15-2.11,1.15-4.22.78-2.11.78-4.22-.09-2.11-.09-4.22.35-2.1.35-4.21.44-2.11.44-4.22-1.83-2.11-1.83-4.22.87-2.11.87-4.22.29-2.11.29-4.21-.2-2.11-.2-4.22.75-2.12.75-4.23-1.16-2.11-1.16-4.22.17-2.11.17-4.22-.59-2.11-.59-4.22-.34-2.11-.34-4.22.66-2.11.66-4.23-.92-2.11-.92-4.22-1.37-3.49.17-4.94,2.9-.14,5.12-.14,2.23,2.25,4.45,2.25,2.23-2.75,4.46-2.75,2.65,0,4.27,1.55,1.49,1.91,1.49,4-2.36,2.11-2.36,4.22,1.29,2.1,1.29,4.21,1,2.11,1,4.21.22,2.11.22,4.22-.67,2.11-.67,4.22-2,2.11-2,4.21,1.93,2.11,1.93,4.22.06,2.11.06,4.21-.17,2.11-.17,4.22-.06,2.11-.06,4.22.68,2.11.68,4.21-2.31,2.11-2.31,4.22,2.28,2.11,2.28,4.22-2.47,2.11-2.47,4.22.65,2.1.65,4.21.39,2.11.39,4.22-.45,2.11-.45,4.22,2,2.11,2,4.22-.38,2.11-.38,4.22-.83,2.1-.83,4.21-1.15,2.11-1.15,4.22-.41,2.11-.41,4.22.21,2.11.21,4.22.65,2.11.65,4.22S617,762,617,764.11s.27,2.11.27,4.21-.69,2.11-.69,4.22.72,2.11.72,4.22-.05,2.11-.05,4.22,0,2.11,0,4.22-.3,2.11-.3,4.22-1.58,2.11-1.58,4.22,2.1,2.11,2.1,4.22-2.69,2.11-2.69,4.22.08,2.11.08,4.22,1.79,2.12,1.79,4.23-.79,2.11-.79,4.22.93,2,1.16,4.11C617.23,820.67,616.66,820.85,615.12,822.3Z"/><path class="cls-22" d="M351.41,821.81H292.09c-20.27,0-36.7,11.16-36.7,32.35v21.9a66.36,66.36,0,0,0,66.36,66.36h0a66.36,66.36,0,0,0,66.36-66.36v-21.9C388.11,833,371.68,821.81,351.41,821.81Z"/><path class="cls-22" d="M398.38,859.17v25.29a76.64,76.64,0,1,1-153.27,0V859.17c0-24.47,19-37.36,42.39-37.36H356C379.41,821.81,398.38,834.7,398.38,859.17Z"/><path class="cls-23" d="M398.38,859.17v25.29a76.64,76.64,0,1,1-153.27,0V859.17c0-24.47,19-37.36,42.39-37.36H356C379.41,821.81,398.38,834.7,398.38,859.17Z"/><path class="cls-22" d="M398.38,859.17V878c0,21.59-153.27,21.59-153.27,0V859.17c0-24.47,19-37.36,42.39-37.36H356C379.41,821.81,398.38,834.7,398.38,859.17Z"/><rect class="cls-14" x="205.57" y="523.32" width="239.27" height="34.78"/><rect class="cls-11" x="631.59" y="769.25" width="383.62" height="48.93"/><rect class="cls-11" x="631.59" y="818.17" width="383.62" height="73.94"/><rect class="cls-17" x="631.59" y="892.11" width="383.62" height="74.88"/><rect class="cls-14" x="631.59" y="932.59" width="383.62" height="34.4"/><path class="cls-22" d="M788.09,901.16h0a11.74,11.74,0,0,0-2,19.84h0a11.72,11.72,0,0,0,14.35,0h0a11.74,11.74,0,0,0-2-19.84h0A11.72,11.72,0,0,0,788.09,901.16Z"/><path class="cls-22" d="M654.81,901.16h0a11.74,11.74,0,0,0-2,19.84h0a11.72,11.72,0,0,0,14.35,0h0a11.74,11.74,0,0,0-2-19.84h0A11.72,11.72,0,0,0,654.81,901.16Z"/><path class="cls-16" d="M625.3,974.47c-2.19-2-1.85-1.54-1.85-4.51s1.44-3,1.44-5.94-3.31-4.19-1.12-6.19c2.39-2.19,3.47.32,6.71.32s3.25,1,6.49,1,3.24-1.79,6.49-1.79,3.24,1.85,6.48,1.85,3.25-.61,6.49-.61,3.24.09,6.49.09,3.24,1.34,6.48,1.34,3.24-1.69,6.49-1.69,3.24,1.72,6.48,1.72,3.25-3.29,6.49-3.29,3.24,2.81,6.49,2.81,3.24-1.06,6.48-1.06,3.25-1.26,6.49-1.26,3.24,0,6.49,0,3.24,3,6.49,3,3.24-4.35,6.48-4.35,3.24.71,6.49.71,3.24,2.71,6.49,2.71,3.24-.29,6.48-.29h6.49c3.24,0,3.24-2.23,6.49-2.23s3.24-1,6.49-1,3.24,1.35,6.48,1.35,3.25-.89,6.49-.89,3.25,1.76,6.49,1.76,3.24,1.21,6.49,1.21,3.24-.14,6.49-.14,3.24.54,6.48.54,3.25.67,6.49.67,3.25-2.81,6.49-2.81,3.24,1.34,6.48,1.34,3.25.44,6.49.44,3.25-.3,6.49-.3,3.24,1.16,6.48,1.16,3.24-1.8,6.49-1.8,3.24.27,6.49.27,3.24-.92,6.48-.92,3.24-.52,6.49-.52,3.24,1,6.49,1,3.24-1.42,6.48-1.42,3.25-.21,6.49-.21,3.25.2,6.49.2,3.24,3.48,6.49,3.48,3.24-4.24,6.49-4.24,3.24,2.5,6.49,2.5,3.24-2.44,6.49-2.44,3.24,3.64,6.49,3.64,3.24-2,6.49-2,3.24-1.47,6.49-1.47,3.24-.33,6.49-.33,3.24,1,6.49,1,3.24,3,6.48,3,3.25-3,6.49-3,3.25-.11,6.49-.11,3.25.26,6.5.26,3.24.11,6.49.11,3.24-1.07,6.49-1.07,3.25,3.57,6.49,3.57,3.25-3.51,6.5-3.51,3.25,3.81,6.5,3.81,3.45-3.45,5.85-1.26c2.19,2,.29,2.26.29,5.23s-.7,3-.7,5.94,4.61,5.41,2.42,7.42c-2.4,2.19-4.61-.06-7.85-.06s-3.24-1.28-6.48-1.28-3.25-1.77-6.49-1.77-3.24-.64-6.49-.64-3.24.33-6.48.33-3.25,1-6.49,1-3.24,2.54-6.48,2.54-3.25.42-6.49.42-3.24-1.07-6.49-1.07-3.24,1.11-6.48,1.11-3.25-.08-6.49-.08-3.24,0-6.49,0-3.24-.46-6.48-.46S932.22,975,929,975s-3.24,3.24-6.49,3.24-3.24-4.14-6.48-4.14-3.25.12-6.49.12-3.25,2.76-6.49,2.76-3.24-1.21-6.49-1.21-3.24,1.78-6.48,1.78-3.25.69-6.49.69-3.25-2.78-6.49-2.78-3.24-1-6.49-1-3.24,3-6.48,3-3.25.13-6.49.13-3.25-.14-6.49-.14-3.24-2.06-6.49-2.06S841.4,974,838.15,974s-3.24,2-6.48,2-3.25-1-6.49-1-3.25,2-6.49,2-3.24.6-6.49.6-3.24-1.88-6.48-1.88-3.24-1.68-6.48-1.68-3.25-.24-6.49-.24-3.25,2.56-6.49,2.56-3.24-2.63-6.48-2.63-3.25.94-6.49.94-3.25.88-6.49.88-3.24,1.25-6.49,1.25-3.24-1.6-6.49-1.6-3.24.94-6.48.94-3.25-.84-6.49-.84-3.25.56-6.49.56-3.24,1.7-6.49,1.7-3.24-.1-6.49-.1-3.24-.85-6.49-.85-3.24-2.4-6.49-2.4-3.25,1.93-6.49,1.93-3.25,1.6-6.49,1.6-3.25-2.28-6.49-2.28-3.25,1.14-6.49,1.14S679.2,976,676,976s-3.24-1.45-6.49-1.45-3.24.52-6.49.52-3.25-1.4-6.49-1.4-3.25.26-6.49.26-3.25.17-6.49.17-3.25,1.52-6.5,1.52a52.28,52.28,0,0,0-6.5.29C627.71,976.17,627.7,976.67,625.3,974.47Z"/><path class="cls-2" d="M625.3,983.38c-2.19-2-1.85-1.55-1.85-4.52s1.44-3,1.44-5.93-3.31-4.19-1.12-6.2c2.39-2.19,3.47.32,6.71.32s3.25,1,6.49,1,3.24-1.79,6.49-1.79,3.24,1.85,6.48,1.85,3.25-.6,6.49-.6,3.24.09,6.49.09,3.24,1.33,6.48,1.33,3.24-1.68,6.49-1.68,3.24,1.71,6.48,1.71,3.25-3.28,6.49-3.28,3.24,2.81,6.49,2.81,3.24-1.06,6.48-1.06,3.25-1.27,6.49-1.27,3.24,0,6.49,0,3.24,3.06,6.49,3.06,3.24-4.35,6.48-4.35,3.24.71,6.49.71,3.24,2.71,6.49,2.71,3.24-.3,6.48-.3h6.49c3.24,0,3.24-2.23,6.49-2.23s3.24-1,6.49-1,3.24,1.34,6.48,1.34,3.25-.88,6.49-.88,3.25,1.76,6.49,1.76,3.24,1.2,6.49,1.2,3.24-.14,6.49-.14,3.24.54,6.48.54,3.25.68,6.49.68,3.25-2.82,6.49-2.82,3.24,1.34,6.48,1.34,3.25.45,6.49.45,3.25-.31,6.49-.31,3.24,1.17,6.48,1.17,3.24-1.8,6.49-1.8,3.24.26,6.49.26,3.24-.91,6.48-.91,3.24-.52,6.49-.52,3.24,1,6.49,1,3.24-1.42,6.48-1.42,3.25-.21,6.49-.21,3.25.21,6.49.21,3.24,3.48,6.49,3.48,3.24-4.25,6.49-4.25,3.24,2.5,6.49,2.5,3.24-2.43,6.49-2.43,3.24,3.64,6.49,3.64,3.24-2,6.49-2,3.24-1.48,6.49-1.48,3.24-.33,6.49-.33,3.24,1,6.49,1,3.24,3,6.48,3,3.25-3,6.49-3,3.25-.11,6.49-.11,3.25.27,6.5.27,3.24.1,6.49.1,3.24-1.06,6.49-1.06,3.25,3.56,6.49,3.56,3.25-3.51,6.5-3.51,3.25,3.82,6.5,3.82,3.45-3.45,5.85-1.26c2.19,2,.29,2.26.29,5.22s-.7,3-.7,5.94,4.61,5.42,2.42,7.42c-2.4,2.19-4.61,0-7.85,0s-3.24-1.28-6.48-1.28-3.25-1.78-6.49-1.78-3.24-.63-6.49-.63-3.24.32-6.48.32-3.25,1-6.49,1-3.24,2.54-6.48,2.54-3.25.42-6.49.42-3.24-1.07-6.49-1.07-3.24,1.11-6.48,1.11-3.25-.08-6.49-.08-3.24,0-6.49,0-3.24-.47-6.48-.47-3.25-2.43-6.49-2.43-3.24,3.24-6.49,3.24S919.25,983,916,983s-3.25.12-6.49.12-3.25,2.76-6.49,2.76-3.24-1.21-6.49-1.21-3.24,1.79-6.48,1.79-3.25.68-6.49.68-3.25-2.77-6.49-2.77-3.24-1-6.49-1-3.24,3-6.48,3-3.25.13-6.49.13-3.25-.14-6.49-.14-3.24-2.06-6.49-2.06-3.24-1.38-6.49-1.38-3.24,2-6.48,2-3.25-1-6.49-1-3.25,2-6.49,2-3.24.6-6.49.6-3.24-1.88-6.48-1.88-3.24-1.68-6.48-1.68-3.25-.25-6.49-.25-3.25,2.57-6.49,2.57-3.24-2.63-6.48-2.63-3.25.93-6.49.93-3.25.88-6.49.88-3.24,1.26-6.49,1.26-3.24-1.61-6.49-1.61-3.24.95-6.48.95-3.25-.84-6.49-.84-3.25.55-6.49.55-3.24,1.71-6.49,1.71-3.24-.11-6.49-.11-3.24-.84-6.49-.84-3.24-2.41-6.49-2.41-3.25,1.94-6.49,1.94-3.25,1.6-6.49,1.6-3.25-2.29-6.49-2.29-3.25,1.15-6.49,1.15-3.24-.58-6.49-.58-3.24-1.45-6.49-1.45-3.24.52-6.49.52-3.25-1.41-6.49-1.41-3.25.27-6.49.27-3.25.16-6.49.16-3.25,1.52-6.5,1.52a52.29,52.29,0,0,0-6.5.3C627.71,985.08,627.7,985.57,625.3,983.38Z"/><path class="cls-24" d="M316.54,1004a10.54,10.54,0,0,1-6-1.88l-1.22-.84a10.61,10.61,0,0,1,0-17.46l1.22-.84a10.61,10.61,0,0,1,6-1.87h12.17a10.61,10.61,0,0,1,6,1.87l1.22.84a10.61,10.61,0,0,1,0,17.46l-1.22.84a10.54,10.54,0,0,1-6,1.88Z"/><path class="cls-25" d="M328.71,983.12a8.55,8.55,0,0,1,4.89,1.53l1.22.84a8.61,8.61,0,0,1,0,14.19l-1.22.84a8.55,8.55,0,0,1-4.89,1.53H316.54a8.61,8.61,0,0,1-4.9-1.53l-1.21-.84a8.61,8.61,0,0,1,0-14.19l1.21-.84a8.61,8.61,0,0,1,4.9-1.53h12.17m0-4H316.54a12.6,12.6,0,0,0-7.15,2.23l-1.21.84a12.59,12.59,0,0,0-5.44,10.36h0a12.57,12.57,0,0,0,5.44,10.36l1.21.84a12.6,12.6,0,0,0,7.15,2.23h12.17a12.62,12.62,0,0,0,7.15-2.23l1.21-.84a12.57,12.57,0,0,0,5.44-10.36h0a12.59,12.59,0,0,0-5.44-10.36l-1.21-.84a12.62,12.62,0,0,0-7.15-2.23Z"/><rect class="cls-26" x="9.43" y="432.44" width="622.16" height="49.42"/><path class="cls-17" d="M334.8,723.37l-1.18-.21q-1-.18-1.95-.27l-8.57-.75a21.4,21.4,0,0,0-3.58,0l-9.17.76a17.41,17.41,0,0,0-2.05.27l-1.13.2A21.14,21.14,0,0,0,290.25,740h0a21.13,21.13,0,0,0,.35,9.65h0a70.51,70.51,0,0,0,14.23,27l.48.57a21.1,21.1,0,0,0,32.7-.6l.41-.52a70.61,70.61,0,0,0,12.72-25.48l.28-1.06a21.12,21.12,0,0,0,.3-9.52V740A21.12,21.12,0,0,0,334.8,723.37Z"/><rect class="cls-13" x="826.31" y="141.7" width="180.05" height="376.17"/><rect class="cls-12" x="713.32" y="394.74" width="26.58" height="5.41" rx="2.7" ry="2.7"/><rect class="cls-12" x="713.32" y="405.83" width="26.58" height="5.41" rx="2.7" ry="2.7"/><rect class="cls-12" x="713.32" y="383.64" width="26.58" height="5.41" rx="2.7" ry="2.7"/><rect class="cls-12" x="713.32" y="220.15" width="26.58" height="5.41" rx="2.7" ry="2.7"/><rect class="cls-12" x="713.32" y="231.25" width="26.58" height="5.41" rx="2.7" ry="2.7"/><rect class="cls-12" x="713.32" y="209.05" width="26.58" height="5.41" rx="2.7" ry="2.7"/><rect class="cls-27" x="992" width="32" height="32"/><ellipse class="cls-28" cx="287.04" cy="219.55" rx="8.96" ry="10.3"/><ellipse class="cls-28" cx="356.43" cy="219.55" rx="8.96" ry="10.3"/><g class="cls-29"><path d="M333.81,242.61c-1.57,5.14-6.35,6.87-12,6.87V237.76l9.95,1.59A2.56,2.56,0,0,1,333.81,242.61Z"/><path d="M309.84,242.61c1.57,5.14,6.35,6.87,12,6.87V237.76l-9.95,1.59A2.56,2.56,0,0,0,309.84,242.61Z"/></g><g class="cls-29"><path d="M322.24,268.13a149.37,149.37,0,0,0,17.3-.84,2.56,2.56,0,0,0,2.3-3h0a2.57,2.57,0,0,0-2.64-2.29,142.27,142.27,0,0,1-17,.83Z"/><path d="M305,267.64a148,148,0,0,0,17.29.49l-.06-5.25a142.9,142.9,0,0,1-17-.48,2.54,2.54,0,0,0-2.58,2.34h0A2.57,2.57,0,0,0,305,267.64Z"/></g><path class="cls-30" d="M321.74,275.26a5.93,5.93,0,0,0-3.7,2.09,2.55,2.55,0,0,0,2.36,4.12l4.43-.67a2.54,2.54,0,0,0,1.05-4.63A6,6,0,0,0,321.74,275.26Z"/><path class="cls-30" d="M321.62,3.39V156H274.27a34.46,34.46,0,0,0-34,28.64.17.17,0,0,1,0,.07c-.09.45-.15.9-.21,1.35h-.81l6.93,64.32.14,1.33a6.09,6.09,0,0,1-6.05,6.73h-3.12a19.3,19.3,0,0,1-15.62-8c-6.26-8.66-14.95-17.48-18.8-26.29a20.22,20.22,0,0,0-21.69-11.6,6,6,0,0,0-1.84.63l-1.39.74a5.58,5.58,0,0,0-1.64,1.25c-4.27,4.75-10,21.42-18.73,32.95s-53,33.69-69.35,41.06l-29,13.47-.43.19-21,7.87a6,6,0,0,1-1,.28l-25.16,4.87L11,316l-4.11.49A6.2,6.2,0,0,1,0,310.28V9.6A6.21,6.21,0,0,1,6.2,3.39Z"/><path class="cls-28" d="M321.62,0V163.71h-7.07c-19.17,0-19.7-5.71-35.75-7.69a100.93,100.93,0,0,0-12.46-.67c-20.78,0-25.21,18.63-26,29.31a.17.17,0,0,1,0,.07,55.3,55.3,0,0,0-.15,6.06l6.2,57.54a5.94,5.94,0,0,1-.14,2.07,6.09,6.09,0,0,1-5.91,4.67h-3.12a19.3,19.3,0,0,1-15.62-8c-6.26-8.66-14.95-17.48-18.8-26.29a20.21,20.21,0,0,0-21.69-11.6,5.74,5.74,0,0,0-1.84.63l-1.39.74a5.73,5.73,0,0,0-1.64,1.24c-4.27,4.76-10,21.43-18.73,33s-53,33.69-69.35,41.06l-29,13.47a3.25,3.25,0,0,1-.43.18l-21,7.88a7.08,7.08,0,0,1-1,.28l-25.16,4.87-.45.07L6.93,313A6.2,6.2,0,0,1,0,306.88V6.2A6.21,6.21,0,0,1,6.2,0Z"/><path class="cls-30" d="M321.62,3.39V156H369a34.46,34.46,0,0,1,34,28.64.17.17,0,0,0,0,.07c.09.45.15.9.21,1.35H404l-6.93,64.32-.14,1.33a6.09,6.09,0,0,0,6,6.73h3.12a19.3,19.3,0,0,0,15.62-8c6.26-8.66,14.95-17.48,18.8-26.29a20.22,20.22,0,0,1,21.69-11.6,6,6,0,0,1,1.84.63l1.39.74a5.58,5.58,0,0,1,1.64,1.25c4.27,4.75,9.95,21.42,18.73,32.95s53,33.69,69.35,41.06l29,13.47.43.19,21,7.87a6,6,0,0,0,1,.28l25.16,4.87.45.07,4.11.49a6.2,6.2,0,0,0,6.93-6.16V9.6A6.21,6.21,0,0,0,637,3.39Z"/><path class="cls-28" d="M321.62,0V163.71h7.07c19.17,0,19.7-5.71,35.75-7.69a100.93,100.93,0,0,1,12.46-.67c20.78,0,25.21,18.63,26.05,29.31a.17.17,0,0,0,0,.07,55.3,55.3,0,0,1,.15,6.06l-6.2,57.54a5.94,5.94,0,0,0,.14,2.07,6.09,6.09,0,0,0,5.91,4.67h3.12a19.3,19.3,0,0,0,15.62-8c6.26-8.66,14.95-17.48,18.8-26.29a20.21,20.21,0,0,1,21.69-11.6,5.74,5.74,0,0,1,1.84.63l1.39.74a5.73,5.73,0,0,1,1.64,1.24c4.27,4.76,9.95,21.43,18.73,33s53,33.69,69.35,41.06l29,13.47a3.25,3.25,0,0,0,.43.18l21,7.88a7.08,7.08,0,0,0,1,.28l25.16,4.87.45.07,4.11.48a6.2,6.2,0,0,0,6.93-6.16V6.2A6.21,6.21,0,0,0,637,0Z"/><path class="cls-28" d="M344.81,222.83a5.76,5.76,0,0,1-2.18-11.09c7.53-3.08,14.67-5.58,25.84-5.05a5.76,5.76,0,1,1-.56,11.5c-9.54-.47-15.32,1.91-20.92,4.21A5.76,5.76,0,0,1,344.81,222.83Z"/><path class="cls-28" d="M298.65,221.13a5.84,5.84,0,0,1-2.18-.43c-5.6-2.3-11.41-4.67-20.92-4.21A5.76,5.76,0,0,1,275,205c11.15-.54,18.31,2,25.84,5a5.76,5.76,0,0,1-2.19,11.09Z"/><rect class="cls-31" x="992" width="32" height="32"/></g></g></g></svg>