<svg xmlns="http://www.w3.org/2000/svg" xmlns:xlink="http://www.w3.org/1999/xlink" viewBox="0 0 1024 1024"><defs><style>.cls-1{isolation:isolate;}.cls-2{fill:#fff;}.cls-3{fill:#f58c6a;}.cls-4{fill:#f69878;}.cls-29,.cls-31,.cls-5{opacity:0.15;}.cls-15,.cls-25,.cls-29,.cls-31,.cls-5{mix-blend-mode:overlay;}.cls-5{fill:url(#linear-gradient);}.cls-6{fill:#f37b67;}.cls-7{fill:url(#linear-gradient-2);}.cls-8{fill:url(#linear-gradient-3);}.cls-9{fill:red;}.cls-10{opacity:0.1;fill:url(#linear-gradient-4);}.cls-10,.cls-26{mix-blend-mode:multiply;}.cls-11{fill:#5e6b44;}.cls-12{fill:#4c0d08;}.cls-13{fill:url(#linear-gradient-5);}.cls-14{fill:#e4783e;}.cls-15,.cls-25,.cls-26{opacity:0.25;}.cls-15{fill:url(#radial-gradient);}.cls-16{fill:url(#linear-gradient-6);}.cls-17{fill:#61150d;}.cls-18{fill:#abbfcf;}.cls-19{fill:url(#linear-gradient-7);}.cls-20{fill:#ee826a;}.cls-21{fill:#333;}.cls-22{fill:#4f5935;}.cls-23{fill:#465033;}.cls-24{fill:#7f3116;}.cls-26{fill:#51221e;}.cls-27{fill:blue;}.cls-28{fill:#220f0f;}.cls-30,.cls-31{fill:#4d160e;}</style><linearGradient id="linear-gradient" x1="321.68" y1="286" x2="321.68" y2="431.12" gradientUnits="userSpaceOnUse"><stop offset="0"/><stop offset="1" stop-opacity="0"/></linearGradient><linearGradient id="linear-gradient-2" x1="438.5" y1="235.5" x2="507.96" y2="235.5" gradientUnits="userSpaceOnUse"><stop offset="0" stop-color="#f69878"/><stop offset="1" stop-color="#f37b67"/></linearGradient><linearGradient id="linear-gradient-3" x1="202" y1="235.5" x2="152.85" y2="235.5" gradientTransform="translate(383.22 471) rotate(180)" xlink:href="#linear-gradient-2"/><linearGradient id="linear-gradient-4" x1="321.5" y1="490" x2="321.5" y2="187.52" gradientUnits="userSpaceOnUse"><stop offset="0" stop-color="#f69878"/><stop offset="1" stop-color="#f69878" stop-opacity="0"/></linearGradient><linearGradient id="linear-gradient-5" x1="824" y1="1024" x2="824" y2="764" gradientUnits="userSpaceOnUse"><stop offset="0" stop-color="#1a1a1a"/><stop offset="1" stop-color="#333"/></linearGradient><radialGradient id="radial-gradient" cx="296.28" cy="899.86" r="75.75" gradientTransform="matrix(0.98, 0.17, -0.23, 1.32, 214.88, -336.1)" gradientUnits="userSpaceOnUse"><stop offset="0"/><stop offset="0.87" stop-opacity="0.13"/><stop offset="1" stop-opacity="0"/></radialGradient><linearGradient id="linear-gradient-6" x1="824" y1="968.37" x2="824" xlink:href="#linear-gradient-5"/><linearGradient id="linear-gradient-7" x1="268.86" y1="987.59" x2="342.41" y2="988.55" gradientUnits="userSpaceOnUse"><stop offset="0" stop-opacity="0"/><stop offset="1"/></linearGradient></defs><title>fantasyMaleB</title><g class="cls-1"><g id="Layer_2" data-name="Layer 2"><g id="Layer_1-2" data-name="Layer 1"><rect class="cls-2" width="1024" height="1024"/><rect class="cls-3" x="624" y="524" width="400" height="240"/><rect class="cls-4" width="643" height="490"/><path class="cls-5" d="M366,299h0a89.81,89.81,0,0,0-19.13,2.07h0a89.33,89.33,0,0,1-19.14,2.07H315.59a89.26,89.26,0,0,1-19.14-2.07h0A89.81,89.81,0,0,0,277.32,299h0a43.74,43.74,0,0,0-33,15c-6.51,7.48-12.32,16.72-11.37,25.21l15.3,137,71.88,5.58,1.52-2.82,1.52,2.82,71.87-5.58,15.31-137c.95-8.49-4.86-17.73-11.38-25.21A43.71,43.71,0,0,0,366,299Z"/><rect class="cls-4" x="824" y="134" width="200" height="390"/><path class="cls-6" d="M442.55,216.37h8.29a18.41,18.41,0,0,1,18.41,18.41v1.43a18.41,18.41,0,0,1-18.41,18.41h-8.29a0,0,0,0,1,0,0V216.37A0,0,0,0,1,442.55,216.37Z"/><path class="cls-7" d="M437.85,216.37h8.29a18.41,18.41,0,0,1,18.41,18.41v1.43a18.41,18.41,0,0,1-18.41,18.41h-8.29a0,0,0,0,1,0,0V216.37A0,0,0,0,1,437.85,216.37Z"/><ellipse class="cls-6" cx="451.21" cy="235.5" rx="7.93" ry="4.4" transform="translate(132.36 632.21) rotate(-78.77)"/><path class="cls-6" d="M173.56,216.37h8.29a18.41,18.41,0,0,1,18.41,18.41v1.43a18.41,18.41,0,0,1-18.41,18.41h-8.29a0,0,0,0,1,0,0V216.37A0,0,0,0,1,173.56,216.37Z" transform="translate(373.83 471) rotate(-180)"/><path class="cls-8" d="M178.26,216.37h8.29A18.41,18.41,0,0,1,205,234.78v1.43a18.41,18.41,0,0,1-18.41,18.41h-8.29a0,0,0,0,1,0,0V216.37A0,0,0,0,1,178.26,216.37Z" transform="translate(383.22 471) rotate(-180)"/><ellipse class="cls-6" cx="191.61" cy="235.5" rx="4.4" ry="7.93" transform="translate(-42.19 41.82) rotate(-11.23)"/><polygon class="cls-4" points="579.88 654.47 544.43 654.47 491.56 654.47 460 654.47 460 654.47 445.83 654.47 428.62 681.05 422.17 725.5 423.38 763.65 432.45 812.23 457.05 819.12 460 823.21 460 823.21 491.56 823.21 544.43 823.21 579.88 823.21 615.98 823.21 615.98 654.47 579.88 654.47"/><polygon class="cls-4" points="212.12 681.05 194.91 654.47 180.74 654.47 180.74 654.47 149.18 654.47 96.31 654.47 60.86 654.47 24.76 654.47 24.76 823.21 60.86 823.21 96.31 823.21 149.18 823.21 180.74 823.21 180.74 823.21 183.69 819.12 208.29 812.23 217.36 763.65 218.57 725.5 212.12 681.05"/><rect class="cls-4" x="624" y="864.49" width="400" height="159.51"/><rect class="cls-9" x="992" width="32" height="32"/><rect class="cls-10" y="139.59" width="643" height="350.41"/><ellipse class="cls-4" cx="320.36" cy="746.08" rx="73.24" ry="132.26"/><path class="cls-11" d="M0,490v534H624V490ZM359.12,769.45l-6,12.32c-13,26.76-50.94,27.32-64.76,1l-6.94-13.23-8-24.43L279,721.79l24-3.65,17.69-1.22,16.72,1.22,24,3.65,5.54,23.29Z"/><rect class="cls-12" x="643" width="381" height="134"/><rect class="cls-13" x="624" y="764" width="400" height="260"/><rect class="cls-14" x="643" y="134" width="181" height="390"/><rect class="cls-12" x="128.74" y="654.47" width="35.33" height="188.74" transform="translate(292.81 1497.67) rotate(-180)"/><rect class="cls-12" x="476.67" y="654.47" width="35.33" height="188.74"/><polygon class="cls-15" points="328.25 970.25 312.37 933.73 321.7 846.33 340.08 808.57 394.18 846.33 394.18 970.25 328.25 970.25"/><rect class="cls-16" x="624" y="764" width="400" height="204.37"/><rect class="cls-17" y="968.37" width="629.1" height="38.43"/><rect class="cls-17" y="494.89" width="629.1" height="38.43"/><path class="cls-18" d="M336,971.44H307.82a8.76,8.76,0,0,0-8.76,8.75v15.07a8.76,8.76,0,0,0,8.76,8.75H336a8.75,8.75,0,0,0,8.75-8.75V980.19A8.75,8.75,0,0,0,336,971.44Zm4.13,23.13a4.52,4.52,0,0,1-4.51,4.53H308.2a4.53,4.53,0,0,1-4.53-4.53v-13.7a4.52,4.52,0,0,1,4.53-4.52h27.37a4.51,4.51,0,0,1,4.51,4.52Z"/><rect class="cls-18" x="312.37" y="974.89" width="6.11" height="25.66"/><path class="cls-18" d="M315.42,974.89h0a3.05,3.05,0,0,1,3.05,3.05v22.61a0,0,0,0,1,0,0h-6.11a0,0,0,0,1,0,0V977.95A3.05,3.05,0,0,1,315.42,974.89Z" transform="translate(1303.15 672.3) rotate(90)"/><polygon class="cls-19" points="300.83 968.63 276.95 984.56 303.83 1006.76 253.77 1006.76 259.88 968.63 300.83 968.63"/><polygon class="cls-20" points="161.4 738.07 162.34 746.03 176.18 742.05 171.15 732.2 161.4 738.07"/><polygon class="cls-21" points="793.26 898.63 771.13 909.47 793.26 926.54 815.38 909.47 793.26 898.63"/><polygon class="cls-21" points="659.97 898.63 637.85 909.47 659.97 926.54 682.1 909.47 659.97 898.63"/><path class="cls-17" d="M980,334.64l-48.4-11.38s-28.22,2.88-30.65,8.64a53.46,53.46,0,0,0-2.28,7.15l-19,3.63,1.82,5.46L884,360.89l1.13,12.9-5.47,15.41-.84,16.68-7,11.77L859.47,431l13.26,8.75-1.53,1.43,20.48,15.47,18.2-2.27,25.79,1.21,17.15,10.17,25.33-3.49s4-.91,4.56-12.59,7.43-58.42,7.43-58.42V351.93Zm-47.89,72.89a5.31,5.31,0,0,1-5.77,4.79l-8.63-.81a5.3,5.3,0,0,1-4.78-5.77l2.26-24.29a5.3,5.3,0,0,1,5.77-4.79l8.62.8a5.3,5.3,0,0,1,4.79,5.77Z"/><path class="cls-17" d="M903.48,653c0,.49-9.11,32.36-9.11,32.36l44.4,34.15L988,692.72s1-34,1-35.15S978.23,635,978.23,635L939.11,623.7l-23.89,4.12Z"/><path class="cls-12" d="M786,653.31c0,.49-9.1,32.37-9.1,32.37l44.39,34.15L870.52,693s1-34,1-35.15-10.79-22.61-10.79-22.61L821.59,624l-23.88,4.12Z"/><path class="cls-17" d="M979.73,160.3l-48.4-11.38s-28.22,2.88-30.65,8.65a51.91,51.91,0,0,0-2.27,7.14l-19,3.63,1.82,5.47,2.53,12.75,1.12,12.89-5.47,15.42-.84,16.67-7,11.78-12.34,13.31,13.27,8.74L871,266.8l20.48,15.48L909.64,280l25.79,1.22,17.14,10.16,25.34-3.49s3.94-.91,4.55-12.59,7.43-58.41,7.43-58.41v-39.3Zm-47.89,72.89a5.3,5.3,0,0,1-5.77,4.79l-8.62-.8a5.3,5.3,0,0,1-4.79-5.77l2.26-24.3a5.3,5.3,0,0,1,5.77-4.79l8.62.8a5.3,5.3,0,0,1,4.79,5.77Z"/><rect class="cls-17" x="713.32" y="394.74" width="26.58" height="5.41" rx="2.7" ry="2.7"/><rect class="cls-17" x="713.32" y="405.83" width="26.58" height="5.41" rx="2.7" ry="2.7"/><rect class="cls-17" x="713.32" y="416.93" width="26.58" height="5.41" rx="2.7" ry="2.7"/><rect class="cls-17" x="713.32" y="220.15" width="26.58" height="5.41" rx="2.7" ry="2.7"/><rect class="cls-17" x="713.32" y="231.25" width="26.58" height="5.41" rx="2.7" ry="2.7"/><rect class="cls-17" x="713.32" y="242.34" width="26.58" height="5.41" rx="2.7" ry="2.7"/><path class="cls-17" d="M806,315.06l-8.41,15.88-.11,13.64L779,393.74l-11.25,31.05L756,456.55a25.15,25.15,0,0,1-7.8,10.82h0a25.17,25.17,0,0,1-11.82,5.27l-6,1a25.15,25.15,0,0,1-9.7-.34l-4.78-1.11a25.16,25.16,0,0,1-12.13-6.73l-.59-.59a25.08,25.08,0,0,1-5.47-8.21L689.55,437l-11.5-28.5-4-13.8-6-26.11L666.6,353l-.05-26.66h-20.5V483.78l57.24,18H797l13-48,10.5-98.48V319.61Z"/><path class="cls-17" d="M806,139.59l-8.41,15.88-.11,13.64L779,218.27l-11.25,31L756,281.09a25.15,25.15,0,0,1-7.8,10.82h0a25.15,25.15,0,0,1-11.82,5.26l-6,1a25.14,25.14,0,0,1-9.7-.33l-4.78-1.11A25.32,25.32,0,0,1,703.69,290l-.59-.59a25,25,0,0,1-5.47-8.22l-8.08-19.59-11.5-28.5-4-13.8-6-26.1L666.6,177.5l-.05-26.65h-20.5V308.31l57.24,18H797l13-48,10.5-98.49V144.14Z"/><path class="cls-21" d="M682.15,786.3a48.75,48.75,0,0,1-48.75,48.75V786.3Z"/><path class="cls-21" d="M770.35,786.3a48.75,48.75,0,0,0,48.75,48.75V786.3Z"/><rect class="cls-22" x="149.18" y="654.47" width="31.56" height="188.74" transform="translate(329.93 1497.67) rotate(-180)"/><rect class="cls-23" x="155.55" y="654.47" width="25.19" height="188.74" transform="translate(336.29 1497.67) rotate(-180)"/><polygon class="cls-23" points="194.91 654.47 212.12 681.05 218.57 725.5 217.36 763.65 208.29 812.23 183.69 819.12 180.74 843.21 180.74 654.47 194.91 654.47"/><rect class="cls-22" x="460" y="654.47" width="31.56" height="188.74"/><rect class="cls-23" x="460" y="654.47" width="25.19" height="188.74"/><rect class="cls-17" x="466.62" y="666.56" width="11.95" height="150.49"/><rect class="cls-24" x="466.62" y="809.13" width="11.95" height="7.92"/><rect class="cls-24" x="466.62" y="793.29" width="11.95" height="7.92"/><rect class="cls-24" x="466.62" y="777.45" width="11.95" height="7.92"/><rect class="cls-24" x="466.62" y="761.61" width="11.95" height="7.92"/><rect class="cls-24" x="466.62" y="745.77" width="11.95" height="7.92"/><rect class="cls-24" x="466.62" y="729.93" width="11.95" height="7.92"/><rect class="cls-24" x="466.62" y="714.09" width="11.95" height="7.92"/><rect class="cls-24" x="466.62" y="698.25" width="11.95" height="7.92"/><rect class="cls-24" x="466.62" y="682.4" width="11.95" height="7.92"/><rect class="cls-24" x="466.62" y="666.56" width="11.95" height="7.92"/><rect class="cls-17" x="466.62" y="658.64" width="11.95" height="7.92"/><rect class="cls-17" x="598.21" y="666.56" width="22.53" height="150.49"/><rect class="cls-24" x="598.21" y="809.13" width="22.53" height="7.92"/><rect class="cls-24" x="598.21" y="793.29" width="22.53" height="7.92"/><rect class="cls-24" x="598.21" y="777.45" width="22.53" height="7.92"/><rect class="cls-24" x="598.21" y="761.61" width="22.53" height="7.92"/><rect class="cls-24" x="598.21" y="745.77" width="22.53" height="7.92"/><rect class="cls-24" x="598.21" y="729.93" width="22.53" height="7.92"/><rect class="cls-24" x="598.21" y="714.09" width="22.53" height="7.92"/><rect class="cls-24" x="598.21" y="698.25" width="22.53" height="7.92"/><rect class="cls-24" x="598.21" y="682.4" width="22.53" height="7.92"/><rect class="cls-24" x="598.21" y="666.56" width="22.53" height="7.92"/><rect class="cls-17" x="598.21" y="658.64" width="22.53" height="7.92"/><polygon class="cls-23" points="445.83 654.47 428.62 681.05 422.17 725.5 423.38 763.65 432.45 812.23 457.05 819.12 460 843.21 460 654.47 445.83 654.47"/><rect class="cls-17" x="629.1" y="991.91" width="394.9" height="29.13"/><path class="cls-12" d="M353.12,781.77,321.7,846.33l-33.34-63.59C302.18,809.09,340.1,808.53,353.12,781.77Z"/><g class="cls-25"><path d="M320.63,721.93l16.17,1.18,20.47,3.12,4.43,18.65-7.24,22.71-32.93,67.66-35.48-67.69-7.44-22.7L283,726.23l20.46-3.12,17.13-1.18m0-5L303,718.14l-24,3.65-5.54,23.29,8,24.43,40.28,76.82,37.42-76.88,7.77-24.37-5.54-23.29-24-3.65-16.72-1.22Z"/></g><g class="cls-25"><path d="M320.64,716.92l16.72,1.22,24,3.65,5.54,23.29-7.77,24.37L321.7,846.33l-40.28-76.82-8-24.43L279,721.79l24-3.65,17.69-1.22m0-5-.36,0-17.68,1.22-.21,0-.2,0-24,3.65-3.33.5-.78,3.28-5.54,23.29-.33,1.38.44,1.34,8,24.43.13.39.2.37,40.27,76.82,4.6,8.77,4.33-8.9,37.41-76.88.16-.33.11-.34,7.77-24.37.42-1.32-.32-1.36-5.54-23.29-.78-3.28-3.33-.5-24-3.65-.19,0-.2,0L321,711.93l-.35,0Z"/></g><circle class="cls-23" cx="332.7" cy="872.7" r="3.7"/><circle class="cls-23" cx="329.14" cy="901.63" r="3.7"/><circle class="cls-23" cx="325.58" cy="930.57" r="3.7"/><rect class="cls-14" x="631.3" y="871.43" width="89.29" height="18.47"/><rect class="cls-26" x="631.3" y="883.38" width="89.29" height="6.53"/><rect class="cls-14" x="927" y="871.43" width="89.29" height="18.47"/><rect class="cls-26" x="927" y="883.38" width="89.29" height="6.53"/><path class="cls-17" d="M885.43,345.19l-50.81,12.63-5.38,29,5.91,24.38L869,433.91l16.4-11.57s12.64-41.68,13.18-45.71S885.43,345.19,885.43,345.19Z"/><path class="cls-17" d="M879.52,450.05s25.27-9.41,26.08-9.41,29,5.37,31.19,6.45S951,460,951,460l4.3,8.07-7.53,17.75-16.4,11.29-21,4.68L886,499l-11.29-33.26Z"/><path class="cls-17" d="M900.76,370.73,897,404.34l18,14s11,7.2,16.94,1.31,8.33-6.65,11-13.8,2.15-27,2.15-27l-8.87-20.43s-14.25-.54-19.09,1.08S900.76,370.73,900.76,370.73Z"/><polygon class="cls-12" points="794.72 589.87 798.59 637.35 846.08 641.9 854.71 629.43 859.26 594.42 829.77 575.48 794.72 579.31 794.72 589.87"/><polygon class="cls-12" points="761.18 619.84 794.72 656.05 788.04 688.43 753.75 674.28 743.2 637.35 761.18 619.84"/><rect class="cls-17" x="15.17" y="666.56" width="27.41" height="150.49"/><rect class="cls-24" x="15.17" y="809.13" width="27.41" height="7.92"/><rect class="cls-24" x="15.17" y="793.29" width="27.41" height="7.92"/><rect class="cls-24" x="15.17" y="777.45" width="27.41" height="7.92"/><rect class="cls-24" x="15.17" y="761.61" width="27.41" height="7.92"/><rect class="cls-24" x="15.17" y="745.77" width="27.41" height="7.92"/><rect class="cls-24" x="15.17" y="729.93" width="27.41" height="7.92"/><rect class="cls-24" x="15.17" y="714.09" width="27.41" height="7.92"/><rect class="cls-24" x="15.17" y="698.25" width="27.41" height="7.92"/><rect class="cls-24" x="15.17" y="682.4" width="27.41" height="7.92"/><rect class="cls-24" x="15.17" y="666.56" width="27.41" height="7.92"/><rect class="cls-17" x="15.17" y="658.64" width="27.41" height="7.92"/><rect class="cls-14" x="382.05" y="729.6" width="211.51" height="18.47" transform="translate(-251.03 1226.64) rotate(-90)"/><rect class="cls-26" x="388.02" y="735.57" width="211.51" height="6.53" transform="translate(-245.06 1232.61) rotate(-90)"/><rect class="cls-27" x="992" width="32" height="32"/><ellipse class="cls-28" cx="287.04" cy="224.17" rx="8.96" ry="10.3"/><ellipse class="cls-28" cx="356.43" cy="224.17" rx="8.96" ry="10.3"/><g class="cls-29"><path d="M333.81,244.41c-1.57,5.14-6.35,6.87-12,6.87V239.56l9.95,1.59A2.56,2.56,0,0,1,333.81,244.41Z"/><path d="M309.84,244.41c1.57,5.14,6.35,6.87,12,6.87V239.56l-9.95,1.59A2.55,2.55,0,0,0,309.84,244.41Z"/></g><g class="cls-25"><path d="M327,267.51a63.9,63.9,0,0,0,16.68-5.44,2.32,2.32,0,0,0,1.23-3.21h0a2.38,2.38,0,0,0-3.05-.93,59.59,59.59,0,0,1-15.74,5.13Z"/><path d="M309.52,268.86A64.35,64.35,0,0,0,327,267.51l-.88-4.45a59.61,59.61,0,0,1-16.51,1.27,2.38,2.38,0,0,0-2.46,2h0A2.33,2.33,0,0,0,309.52,268.86Z"/></g><path class="cls-29" d="M327.87,273a6.83,6.83,0,0,0-4.25,2.4,2.92,2.92,0,0,0,2.72,4.72l5.08-.76a2.92,2.92,0,0,0,1.21-5.31A6.81,6.81,0,0,0,327.87,273Z"/><path class="cls-30" d="M272.28,200.94a5.76,5.76,0,0,1-2.18-11.09c7.53-3.08,14.67-5.58,25.84-5a5.76,5.76,0,1,1-.56,11.5c-9.54-.47-15.32,1.91-20.92,4.21A5.8,5.8,0,0,1,272.28,200.94Z"/><path class="cls-30" d="M370.19,200.94a5.76,5.76,0,0,0,2.18-11.09c-7.53-3.08-14.67-5.58-25.84-5a5.76,5.76,0,0,0,.56,11.5c9.53-.47,15.31,1.91,20.92,4.21A5.76,5.76,0,0,0,370.19,200.94Z"/><path class="cls-31" d="M321.62,3.39V156H274.27a34.46,34.46,0,0,0-34,28.64.17.17,0,0,1,0,.07c-.09.45-.15.9-.21,1.35h-.81l6.93,64.32.14,1.33a6.09,6.09,0,0,1-6.05,6.73h-3.12a19.3,19.3,0,0,1-15.62-8c-6.26-8.66-14.95-17.48-18.8-26.29a20.22,20.22,0,0,0-21.69-11.6,6,6,0,0,0-1.84.63l-1.39.74a5.58,5.58,0,0,0-1.64,1.25c-4.27,4.75-10,21.42-18.73,32.95s-53,33.69-69.35,41.06l-29,13.47-.43.19-21,7.87a6,6,0,0,1-1,.28l-25.16,4.87L11,316l-4.11.49A6.2,6.2,0,0,1,0,310.28V9.6A6.21,6.21,0,0,1,6.2,3.39Z"/><path class="cls-31" d="M321.62,3.39V156H369a34.46,34.46,0,0,1,34,28.64.17.17,0,0,0,0,.07c.09.45.15.9.21,1.35H404l-6.93,64.32-.14,1.33a6.09,6.09,0,0,0,6,6.73h3.12a19.3,19.3,0,0,0,15.62-8c6.26-8.66,14.95-17.48,18.8-26.29a20.22,20.22,0,0,1,21.69-11.6,6,6,0,0,1,1.84.63l1.39.74a5.58,5.58,0,0,1,1.64,1.25c4.27,4.75,9.95,21.42,18.73,32.95s53,33.69,69.35,41.06l29,13.47.43.19,21,7.87a6,6,0,0,0,1,.28l25.16,4.87.45.07,4.11.49a6.2,6.2,0,0,0,6.93-6.16V9.6A6.21,6.21,0,0,0,637,3.39Z"/><path class="cls-30" d="M240.28,184.73c0-.35.05-.72.1-1.09,0,.34-.06.69-.09,1A.17.17,0,0,1,240.28,184.73Z"/><path class="cls-30" d="M643.24,6.2V306.88a6.2,6.2,0,0,1-6.93,6.16l-4.11-.48-.45-.07-25.16-4.87a7.08,7.08,0,0,1-1-.28l-21-7.88a3.25,3.25,0,0,1-.43-.18l-29-13.47c-16.39-7.37-60.58-29.56-69.35-41.06s-14.46-28.2-18.73-33a5.73,5.73,0,0,0-1.64-1.24l-1.39-.74a5.74,5.74,0,0,0-1.84-.63,20.21,20.21,0,0,0-21.69,11.6c-3.85,8.81-12.54,17.63-18.8,26.29a19.3,19.3,0,0,1-15.62,8H403a6.09,6.09,0,0,1-5.91-4.67,5.94,5.94,0,0,1-.14-2.07l6.2-57.54c0-.09,0-.19,0-.29h.22c.18-6.55-.26-33-18.33-39.12-2.33-.44-4.83-.86-7.47-1.25h-.65c-7.61,0-9.75,2.57-11.42,5.78s-2.92,7.26-9,9.89c-31.62,13.65-59.81-9.86-88.8-10.43h-1.31c-15.13,0-21.59,9.87-24.3,19.36-.21.7-.39,1.39-.55,2.08-.11.49-.21,1-.31,1.44s-.13.63-.18.94c-.15.79-.27,1.56-.37,2.3,0,.38-.1.74-.14,1.1s-.07.62-.1.92a.76.76,0,0,0,0,.15c0,.37-.08.74-.1,1.09a55.3,55.3,0,0,0-.15,6.06l6.2,57.54a5.94,5.94,0,0,1-.14,2.07,6.09,6.09,0,0,1-5.91,4.67h-3.12a19.3,19.3,0,0,1-15.62-8c-6.26-8.66-14.95-17.48-18.8-26.29a20.21,20.21,0,0,0-21.69-11.6,5.74,5.74,0,0,0-1.84.63l-1.39.74a5.73,5.73,0,0,0-1.64,1.24c-4.27,4.76-10,21.43-18.73,33s-53,33.69-69.35,41.06l-29,13.47a3.25,3.25,0,0,1-.43.18l-21,7.88a7.08,7.08,0,0,1-1,.28l-25.16,4.87-.45.07L6.93,313A6.2,6.2,0,0,1,0,306.88V6.2A6.21,6.21,0,0,1,6.2,0H637A6.21,6.21,0,0,1,643.24,6.2Z"/><rect class="cls-27" x="992" width="32" height="32"/></g></g></g></svg>