<svg xmlns="http://www.w3.org/2000/svg" xmlns:xlink="http://www.w3.org/1999/xlink" viewBox="0 0 1024 1024"><defs><style>.cls-1{isolation:isolate;}.cls-2{fill:#fff;}.cls-3{fill:#f58c6a;}.cls-4{fill:#f69878;}.cls-11,.cls-5{opacity:0.15;mix-blend-mode:overlay;}.cls-5{fill:url(#linear-gradient);}.cls-6{fill:#f37b67;}.cls-7{fill:url(#linear-gradient-2);}.cls-8{fill:url(#linear-gradient-3);}.cls-9{fill:red;}.cls-10{opacity:0.1;mix-blend-mode:multiply;fill:url(#linear-gradient-4);}.cls-12{fill:#a36841;}.cls-13{fill:blue;}.cls-14{fill:#220f0f;}.cls-15{fill:#dd2b26;}.cls-16{fill:#e89c64;}.cls-17{fill:#191919;}.cls-18{fill:#e4783e;}.cls-19{opacity:0.5;}.cls-20{fill:#b7815d;}.cls-21{fill:#e29a65;}.cls-22{fill:#bc835c;}.cls-23{fill:#1a1a1a;}.cls-24{fill:#373737;}.cls-25{fill:#2d2d2d;}.cls-26{fill:#475969;}.cls-27{fill:#fcfcfc;}.cls-28{fill:url(#linear-gradient-5);}.cls-29{fill:lime;}</style><linearGradient id="linear-gradient" x1="321.68" y1="286" x2="321.68" y2="431.12" gradientUnits="userSpaceOnUse"><stop offset="0"/><stop offset="1" stop-opacity="0"/></linearGradient><linearGradient id="linear-gradient-2" x1="438.5" y1="235.5" x2="507.96" y2="235.5" gradientUnits="userSpaceOnUse"><stop offset="0" stop-color="#f69878"/><stop offset="1" stop-color="#f37b67"/></linearGradient><linearGradient id="linear-gradient-3" x1="202" y1="235.5" x2="152.85" y2="235.5" gradientTransform="translate(383.22 471) rotate(180)" xlink:href="#linear-gradient-2"/><linearGradient id="linear-gradient-4" x1="321.5" y1="490" x2="321.5" y2="187.52" gradientUnits="userSpaceOnUse"><stop offset="0" stop-color="#f69878"/><stop offset="1" stop-color="#f69878" stop-opacity="0"/></linearGradient><linearGradient id="linear-gradient-5" x1="269.68" y1="987.48" x2="341.52" y2="988.41" gradientUnits="userSpaceOnUse"><stop offset="0" stop-opacity="0"/><stop offset="1"/></linearGradient></defs><title>militaryFemaleB</title><g class="cls-1"><g id="Layer_2" data-name="Layer 2"><g id="Layer_1-2" data-name="Layer 1"><rect class="cls-2" width="1024" height="1024"/><rect class="cls-3" x="624" y="524" width="400" height="240"/><rect class="cls-4" width="643" height="490"/><path class="cls-5" d="M366,299h0a89.81,89.81,0,0,0-19.13,2.07h0a89.33,89.33,0,0,1-19.14,2.07H315.59a89.26,89.26,0,0,1-19.14-2.07h0A89.81,89.81,0,0,0,277.32,299h0a43.74,43.74,0,0,0-33,15c-6.51,7.48-12.32,16.72-11.37,25.21l15.3,137,71.88,5.58,1.52-2.82,1.52,2.82,71.87-5.58,15.31-137c.95-8.49-4.86-17.73-11.38-25.21A43.71,43.71,0,0,0,366,299Z"/><rect class="cls-4" x="824" y="134" width="200" height="390"/><path class="cls-6" d="M442.55,216.37h8.29a18.41,18.41,0,0,1,18.41,18.41v1.43a18.41,18.41,0,0,1-18.41,18.41h-8.29a0,0,0,0,1,0,0V216.37a0,0,0,0,1,0,0Z"/><path class="cls-7" d="M437.85,216.37h8.29a18.41,18.41,0,0,1,18.41,18.41v1.43a18.41,18.41,0,0,1-18.41,18.41h-8.29a0,0,0,0,1,0,0V216.37A0,0,0,0,1,437.85,216.37Z"/><ellipse class="cls-6" cx="451.21" cy="235.5" rx="7.93" ry="4.4" transform="translate(132.36 632.21) rotate(-78.77)"/><path class="cls-6" d="M173.56,216.37h8.29a18.41,18.41,0,0,1,18.41,18.41v1.43a18.41,18.41,0,0,1-18.41,18.41h-8.29a0,0,0,0,1,0,0V216.37A0,0,0,0,1,173.56,216.37Z" transform="translate(373.83 471) rotate(-180)"/><path class="cls-8" d="M178.26,216.37h8.29A18.41,18.41,0,0,1,205,234.78v1.43a18.41,18.41,0,0,1-18.41,18.41h-8.29a0,0,0,0,1,0,0V216.37A0,0,0,0,1,178.26,216.37Z" transform="translate(383.22 471) rotate(-180)"/><ellipse class="cls-6" cx="191.61" cy="235.5" rx="4.4" ry="7.93" transform="translate(-42.19 41.82) rotate(-11.23)"/><polygon class="cls-4" points="579.88 654.47 544.43 654.47 491.56 654.47 460 654.47 460 654.47 445.83 654.47 428.62 681.05 422.17 725.5 423.38 763.65 432.45 812.23 457.05 819.12 460 823.21 460 823.21 491.56 823.21 544.43 823.21 579.88 823.21 615.98 823.21 615.98 654.47 579.88 654.47"/><polygon class="cls-4" points="212.12 681.05 194.91 654.47 180.74 654.47 180.74 654.47 149.18 654.47 96.31 654.47 60.86 654.47 24.76 654.47 24.76 823.21 60.86 823.21 96.31 823.21 149.18 823.21 180.74 823.21 180.74 823.21 183.69 819.12 208.29 812.23 217.36 763.65 218.57 725.5 212.12 681.05"/><rect class="cls-4" x="624" y="864.49" width="400" height="159.51"/><rect class="cls-9" x="992" width="32" height="32"/><rect class="cls-10" y="139.59" width="643" height="350.41"/><ellipse class="cls-4" cx="320.36" cy="746.08" rx="73.24" ry="132.26"/><g class="cls-11"><path d="M321,5V151.59c-46.33,0-83.91,36.38-84.07,44.26v.05L235.3,213c-1.2,12.75-16.54,22.95-26.23,15.52s-30.16-18.38-57.22,27.74S0,318.87,0,318.87V5Z"/><path d="M321,5V151.59c46.33,0,83.91,36.38,84.07,44.26v.05l1.61,17.1c1.2,12.75,16.54,22.95,26.23,15.52s30.16-18.38,57.22,27.74S642,318.87,642,318.87V5Z"/></g><path class="cls-12" d="M321,0V146.59c-46.33,0-83.91,36.38-84.07,44.26v.05L235.3,208c-1.2,12.75-16.54,22.95-26.23,15.52s-30.16-18.38-57.22,27.74S0,313.87,0,313.87V0Z"/><path class="cls-12" d="M321,0V146.59c46.33,0,83.91,36.38,84.07,44.26v.05l1.61,17.1c1.2,12.75,16.54,22.95,26.23,15.52s30.16-18.38,57.22,27.74S642,313.87,642,313.87V0Z"/><path class="cls-12" d="M343.89,209a4.9,4.9,0,0,0,1.51-.14,52,52,0,0,1,15.15-1.06,5,5,0,0,0,.61-10A62.14,62.14,0,0,0,343,199.11a5,5,0,0,0,.91,9.84Z"/><path class="cls-12" d="M283,207.29a5,5,0,0,1,.87-9.85,62.55,62.55,0,0,1,18.12,1.93,5,5,0,0,1-2.38,9.71,52.46,52.46,0,0,0-15.1-1.66A4.73,4.73,0,0,1,283,207.29Z"/><g class="cls-11"><path d="M331.17,245.9c-1.22,4-4.95,5.36-9.36,5.36v-9.14l7.76,1.24A2,2,0,0,1,331.17,245.9Z"/><path d="M312.48,245.9c1.22,4,4.95,5.36,9.35,5.36v-9.14l-7.75,1.24A2,2,0,0,0,312.48,245.9Z"/></g><rect class="cls-13" x="992" width="32" height="32"/><rect class="cls-14" x="343.93" y="213.32" width="14.17" height="21.7" rx="7.09" ry="7.09"/><rect class="cls-14" x="285.36" y="213.32" width="14.17" height="21.7" rx="7.09" ry="7.09" transform="translate(584.89 448.34) rotate(180)"/><path d="M338.09,255.88v1.24a16.18,16.18,0,0,1-5.54,12.22c-.43.37-.86.72-1.32,1.05l-.66.44a16.86,16.86,0,0,1-2.09,1.13,16.14,16.14,0,0,1-6.22,1.42h-.88a16.1,16.1,0,0,1-6.22-1.42,15.54,15.54,0,0,1-2.09-1.13c-.23-.14-.44-.29-.66-.45a16.37,16.37,0,0,1-6.86-13.26v-1.24Z"/><ellipse class="cls-15" cx="321.82" cy="268.68" rx="6.73" ry="4.71"/><path class="cls-2" d="M306.91,255.88a4.75,4.75,0,0,0,4.74,4.74H332a4.73,4.73,0,0,0,4.74-4.74Z"/><path class="cls-2" d="M330.57,270.83a16.86,16.86,0,0,1-2.09,1.13,16.14,16.14,0,0,1-6.22,1.42h-.88a16.1,16.1,0,0,1-6.22-1.42,15.54,15.54,0,0,1-2.09-1.13c1.57-1.35,4.9-1.35,8.75-1.35S329,269.48,330.57,270.83Z"/><path class="cls-16" d="M155.28,490v534H485.19V490Zm167.5,281.86L283,761.94l-5.54-22.11,8.89-21.07,20.46-3.3,15.08-1.11,14.26,1.11,20.46,3.3,8.9,21.07-5.35,22.06Z"/><rect class="cls-17" x="643" width="381" height="134"/><rect class="cls-18" x="624" y="764" width="400" height="260"/><rect class="cls-17" x="643" y="134" width="181" height="390"/><g class="cls-19"><path class="cls-20" d="M298.26,911.94l28.91,14.35a4.58,4.58,0,0,0,2.33.46l33.08-2.44a4.5,4.5,0,0,1,4.79,3.88l2.19,16a4.5,4.5,0,0,1-1.33,3.85l-24.47,23.62a4.5,4.5,0,0,1-3.13,1.26H306a4.5,4.5,0,0,1-3.68-1.91l-15.86-22.62a4.48,4.48,0,0,0-2.78-1.82l-20.36-4.16a4.5,4.5,0,0,1-3.49-5.4l4.95-22a4.49,4.49,0,0,1,4.39-3.52h27.05A4.53,4.53,0,0,1,298.26,911.94Z"/><path class="cls-20" d="M374.44,917.17,380.73,946a6.24,6.24,0,0,1-1.65,5.71L370.94,960a6.24,6.24,0,0,0,.77,9.43l3.72,2.72a6.26,6.26,0,0,0,8.14-.68L400,954.6a6.25,6.25,0,0,0,.86-7.63l-9.1-14.85a6.24,6.24,0,0,1-.84-4.26l1.57-9.67a6.23,6.23,0,0,0-3.43-6.62l-5.49-2.66a6.24,6.24,0,0,0-8.77,4.06l-.34,1.32A6.23,6.23,0,0,0,374.44,917.17Z"/><path class="cls-20" d="M425.41,921.22v9.32a6.37,6.37,0,0,1-4.32,6l-5.26,1.79a12.61,12.61,0,0,1-11.25-1.56l-.51-.35a12.62,12.62,0,0,1-5-13.82h0a12.61,12.61,0,0,1,14.54-9l6.61,1.28A6.37,6.37,0,0,1,425.41,921.22Z"/><path class="cls-20" d="M239.37,925l9.92-30.72a4.54,4.54,0,0,0,.1-2.37l-7.29-32.36a4.5,4.5,0,0,1,3.13-5.31l15.5-4.53a4.53,4.53,0,0,1,4,.75l27,20.71a4.47,4.47,0,0,1,1.71,2.91l5.11,34.22a4.49,4.49,0,0,1-1.35,3.93l-20,19a4.5,4.5,0,0,0-1.4,3L274.66,955a4.5,4.5,0,0,1-4.83,4.25l-22.51-1.64a4.52,4.52,0,0,1-4.13-3.83l-4-26.76A4.42,4.42,0,0,1,239.37,925Z"/><path class="cls-20" d="M232.9,849l28.84-11a4.52,4.52,0,0,1,4.25.57l11.77,8.58a4.51,4.51,0,0,0,6.65-1.56l3.76-7.2a4.51,4.51,0,0,0-1.35-5.74l-21.39-15.47a4.52,4.52,0,0,0-5.54.2L245,829.92a4.52,4.52,0,0,1-3,1.06l-11.73-.16A4.52,4.52,0,0,0,226,834l-2.85,9.08a4.51,4.51,0,0,0,3.84,5.83l3.88.4A4.5,4.5,0,0,0,232.9,849Z"/><path class="cls-20" d="M228.5,858.59l2.2.35a4.51,4.51,0,0,1,3.66,3.36L241,889.2a4.5,4.5,0,0,1-.29,3l-5.92,12.67a4.51,4.51,0,0,1-6.67,1.78h0a4.51,4.51,0,0,1-1.91-3.36l-3-39.92A4.5,4.5,0,0,1,228.5,858.59Z"/><path class="cls-20" d="M228.24,798.09l12.07-1.8a4.49,4.49,0,0,1,4.67,2.38l5,9.77a4.48,4.48,0,0,1,0,4l-4.63,9.44a4.52,4.52,0,0,1-4.62,2.49l-13.16-1.69a4.5,4.5,0,0,1-3.93-4.66l.69-15.72A4.5,4.5,0,0,1,228.24,798.09Z"/><path class="cls-20" d="M366.63,896.54l12-24.06a6.23,6.23,0,0,0,.64-3.23l-1.83-26a6.24,6.24,0,0,1,5.4-6.63l10.59-1.42a6.25,6.25,0,0,1,5.33,1.87l19,19.82a6.21,6.21,0,0,1,1.73,4.34l-.08,28a6.22,6.22,0,0,1-2.67,5.1l-18,12.52a6.21,6.21,0,0,0-2.54,3.85l-3,14.48a6.24,6.24,0,0,1-7.5,4.82l-15-3.42a6.25,6.25,0,0,1-4.85-6.11l.06-21.13A6.22,6.22,0,0,1,366.63,896.54Z"/><path class="cls-20" d="M371.32,830.71l24.47-5.26a6.24,6.24,0,0,1,5.71,1.66l6.19,6.14a6.25,6.25,0,0,0,9.43-.74l1.4-1.91a6.26,6.26,0,0,0-.66-8.15l-17.12-16.84-16.3,9.93a6.26,6.26,0,0,1-4.27.83l-7.51-1.25a6.25,6.25,0,0,0-6.63,3.42l-1.63,3.33a6.24,6.24,0,0,0,4,8.78h0A6.1,6.1,0,0,0,371.32,830.71Z"/><path class="cls-20" d="M376.62,786.42h4.69a7.78,7.78,0,0,1,7.34,5.28l1.56,4.62a7.78,7.78,0,0,1-1,6.92h0a14,14,0,0,1-15.35,5.47l-.76-.22a7.77,7.77,0,0,1-5.49-9l1.35-6.85A7.77,7.77,0,0,1,376.62,786.42Z"/><path class="cls-20" d="M289.59,670.13l12.58,3.72a6.67,6.67,0,0,0,3.49.08l10.09-2.54a6.61,6.61,0,0,1,7.91,4.4L324,677a6.61,6.61,0,0,1-1,5.9l-7.16,9.82a6.61,6.61,0,0,1-4.2,2.61l-12.2,2.13a6.62,6.62,0,0,1-5.81-1.84l-6.41-6.43a6.58,6.58,0,0,0-4.49-1.93l-3.58-.11a6.6,6.6,0,0,1-6.41-6.92l.13-2.64a6.61,6.61,0,0,1,5.47-6.19l8.16-1.43A6.67,6.67,0,0,1,289.59,670.13Z"/><path class="cls-20" d="M344.09,670.17l5.14-1.1a8.66,8.66,0,0,1,9.27,4l2.81,4.68a8.68,8.68,0,0,1,.57,7.79h0a15.66,15.66,0,0,1-15.47,9.64l-.89-.05a8.68,8.68,0,0,1-8.13-8.5l-.16-7.81A8.68,8.68,0,0,1,344.09,670.17Z"/><path class="cls-20" d="M195.44,768.3l12-24.07a6.21,6.21,0,0,0,.64-3.23l-1.84-26a6.25,6.25,0,0,1,5.4-6.63l10.6-1.42a6.25,6.25,0,0,1,5.33,1.87l19,19.82a6.2,6.2,0,0,1,1.74,4.34l-.08,28a6.25,6.25,0,0,1-2.67,5.1l-18,12.51a6.26,6.26,0,0,0-2.54,3.86l-3,14.48a6.25,6.25,0,0,1-7.5,4.82l-15-3.43a6.23,6.23,0,0,1-4.85-6.1l.06-21.14A6.21,6.21,0,0,1,195.44,768.3Z"/><path class="cls-20" d="M200.13,702.47l24.47-5.27a6.27,6.27,0,0,1,5.71,1.67L236.5,705a6.25,6.25,0,0,0,9.43-.75l1.4-1.91a6.24,6.24,0,0,0-.66-8.14L233,680.78a6.25,6.25,0,0,0-7.63-.88l-12.14,7.4a6.2,6.2,0,0,1-4.27.82l-7.51-1.24a6.23,6.23,0,0,0-6.63,3.41l-1.63,3.33a6.24,6.24,0,0,0,4,8.79h0A6.37,6.37,0,0,0,200.13,702.47Z"/><path class="cls-20" d="M204.17,658.17l7,0a6.25,6.25,0,0,1,5.9,4.25l2.15,6.37a6.25,6.25,0,0,1-.79,5.56l-3.61,5.19A6.25,6.25,0,0,1,208,682l-7.45-2.13a6.24,6.24,0,0,1-4.41-7.21l1.86-9.45A6.25,6.25,0,0,1,204.17,658.17Z"/><path class="cls-20" d="M399.59,769.87l12.56-25.12a3.9,3.9,0,0,0,.4-2l-2-28.79a3.92,3.92,0,0,1,3.39-4.16l13.93-1.87a4,4,0,0,1,3.35,1.17l20.49,21.35a3.94,3.94,0,0,1,1.09,2.73l-.09,30.1a3.91,3.91,0,0,1-1.68,3.21L431.28,780.2a3.87,3.87,0,0,0-1.6,2.42L426,800.33a3.92,3.92,0,0,1-4.71,3L402.15,799a3.92,3.92,0,0,1-3-3.83l.07-23.54A4,4,0,0,1,399.59,769.87Z"/><path class="cls-20" d="M404,703.67,430.22,698a3.93,3.93,0,0,1,3.59,1l9,8.92a3.92,3.92,0,0,0,5.92-.46l4.18-5.71a3.91,3.91,0,0,0-.41-5.11L436.12,680.6a3.9,3.9,0,0,0-4.78-.55l-14.43,8.78a3.89,3.89,0,0,1-2.68.52l-10.08-1.67a3.92,3.92,0,0,0-4.16,2.15l-3.64,7.44a3.91,3.91,0,0,0,2.54,5.51l3.29.86A3.91,3.91,0,0,0,404,703.67Z"/><path class="cls-20" d="M398.94,711.33l1.85.59a3.9,3.9,0,0,1,2.7,3.37l2.23,24a4,4,0,0,1-.64,2.53L398.32,752a3.92,3.92,0,0,1-6,.65h0a3.91,3.91,0,0,1-1.2-3.13l2.68-34.74A3.92,3.92,0,0,1,398.94,711.33Z"/><path class="cls-20" d="M406.65,659.25l10.62,0A3.94,3.94,0,0,1,421,662L424,671a3.94,3.94,0,0,1-.5,3.49L418.31,682a3.93,3.93,0,0,1-4.3,1.54l-11.1-3.18a3.91,3.91,0,0,1-2.77-4.52l2.65-13.44A3.92,3.92,0,0,1,406.65,659.25Z"/><path class="cls-20" d="M376.09,596.55l-30.9,15.33a4.86,4.86,0,0,1-2.49.49l-35.34-2.61a4.83,4.83,0,0,0-5.13,4.15L299.89,631a4.84,4.84,0,0,0,1.43,4.11l26.14,25.24a4.81,4.81,0,0,0,3.35,1.35h37a4.8,4.8,0,0,0,3.94-2.05l16.94-24.16a4.78,4.78,0,0,1,3-2l21.75-4.45a4.81,4.81,0,0,0,3.74-5.77l-5.29-23.53a4.82,4.82,0,0,0-4.7-3.75H378.23A4.84,4.84,0,0,0,376.09,596.55Z"/><path class="cls-20" d="M294.77,601.71l-7,32.2a4.82,4.82,0,0,0,1.28,4.4l10.92,11.09a4.82,4.82,0,0,1-.6,7.27l-7,5.12a4.82,4.82,0,0,1-6.28-.53l-19.72-20.17a4.82,4.82,0,0,1-.66-5.88l10.84-17.69a4.75,4.75,0,0,0,.65-3.29l-2-12.37a4.83,4.83,0,0,1,2.65-5.11l9.15-4.44a4.81,4.81,0,0,1,6.77,3.13l1,4A4.76,4.76,0,0,1,294.77,601.71Z"/><path class="cls-20" d="M304.19,595.54l.72,2.28a4.84,4.84,0,0,0,4.13,3.33L338.53,604a4.84,4.84,0,0,0,3.12-.78l12.45-8.27a4.8,4.8,0,0,0,.83-7.32h0a4.81,4.81,0,0,0-3.84-1.49l-42.67,3.17A4.82,4.82,0,0,0,304.19,595.54Z"/><path class="cls-20" d="M240.21,604.81v13.05a4.8,4.8,0,0,0,3.26,4.55l11.11,3.79a4.81,4.81,0,0,0,4.29-.59l9.25-6.39A4.81,4.81,0,0,0,270,614l-3.86-13.65a4.81,4.81,0,0,0-5.54-3.41l-16.51,3.2A4.81,4.81,0,0,0,240.21,604.81Z"/></g><rect class="cls-21" x="631.59" y="763.66" width="383.62" height="218.34"/><rect class="cls-22" x="625.61" y="920.97" width="396.84" height="53.53"/><g class="cls-19"><path class="cls-20" d="M914.41,822.12l14-7a2.2,2.2,0,0,1,1.13-.22l16,1.18a2.19,2.19,0,0,0,2.33-1.88l1.06-7.77a2.18,2.18,0,0,0-.65-1.86L936.5,793.13a2.2,2.2,0,0,0-1.52-.61H918.19a2.2,2.2,0,0,0-1.79.93l-7.7,11a2.16,2.16,0,0,1-1.35.89l-9.88,2a2.18,2.18,0,0,0-1.69,2.62l2.4,10.69a2.18,2.18,0,0,0,2.13,1.7h13.13A2.15,2.15,0,0,0,914.41,822.12Z"/><path class="cls-20" d="M955.82,832l5-22.83a4.91,4.91,0,0,0-1.31-4.52L953,798.06a5,5,0,0,1,.61-7.47l3-2.15a4.94,4.94,0,0,1,6.45.54l13,13.33a4.94,4.94,0,0,1,.68,6.05l-7.21,11.76a4.94,4.94,0,0,0-.66,3.38l1.25,7.66a4.94,4.94,0,0,1-2.73,5.24l-4.34,2.11a4.94,4.94,0,0,1-7-3.22l-.27-1A5,5,0,0,1,955.82,832Z"/><path class="cls-20" d="M996.2,828.75v-7.38a5.06,5.06,0,0,0-3.42-4.79l-4.17-1.42a10,10,0,0,0-8.91,1.24l-.41.28a10,10,0,0,0-3.94,11h0a10,10,0,0,0,11.53,7.1l5.23-1A5,5,0,0,0,996.2,828.75Z"/><path class="cls-20" d="M853.13,829.86l6.64,20.58a3,3,0,0,1,.08,1.59L855,873.7a3,3,0,0,0,2.1,3.56l10.38,3a3,3,0,0,0,2.68-.51l18.08-13.87a3,3,0,0,0,1.14-1.95l3.43-22.92a3.05,3.05,0,0,0-.91-2.64l-13.41-12.74a3,3,0,0,1-.94-2l-.74-13.9a3,3,0,0,0-3.23-2.85L858.46,808a3,3,0,0,0-2.77,2.56L853,828.49A3,3,0,0,0,853.13,829.86Z"/><path class="cls-20" d="M843.69,886l22.84,8.69a3.59,3.59,0,0,0,3.37-.46l9.33-6.79a3.57,3.57,0,0,1,5.26,1.23l3,5.71a3.56,3.56,0,0,1-1.07,4.55l-16.95,12.25a3.56,3.56,0,0,1-4.38-.16l-11.78-9.89a3.59,3.59,0,0,0-2.34-.83l-9.3.12a3.56,3.56,0,0,1-3.45-2.5l-2.26-7.2a3.56,3.56,0,0,1,3-4.61l3.08-.32A3.62,3.62,0,0,1,843.69,886Z"/><path class="cls-20" d="M840.2,878.38l1.75-.29a3.54,3.54,0,0,0,2.89-2.66l5.3-21.31a3.64,3.64,0,0,0-.23-2.37l-4.7-10a3.56,3.56,0,0,0-5.28-1.41h0a3.55,3.55,0,0,0-1.51,2.66l-2.35,31.63A3.57,3.57,0,0,0,840.2,878.38Z"/><path class="cls-20" d="M840,926.3l9.57,1.43a3.57,3.57,0,0,0,3.7-1.89l4-7.73a3.56,3.56,0,0,0,0-3.21l-3.67-7.49a3.55,3.55,0,0,0-3.65-2l-10.43,1.33a3.56,3.56,0,0,0-3.11,3.69l.54,12.46A3.55,3.55,0,0,0,840,926.3Z"/><path class="cls-20" d="M949.63,848.3l9.53,19.07a4.93,4.93,0,0,1,.51,2.56l-1.45,20.58a5,5,0,0,0,4.28,5.25l8.39,1.12a5,5,0,0,0,4.22-1.47l15.07-15.71a4.89,4.89,0,0,0,1.38-3.44l-.06-22.14a5,5,0,0,0-2.12-4l-14.23-9.91a5,5,0,0,1-2-3.06l-2.38-11.47a5,5,0,0,0-5.94-3.82l-11.9,2.72a4.93,4.93,0,0,0-3.85,4.83l.05,16.75A4.9,4.9,0,0,0,949.63,848.3Z"/><path class="cls-20" d="M953.35,900.46l19.38,4.17a5,5,0,0,0,4.53-1.32l4.9-4.86a4.94,4.94,0,0,1,7.47.59l1.11,1.51a5,5,0,0,1-.52,6.45l-13.56,13.34-12.92-7.86a4.94,4.94,0,0,0-3.38-.66l-6,1a4.94,4.94,0,0,1-5.25-2.7l-1.29-2.64a4.94,4.94,0,0,1,3.2-7h0A4.88,4.88,0,0,1,953.35,900.46Z"/><path class="cls-20" d="M889.09,800.47h2.22a3.67,3.67,0,0,0,3.48-2.5l.74-2.19a3.68,3.68,0,0,0-.47-3.28h0a6.63,6.63,0,0,0-7.27-2.59l-.36.1a3.7,3.7,0,0,0-2.61,4.25l.64,3.25A3.7,3.7,0,0,0,889.09,800.47Z"/><path class="cls-20" d="M702.37,835.06l8,2.36a4.21,4.21,0,0,0,2.2.05l6.39-1.61a4.19,4.19,0,0,1,5,2.79l.24.75a4.19,4.19,0,0,1-.6,3.74L719,849.35a4.15,4.15,0,0,1-2.65,1.65l-7.72,1.35a4.18,4.18,0,0,1-3.68-1.17l-4.05-4.06a4.19,4.19,0,0,0-2.84-1.23l-2.27-.06a4.19,4.19,0,0,1-4.06-4.39l.08-1.67a4.2,4.2,0,0,1,3.46-3.92l5.17-.9A4.21,4.21,0,0,1,702.37,835.06Z"/><path class="cls-20" d="M736.86,835.09l3.25-.7a5.5,5.5,0,0,1,5.87,2.55l1.78,3a5.5,5.5,0,0,1,.36,4.93h0a9.91,9.91,0,0,1-9.79,6.1l-.56,0a5.5,5.5,0,0,1-5.15-5.38l-.1-4.94A5.51,5.51,0,0,1,736.86,835.09Z"/><path class="cls-20" d="M642.79,897.19,650.4,882a3.9,3.9,0,0,0,.41-2l-1.16-16.44a4,4,0,0,1,3.41-4.2l6.71-.89a3.93,3.93,0,0,1,3.37,1.18l12,12.54a3.91,3.91,0,0,1,1.1,2.75l0,17.69a3.93,3.93,0,0,1-1.69,3.23l-11.37,7.92a3.93,3.93,0,0,0-1.61,2.44l-1.9,9.16a4,4,0,0,1-4.75,3.05l-9.5-2.17a4,4,0,0,1-3.08-3.86l0-13.37A4.14,4.14,0,0,1,642.79,897.19Z"/><path class="cls-20" d="M645.76,855.53l15.48-3.33a4,4,0,0,1,3.62,1l3.91,3.89a4,4,0,0,0,6-.47l.89-1.21a4,4,0,0,0-.42-5.16l-8.64-8.49a4,4,0,0,0-4.82-.56l-7.69,4.68a3.93,3.93,0,0,1-2.7.52l-4.76-.79a4,4,0,0,0-4.19,2.17l-1,2.1a4,4,0,0,0,2.56,5.56h0A3.86,3.86,0,0,0,645.76,855.53Z"/><path class="cls-20" d="M648.31,827.5h4.46a3.93,3.93,0,0,1,3.73,2.69l1.36,4a3.93,3.93,0,0,1-.49,3.52L655.08,841a4,4,0,0,1-4.33,1.55L646,841.23a3.94,3.94,0,0,1-2.79-4.56l1.18-6A3.93,3.93,0,0,1,648.31,827.5Z"/><path class="cls-20" d="M772,898.19l7.95-15.9a2.48,2.48,0,0,0,.26-1.28l-1.29-18.22a2.48,2.48,0,0,1,2.14-2.63l8.82-1.18a2.45,2.45,0,0,1,2.11.74l13,13.51a2.45,2.45,0,0,1,.69,1.72l0,19a2.49,2.49,0,0,1-1.07,2L792,904.72a2.51,2.51,0,0,0-1,1.53l-2.33,11.21a2.47,2.47,0,0,1-3,1.91l-12.11-2.76a2.48,2.48,0,0,1-1.93-2.42l0-14.9A2.47,2.47,0,0,1,772,898.19Z"/><path class="cls-20" d="M774.77,856.29l16.6-3.57a2.48,2.48,0,0,1,2.27.66l5.69,5.65a2.49,2.49,0,0,0,3.75-.3l2.65-3.61a2.47,2.47,0,0,0-.26-3.23l-10.37-10.2a2.48,2.48,0,0,0-3-.35l-9.13,5.56a2.44,2.44,0,0,1-1.69.33l-6.38-1.06a2.48,2.48,0,0,0-2.63,1.36l-2.31,4.71a2.48,2.48,0,0,0,1.61,3.49l2.08.54A2.48,2.48,0,0,0,774.77,856.29Z"/><path class="cls-20" d="M771.57,861.14l1.18.37a2.52,2.52,0,0,1,1.71,2.13l1.4,15.2a2.47,2.47,0,0,1-.4,1.61l-4.28,6.41a2.48,2.48,0,0,1-3.78.41h0a2.52,2.52,0,0,1-.76-2l1.7-22A2.48,2.48,0,0,1,771.57,861.14Z"/><path class="cls-20" d="M776.45,828.18l6.72,0a2.47,2.47,0,0,1,2.34,1.69l1.94,5.73a2.51,2.51,0,0,1-.31,2.21l-3.31,4.76a2.49,2.49,0,0,1-2.72,1l-7-2a2.49,2.49,0,0,1-1.76-2.86l1.68-8.51A2.49,2.49,0,0,1,776.45,828.18Z"/><path class="cls-20" d="M757.11,788.5l-19.55,9.7a3.07,3.07,0,0,1-1.58.31l-22.36-1.65a3.07,3.07,0,0,0-3.25,2.63l-1.48,10.82a3,3,0,0,0,.91,2.6l16.54,16a3.09,3.09,0,0,0,2.12.85h23.39a3,3,0,0,0,2.5-1.3l10.72-15.29a3,3,0,0,1,1.88-1.23l13.77-2.82a3,3,0,0,0,2.36-3.65l-3.35-14.89a3,3,0,0,0-3-2.38H758.47A3.05,3.05,0,0,0,757.11,788.5Z"/><path class="cls-20" d="M705.65,791.77l-4.45,20.37a3.08,3.08,0,0,0,.81,2.79l6.91,7a3,3,0,0,1-.37,4.6l-4.45,3.24a3,3,0,0,1-4-.34l-12.48-12.76a3,3,0,0,1-.42-3.72l6.86-11.2a3,3,0,0,0,.41-2.08l-1.27-7.83a3,3,0,0,1,1.67-3.23l5.79-2.81a3,3,0,0,1,4.28,2l.66,2.56A3.05,3.05,0,0,1,705.65,791.77Z"/><path class="cls-20" d="M711.61,787.86l.46,1.44a3,3,0,0,0,2.61,2.11l18.66,1.79a3.07,3.07,0,0,0,2-.5l7.88-5.23a3,3,0,0,0,.52-4.63h0a3,3,0,0,0-2.43-.94l-27,2A3.05,3.05,0,0,0,711.61,787.86Z"/><path class="cls-20" d="M671.12,793.73V802a3,3,0,0,0,2.07,2.88l7,2.4a3,3,0,0,0,2.71-.38l5.86-4a3.06,3.06,0,0,0,1.2-3.34l-2.44-8.63a3,3,0,0,0-3.51-2.16l-10.45,2A3.05,3.05,0,0,0,671.12,793.73Z"/></g><path class="cls-22" d="M321.46,704.33c-27.89,0-50.51,19.21-50.51,42.92s22.62,42.92,50.51,42.92S372,771,372,747.25,349.36,704.33,321.46,704.33Zm38.68,57.56-37.36,10L283,761.94l-5.54-22.11,8.89-21.07,20.46-3.3,15.08-1.11,14.26,1.11,20.46,3.3,8.9,21.07Z"/><path class="cls-23" d="M903.48,647.45c0,.49-9.11,32.36-9.11,32.36L938.77,714,988,687.13s1-34,1-35.15-10.78-22.62-10.78-22.62l-39.12-11.25-23.89,4.12Z"/><path class="cls-23" d="M786,647.72c0,.49-9.1,32.37-9.1,32.37l44.39,34.15,49.27-26.84s1-34,1-35.15-10.79-22.61-10.79-22.61l-39.12-11.26-23.88,4.12Z"/><rect class="cls-24" y="489.3" width="629.1" height="38.43"/><rect class="cls-24" x="631.59" y="892.56" width="383.62" height="28.03"/><rect class="cls-17" x="631.59" y="962.95" width="383.62" height="48.93"/><rect class="cls-11" x="149.18" y="648.88" width="31.56" height="188.74" transform="translate(329.93 1486.49) rotate(-180)"/><rect class="cls-11" x="460" y="648.88" width="31.56" height="188.74"/><rect class="cls-24" x="189.83" y="916.39" width="263.27" height="14.22"/><rect class="cls-25" x="252.62" y="798.27" width="137.14" height="146.1" rx="20.36" ry="20.36"/><rect class="cls-24" x="279.98" y="826.43" width="82.43" height="12.81" rx="6.41" ry="6.41"/><rect class="cls-24" x="279.98" y="854.73" width="82.43" height="12.38" rx="6.19" ry="6.19"/><rect class="cls-24" x="279.98" y="882.6" width="82.43" height="12.81" rx="6.41" ry="6.41"/><rect class="cls-24" x="279.98" y="910.69" width="82.43" height="12.81" rx="6.41" ry="6.41"/><rect class="cls-24" x="189.83" y="572.5" width="263.27" height="14.22"/><rect class="cls-22" x="155.55" y="654.47" width="25.19" height="188.74" transform="translate(336.29 1497.67) rotate(-180)"/><polygon class="cls-22" points="194.91 654.47 212.12 681.05 218.57 725.5 217.36 763.65 208.29 812.23 183.69 819.12 180.74 843.21 180.74 654.47 194.91 654.47"/><rect class="cls-22" x="460" y="654.47" width="25.19" height="188.74"/><polygon class="cls-22" points="445.83 654.47 428.62 681.05 422.17 725.5 423.38 763.65 432.45 812.23 457.05 819.12 460 843.21 460 654.47 445.83 654.47"/><rect class="cls-22" x="631.59" y="763.66" width="383.62" height="48.93"/><polygon class="cls-17" points="793.26 893.04 771.13 903.88 793.26 920.96 815.38 903.88 793.26 893.04"/><polygon class="cls-17" points="659.97 893.04 637.85 903.88 659.97 920.96 682.1 903.88 659.97 893.04"/><path class="cls-25" d="M403.89,724.6h22.46a14.73,14.73,0,0,1,14.73,14.73v0a14.73,14.73,0,0,1-14.73,14.73H403.89a0,0,0,0,1,0,0V724.6A0,0,0,0,1,403.89,724.6Z" transform="translate(844.98 1478.66) rotate(-180)"/><circle class="cls-26" cx="418.62" cy="739.33" r="11.67"/><circle class="cls-25" cx="418.62" cy="739.33" r="6.5"/><rect class="cls-27" x="432.76" y="730.35" width="4.16" height="17.96" rx="2.08" ry="2.08"/><rect class="cls-24" y="968.37" width="629.1" height="38.43"/><rect class="cls-24" y="494.89" width="629.1" height="38.43"/><polygon class="cls-28" points="300.9 968.37 277.58 984.42 303.83 1006.8 254.94 1006.8 260.91 968.37 300.9 968.37"/><path class="cls-23" d="M980,335.12l-48.4-11.38s-28.22,2.88-30.65,8.64a53.46,53.46,0,0,0-2.28,7.15l-19,3.63,1.82,5.46L884,361.37l1.13,12.9-5.47,15.41-.84,16.68-7,11.77-12.33,13.31,13.26,8.75-1.53,1.43,20.48,15.47,18.2-2.27L935.67,456l17.15,10.17,25.33-3.49s4-.91,4.56-12.59,7.43-58.42,7.43-58.42V352.41ZM932.09,408a5.31,5.31,0,0,1-5.77,4.79l-8.63-.81a5.3,5.3,0,0,1-4.78-5.77l2.26-24.29a5.3,5.3,0,0,1,5.77-4.79l8.62.8a5.3,5.3,0,0,1,4.79,5.77Z"/><path class="cls-23" d="M979.73,160.3l-48.4-11.38s-28.22,2.88-30.65,8.65a51.91,51.91,0,0,0-2.27,7.14l-19,3.63,1.82,5.47,2.53,12.75,1.12,12.89-5.47,15.42-.84,16.67-7,11.78-12.34,13.31,13.27,8.74L871,266.8l20.48,15.48L909.64,280l25.79,1.22,17.14,10.16,25.34-3.49s3.94-.91,4.55-12.59,7.43-58.41,7.43-58.41v-39.3Zm-47.89,72.89a5.3,5.3,0,0,1-5.77,4.79l-8.62-.8a5.3,5.3,0,0,1-4.79-5.77l2.26-24.3a5.3,5.3,0,0,1,5.77-4.79l8.62.8a5.3,5.3,0,0,1,4.79,5.77Z"/><rect class="cls-24" x="713.32" y="394.74" width="26.58" height="5.41" rx="2.7" ry="2.7"/><rect class="cls-24" x="713.32" y="405.83" width="26.58" height="5.41" rx="2.7" ry="2.7"/><rect class="cls-24" x="713.32" y="416.93" width="26.58" height="5.41" rx="2.7" ry="2.7"/><rect class="cls-24" x="713.32" y="220.15" width="26.58" height="5.41" rx="2.7" ry="2.7"/><rect class="cls-24" x="713.32" y="231.25" width="26.58" height="5.41" rx="2.7" ry="2.7"/><rect class="cls-24" x="713.32" y="242.34" width="26.58" height="5.41" rx="2.7" ry="2.7"/><path class="cls-24" d="M806,315.06l-8.41,15.88-.11,13.64L779,393.74l-11.25,31.05L756,456.55a25.15,25.15,0,0,1-7.8,10.82h0a25.17,25.17,0,0,1-11.82,5.27l-6,1a25.15,25.15,0,0,1-9.7-.34l-4.78-1.11a25.16,25.16,0,0,1-12.13-6.73l-.59-.59a25.08,25.08,0,0,1-5.47-8.21L689.55,437l-11.5-28.5-4-13.8-6-26.11L666.6,353l-.05-26.66h-20.5V483.78l57.24,18H797l13-48,10.5-98.48V319.61Z"/><path class="cls-24" d="M806,139.59l-8.41,15.88-.11,13.64L779,218.27l-11.25,31L756,281.09a25.15,25.15,0,0,1-7.8,10.82h0a25.15,25.15,0,0,1-11.82,5.26l-6,1a25.14,25.14,0,0,1-9.7-.33l-4.78-1.11A25.32,25.32,0,0,1,703.69,290l-.59-.59a25,25,0,0,1-5.47-8.22l-8.08-19.59-11.5-28.5-4-13.8-6-26.1L666.6,177.5l-.05-26.65h-20.5V308.31l57.24,18H797l13-48,10.5-98.49V144.14Z"/><path class="cls-25" d="M321.87,714.35l14.26,1.11,20.46,3.3,8.9,21.07-5.35,22.06-37.36,10L283,761.94l-5.54-22.11,8.89-21.07,20.46-3.3,15.08-1.11m0-10.57-.79.06L306,704.94l-.46,0-.45.07-20.46,3.3-5.76.93-2.27,5.38-8.89,21.08L266.36,739l.85,3.42,5.55,22.1,1.53,6.14,6.14,1.53,39.8,9.91,2.64.66,2.63-.7,37.36-10,6.05-1.61,1.47-6.09,5.35-22,.82-3.38-1.35-3.2-8.9-21.08L364,709.28l-5.76-.93-20.46-3.3-.43-.07-.43,0-14.26-1.11-.8-.06Z"/><rect class="cls-29" x="992" width="32" height="32"/></g></g></g></svg>