<svg xmlns="http://www.w3.org/2000/svg" xmlns:xlink="http://www.w3.org/1999/xlink" viewBox="0 0 1024 1024"><defs><style>.cls-1{isolation:isolate;}.cls-2{fill:#fff;}.cls-3{fill:#f7b889;}.cls-4{fill:#f8c79d;}.cls-5{opacity:0.1;mix-blend-mode:multiply;fill:url(#linear-gradient);}.cls-13,.cls-6{opacity:0.15;mix-blend-mode:overlay;}.cls-6{fill:url(#linear-gradient-2);}.cls-7{fill:#eb986d;}.cls-8{fill:red;}.cls-9{fill:#aa1f4a;}.cls-10{fill:#2d8e5d;}.cls-11{fill:#141414;}.cls-12{fill:#167563;}.cls-14{fill:#f69878;}.cls-15{fill:#f37b67;opacity:0.5;}.cls-16{fill:#202020;}.cls-17{fill:#7c8d9c;}.cls-18{fill:#d3eef4;}.cls-19{fill:#373737;}.cls-20{fill:#f6a563;}.cls-21{fill:url(#linear-gradient-3);}.cls-22{fill:#1a1a1a;}.cls-23{fill:#252525;}.cls-24{fill:#1f1f1f;}.cls-25{fill:#f99d28;}.cls-26{fill:#fbb03b;}.cls-27{fill:#ccdde7;}.cls-28{fill:url(#linear-gradient-4);}.cls-29{opacity:0.95;}.cls-30{fill:#b7815d;}.cls-31{fill:lime;}.cls-32{fill:#220f0f;}.cls-33{fill:#f45151;}.cls-34{fill:#e2472b;}.cls-35{fill:blue;}</style><linearGradient id="linear-gradient" x1="321.5" y1="490" x2="321.5" y2="187.52" gradientUnits="userSpaceOnUse"><stop offset="0" stop-color="#f69878"/><stop offset="1" stop-color="#f69878" stop-opacity="0"/></linearGradient><linearGradient id="linear-gradient-2" x1="321.68" y1="286" x2="321.68" y2="431.12" gradientUnits="userSpaceOnUse"><stop offset="0"/><stop offset="1" stop-opacity="0"/></linearGradient><linearGradient id="linear-gradient-3" x1="271.06" y1="741.83" x2="199.38" y2="741.83" xlink:href="#linear-gradient-2"/><linearGradient id="linear-gradient-4" x1="364.96" y1="741.83" x2="441.39" y2="741.83" xlink:href="#linear-gradient-2"/></defs><title>racerGreenFemale</title><g class="cls-1"><g id="Layer_2" data-name="Layer 2"><g id="Layer_1-2" data-name="Layer 1"><rect class="cls-2" width="1024" height="1024"/><rect class="cls-3" x="624" y="524" width="400" height="240"/><rect class="cls-4" width="643" height="490"/><rect class="cls-5" y="139.59" width="643" height="350.41"/><rect class="cls-4" x="824" y="134" width="200" height="390"/><path class="cls-6" d="M366,299h0a89.81,89.81,0,0,0-19.13,2.07h0a89.33,89.33,0,0,1-19.14,2.07H315.59a89.26,89.26,0,0,1-19.14-2.07h0A89.81,89.81,0,0,0,277.32,299h0a43.74,43.74,0,0,0-33,15c-6.51,7.48-12.32,16.72-11.37,25.21l15.3,137,71.88,5.58,1.52-2.82,1.52,2.82,71.87-5.58,15.31-137c.95-8.49-4.86-17.73-11.38-25.21A43.71,43.71,0,0,0,366,299Z"/><path class="cls-7" d="M442.55,216.37h8.29a18.41,18.41,0,0,1,18.41,18.41v1.43a18.41,18.41,0,0,1-18.41,18.41h-8.29a0,0,0,0,1,0,0V216.37A0,0,0,0,1,442.55,216.37Z"/><path class="cls-4" d="M437.85,216.37h8.29a18.41,18.41,0,0,1,18.41,18.41v1.43a18.41,18.41,0,0,1-18.41,18.41h-8.29a0,0,0,0,1,0,0V216.37A0,0,0,0,1,437.85,216.37Z"/><ellipse class="cls-7" cx="451.21" cy="235.5" rx="7.93" ry="4.4" transform="translate(132.36 632.21) rotate(-78.77)"/><path class="cls-7" d="M173.56,216.37h8.29a18.41,18.41,0,0,1,18.41,18.41v1.43a18.41,18.41,0,0,1-18.41,18.41h-8.29a0,0,0,0,1,0,0V216.37A0,0,0,0,1,173.56,216.37Z" transform="translate(373.83 471) rotate(-180)"/><path class="cls-4" d="M178.26,216.37h8.29A18.41,18.41,0,0,1,205,234.78v1.43a18.41,18.41,0,0,1-18.41,18.41h-8.29a0,0,0,0,1,0,0V216.37A0,0,0,0,1,178.26,216.37Z" transform="translate(383.22 471) rotate(-180)"/><ellipse class="cls-7" cx="191.61" cy="235.5" rx="4.4" ry="7.93" transform="translate(-42.19 41.82) rotate(-11.23)"/><polygon class="cls-4" points="579.88 654.47 544.43 654.47 491.56 654.47 460 654.47 460 654.47 445.83 654.47 428.62 681.05 422.17 725.5 423.38 763.65 432.45 812.23 457.05 819.12 460 823.21 460 823.21 491.56 823.21 544.43 823.21 579.88 823.21 615.98 823.21 615.98 654.47 579.88 654.47"/><polygon class="cls-4" points="194.91 654.47 180.74 654.47 180.74 654.47 149.18 654.47 96.31 654.47 60.86 654.47 24.76 654.47 24.76 823.21 60.86 823.21 96.31 823.21 149.18 823.21 180.74 823.21 180.74 823.21 183.69 819.12 208.29 812.23 217.36 763.65 218.57 725.5 212.12 681.05 194.91 654.47"/><rect class="cls-4" x="624" y="864.49" width="400" height="159.51"/><rect class="cls-8" x="992" width="32" height="32"/><ellipse class="cls-4" cx="320.36" cy="746.08" rx="73.24" ry="132.26"/><rect class="cls-9" x="5.44" y="494.89" width="614.17" height="515.27"/><rect class="cls-10" x="629.1" y="767.18" width="394.9" height="246.93"/><rect class="cls-11" x="631.59" y="987.53" width="383.62" height="36.47"/><rect class="cls-12" x="631.59" y="987.53" width="383.62" height="6.96"/><g class="cls-13"><rect x="164.96" y="654.47" width="7.84" height="188.74" transform="translate(337.77 1497.67) rotate(-180)"/><rect x="467.85" y="654.47" width="7.84" height="188.74" transform="translate(943.55 1497.67) rotate(-180)"/></g><path class="cls-14" d="M366.51,745.37c0,31.64-20.33,85.91-45.4,85.91S275.7,777,275.7,745.37,296,717,321.11,717,366.51,713.74,366.51,745.37Z"/><path class="cls-15" d="M364.05,767.18c-6.13,29.92-23,64.1-42.94,64.1s-36.82-34.18-42.95-64.1c7.67,27.58,24,55.75,42.95,55.75S356.38,794.76,364.05,767.18Z"/><rect class="cls-10" x="5.44" y="507.74" width="614.17" height="489.56"/><rect class="cls-16" x="705.4" y="548.73" width="285.42" height="178.39"/><rect class="cls-11" x="826.55" y="153.03" width="182.54" height="361.07"/><rect class="cls-17" x="656" y="34.77" width="316.94" height="92.48"/><rect class="cls-12" x="9.43" y="432.44" width="622.16" height="49.42"/><rect class="cls-10" x="9.43" y="432.44" width="622.16" height="4.64"/><rect class="cls-10" x="293.24" y="442.33" width="59.86" height="28.08" rx="2.43" ry="2.43"/><rect class="cls-18" x="268.16" y="447.02" width="46.4" height="18.71" rx="4.45" ry="4.45"/><rect class="cls-12" x="271.77" y="450.32" width="39.18" height="12.1" rx="1.92" ry="1.92"/><rect class="cls-11" x="643" y="145.1" width="175.65" height="366.9"/><rect class="cls-19" x="697.98" y="376.04" width="56.45" height="27.03" rx="9.24" ry="9.24"/><rect class="cls-19" x="697.98" y="200.52" width="56.45" height="27.03" rx="9.24" ry="9.24"/><path class="cls-20" d="M703.84,500.28l-59.29-19V324.8h18.5L663.1,353c0,.11,0,.21,0,.32L664.54,369a3.85,3.85,0,0,0,.08.47l6,26.1a1.05,1.05,0,0,0,.05.19l4,13.8c0,.11.07.23.11.34l11.5,28.5L694.39,458a28.55,28.55,0,0,0,6.24,9.36l.59.59A28.61,28.61,0,0,0,715,475.57l4.78,1.11a28.41,28.41,0,0,0,6.49.75,28.89,28.89,0,0,0,4.55-.37l6-1a28.71,28.71,0,0,0,22.35-18.33L771.06,426l11.26-31.08,18.46-49.12a3.55,3.55,0,0,0,.23-1.2l.11-13.64v-.16l-.43-11.6L821,322.58V355l-14.44,98-12.27,47.19Z"/><path class="cls-11" d="M804.34,323.36l13.19,2.19v29.24l-14.37,97.6-11.54,44.39H704.39l-56.34-18.1V328.31h11.51l0,24.67c0,.21,0,.41,0,.62l1.43,15.67a7.21,7.21,0,0,0,.15.93l6,26.11.09.38,4,13.8c.07.22.15.45.24.67l11.49,28.5,0,0,8.08,19.59a32,32,0,0,0,7,10.49l.58.59a32.12,32.12,0,0,0,15.5,8.6l4.78,1.11a31.89,31.89,0,0,0,7.28.84,32.31,32.31,0,0,0,5.11-.41l6-1A32.21,32.21,0,0,0,762.51,459l11.83-31.77,0-.06,11.23-31L804.06,347a7,7,0,0,0,.45-2.4l.11-13.64v-.32l-.28-7.32m-7.31-8.3.59,15.88-.11,13.64L779,393.74l-11.25,31.05L756,456.55a25.23,25.23,0,0,1-19.62,16.09l-6,1a25.49,25.49,0,0,1-4,.32,25,25,0,0,1-5.7-.66l-4.78-1.11a25.16,25.16,0,0,1-12.13-6.73l-.59-.59a25.08,25.08,0,0,1-5.47-8.21L689.55,437l-11.5-28.5-4-13.8-6-26.11L666.6,353l-.05-31.66h-25.5V483.78l62.24,20H797l13-50,14.5-98.48V319.61L797,315.06Z"/><path class="cls-20" d="M703.84,324.81l-59.29-19.05V145.34h18.5l.05,32.16c0,.11,0,.21,0,.32l1.43,15.67a3.69,3.69,0,0,0,.08.46l6,26.11a1.8,1.8,0,0,0,.05.19l4,13.79a3.38,3.38,0,0,0,.11.34l11.5,28.5,8.09,19.62a28.61,28.61,0,0,0,6.24,9.35l.59.59A28.71,28.71,0,0,0,715,300.11l4.78,1.11a28.87,28.87,0,0,0,11,.38l6-1a28.72,28.72,0,0,0,22.35-18.32l11.83-31.77,11.26-31.08,18.7-49.1a3.61,3.61,0,0,0,.22-1.22l.12-13.64a1.48,1.48,0,0,0,0-.21l-.6-11.54L821,147.11v32.47l-14.44,98-12.27,47.19Z"/><path class="cls-11" d="M804.47,147.92l13.06,2.16v29.24l-14.37,97.6-11.54,44.39H704.39l-56.34-18.1V148.84h11.51l0,28.67q0,.31,0,.63l1.43,15.66a7.36,7.36,0,0,0,.15.94l6,26.1.09.38,4,13.8c.07.23.15.45.24.67l11.49,28.5,0,.05,8.08,19.59a32.08,32.08,0,0,0,7,10.5l.58.59a32.28,32.28,0,0,0,15.5,8.6l4.78,1.11a32.22,32.22,0,0,0,12.39.42l6-1a32.2,32.2,0,0,0,25.07-20.56l11.83-31.76,0-.06,11.22-31,18.7-49.11a7,7,0,0,0,.45-2.43l.12-13.64c0-.14,0-.28,0-.42l-.38-7.19M797,139.59l.83,15.88-.12,13.64L779,218.27l-11.25,31L756,281.09a25.15,25.15,0,0,1-7.8,10.82h0a25.15,25.15,0,0,1-11.82,5.26l-6,1a25.25,25.25,0,0,1-9.7-.33l-4.78-1.11A25.32,25.32,0,0,1,703.69,290l-.59-.59a25,25,0,0,1-5.47-8.22l-8.08-19.59-11.5-28.5-4-13.8-6-26.1L666.6,177.5l-.05-35.65h-25.5V308.31l62.24,20H797l13-50,14.5-98.49V144.14L797,139.59Z"/><polygon class="cls-12" points="614.28 654.21 459.65 654.21 459.65 654.47 445.83 654.47 428.62 681.05 422.17 725.5 423.38 763.65 432.45 812.23 457.05 819.12 460 843.21 460 843.21 485.19 843.21 485.19 828.99 614.28 828.99 614.28 654.21"/><rect class="cls-12" x="267.94" y="804.02" width="27.27" height="15.91"/><rect class="cls-12" x="267.94" y="824.12" width="27.27" height="15.91"/><polygon class="cls-12" points="212.12 681.05 194.91 654.47 180.74 654.47 180.74 654.47 179.38 654.47 179.38 654.21 24.76 654.21 24.76 828.99 155.55 828.99 155.55 843.21 180.74 843.21 180.74 843.21 183.69 819.12 208.29 812.23 217.36 763.65 218.57 725.5 212.12 681.05"/><rect class="cls-12" x="316.99" y="758.52" width="4.12" height="209.85"/><rect class="cls-12" x="281.99" y="545.38" width="78.37" height="23.74" rx="6.41" ry="6.41"/><rect class="cls-12" x="5.44" y="494.89" width="614.17" height="12.85"/><rect class="cls-12" x="5.44" y="997.3" width="614.17" height="12.86"/><polygon class="cls-21" points="218.57 725.5 217.36 763.65 214 781.65 199.65 743.38 215.16 702.01 218.57 725.5"/><rect class="cls-2" x="281.99" y="581.96" width="78.37" height="84.47" rx="9.59" ry="9.59"/><path class="cls-22" d="M351.87,646.86,322,648.23l-.07-22.44,18.82-.75-.26-2.53-18,1.67L323.52,614l28,.07-.12,21L331,634.37l1.14,4.45,17.45-.73Z"/><path class="cls-22" d="M294.68,626.05l-.05-11.94L304,614l-1.34,12.53,15.15-.71,1.68,20.57-11.78,1.37-.14-12.16-4.49-.07-.76,11.07-7.8.75-.31-11.11-4.08.92L289.24,626Z"/><rect class="cls-22" x="292.05" y="596.73" width="57.02" height="6.11"/><rect class="cls-23" x="594.67" y="650.26" width="19.61" height="178.73"/><rect class="cls-23" x="24.76" y="650.26" width="22.05" height="178.73"/><path class="cls-24" d="M401.87,727.12H422.5a16.33,16.33,0,0,1,16.33,16.33v0a16.33,16.33,0,0,1-16.33,16.33H401.87a0,0,0,0,1,0,0V727.12A0,0,0,0,1,401.87,727.12Z"/><circle class="cls-24" cx="418.2" cy="743.45" r="12.94"/><path class="cls-25" d="M418.2,736.24v14.42a7.21,7.21,0,1,0,0-14.42Z"/><rect class="cls-24" x="444.65" y="727.12" width="11.64" height="32.52"/><rect class="cls-26" x="447.45" y="731.97" width="6.04" height="22.82" rx="2.71" ry="2.71"/><rect class="cls-2" x="350.84" y="823.09" width="28.12" height="30.31" rx="3.44" ry="3.44" transform="translate(796.01 1644.45) rotate(175.39)"/><path class="cls-22" d="M353.24,831.44l10.68-1.35.67,8-6.72.81.17.9,6.41-1.12-.1,3.69-10,.79-.57-7.55,7.33-.33-.54-1.56-6.23.76Z"/><path class="cls-22" d="M374.34,837.25l.36,4.28-3.37.31.12-4.53L366,838l-1.2-7.32,4.19-.83.4,4.35,1.61-.11-.05-4,2.78-.5.43,4,1.44-.45.65,4Z"/><rect class="cls-22" x="355.6" y="845.19" width="20.46" height="3.52" transform="translate(798.55 1661.77) rotate(175.39)"/><path class="cls-24" d="M375.23,805.25a2.71,2.71,0,0,0,2.3-3.06l0-.29-.93-6.54,0-.29a2.71,2.71,0,0,0-3.06-2.3l-.29,0-16.93,2.41h0l-3,.43-7,1-.29,0a2.69,2.69,0,0,0-2.29,3.06l0,.29.93,6.54,0,.29a2.7,2.7,0,0,0,3.06,2.29l.29,0,6.43-.91h0l2.82-.4.75-.11h0l16.93-2.41Z"/><path class="cls-26" d="M348.53,807l-1.38-7.73,3.72-.92,3.94,2.9.4,4.58Zm1.8-2.51,2.65-.55-.54-.92-2.4-2.23Z"/><path class="cls-26" d="M357.38,797.49l1.43,8.23-2.16.34-1.77-8.25Z"/><path class="cls-26" d="M361.5,802.91l.55,2-2.68.61-1.16-8.19,7.44-.84.34,5.46-1.52.3,2.78,1.79-3.1.85Zm-.55-3.62.27.87,2.54-.21-.52-.73Z"/><path class="cls-26" d="M371.2,797.82l.65,5.57-2.2.42-.65-5.69-2.63.21-.29-2,7.3-1.56.25,2.58Z"/><rect class="cls-24" x="279.9" y="874.42" width="82.84" height="37.41" rx="5.19" ry="5.19"/><path class="cls-2" d="M356.74,878.75a1.33,1.33,0,0,1,1.32,1.32v26.1a1.32,1.32,0,0,1-1.32,1.32H285.89a1.32,1.32,0,0,1-1.32-1.32v-26.1a1.33,1.33,0,0,1,1.32-1.32h70.85m0-2.52H285.89a3.84,3.84,0,0,0-3.85,3.84v26.1a3.85,3.85,0,0,0,3.85,3.85h70.85a3.86,3.86,0,0,0,3.85-3.85v-26.1a3.85,3.85,0,0,0-3.85-3.84Z"/><rect class="cls-26" x="311.02" y="899.94" width="40.8" height="2.11"/><path class="cls-2" d="M313.32,894.28l.19,2.75-2.89-.19.16-8.83,7.13.57.47,5.74-2.32-.24,2.34,1.57-2.09,2Zm.05-3.86-.09,1.59,2.5-.25-.22-1Z"/><path class="cls-2" d="M321.45,895.73l.43,1.27-2.82,0-.06-8.9,7.17.06.28,8.34-2.63.4.19-1.12Zm2.32-2.84,0-2.24-2-.25,0,2.61Z"/><path class="cls-2" d="M327.06,896.64l.23-8.45,2.57,0v5.93l4.39-.52.6,2.95Z"/><path class="cls-2" d="M335.47,896.64l.23-8.45,2.57,0v5.93l4.39-.52.6,2.95Z"/><path class="cls-2" d="M349.16,894l-.06-.48-4.65.28-.58-5.66,2.68-.13.15,3.41,2.43.11V888.1l2.28.24.09,8.52-7.6-.07.09-2.22Z"/><rect class="cls-26" x="311.02" y="882.81" width="40.8" height="2.11"/><rect class="cls-26" x="287.86" y="882.81" width="19.23" height="19.23" rx="2.92" ry="2.92"/><path class="cls-24" d="M305.42,895h0a8.34,8.34,0,0,1-7.94,5.77h0a8.34,8.34,0,0,1-7.94-5.77h0a8.33,8.33,0,0,1,3-9.33h0a8.38,8.38,0,0,1,9.82,0h0A8.33,8.33,0,0,1,305.42,895Z"/><path class="cls-2" d="M298.82,888.12l.46,2,2-.22a1.37,1.37,0,0,1,.89,2.53l-1.77,1.12.79,1.81A1.38,1.38,0,0,1,299,897l-1.55-1.31L295.92,897a1.38,1.38,0,0,1-2.15-1.61l.8-1.81-1.78-1.12a1.38,1.38,0,0,1,.89-2.53l2,.22.45-2A1.38,1.38,0,0,1,298.82,888.12Z"/><path class="cls-27" d="M315.36,773.35l-5.37,4a2.31,2.31,0,0,0-.18,3.54l2.81,2.58a2.31,2.31,0,0,0,3.71-.86l2.55-6.61A2.3,2.3,0,0,0,315.36,773.35Z"/><rect class="cls-26" x="407" y="731.97" width="22.97" height="22.97" rx="3.48" ry="3.48" transform="translate(-324.97 1161.94) rotate(-90)"/><path d="M421.57,734h0a10,10,0,0,1,6.89,9.48h0a10,10,0,0,1-6.89,9.48h0a10,10,0,0,1-11.15-3.62h0a10,10,0,0,1,0-11.71h0A10,10,0,0,1,421.57,734Z"/><path class="cls-2" d="M413.34,741.85l2.43-.54-.28-2.39a1.65,1.65,0,0,1,3-1.06l1.33,2.12,2.17-1a1.65,1.65,0,0,1,1.92,2.57l-1.56,1.86,1.56,1.85a1.65,1.65,0,0,1-1.92,2.57l-2.17-1-1.33,2.12a1.65,1.65,0,0,1-3-1.06l.28-2.39-2.43-.54A1.64,1.64,0,0,1,413.34,741.85Z"/><polygon class="cls-28" points="441.09 743.38 426.74 781.65 423.38 763.65 422.17 725.5 425.58 702.01 441.09 743.38"/><path class="cls-2" d="M329.69,555.4l-.19-2.75,2.89.19-.16,8.83-7.13-.57-.47-5.74,2.32.24L324.61,554l2.09-2Zm0,3.86.08-1.59-2.5.25.23,1Z"/><path class="cls-2" d="M321.57,554l-.44-1.28,2.82,0,.06,8.91-7.17-.06-.28-8.34,2.63-.4-.19,1.12Zm-2.33,2.84V559l2,.26,0-2.61Z"/><path class="cls-2" d="M316,553l-.23,8.45-2.57,0v-5.93l-4.39.52-.6-3Z"/><path class="cls-2" d="M307.55,553l-.23,8.45-2.57,0,0-5.93-4.39.52-.6-3Z"/><path class="cls-2" d="M293.85,555.64l.06.47,4.66-.27.57,5.66-2.68.13-.14-3.41-2.44-.12v3.48l-2.28-.24-.09-8.52,7.6.07-.09,2.22Z"/><path class="cls-24" d="M337.59,554.66h0a8.34,8.34,0,0,1,7.94-5.76h0a8.35,8.35,0,0,1,7.94,5.76h0a8.34,8.34,0,0,1-3,9.34h0a8.33,8.33,0,0,1-9.81,0h0A8.35,8.35,0,0,1,337.59,554.66Z"/><path class="cls-2" d="M344.19,561.55l-.46-2-2,.23a1.38,1.38,0,0,1-.89-2.54l1.77-1.11-.79-1.81a1.38,1.38,0,0,1,2.15-1.61l1.55,1.31,1.56-1.31a1.38,1.38,0,0,1,2.15,1.61l-.79,1.81,1.77,1.11a1.38,1.38,0,0,1-.89,2.54l-2-.23-.45,2A1.38,1.38,0,0,1,344.19,561.55Z"/><path class="cls-24" d="M639.16,895.7a2.7,2.7,0,0,0,2.72,2.68h.3l6.6,0h.3a2.72,2.72,0,0,0,2.68-2.73v-.29l-.14-17.1h0l0-3-.06-7.11v-.29a2.69,2.69,0,0,0-2.73-2.68h-.29l-6.6,0h-.3a2.7,2.7,0,0,0-2.68,2.73v.29l0,6.5h0l0,2.84v.77h0l.14,17.1Z"/><path class="cls-26" d="M641,869l7.85-.34.41,3.81-3.4,3.52-4.6-.22Zm2.24,2.12.2,2.69,1-.4,2.52-2.09Z"/><path class="cls-26" d="M649.23,879l-8.35.33,0-2.19,8.42-.66Z"/><path class="cls-26" d="M643.32,882.4l-2,.29L641,880l8.27-.06-.16,7.49L643.7,887l-.09-1.55L641.46,888l-.43-3.19Zm3.66-.06-.9.15L646,885l.79-.42Z"/><path class="cls-26" d="M647.07,892.69l-5.61-.09-.12-2.23,5.73.1.14-2.63h2l.57,7.43-2.59-.09Z"/><path class="cls-24" d="M811.72,867.81a2.69,2.69,0,0,0-2.73-2.68h-.29l-6.6,0h-.3a2.7,2.7,0,0,0-2.68,2.73v.29l.14,17.1h0l0,3,.06,7.11v.29a2.7,2.7,0,0,0,2.73,2.68h.29l6.6,0h.3a2.72,2.72,0,0,0,2.68-2.73v-.29l-.05-6.5h0l0-2.84v-.77h0l-.14-17.1Z"/><path class="cls-26" d="M809.89,894.5l-7.85.34-.41-3.81,3.4-3.52,4.6.22Zm-2.24-2.12-.2-2.69-1,.4-2.52,2.09Z"/><path class="cls-26" d="M801.65,884.47l8.34-.33.06,2.19-8.42.66Z"/><path class="cls-26" d="M807.56,881.11l2-.29.25,2.74-8.27.06.16-7.49,5.45.39.09,1.55,2.15-2.52.43,3.19Zm-3.66.06.9-.15.13-2.55-.79.42Z"/><path class="cls-26" d="M803.81,870.81l5.61.1.12,2.23-5.73-.1-.14,2.63h-2l-.57-7.43,2.59.09Z"/><path class="cls-24" d="M248.23,466.17a4.31,4.31,0,0,0,4.27-4.34v-.48l-.08-10.5v-.48a4.31,4.31,0,0,0-4.34-4.27h-.47l-27.23.21h0l-4.78,0-11.31.09h-.47a4.31,4.31,0,0,0-4.27,4.34v.48l.09,10.51v.47a4.31,4.31,0,0,0,4.34,4.27h.47l10.35-.08h0l4.52,0h1.22l27.23-.22Z"/><path class="cls-26" d="M205.66,463.22l-.53-12.5,6.06-.65,5.61,5.41-.35,7.32Zm3.38-3.57,4.29-.31-.64-1.58-3.32-4Z"/><path class="cls-26" d="M221.65,450.1l.52,13.29-3.49.08-1.05-13.4Z"/><path class="cls-26" d="M227,459.51l.46,3.24-4.36.4L223,450l11.92.25-.62,8.69-2.47.14,4,3.43-5.08.68Zm-.1-5.83.24,1.44,4.06.2-.67-1.26Z"/><path class="cls-26" d="M243.39,453.54l-.16,8.93-3.55.19.17-9.12-4.19-.23,0-3.22,11.83-.9-.15,4.12Z"/><rect class="cls-12" x="626.62" y="780.48" width="386.38" height="12.89"/><g class="cls-29"><path class="cls-30" d="M635.24,979.15l8.75-8.23a2.13,2.13,0,0,1,2.81-.11l2.83,2.29a2.13,2.13,0,0,0,2.94-.24l8.1-9.19a2.14,2.14,0,0,1,2.56-.5l6.89,3.44a2.12,2.12,0,0,0,2.52-.46l9.18-9.94a2.14,2.14,0,0,0,.36-2.36l-4-8.57a2.14,2.14,0,0,1,.18-2.14l6.21-8.82a2.14,2.14,0,0,1,3.48,0l6.55,9a2.14,2.14,0,0,1,.32,1.88L692,954.76a2.15,2.15,0,0,0,.08,1.48l4.21,9.69a1.87,1.87,0,0,0,.22.39l8.45,11.93a2.15,2.15,0,0,0,1.75.9H750.4a2.11,2.11,0,0,0,1.26-.41l5.53-4a2.13,2.13,0,0,1,2.69.14l3.43,3.1a2.13,2.13,0,0,0,2.75.1l4.45-3.5a2.14,2.14,0,0,0,0-3.4l-6.63-4.91a2.14,2.14,0,0,1-.44-3l3.62-4.85a2.13,2.13,0,0,1,3.11-.34l3.39,2.92a2.15,2.15,0,0,0,2.77,0l5.41-4.54a2.12,2.12,0,0,1,2.37-.24l5.54,2.95a2.14,2.14,0,0,1,.91,2.84l-2.76,5.51a2.13,2.13,0,0,0,.9,2.83l3.62,1.95a2.14,2.14,0,0,0,3-1l4.1-9.41a2.12,2.12,0,0,0-.26-2.14l-5.46-7.24a2.14,2.14,0,0,1,.82-3.24l9.35-4.21a2.13,2.13,0,0,1,2.81,1l3.22,6.81a2.26,2.26,0,0,1,.19.72l1.54,16.71a2.15,2.15,0,0,1-.05.67l-1.11,4.91a2.14,2.14,0,0,0,1.35,2.47l1.81.67a2.3,2.3,0,0,0,.74.13h13.52a2.18,2.18,0,0,0,1.4-.52l4.29-3.71a2.14,2.14,0,0,1,2.85.05l1.82,1.68a2.1,2.1,0,0,1,.65,1.18l.92,4.94a2.13,2.13,0,0,0,2.53,1.71l4.51-.93a2.14,2.14,0,0,0,1.71-2.1v-4.07a2.12,2.12,0,0,1,.92-1.75l4.79-3.34a2.12,2.12,0,0,0,.92-1.75v-9.08a2.12,2.12,0,0,1,1.89-2.12l6.82-.78a2.12,2.12,0,0,1,2.08,1l3.29,5.51a2.12,2.12,0,0,0,1.83,1h1.43a2.14,2.14,0,0,0,2.07-1.64l1.64-6.81a2.16,2.16,0,0,0-.55-2l-7.71-7.83a2.09,2.09,0,0,0-1.67-.63l-9.78.66a2.13,2.13,0,0,1-2.25-1.76L853,939a2.14,2.14,0,0,1,2.07-2.5l11.36-.23a2.15,2.15,0,0,1,1.47.55l10.46,9.39a2.68,2.68,0,0,1,.28.3l7.07,9.31a2.16,2.16,0,0,1,.39,1.72l-2.63,12.76a2.84,2.84,0,0,1-.17.49l-2.44,5.1a2.14,2.14,0,0,0,.34,2.35l5.69,6.3a2.14,2.14,0,0,0,3,.17l5.59-5a2.11,2.11,0,0,1,1.42-.54h45.49a2.14,2.14,0,0,0,1.6-.72l5.06-5.7a2.14,2.14,0,0,1,2.75-.38l5.25,3.36a2.16,2.16,0,0,1,.68.7l3.34,5.57a2.15,2.15,0,0,1-.11,2.36l-.49.66a2.14,2.14,0,0,0,1.19,3.33l8.91,2.34a2.14,2.14,0,0,0,2.18-.69l3.25-3.85a2.16,2.16,0,0,0,.39-2.07l-3.26-9.52a2.36,2.36,0,0,1-.11-.6l-.5-11.07a2.14,2.14,0,0,1,1.22-2L981,957.4a2.13,2.13,0,0,1,2.78.89l2.42,4.37a2.07,2.07,0,0,1,.24,1.36L985,973.51a2.1,2.1,0,0,0,.25,1.39l2.6,4.61a2.14,2.14,0,0,0,2.32,1l6.64-1.45a2.15,2.15,0,0,0,1.48-1.19h0a2.14,2.14,0,0,1,3.45-.62l.67.67a2.13,2.13,0,0,0,1.51.62h15v42.37H631.59V979.73Z"/><path class="cls-30" d="M616,655V817.64H574.76l-.57-3.65L566,805.24a2.14,2.14,0,0,1-.1-2.81l2.29-2.83a2.13,2.13,0,0,0-.25-2.94l-9.18-8.1a2.13,2.13,0,0,1-.5-2.56l3.44-6.89a2.12,2.12,0,0,0-.46-2.52l-10-9.18a2.14,2.14,0,0,0-2.36-.36l-8.56,4a2.14,2.14,0,0,1-2.14-.18l-8.82-6.21a2.14,2.14,0,0,1,0-3.48l9-6.55a2.15,2.15,0,0,1,1.87-.32l9.59,2.92a2.15,2.15,0,0,0,1.48-.08L561,753a1.79,1.79,0,0,0,.38-.22l11.94-8.45a2.15,2.15,0,0,0,.9-1.75V729.83a2.2,2.2,0,0,0-.41-1.26l-4-5.53a2.13,2.13,0,0,1,.14-2.69l3.1-3.43a2.12,2.12,0,0,0,.09-2.75l-3.49-4.45a2.13,2.13,0,0,0-3.4,0l-4.91,6.62a2.14,2.14,0,0,1-3,.44l-4.86-3.62a2.14,2.14,0,0,1-.34-3.11l2.93-3.39a2.15,2.15,0,0,0,0-2.77l-4.54-5.4a2.14,2.14,0,0,1-.25-2.38l3-5.54a2.13,2.13,0,0,1,2.84-.9l5.5,2.75a2.13,2.13,0,0,0,2.84-.9l2-3.62a2.13,2.13,0,0,0-1-3l-9.4-4.11a2.14,2.14,0,0,0-2.14.26l-7.25,5.47a2.14,2.14,0,0,1-3.23-.83l-4.21-9.35a2.13,2.13,0,0,1,1-2.81l6.82-3.22a2.2,2.2,0,0,1,.71-.19l16.72-1.54a2.17,2.17,0,0,1,.67.05l4.9,1.11a2.13,2.13,0,0,0,2.48-1.35l.67-1.81a2.24,2.24,0,0,0,.13-.73V655Z"/><path class="cls-30" d="M669.43,947.5l.57,3.77a2.59,2.59,0,0,1-1.84,2.89l-1.86.54a2.6,2.6,0,0,1-3.13-1.52l-1-2.51a2.6,2.6,0,0,1,.81-3l2.29-1.8a2.63,2.63,0,0,1,3.66.44h0A2.65,2.65,0,0,1,669.43,947.5Z"/><path class="cls-30" d="M767.27,935.46l7.07.53a4.84,4.84,0,0,1,4.48,4.55l.2,3.58a4.84,4.84,0,0,1-4.06,5.06l-5,.8a4.83,4.83,0,0,1-5.16-2.72l-2.31-4.91a4.84,4.84,0,0,1,2.31-6.44h0A4.86,4.86,0,0,1,767.27,935.46Z"/><path class="cls-30" d="M794.43,932.83l-3.64,1.24a2.63,2.63,0,0,0-1.73,3l.38,1.91a2.62,2.62,0,0,0,2.82,2.1l2.72-.25a2.63,2.63,0,0,0,2.34-2.13l.54-2.9a2.63,2.63,0,0,0-2.09-3.07h0A2.65,2.65,0,0,0,794.43,932.83Z"/><path class="cls-30" d="M879.56,937.56,882,940a1.53,1.53,0,0,0,2.23-.09l2.81-3.25a1.53,1.53,0,0,0-1.41-2.51l-5.23.86A1.53,1.53,0,0,0,879.56,937.56Z"/><path class="cls-30" d="M949.81,950.21l-2.32.79a3.06,3.06,0,0,0-1.76,4.25L947.6,959a3.07,3.07,0,0,0,3.77,1.53l.69-.25a3.07,3.07,0,0,1,3.9,1.83l1.62,4.42a3.1,3.1,0,0,1,.18,1.35h0a3.05,3.05,0,0,0,2.94,3.36l1.2,0a3,3,0,0,0,3.15-2.83l.13-1.81a12.59,12.59,0,0,0-5.61-11.4L957.66,954l-5.16-3.45A3.05,3.05,0,0,0,949.81,950.21Z"/><path class="cls-30" d="M994.12,960.79l-3.12,4.9a1.43,1.43,0,0,0,.24,1.82L994,970a1.43,1.43,0,0,0,2-.08l1.4-1.53a1.42,1.42,0,0,0-.75-2.35h0a1.42,1.42,0,0,1-.94-2.1l1-1.71a1.42,1.42,0,0,0-1.58-2.08l-.12,0A1.46,1.46,0,0,0,994.12,960.79Z"/><path class="cls-30" d="M780.63,815.84l-8.06,11.83a5.31,5.31,0,0,0,0,6l3.24,4.79a5.29,5.29,0,0,0,7.72,1.16h0a5.3,5.3,0,0,1,8.22,2.07l.73,1.73a5.25,5.25,0,0,1-.24,4.59l-3.56,6.5a5.3,5.3,0,0,0,6.42,7.54l11.38-4a5.31,5.31,0,0,0,3.53-5V833.81a5.24,5.24,0,0,0-.2-1.42l-5.47-19.59a5.29,5.29,0,0,0-6.73-3.61l-14.22,4.59A5.29,5.29,0,0,0,780.63,815.84Z"/><path class="cls-30" d="M658.22,815.66v14.86a4.47,4.47,0,0,0,2.72,4.11l5,2.14a22.86,22.86,0,0,0,14.93,1l7-1.9a10.2,10.2,0,0,0,7.5-9.84h0a10.2,10.2,0,0,0-5.47-9l-1.06-.55a10.21,10.21,0,0,0-9.14-.16l-4.36,2.1A4.48,4.48,0,0,1,670,817.3l-4-4.57a4.47,4.47,0,0,0-6.84.12h0A4.43,4.43,0,0,0,658.22,815.66Z"/><path class="cls-30" d="M673.09,814.21h0a2.05,2.05,0,0,0,2.32.17l3.2-1.89a2,2,0,0,0,.16-3.41l-1-.72a2,2,0,0,0-2.75.34l-2.2,2.61A2,2,0,0,0,673.09,814.21Z"/><path class="cls-30" d="M663.64,841.67,668,843.2a3.39,3.39,0,0,1,1.58,5.24l-2.16,2.87a3.39,3.39,0,0,1-4.61.76l-3.14-2.14a3.38,3.38,0,0,1-1.22-4.12l1-2.26A3.38,3.38,0,0,1,663.64,841.67Z"/><path class="cls-30" d="M848.08,860.29l9.77,3.46a7.63,7.63,0,0,1,3.56,11.78L856.56,882a7.63,7.63,0,0,1-10.4,1.72l-7.08-4.81a7.64,7.64,0,0,1-2.74-9.28l2.16-5.1A7.63,7.63,0,0,1,848.08,860.29Z"/><path class="cls-30" d="M771.48,843.4l5.74,2.34a2.55,2.55,0,0,1,1.54,2.92l-.74,3.41a2.56,2.56,0,0,1-3.36,1.87l-3.77-1.33a2.55,2.55,0,0,1-1.62-1.73L768,846.46A2.57,2.57,0,0,1,771.48,843.4Z"/><path class="cls-30" d="M936.69,373l-8.06,11.83a5.29,5.29,0,0,0,0,5.95l3.23,4.8a5.31,5.31,0,0,0,7.73,1.15h0a5.3,5.3,0,0,1,8.22,2.07l.73,1.73a5.32,5.32,0,0,1-.24,4.59l-3.56,6.5a5.3,5.3,0,0,0,6.41,7.54l11.38-4a5.3,5.3,0,0,0,3.53-5V391a5.23,5.23,0,0,0-.19-1.42L960.39,370a5.3,5.3,0,0,0-6.74-3.61L939.44,371A5.29,5.29,0,0,0,936.69,373Z"/><path class="cls-30" d="M880.67,220.85V235.7a4.48,4.48,0,0,0,2.73,4.12l5,2.13a22.77,22.77,0,0,0,14.92,1l7-1.9a10.19,10.19,0,0,0,7.5-9.83h0a10.19,10.19,0,0,0-5.47-9l-1.05-.55a10.21,10.21,0,0,0-9.14-.16l-4.37,2.1a4.47,4.47,0,0,1-5.3-1.09l-4-4.57a4.47,4.47,0,0,0-6.84.12h0A4.52,4.52,0,0,0,880.67,220.85Z"/><path class="cls-30" d="M895.55,219.39h0a2,2,0,0,0,2.31.17l3.2-1.89a2,2,0,0,0,.16-3.4l-1-.73a2,2,0,0,0-2.75.34l-2.2,2.61A2,2,0,0,0,895.55,219.39Z"/><path class="cls-30" d="M886.09,246.85l4.35,1.54a3.39,3.39,0,0,1,1.57,5.23l-2.15,2.87a3.4,3.4,0,0,1-4.62.76l-3.14-2.14a3.39,3.39,0,0,1-1.21-4.12l1-2.26A3.39,3.39,0,0,1,886.09,246.85Z"/><path class="cls-30" d="M927.54,400.58l5.74,2.34a2.55,2.55,0,0,1,1.54,2.92l-.75,3.41a2.56,2.56,0,0,1-3.36,1.87l-3.77-1.33a2.57,2.57,0,0,1-1.62-1.73l-1.22-4.41A2.57,2.57,0,0,1,927.54,400.58Z"/><path class="cls-30" d="M295.85,929.79l4.13-13.7a5.29,5.29,0,0,0-1.77-5.68l-4.53-3.6A5.31,5.31,0,0,0,286,908h0a5.3,5.3,0,0,1-8.46.5l-1.21-1.43a5.33,5.33,0,0,1-1.16-4.46l1.45-7.27a5.3,5.3,0,0,0-8.39-5.26l-9.64,7.26a5.31,5.31,0,0,0-1.87,5.82l5.76,18.29a5.35,5.35,0,0,0,.62,1.3l11.1,17a5.31,5.31,0,0,0,7.51,1.43l12.18-8.66A5.27,5.27,0,0,0,295.85,929.79Z"/><path class="cls-30" d="M280.44,880.14l-2-5.87a2.56,2.56,0,0,1,1.21-3.08l3.07-1.67a2.57,2.57,0,0,1,3.61,1.33l1.45,3.72a2.57,2.57,0,0,1-.25,2.36L285,880.74A2.57,2.57,0,0,1,280.44,880.14Z"/><path class="cls-30" d="M855.15,857.82l-6.12-1a2.56,2.56,0,0,1-2.15-2.51l0-3.49a2.57,2.57,0,0,1,2.86-2.57l4,.46a2.53,2.53,0,0,1,2,1.33l2.18,4A2.57,2.57,0,0,1,855.15,857.82Z"/><path class="cls-30" d="M861.12,887,863,889.7a2.16,2.16,0,0,0,3.28.33l3.57-3.47a2.15,2.15,0,0,0-1.79-3.68l-5.43.73A2.16,2.16,0,0,0,861.12,887Z"/><path class="cls-30" d="M961.31,900.72l.53,6.17a2.56,2.56,0,0,1-1.9,2.7l-3.38.89a2.57,2.57,0,0,1-3.2-2.14l-.52-4a2.56,2.56,0,0,1,.8-2.22l3.38-3.1A2.56,2.56,0,0,1,961.31,900.72Z"/><path class="cls-30" d="M988.1,887.78l2.19-2.49a2.16,2.16,0,0,0-.49-3.26l-4.23-2.61a2.16,2.16,0,0,0-3.13,2.64l2,5.09A2.16,2.16,0,0,0,988.1,887.78Z"/><path class="cls-30" d="M21,820.15V659.52H62.79v2.62a2.14,2.14,0,0,0,.52,1.39l3.71,4.3a2.15,2.15,0,0,1,0,2.85l-1.69,1.82a2.07,2.07,0,0,1-1.18.65l-4.94.91a2.14,2.14,0,0,0-1.7,2.54l.92,4.51a2.14,2.14,0,0,0,2.1,1.71h4.07a2.12,2.12,0,0,1,1.75.92l3.34,4.79a2.12,2.12,0,0,0,1.75.92h9.08a2.14,2.14,0,0,1,2.13,1.89l.78,6.82a2.15,2.15,0,0,1-1,2.08l-5.51,3.28a2.14,2.14,0,0,0-1,1.84v1.43a2.13,2.13,0,0,0,1.63,2.07l6.81,1.64a2.14,2.14,0,0,0,2-.56l7.83-7.7a2.14,2.14,0,0,0,.64-1.67l-.67-9.78a2.15,2.15,0,0,1,1.76-2.25l7.18-1.26a2.15,2.15,0,0,1,2.51,2.07l.22,11.36a2.15,2.15,0,0,1-.55,1.47l-9.39,10.46a3.83,3.83,0,0,1-.29.28L86.18,720a2.17,2.17,0,0,1-1.73.39l-12.76-2.64a2.16,2.16,0,0,1-.49-.16l-5.1-2.44a2.14,2.14,0,0,0-2.35.34l-6.3,5.69a2.15,2.15,0,0,0-.17,3l5,5.59a2.11,2.11,0,0,1,.54,1.41v15.5a2.1,2.1,0,0,0,.72,1.59l5.7,5.07a2.13,2.13,0,0,1,.38,2.75l-3.36,5.25a2.07,2.07,0,0,1-.7.68L60,765.35a2.13,2.13,0,0,1-2.36-.1l-.66-.49a2.14,2.14,0,0,0-3.33,1.18l-2.34,8.92A2.14,2.14,0,0,0,52,777l3.86,3.25a2.15,2.15,0,0,0,2.07.39l9.51-3.26a2.53,2.53,0,0,1,.6-.11l11.07-.5a2.14,2.14,0,0,1,2,1.22l3.45,7.28a2.13,2.13,0,0,1-.9,2.78l-4.36,2.42a2.11,2.11,0,0,1-1.37.24l-9.49-1.5a2.23,2.23,0,0,0-1.39.25l-4.6,2.61a2.14,2.14,0,0,0-1,2.32l1.45,3.64a2.16,2.16,0,0,0,1.2,1.48,2.13,2.13,0,0,1,.61,3.45l-.66.67a2.09,2.09,0,0,0-.63,1.51v15Z"/><path class="cls-30" d="M503.26,703.1l9.78,3.46a7.64,7.64,0,0,1,3.55,11.79l-4.85,6.46a7.64,7.64,0,0,1-10.4,1.72l-7.08-4.82a7.63,7.63,0,0,1-2.73-9.28l2.15-5.1A7.64,7.64,0,0,1,503.26,703.1Z"/><path class="cls-30" d="M510.33,700.64l-6.12-1a2.56,2.56,0,0,1-2.15-2.51l0-3.49a2.57,2.57,0,0,1,2.86-2.57l4,.46a2.57,2.57,0,0,1,2,1.33l2.17,4A2.57,2.57,0,0,1,510.33,700.64Z"/><path class="cls-30" d="M373.21,908.52l-6.12-1a2.58,2.58,0,0,1-2.15-2.51l0-3.5a2.56,2.56,0,0,1,2.86-2.57l4,.46a2.59,2.59,0,0,1,2,1.33l2.18,4A2.57,2.57,0,0,1,373.21,908.52Z"/><path class="cls-30" d="M516.31,729.78l1.87,2.73a2.16,2.16,0,0,0,3.28.33l3.56-3.46a2.16,2.16,0,0,0-1.78-3.69l-5.44.73A2.16,2.16,0,0,0,516.31,729.78Z"/><path class="cls-30" d="M96.67,746.69l10.21-1.82a7.63,7.63,0,0,1,8.91,8.49l-1,8a7.63,7.63,0,0,1-8.19,6.64L98,767.32a7.64,7.64,0,0,1-7-6.72l-.65-5.5A7.64,7.64,0,0,1,96.67,746.69Z"/><path class="cls-30" d="M101.6,741.05l-5.82,2.16a2.57,2.57,0,0,1-3.11-1.12l-1.75-3a2.57,2.57,0,0,1,1.22-3.65l3.68-1.57a2.59,2.59,0,0,1,2.36.19l3.89,2.43A2.57,2.57,0,0,1,101.6,741.05Z"/><path class="cls-30" d="M121.19,763.44l3,1.45a2.15,2.15,0,0,0,3-1.34l1.39-4.77a2.15,2.15,0,0,0-3.37-2.32l-4.37,3.33A2.15,2.15,0,0,0,121.19,763.44Z"/><path class="cls-30" d="M159.41,680.35l-1.27-3.06a2.17,2.17,0,0,0-3.15-1l-4.2,2.67a2.16,2.16,0,0,0,1,4l5.47.39A2.16,2.16,0,0,0,159.41,680.35Z"/><path class="cls-30" d="M190.05,711h0a6.4,6.4,0,0,0-9.34-2.94h0a6.4,6.4,0,0,0,3,11.79h0A6.4,6.4,0,0,0,190.05,711Z"/><path class="cls-30" d="M173,718.4h0a3.84,3.84,0,0,0-5.61-1.77h0a3.85,3.85,0,0,0,1.78,7.09h0A3.85,3.85,0,0,0,173,718.4Z"/><path class="cls-30" d="M283.74,815.57l19.71,7.21a6.38,6.38,0,0,1,4.14,5.2l1,7.81a6.39,6.39,0,0,1-3.2,6.33l-3.19,1.79a6.38,6.38,0,0,1-8.6-2.31l-3.43-5.79a6.36,6.36,0,0,0-7.64-2.74h0a6.37,6.37,0,0,1-8.38-7.37l1.22-5.52A6.38,6.38,0,0,1,283.74,815.57Z"/><path class="cls-30" d="M297.53,815.09l1.63.49a1.48,1.48,0,0,0,1.89-1.68l-.33-1.84a1.48,1.48,0,0,0-2.53-.77l-1.3,1.34A1.5,1.5,0,0,0,297.53,815.09Z"/><path class="cls-30" d="M392.5,852.41l1.69-.15a1.49,1.49,0,0,0,1.12-2.28l-1-1.58a1.48,1.48,0,0,0-2.63.24l-.7,1.74A1.49,1.49,0,0,0,392.5,852.41Z"/><path class="cls-30" d="M377.74,848.48l5.51,3a5.46,5.46,0,0,1,2.56,3l.15.39a5.5,5.5,0,0,0,6.31,3.51l3.06-.65a5.51,5.51,0,0,1,6.19,3.2h0a5.51,5.51,0,0,1-2.79,7.2l-2.22,1a5.62,5.62,0,0,1-1.6.45l-9.91,1.2a5.52,5.52,0,0,1-5.64-3.12l-1.58-3.36a5.49,5.49,0,0,0-4.08-3.08l-.61-.11a5.5,5.5,0,0,1-4-7.85l1.13-2.31A5.51,5.51,0,0,1,377.74,848.48Z"/><path class="cls-30" d="M371.32,866.14h0a1.85,1.85,0,0,1,2.46,1.41h0a1.86,1.86,0,0,1-3.18,1.61h0A1.86,1.86,0,0,1,371.32,866.14Z"/><path class="cls-30" d="M358.61,617.21,349,606.61a5.3,5.3,0,0,1-.84-5.89l2.54-5.2a5.3,5.3,0,0,1,7.49-2.21h0a5.3,5.3,0,0,0,7.86-3.18l.48-1.82a5.3,5.3,0,0,0-.88-4.52l-4.42-5.94a5.3,5.3,0,0,1,5.3-8.36l11.83,2.41a5.31,5.31,0,0,1,4.19,4.46l2.66,19a5,5,0,0,1,0,1.44l-2.7,20.16a5.3,5.3,0,0,1-6.17,4.51l-14.72-2.58A5.32,5.32,0,0,1,358.61,617.21Z"/><path class="cls-30" d="M345.74,591.19l5.36-3.11a2.57,2.57,0,0,0,1.12-3.11L351,581.69a2.57,2.57,0,0,0-3.59-1.39l-3.55,1.85a2.56,2.56,0,0,0-1.36,1.94l-.61,4.54A2.58,2.58,0,0,0,345.74,591.19Z"/><path class="cls-30" d="M279.63,631.25l5.09-3.54a2.56,2.56,0,0,0,.86-3.19l-1.47-3.16a2.57,2.57,0,0,0-3.69-1.1L277,622.39a2.56,2.56,0,0,0-1.2,2L275.6,629A2.57,2.57,0,0,0,279.63,631.25Z"/><path class="cls-30" d="M381.81,523.73l-14.7,15a6.36,6.36,0,0,0-1.5,6.48l2.48,7.45a6.39,6.39,0,0,0,5.62,4.35l3.64.24a6.36,6.36,0,0,0,6.77-5.78l.61-6.7a6.38,6.38,0,0,1,5.72-5.76h0a6.38,6.38,0,0,0,4.41-10.26l-3.48-4.45A6.37,6.37,0,0,0,381.81,523.73Z"/><path class="cls-30" d="M369.14,529.22l-1.25,1.15a1.49,1.49,0,0,1-2.44-.71l-.49-1.8a1.49,1.49,0,0,1,2-1.79l1.75.66A1.49,1.49,0,0,1,369.14,529.22Z"/><path class="cls-30" d="M238.09,588.88l-1.59.58a1.48,1.48,0,0,1-2-1.57l.22-1.85a1.49,1.49,0,0,1,2.49-.92l1.37,1.27A1.49,1.49,0,0,1,238.09,588.88Z"/><path class="cls-30" d="M249.73,579l-3.7,5a5.5,5.5,0,0,0-1,3.78l0,.43a5.49,5.49,0,0,1-4.19,5.88l-3,.72a5.5,5.5,0,0,0-4.21,5.55h0a5.5,5.5,0,0,0,5.61,5.31l2.43-.05a5.39,5.39,0,0,0,1.64-.29l9.47-3.18a5.5,5.5,0,0,0,3.74-5.24v-3.71a5.49,5.49,0,0,1,2.35-4.53l.51-.36a5.5,5.5,0,0,0,.26-8.83l-2-1.59A5.51,5.51,0,0,0,249.73,579Z"/><path class="cls-30" d="M263.12,592.17h0a1.85,1.85,0,0,0-1.62,2.33h0a1.86,1.86,0,0,0,3.56.09h0A1.85,1.85,0,0,0,263.12,592.17Z"/><path class="cls-30" d="M898.85,170.42l37.36,25a4.83,4.83,0,0,1,2.12,3.49l5.2,46.89a4.7,4.7,0,0,1-.11,1.71l-4.72,18.84a4.83,4.83,0,0,0,1,4.37l18.4,21a4.83,4.83,0,0,0,6.89.4l12.18-11a4.85,4.85,0,0,0,1.57-3.07l2.57-23.43,2.78-48.54L986.69,179a4.84,4.84,0,0,0-1.49-4l-21.32-20.19a4.86,4.86,0,0,0-4.53-1.18l-24,6.13a4.36,4.36,0,0,1-1,.14l-33.08,1.59A4.85,4.85,0,0,0,898.85,170.42Z"/><polygon class="cls-30" points="945.57 338.94 951.11 354.33 951.11 366.11 953.88 380.19 953.88 414.05 953.88 431.29 956.35 443.3 966.05 455.31 982.51 439.91 990.83 377.73 979.74 333.57 951.42 328.55 945.57 338.94"/><path class="cls-30" d="M863,219.7l3.83-.56a1.61,1.61,0,0,1,1.64,2.37L867,224a1.58,1.58,0,0,1-1.24.81l-2.49.25a1.6,1.6,0,0,1-1.76-1.64l.05-2.18A1.61,1.61,0,0,1,863,219.7Z"/><path class="cls-30" d="M845.06,170.64l18,1.17,2,7.18-5.66,8.53-1.75,7.16-.27.58,6.64,4.1a3.35,3.35,0,0,1,1.37,1.67l3.13,8.39a3.29,3.29,0,0,1-.88,3.61l-2.68,2.43a3.3,3.3,0,0,1-4.86-.45,3.32,3.32,0,0,0-5.31,0l-.7.94a3.32,3.32,0,0,0-.54,2.83l1.2,4.48a3.32,3.32,0,0,1-5,3.63l-1.52-1-1.95,7.95-3.28,6.93-7.69,5.85-7.71-11.81,4.21-39Z"/><path class="cls-30" d="M897.06,363.67l1.72,10.74a3.5,3.5,0,0,0,3.46,3h.94a3.5,3.5,0,0,0,2.48-1l1.89-1.89a3.51,3.51,0,0,0-1.14-5.72h0a3.51,3.51,0,0,1-2.15-3.62l.2-1.9a3.51,3.51,0,0,0-5.37-3.34l-.45.28A3.52,3.52,0,0,0,897.06,363.67Z"/><path class="cls-30" d="M888.13,696.59l34.73-8.65a11.52,11.52,0,0,0,2.2-.78l4.25-2a11.53,11.53,0,0,1,13.87,3.06h0a11.54,11.54,0,0,0,9.5,4.18l21.21-1.13,2.14,7.51-18.94,17.51-43.59-1.43Z"/><path class="cls-30" d="M769.62,696.59l34.73-8.65a11.52,11.52,0,0,0,2.2-.78l4.25-2a11.53,11.53,0,0,1,13.87,3.06h0a11.55,11.55,0,0,0,9.51,4.18l21.2-1.13,2.14,7.51-18.94,17.51L795,714.82Z"/><path class="cls-30" d="M829.26,643.41l-2.35,4.12a4.61,4.61,0,0,0,2.75,6.72h0a4.63,4.63,0,0,0,4.65-1.32l3.07-3.34a4.61,4.61,0,0,0,0-6.24l-.72-.78A4.61,4.61,0,0,0,829.26,643.41Z"/><path class="cls-30" d="M920.42,662.37l3.57,8.24a8.72,8.72,0,0,0,13.27,3.47h0a8.75,8.75,0,0,0,3.29-8.52L939,657.12a8.71,8.71,0,0,0-9.43-7.08l-2,.2A8.71,8.71,0,0,0,920.42,662.37Z"/><path class="cls-30" d="M912.7,594.6c0,.78.24,8.37.43,14.14a5.63,5.63,0,0,0,6.7,5.35l8.17-1.6a5.65,5.65,0,0,1,4.78,1.28l2.52,2.2a5.61,5.61,0,0,0,4.54,1.32l10.1-1.53a5.61,5.61,0,0,1,5.88,3h0a5.66,5.66,0,0,0,5,3.11h7.78a5.64,5.64,0,0,0,5.6-5L975.78,603a5.65,5.65,0,0,0-1.14-4.06l-11.35-14.72a5.61,5.61,0,0,0-3.85-2.15l-27.57-3a5.78,5.78,0,0,0-2.67.36l-12.92,5.08a5.63,5.63,0,0,0-3.58,5.24Z"/><path class="cls-30" d="M680.56,148.72l-7.3,9.37a3.26,3.26,0,0,0-.15,3.8l7.45,11.36a3.27,3.27,0,0,1,.43,2.62l-3.54,13.47a3.26,3.26,0,0,0,2.45,4l12.81,2.85a3.28,3.28,0,0,1,2.54,2.8l2.28,19.29a3.26,3.26,0,0,0,4.13,2.76L715,217.27a3.26,3.26,0,0,1,3.87,1.8L725,232.78a3.26,3.26,0,0,0,4,1.75l29.36-10.08a3.27,3.27,0,0,0,2.1-3.91l-1.89-7.24a3.28,3.28,0,0,1,1.09-3.35l11.71-9.55a3.27,3.27,0,0,0,1.2-2.53V186.11a3.33,3.33,0,0,1,.78-2.13L782,174a3.26,3.26,0,0,0-1.14-5.1l-4.94-2.22a3.27,3.27,0,0,1-1.24-5l5.25-6.78a3.26,3.26,0,0,0-1.83-5.17l-42.11-10a3.39,3.39,0,0,0-1.23,0l-52.1,7.81A3.24,3.24,0,0,0,680.56,148.72Z"/><path class="cls-30" d="M811.8,143.59l-12.6,5.25a3.24,3.24,0,0,0-2,2.45l-1.38,7.93a3.24,3.24,0,0,0,.07,1.42l3.18,11.55a3.19,3.19,0,0,1,0,1.81l-5.28,17.48a3.29,3.29,0,0,0,.12,2.23l4,9.35a3.26,3.26,0,0,1-1,3.84l-15,12a3.28,3.28,0,0,0-1.22,2.55V239.8a3.27,3.27,0,0,1-1.57,2.79l-17.73,10.8A3.26,3.26,0,0,0,760,257l5,20.59a3.24,3.24,0,0,1-.38,2.47l-6.3,10.38a3.24,3.24,0,0,1-2.05,1.48l-26,6.06a3.27,3.27,0,0,0-2.4,2.31h0a3.27,3.27,0,0,1-5.61,1.28l-11.34-13a3.28,3.28,0,0,0-2.31-1.12l-16.3-.7a3.28,3.28,0,0,1-3.13-3.33l.38-20.05a3.26,3.26,0,0,0-1.41-2.75l-12.39-8.51a3.24,3.24,0,0,1-1.38-2.17l-7.48-46.74a1.5,1.5,0,0,1,0-.2l-1.67-17.09a3.24,3.24,0,0,0-1.28-2.28L657.77,179a3.25,3.25,0,0,1-1.18-3.46l6-22a3.36,3.36,0,0,1,.4-.91l4.15-6.43a3.26,3.26,0,0,0-1.85-4.91l-14.1-4a3.23,3.23,0,0,0-3,.61c-2.75,2.25-2.56,8.25-1.07,8.25,1.92,0-.32,78.23.13,81.43.42,2.89,3.1,55.06,4.57,64.73a3.24,3.24,0,0,0,1.6,2.33l27.17,20.3a2.38,2.38,0,0,0,.51.24l44.42,16.13a3.36,3.36,0,0,0,1.26.19l51.51-2.4a3.28,3.28,0,0,0,2.41-1.24l23.88-30.26a3.3,3.3,0,0,0,.68-1.57l9.14-65.93,9.92-65.57a3.23,3.23,0,0,0-.24-1.79l-5.66-13.05a1.77,1.77,0,0,0-.15-.31L815.9,145A3.27,3.27,0,0,0,811.8,143.59Z"/><path class="cls-30" d="M680.56,328.07l-7.3,9.38a3.25,3.25,0,0,0-.15,3.79l7.45,11.36a3.27,3.27,0,0,1,.43,2.62l-3.54,13.47a3.28,3.28,0,0,0,2.45,4l12.81,2.84a3.28,3.28,0,0,1,2.54,2.81l2.28,19.29a3.26,3.26,0,0,0,4.13,2.75L715,396.62a3.27,3.27,0,0,1,3.87,1.81l6.16,13.7a3.26,3.26,0,0,0,4,1.75l29.36-10.08a3.27,3.27,0,0,0,2.1-3.91l-1.89-7.23a3.29,3.29,0,0,1,1.09-3.36l11.71-9.55a3.27,3.27,0,0,0,1.2-2.53V365.46a3.28,3.28,0,0,1,.78-2.12l8.62-10a3.27,3.27,0,0,0-1.14-5.11L775.91,346a3.26,3.26,0,0,1-1.24-5l5.25-6.79a3.26,3.26,0,0,0-1.83-5.17l-42.11-10a3,3,0,0,0-1.23,0l-52.1,7.8A3.28,3.28,0,0,0,680.56,328.07Z"/><path class="cls-30" d="M811.8,323l-12.6,5.24a3.26,3.26,0,0,0-2,2.45l-1.38,7.93a3.3,3.3,0,0,0,.07,1.43l3.18,11.55a3.19,3.19,0,0,1,0,1.81l-5.28,17.47a3.29,3.29,0,0,0,.12,2.23l4,9.36a3.25,3.25,0,0,1-1,3.83l-15,12a3.28,3.28,0,0,0-1.22,2.55v18.39a3.27,3.27,0,0,1-1.57,2.79l-17.73,10.8A3.26,3.26,0,0,0,760,436.3l5,20.59a3.24,3.24,0,0,1-.38,2.47l-6.3,10.38a3.2,3.2,0,0,1-2.05,1.48l-26,6.07a3.26,3.26,0,0,0-2.4,2.3h0a3.27,3.27,0,0,1-5.61,1.28l-11.34-13a3.27,3.27,0,0,0-2.31-1.11l-16.3-.71a3.27,3.27,0,0,1-3.13-3.32l.38-20.06a3.26,3.26,0,0,0-1.41-2.75l-12.39-8.5a3.28,3.28,0,0,1-1.38-2.18l-7.48-46.74a1.36,1.36,0,0,1,0-.2l-1.67-17.08a3.26,3.26,0,0,0-1.28-2.29l-6.11-4.61a3.27,3.27,0,0,1-1.18-3.47l6-22a3.3,3.3,0,0,1,.4-.9l4.15-6.44a3.25,3.25,0,0,0-1.85-4.9l-14.1-4a3.26,3.26,0,0,0-3,.61c-2.75,2.25-8.67,7.23-7.18,7.23,1.92,0-8.28,79.26-7.83,82.45.41,2.9,8.28,54.62,9.75,64.29a3.25,3.25,0,0,0,1.6,2.33l36.06,20.75a4,4,0,0,0,.51.24l44.42,16.12a3.17,3.17,0,0,0,1.26.19l51.51-2.4a3.24,3.24,0,0,0,2.41-1.24l23.88-30.26a3.26,3.26,0,0,0,.68-1.57l9.14-65.93,9.92-65.57a3.24,3.24,0,0,0-.24-1.79L818.49,329a1.68,1.68,0,0,0-.15-.3l-2.44-4.35A3.26,3.26,0,0,0,811.8,323Z"/><path class="cls-30" d="M723.07,422.29l-12.09,5a4,4,0,0,0-2.43,3.61l0,4.82a20,20,0,0,0,4.22,12.48l3.89,5a9,9,0,0,0,10.54,2.8h0a9,9,0,0,0,5.51-7.5l.09-1a9,9,0,0,0-3-7.49l-3.17-2.85a3.93,3.93,0,0,1-.9-4.68l2.37-4.78a3.93,3.93,0,0,0-2.4-5.52h0A4,4,0,0,0,723.07,422.29Z"/><path class="cls-30" d="M729.27,433.91h0a1.79,1.79,0,0,0,.65,1.94l2.61,2a1.8,1.8,0,0,0,2.83-1l.25-1.06a1.79,1.79,0,0,0-1.2-2.12l-2.87-.92A1.81,1.81,0,0,0,729.27,433.91Z"/><path class="cls-30" d="M703.73,435.47l.22,4a3,3,0,0,1-3.73,3.05l-3.06-.78a3,3,0,0,1-2.18-3.5l.68-3.28a3,3,0,0,1,2.94-2.38l2.17,0A3,3,0,0,1,703.73,435.47Z"/><path class="cls-30" d="M737,255.71h0a1.81,1.81,0,0,0,.64,1.94l2.62,2a1.79,1.79,0,0,0,2.82-1l.25-1.05a1.79,1.79,0,0,0-1.2-2.13l-2.86-.91A1.8,1.8,0,0,0,737,255.71Z"/><path class="cls-30" d="M780.18,193.53h0a1.78,1.78,0,0,0,2-.4l2.27-2.36a1.79,1.79,0,0,0-.67-2.93l-1-.38a1.81,1.81,0,0,0-2.26.94l-1.25,2.74A1.79,1.79,0,0,0,780.18,193.53Z"/><path class="cls-30" d="M728.56,252.49l.29,5.57a4.1,4.1,0,0,1-5.12,4.2l-4.21-1.09a4.09,4.09,0,0,1-3-4.81l.93-4.51a4.11,4.11,0,0,1,4-3.27l3,0A4.11,4.11,0,0,1,728.56,252.49Z"/></g><rect class="cls-31" x="992" width="32" height="32"/><rect class="cls-32" x="343.93" y="213.32" width="14.17" height="21.7" rx="7.09" ry="7.09"/><path class="cls-32" d="M352.79,211.55h0a7.09,7.09,0,0,1,7.09,7.09v10.63a0,0,0,0,1,0,0h-7.09a7.09,7.09,0,0,1-7.09-7.09v-3.54a7.09,7.09,0,0,1,7.09-7.09Z" transform="translate(132.38 573.2) rotate(-90)"/><path class="cls-13" d="M329.57,243.36h0a35.21,35.21,0,0,1-15.49,0h0a2,2,0,0,0-1.6,2.54c1.22,4,4.94,5.35,9.33,5.36h0c4.4,0,8.12-1.36,9.34-5.36A2,2,0,0,0,329.57,243.36Z"/><path class="cls-33" d="M338.33,256.43c-2.75,3.26-7.08,4.93-11.4,6s-9.14,1.79-13.61.25c-2.23-.8-4.73,1.06-3.33,3.1,2.33,3.44,10.4,6.4,19.43,4s13.36-8.39,13.25-12.19C342.6,255.32,339.7,254.78,338.33,256.43Z"/><path class="cls-34" d="M341.94,200.57c4-1.2,8.18-.67,12.21-.1s8.21,1.19,11.71,3.43c1.79,1.16,4.31-.37,3.54-2.49-1.32-3.6-6.64-7.41-14.21-8.45s-13.72,1.15-16,4.25C337.9,199,339.9,201.2,341.94,200.57Z"/><path class="cls-34" d="M299.31,207.52c-4-1.2-8.18-.67-12.21-.1s-8.21,1.19-11.72,3.43c-1.79,1.17-4.3-.37-3.54-2.48,1.33-3.6,6.65-7.42,14.21-8.46s13.73,1.16,16,4.26C303.35,206,301.35,208.16,299.31,207.52Z"/><rect class="cls-32" x="285.36" y="213.32" width="14.17" height="21.7" rx="7.09" ry="7.09" transform="translate(584.89 448.34) rotate(-180)"/><path class="cls-32" d="M290.67,211.55h7.09a0,0,0,0,1,0,0v10.63a7.09,7.09,0,0,1-7.09,7.09h0a7.09,7.09,0,0,1-7.09-7.09v-3.54a7.09,7.09,0,0,1,7.09-7.09Z" transform="translate(70.26 511.09) rotate(-90)"/><circle class="cls-13" cx="350.75" cy="249.42" r="2.56"/><circle class="cls-13" cx="359.38" cy="245.82" r="2.56"/><circle class="cls-13" cx="358.22" cy="255.16" r="2.56"/><circle class="cls-13" cx="292.49" cy="249.42" r="2.56"/><circle class="cls-13" cx="283.86" cy="245.82" r="2.56"/><circle class="cls-13" cx="285.03" cy="255.16" r="2.56"/><g class="cls-13"><path d="M321,5V151.59c-46.33,0-83.91,36.38-84.07,44.26v.05L235.3,213c-1.2,12.75-16.54,22.95-26.23,15.52s-30.16-18.38-57.22,27.74S0,318.87,0,318.87V5Z"/><path d="M321,5V151.59c46.33,0,83.91,36.38,84.07,44.26v.05l1.61,17.1c1.2,12.75,16.54,22.95,26.23,15.52s30.16-18.38,57.22,27.74S642,318.87,642,318.87V5Z"/></g><path class="cls-34" d="M321,0V146.59c-46.33,0-83.91,36.38-84.07,44.26v.05L235.3,208c-1.2,12.75-16.54,22.95-26.23,15.52s-30.16-18.38-57.22,27.74S0,313.87,0,313.87V0Z"/><path class="cls-34" d="M321,0V146.59c46.33,0,83.91,36.38,84.07,44.26v.05l1.61,17.1c1.2,12.75,16.54,22.95,26.23,15.52s30.16-18.38,57.22,27.74S642,313.87,642,313.87V0Z"/><rect class="cls-35" x="992" width="32" height="32"/></g></g></g></svg>