{
  "accessors": [
    {
      "name": "Mesh1 Large_Oak_Dark Model_1_positions",
      "componentType": 5126,
      "count": 192,
      "min": [
        0,
        0,
        -2.6154000759124756
      ],
      "max": [
        3.0199999809265137,
        6.831550121307373,
        0
      ],
      "type": "VEC3",
      "bufferView": 0,
      "byteOffset": 0
    },
    {
      "name": "Mesh1 Large_Oak_Dark Model_1_normals",
      "componentType": 5126,
      "count": 192,
      "min": [
        -0.9995080232620239,
        -1,
        -0.9995080232620239
      ],
      "max": [
        0.9995080232620239,
        0.9991459846496582,
        0.9995080232620239
      ],
      "type": "VEC3",
      "bufferView": 0,
      "byteOffset": 2304
    },
    {
      "name": "Mesh1 Large_Oak_Dark Model_1_texcoords",
      "componentType": 5126,
      "count": 192,
      "min": [
        -105.81900024414062,
        -238.2010040283203
      ],
      "max": [
        104.03500366210938,
        74.71050262451172
      ],
      "type": "VEC2",
      "bufferView": 1,
      "byteOffset": 0
    },
    {
      "name": "Mesh1 Large_Oak_Dark Model_1_0_indices",
      "componentType": 5123,
      "count": 222,
      "min": [
        0
      ],
      "max": [
        191
      ],
      "type": "SCALAR",
      "bufferView": 2,
      "byteOffset": 0
    },
    {
      "name": "Mesh1 Large_Oak_Dark Model_1_1_indices",
      "componentType": 5123,
      "count": 120,
      "min": [
        74
      ],
      "max": [
        171
      ],
      "type": "SCALAR",
      "bufferView": 2,
      "byteOffset": 444
    }
  ],
  "asset": {
    "generator": "obj2gltf",
    "version": "2.0"
  },
  "buffers": [
    {
      "name": "naturePack_069",
      "byteLength": 6828,
      "uri": "data:application/octet-stream;base64,"
    }
  ],
  "bufferViews": [
    {
      "name": "bufferView_0",
      "buffer": 0,
      "byteLength": 4608,
      "byteOffset": 0,
      "byteStride": 12,
      "target": 34962
    },
    {
      "name": "bufferView_1",
      "buffer": 0,
      "byteLength": 1536,
      "byteOffset": 4608,
      "byteStride": 8,
      "target": 34962
    },
    {
      "name": "bufferView_2",
      "buffer": 0,
      "byteLength": 684,
      "byteOffset": 6144,
      "target": 34963
    }
  ],
  "materials": [
    {
      "name": "Wood",
      "pbrMetallicRoughness": {
        "baseColorFactor": [
          0.666667,
          0.545098,
          0.356863,
          1
        ],
        "metallicFactor": 0,
        "roughnessFactor": 1
      },
      "emissiveFactor": [
        0,
        0,
        0
      ],
      "alphaMode": "OPAQUE",
      "doubleSided": false
    },
    {
      "name": "Fall_Leafs",
      "pbrMetallicRoughness": {
        "baseColorFactor": [
          0.619608,
          0.356863,
          0.235294,
          1
        ],
        "metallicFactor": 0,
        "roughnessFactor": 1
      },
      "emissiveFactor": [
        0,
        0,
        0
      ],
      "alphaMode": "OPAQUE",
      "doubleSided": false
    }
  ],
  "meshes": [
    {
      "name": "Mesh1 Large_Oak_Dark Model_1",
      "primitives": [
        {
          "attributes": {
            "POSITION": 0,
            "NORMAL": 1,
            "TEXCOORD_0": 2
          },
          "indices": 3,
          "material": 0,
          "mode": 4
        },
        {
          "attributes": {
            "POSITION": 0,
            "NORMAL": 1,
            "TEXCOORD_0": 2
          },
          "indices": 4,
          "material": 1,
          "mode": 4
        }
      ]
    }
  ],
  "nodes": [
    {
      "name": "Mesh1 Large_Oak_Dark Model",
      "mesh": 0
    }
  ],
  "scene": 0,
  "scenes": [
    {
      "nodes": [
        0
      ]
    }
  ]
}
