{
  "accessors": [
    {
      "name": "Mesh1 Group2 Group1 Model_1_positions",
      "componentType": 5126,
      "count": 72,
      "min": [
        1.2908999919891357,
        0,
        -1.7889900207519531
      ],
      "max": [
        1.7966500520706177,
        3.724220037460327,
        -1.177459955215454
      ],
      "type": "VEC3",
      "bufferView": 0,
      "byteOffset": 0
    },
    {
      "name": "Mesh1 Group2 Group1 Model_1_normals",
      "componentType": 5126,
      "count": 72,
      "min": [
        -0.9996100068092346,
        -1,
        -0.9977520108222961
      ],
      "max": [
        0.9996100068092346,
        1,
        0.9977520108222961
      ],
      "type": "VEC3",
      "bufferView": 0,
      "byteOffset": 10200
    },
    {
      "name": "Mesh1 Group2 Group1 Model_1_texcoords",
      "componentType": 5126,
      "count": 72,
      "min": [
        -31.418699264526367,
        -191.7689971923828
      ],
      "max": [
        31.418699264526367,
        2.268980026245117
      ],
      "type": "VEC2",
      "bufferView": 1,
      "byteOffset": 0
    },
    {
      "name": "Mesh1 Group2 Group1 Model_1_0_indices",
      "componentType": 5123,
      "count": 108,
      "min": [
        0
      ],
      "max": [
        71
      ],
      "type": "SCALAR",
      "bufferView": 2,
      "byteOffset": 0
    },
    {
      "name": "Mesh2 Group3 Group1 Model_1_positions",
      "componentType": 5126,
      "count": 778,
      "min": [
        0,
        3.4496800899505615,
        -3.087549924850464
      ],
      "max": [
        3.087549924850464,
        4.251239776611328,
        0
      ],
      "type": "VEC3",
      "bufferView": 0,
      "byteOffset": 864
    },
    {
      "name": "Mesh2 Group3 Group1 Model_1_normals",
      "componentType": 5126,
      "count": 778,
      "min": [
        -1,
        -1,
        -1
      ],
      "max": [
        1,
        1,
        1
      ],
      "type": "VEC3",
      "bufferView": 0,
      "byteOffset": 11064
    },
    {
      "name": "Mesh2 Group3 Group1 Model_1_texcoords",
      "componentType": 5126,
      "count": 778,
      "min": [
        -141.64500427246094,
        -96.07430267333984
      ],
      "max": [
        134.91200256347656,
        119.4219970703125
      ],
      "type": "VEC2",
      "bufferView": 1,
      "byteOffset": 576
    },
    {
      "name": "Mesh2 Group3 Group1 Model_1_0_indices",
      "componentType": 5123,
      "count": 1356,
      "min": [
        0
      ],
      "max": [
        777
      ],
      "type": "SCALAR",
      "bufferView": 2,
      "byteOffset": 216
    }
  ],
  "asset": {
    "generator": "obj2gltf",
    "version": "2.0"
  },
  "buffers": [
    {
      "name": "naturePack_169",
      "byteLength": 30128,
      "uri": "data:application/octet-stream;base64,"
    }
  ],
  "bufferViews": [
    {
      "name": "bufferView_0",
      "buffer": 0,
      "byteLength": 20400,
      "byteOffset": 0,
      "byteStride": 12,
      "target": 34962
    },
    {
      "name": "bufferView_1",
      "buffer": 0,
      "byteLength": 6800,
      "byteOffset": 20400,
      "byteStride": 8,
      "target": 34962
    },
    {
      "name": "bufferView_2",
      "buffer": 0,
      "byteLength": 2928,
      "byteOffset": 27200,
      "target": 34963
    }
  ],
  "materials": [
    {
      "name": "Wood",
      "pbrMetallicRoughness": {
        "baseColorFactor": [
          0.666667,
          0.545098,
          0.356863,
          1
        ],
        "metallicFactor": 0,
        "roughnessFactor": 1
      },
      "emissiveFactor": [
        0,
        0,
        0
      ],
      "alphaMode": "OPAQUE",
      "doubleSided": false
    },
    {
      "name": "Green_leafs",
      "pbrMetallicRoughness": {
        "baseColorFactor": [
          0.298039,
          0.529412,
          0.427451,
          1
        ],
        "metallicFactor": 0,
        "roughnessFactor": 1
      },
      "emissiveFactor": [
        0,
        0,
        0
      ],
      "alphaMode": "OPAQUE",
      "doubleSided": false
    }
  ],
  "meshes": [
    {
      "name": "Mesh1 Group2 Group1 Model_1",
      "primitives": [
        {
          "attributes": {
            "POSITION": 0,
            "NORMAL": 1,
            "TEXCOORD_0": 2
          },
          "indices": 3,
          "material": 0,
          "mode": 4
        }
      ]
    },
    {
      "name": "Mesh2 Group3 Group1 Model_1",
      "primitives": [
        {
          "attributes": {
            "POSITION": 4,
            "NORMAL": 5,
            "TEXCOORD_0": 6
          },
          "indices": 7,
          "material": 1,
          "mode": 4
        }
      ]
    }
  ],
  "nodes": [
    {
      "name": "Mesh1 Group2 Group1 Model",
      "mesh": 0
    },
    {
      "name": "Mesh2 Group3 Group1 Model",
      "mesh": 1
    }
  ],
  "scene": 0,
  "scenes": [
    {
      "nodes": [
        0,
        1
      ]
    }
  ]
}
