{
  "accessors": [
    {
      "name": "Mesh1 Group1 Model_1_positions",
      "componentType": 5126,
      "count": 184,
      "min": [
        0,
        0,
        -2.5799999237060547
      ],
      "max": [
        2.2343499660491943,
        4.2571702003479,
        0
      ],
      "type": "VEC3",
      "bufferView": 0,
      "byteOffset": 0
    },
    {
      "name": "Mesh1 Group1 Model_1_normals",
      "componentType": 5126,
      "count": 184,
      "min": [
        -0.9897069931030273,
        -1,
        -0.8571919798851013
      ],
      "max": [
        0.9745439887046814,
        0.9969609975814819,
        0.8455770015716553
      ],
      "type": "VEC3",
      "bufferView": 0,
      "byteOffset": 2208
    },
    {
      "name": "Mesh1 Group1 Model_1_texcoords",
      "componentType": 5126,
      "count": 184,
      "min": [
        -104.28800201416016,
        -177.0850067138672
      ],
      "max": [
        93.39520263671875,
        49.48640060424805
      ],
      "type": "VEC2",
      "bufferView": 1,
      "byteOffset": 0
    },
    {
      "name": "Mesh1 Group1 Model_1_0_indices",
      "componentType": 5123,
      "count": 384,
      "min": [
        0
      ],
      "max": [
        183
      ],
      "type": "SCALAR",
      "bufferView": 2,
      "byteOffset": 0
    }
  ],
  "asset": {
    "generator": "obj2gltf",
    "version": "2.0"
  },
  "buffers": [
    {
      "name": "naturePack_053",
      "byteLength": 6656,
      "uri": "data:application/octet-stream;base64,"
    }
  ],
  "bufferViews": [
    {
      "name": "bufferView_0",
      "buffer": 0,
      "byteLength": 4416,
      "byteOffset": 0,
      "byteStride": 12,
      "target": 34962
    },
    {
      "name": "bufferView_1",
      "buffer": 0,
      "byteLength": 1472,
      "byteOffset": 4416,
      "byteStride": 8,
      "target": 34962
    },
    {
      "name": "bufferView_2",
      "buffer": 0,
      "byteLength": 768,
      "byteOffset": 5888,
      "target": 34963
    }
  ],
  "materials": [
    {
      "name": "Leafs",
      "pbrMetallicRoughness": {
        "baseColorFactor": [
          0.270588,
          0.407843,
          0.4,
          1
        ],
        "metallicFactor": 0,
        "roughnessFactor": 1
      },
      "emissiveFactor": [
        0,
        0,
        0
      ],
      "alphaMode": "OPAQUE",
      "doubleSided": false
    }
  ],
  "meshes": [
    {
      "name": "Mesh1 Group1 Model_1",
      "primitives": [
        {
          "attributes": {
            "POSITION": 0,
            "NORMAL": 1,
            "TEXCOORD_0": 2
          },
          "indices": 3,
          "material": 0,
          "mode": 4
        }
      ]
    }
  ],
  "nodes": [
    {
      "name": "Mesh1 Group1 Model",
      "mesh": 0
    }
  ],
  "scene": 0,
  "scenes": [
    {
      "nodes": [
        0
      ]
    }
  ]
}
