{
  "accessors": [
    {
      "name": "Mesh1 Group1 Model_1_positions",
      "componentType": 5126,
      "count": 249,
      "min": [
        0,
        0,
        -1.5678000450134277
      ],
      "max": [
        1.5450899600982666,
        6.118420124053955,
        0
      ],
      "type": "VEC3",
      "bufferView": 0,
      "byteOffset": 0
    },
    {
      "name": "Mesh1 Group1 Model_1_normals",
      "componentType": 5126,
      "count": 249,
      "min": [
        -0.9993219971656799,
        -1,
        -0.9993219971656799
      ],
      "max": [
        0.9993219971656799,
        0.9757180213928223,
        0.9993219971656799
      ],
      "type": "VEC3",
      "bufferView": 0,
      "byteOffset": 2988
    },
    {
      "name": "Mesh1 Group1 Model_1_texcoords",
      "componentType": 5126,
      "count": 249,
      "min": [
        -60.83039855957031,
        -241.7209930419922
      ],
      "max": [
        57.3760986328125,
        29.538700103759766
      ],
      "type": "VEC2",
      "bufferView": 1,
      "byteOffset": 0
    },
    {
      "name": "Mesh1 Group1 Model_1_0_indices",
      "componentType": 5123,
      "count": 252,
      "min": [
        0
      ],
      "max": [
        227
      ],
      "type": "SCALAR",
      "bufferView": 2,
      "byteOffset": 0
    },
    {
      "name": "Mesh1 Group1 Model_1_1_indices",
      "componentType": 5123,
      "count": 210,
      "min": [
        5
      ],
      "max": [
        248
      ],
      "type": "SCALAR",
      "bufferView": 2,
      "byteOffset": 504
    },
    {
      "name": "Mesh1 Group1 Model_1_2_indices",
      "componentType": 5123,
      "count": 18,
      "min": [
        159
      ],
      "max": [
        206
      ],
      "type": "SCALAR",
      "bufferView": 2,
      "byteOffset": 924
    }
  ],
  "asset": {
    "generator": "obj2gltf",
    "version": "2.0"
  },
  "buffers": [
    {
      "name": "naturePack_164",
      "byteLength": 8928,
      "uri": "data:application/octet-stream;base64,"
    }
  ],
  "bufferViews": [
    {
      "name": "bufferView_0",
      "buffer": 0,
      "byteLength": 5976,
      "byteOffset": 0,
      "byteStride": 12,
      "target": 34962
    },
    {
      "name": "bufferView_1",
      "buffer": 0,
      "byteLength": 1992,
      "byteOffset": 5976,
      "byteStride": 8,
      "target": 34962
    },
    {
      "name": "bufferView_2",
      "buffer": 0,
      "byteLength": 960,
      "byteOffset": 7968,
      "target": 34963
    }
  ],
  "materials": [
    {
      "name": "Leafs",
      "pbrMetallicRoughness": {
        "baseColorFactor": [
          0.270588,
          0.407843,
          0.4,
          1
        ],
        "metallicFactor": 0,
        "roughnessFactor": 1
      },
      "emissiveFactor": [
        0,
        0,
        0
      ],
      "alphaMode": "OPAQUE",
      "doubleSided": false
    },
    {
      "name": "Wood",
      "pbrMetallicRoughness": {
        "baseColorFactor": [
          0.666667,
          0.545098,
          0.356863,
          1
        ],
        "metallicFactor": 0,
        "roughnessFactor": 1
      },
      "emissiveFactor": [
        0,
        0,
        0
      ],
      "alphaMode": "OPAQUE",
      "doubleSided": false
    },
    {
      "name": "FrontColor",
      "pbrMetallicRoughness": {
        "baseColorFactor": [
          1,
          1,
          1,
          1
        ],
        "metallicFactor": 0,
        "roughnessFactor": 1
      },
      "emissiveFactor": [
        0,
        0,
        0
      ],
      "alphaMode": "OPAQUE",
      "doubleSided": false
    }
  ],
  "meshes": [
    {
      "name": "Mesh1 Group1 Model_1",
      "primitives": [
        {
          "attributes": {
            "POSITION": 0,
            "NORMAL": 1,
            "TEXCOORD_0": 2
          },
          "indices": 3,
          "material": 0,
          "mode": 4
        },
        {
          "attributes": {
            "POSITION": 0,
            "NORMAL": 1,
            "TEXCOORD_0": 2
          },
          "indices": 4,
          "material": 1,
          "mode": 4
        },
        {
          "attributes": {
            "POSITION": 0,
            "NORMAL": 1,
            "TEXCOORD_0": 2
          },
          "indices": 5,
          "material": 2,
          "mode": 4
        }
      ]
    }
  ],
  "nodes": [
    {
      "name": "Mesh1 Group1 Model",
      "mesh": 0
    }
  ],
  "scene": 0,
  "scenes": [
    {
      "nodes": [
        0
      ]
    }
  ]
}
