{
  "accessors": [
    {
      "name": "Mesh1 Flower_Red Model_1_positions",
      "componentType": 5126,
      "count": 8,
      "min": [
        0.26837000250816345,
        0,
        -0.2429630011320114
      ],
      "max": [
        0.4859260022640228,
        0.21087700128555298,
        -0.2429630011320114
      ],
      "type": "VEC3",
      "bufferView": 0,
      "byteOffset": 0
    },
    {
      "name": "Mesh1 Flower_Red Model_1_normals",
      "componentType": 5126,
      "count": 8,
      "min": [
        0,
        0,
        -1
      ],
      "max": [
        0,
        0,
        1
      ],
      "type": "VEC3",
      "bufferView": 0,
      "byteOffset": 1728
    },
    {
      "name": "Mesh1 Flower_Red Model_1_texcoords",
      "componentType": 5126,
      "count": 8,
      "min": [
        -19.13089942932129,
        -7.302229881286621
      ],
      "max": [
        -10.565699577331543,
        1
      ],
      "type": "VEC2",
      "bufferView": 1,
      "byteOffset": 0
    },
    {
      "name": "Mesh1 Flower_Red Model_1_0_indices",
      "componentType": 5123,
      "count": 12,
      "min": [
        0
      ],
      "max": [
        7
      ],
      "type": "SCALAR",
      "bufferView": 2,
      "byteOffset": 0
    },
    {
      "name": "Mesh2 Flower_Red Model_1_positions",
      "componentType": 5126,
      "count": 8,
      "min": [
        0.2429630011320114,
        0,
        -0.21755599975585938
      ],
      "max": [
        0.2429630011320114,
        0.21087700128555298,
        0
      ],
      "type": "VEC3",
      "bufferView": 0,
      "byteOffset": 96
    },
    {
      "name": "Mesh2 Flower_Red Model_1_normals",
      "componentType": 5126,
      "count": 8,
      "min": [
        -1,
        -1.9881099410765828e-16,
        -1.4901200273698123e-8
      ],
      "max": [
        1,
        1.9881099410765828e-16,
        1.4901200273698123e-8
      ],
      "type": "VEC3",
      "bufferView": 0,
      "byteOffset": 1824
    },
    {
      "name": "Mesh2 Flower_Red Model_1_texcoords",
      "componentType": 5126,
      "count": 8,
      "min": [
        1.4253700442168338e-7,
        -7.302229881286621
      ],
      "max": [
        8.565199851989746,
        1
      ],
      "type": "VEC2",
      "bufferView": 1,
      "byteOffset": 64
    },
    {
      "name": "Mesh2 Flower_Red Model_1_0_indices",
      "componentType": 5123,
      "count": 12,
      "min": [
        0
      ],
      "max": [
        7
      ],
      "type": "SCALAR",
      "bufferView": 2,
      "byteOffset": 24
    },
    {
      "name": "Mesh3 Flower_Red Model_1_positions",
      "componentType": 5126,
      "count": 112,
      "min": [
        0.09750369936227798,
        0,
        -0.38842201232910156
      ],
      "max": [
        0.38842201232910156,
        0.4000000059604645,
        -0.09750369936227798
      ],
      "type": "VEC3",
      "bufferView": 0,
      "byteOffset": 192
    },
    {
      "name": "Mesh3 Flower_Red Model_1_normals",
      "componentType": 5126,
      "count": 112,
      "min": [
        -1,
        -1,
        -1
      ],
      "max": [
        1,
        1,
        1
      ],
      "type": "VEC3",
      "bufferView": 0,
      "byteOffset": 1920
    },
    {
      "name": "Mesh3 Flower_Red Model_1_texcoords",
      "componentType": 5126,
      "count": 112,
      "min": [
        -15.292200088500977,
        -18.986900329589844
      ],
      "max": [
        15.292200088500977,
        1
      ],
      "type": "VEC2",
      "bufferView": 1,
      "byteOffset": 128
    },
    {
      "name": "Mesh3 Flower_Red Model_1_0_indices",
      "componentType": 5123,
      "count": 162,
      "min": [
        0
      ],
      "max": [
        111
      ],
      "type": "SCALAR",
      "bufferView": 2,
      "byteOffset": 48
    },
    {
      "name": "Mesh3 Flower_Red Model_1_1_indices",
      "componentType": 5123,
      "count": 54,
      "min": [
        40
      ],
      "max": [
        103
      ],
      "type": "SCALAR",
      "bufferView": 2,
      "byteOffset": 372
    },
    {
      "name": "Mesh4 Flower_Red Model_1_positions",
      "componentType": 5126,
      "count": 8,
      "min": [
        0,
        0,
        -0.2429630011320114
      ],
      "max": [
        0.21755599975585938,
        0.21087700128555298,
        -0.2429630011320114
      ],
      "type": "VEC3",
      "bufferView": 0,
      "byteOffset": 1536
    },
    {
      "name": "Mesh4 Flower_Red Model_1_normals",
      "componentType": 5126,
      "count": 8,
      "min": [
        0,
        0,
        -1
      ],
      "max": [
        0,
        0,
        1
      ],
      "type": "VEC3",
      "bufferView": 0,
      "byteOffset": 3264
    },
    {
      "name": "Mesh4 Flower_Red Model_1_texcoords",
      "componentType": 5126,
      "count": 8,
      "min": [
        -8.565199851989746,
        -7.302229881286621
      ],
      "max": [
        0,
        1
      ],
      "type": "VEC2",
      "bufferView": 1,
      "byteOffset": 1024
    },
    {
      "name": "Mesh4 Flower_Red Model_1_0_indices",
      "componentType": 5123,
      "count": 12,
      "min": [
        0
      ],
      "max": [
        7
      ],
      "type": "SCALAR",
      "bufferView": 2,
      "byteOffset": 480
    },
    {
      "name": "Mesh5 Flower_Red Model_1_positions",
      "componentType": 5126,
      "count": 8,
      "min": [
        0.2429630011320114,
        0,
        -0.4859260022640228
      ],
      "max": [
        0.2429630011320114,
        0.21087700128555298,
        -0.26837000250816345
      ],
      "type": "VEC3",
      "bufferView": 0,
      "byteOffset": 1632
    },
    {
      "name": "Mesh5 Flower_Red Model_1_normals",
      "componentType": 5126,
      "count": 8,
      "min": [
        -1,
        -2.0131699402166933e-16,
        -1.4901200273698123e-8
      ],
      "max": [
        1,
        2.0131699402166933e-16,
        1.4901200273698123e-8
      ],
      "type": "VEC3",
      "bufferView": 0,
      "byteOffset": 3360
    },
    {
      "name": "Mesh5 Flower_Red Model_1_texcoords",
      "componentType": 5126,
      "count": 8,
      "min": [
        10.565699577331543,
        -7.302229881286621
      ],
      "max": [
        19.13089942932129,
        1
      ],
      "type": "VEC2",
      "bufferView": 1,
      "byteOffset": 1088
    },
    {
      "name": "Mesh5 Flower_Red Model_1_0_indices",
      "componentType": 5123,
      "count": 12,
      "min": [
        0
      ],
      "max": [
        7
      ],
      "type": "SCALAR",
      "bufferView": 2,
      "byteOffset": 504
    }
  ],
  "asset": {
    "generator": "obj2gltf",
    "version": "2.0"
  },
  "buffers": [
    {
      "name": "naturePack_flat_010",
      "byteLength": 5136,
      "uri": "data:application/octet-stream;base64,"
    }
  ],
  "bufferViews": [
    {
      "name": "bufferView_0",
      "buffer": 0,
      "byteLength": 3456,
      "byteOffset": 0,
      "byteStride": 12,
      "target": 34962
    },
    {
      "name": "bufferView_1",
      "buffer": 0,
      "byteLength": 1152,
      "byteOffset": 3456,
      "byteStride": 8,
      "target": 34962
    },
    {
      "name": "bufferView_2",
      "buffer": 0,
      "byteLength": 528,
      "byteOffset": 4608,
      "target": 34963
    }
  ],
  "materials": [
    {
      "name": "Green_leafs",
      "pbrMetallicRoughness": {
        "baseColorFactor": [
          0.298039,
          0.529412,
          0.427451,
          1
        ],
        "metallicFactor": 0,
        "roughnessFactor": 1
      },
      "emissiveFactor": [
        0,
        0,
        0
      ],
      "alphaMode": "OPAQUE",
      "doubleSided": false
    },
    {
      "name": "Mushroom_Red",
      "pbrMetallicRoughness": {
        "baseColorFactor": [
          0.827451,
          0.313725,
          0.254902,
          1
        ],
        "metallicFactor": 0,
        "roughnessFactor": 1
      },
      "emissiveFactor": [
        0,
        0,
        0
      ],
      "alphaMode": "OPAQUE",
      "doubleSided": false
    }
  ],
  "meshes": [
    {
      "name": "Mesh1 Flower_Red Model_1",
      "primitives": [
        {
          "attributes": {
            "POSITION": 0,
            "NORMAL": 1,
            "TEXCOORD_0": 2
          },
          "indices": 3,
          "material": 0,
          "mode": 4
        }
      ]
    },
    {
      "name": "Mesh2 Flower_Red Model_1",
      "primitives": [
        {
          "attributes": {
            "POSITION": 4,
            "NORMAL": 5,
            "TEXCOORD_0": 6
          },
          "indices": 7,
          "material": 0,
          "mode": 4
        }
      ]
    },
    {
      "name": "Mesh3 Flower_Red Model_1",
      "primitives": [
        {
          "attributes": {
            "POSITION": 8,
            "NORMAL": 9,
            "TEXCOORD_0": 10
          },
          "indices": 11,
          "material": 0,
          "mode": 4
        },
        {
          "attributes": {
            "POSITION": 8,
            "NORMAL": 9,
            "TEXCOORD_0": 10
          },
          "indices": 12,
          "material": 1,
          "mode": 4
        }
      ]
    },
    {
      "name": "Mesh4 Flower_Red Model_1",
      "primitives": [
        {
          "attributes": {
            "POSITION": 13,
            "NORMAL": 14,
            "TEXCOORD_0": 15
          },
          "indices": 16,
          "material": 0,
          "mode": 4
        }
      ]
    },
    {
      "name": "Mesh5 Flower_Red Model_1",
      "primitives": [
        {
          "attributes": {
            "POSITION": 17,
            "NORMAL": 18,
            "TEXCOORD_0": 19
          },
          "indices": 20,
          "material": 0,
          "mode": 4
        }
      ]
    }
  ],
  "nodes": [
    {
      "name": "Mesh1 Flower_Red Model",
      "mesh": 0
    },
    {
      "name": "Mesh2 Flower_Red Model",
      "mesh": 1
    },
    {
      "name": "Mesh3 Flower_Red Model",
      "mesh": 2
    },
    {
      "name": "Mesh4 Flower_Red Model",
      "mesh": 3
    },
    {
      "name": "Mesh5 Flower_Red Model",
      "mesh": 4
    }
  ],
  "scene": 0,
  "scenes": [
    {
      "nodes": [
        0,
        1,
        2,
        3,
        4
      ]
    }
  ]
}
