{
  "accessors": [
    {
      "name": "Mesh1 Tall_Rock_2 Model_1_positions",
      "componentType": 5126,
      "count": 92,
      "min": [
        0,
        0,
        -1.3600000143051147
      ],
      "max": [
        1.1777900457382202,
        2.1700000762939453,
        0
      ],
      "type": "VEC3",
      "bufferView": 0,
      "byteOffset": 0
    },
    {
      "name": "Mesh1 Tall_Rock_2 Model_1_normals",
      "componentType": 5126,
      "count": 92,
      "min": [
        -0.9969890117645264,
        -1,
        -0.9554169774055481
      ],
      "max": [
        0.9969890117645264,
        1,
        0.8647540211677551
      ],
      "type": "VEC3",
      "bufferView": 0,
      "byteOffset": 1104
    },
    {
      "name": "Mesh1 Tall_Rock_2 Model_1_texcoords",
      "componentType": 5126,
      "count": 92,
      "min": [
        -46.850399017333984,
        -85.7135009765625
      ],
      "max": [
        46.850399017333984,
        5.4946699142456055
      ],
      "type": "VEC2",
      "bufferView": 1,
      "byteOffset": 0
    },
    {
      "name": "Mesh1 Tall_Rock_2 Model_1_0_indices",
      "componentType": 5123,
      "count": 150,
      "min": [
        0
      ],
      "max": [
        91
      ],
      "type": "SCALAR",
      "bufferView": 2,
      "byteOffset": 0
    }
  ],
  "asset": {
    "generator": "obj2gltf",
    "version": "2.0"
  },
  "buffers": [
    {
      "name": "naturePack_030",
      "byteLength": 3244,
      "uri": "data:application/octet-stream;base64,"
    }
  ],
  "bufferViews": [
    {
      "name": "bufferView_0",
      "buffer": 0,
      "byteLength": 2208,
      "byteOffset": 0,
      "byteStride": 12,
      "target": 34962
    },
    {
      "name": "bufferView_1",
      "buffer": 0,
      "byteLength": 736,
      "byteOffset": 2208,
      "byteStride": 8,
      "target": 34962
    },
    {
      "name": "bufferView_2",
      "buffer": 0,
      "byteLength": 300,
      "byteOffset": 2944,
      "target": 34963
    }
  ],
  "materials": [
    {
      "name": "Stone",
      "pbrMetallicRoughness": {
        "baseColorFactor": [
          0.72549,
          0.752941,
          0.788235,
          1
        ],
        "metallicFactor": 0,
        "roughnessFactor": 1
      },
      "emissiveFactor": [
        0,
        0,
        0
      ],
      "alphaMode": "OPAQUE",
      "doubleSided": false
    }
  ],
  "meshes": [
    {
      "name": "Mesh1 Tall_Rock_2 Model_1",
      "primitives": [
        {
          "attributes": {
            "POSITION": 0,
            "NORMAL": 1,
            "TEXCOORD_0": 2
          },
          "indices": 3,
          "material": 0,
          "mode": 4
        }
      ]
    }
  ],
  "nodes": [
    {
      "name": "Mesh1 Tall_Rock_2 Model",
      "mesh": 0
    }
  ],
  "scene": 0,
  "scenes": [
    {
      "nodes": [
        0
      ]
    }
  ]
}
