{
  "accessors": [
    {
      "name": "Mesh1 Tent_Poles Model_1_positions",
      "componentType": 5126,
      "count": 188,
      "min": [
        0,
        0,
        -3
      ],
      "max": [
        3,
        2.855030059814453,
        0
      ],
      "type": "VEC3",
      "bufferView": 0,
      "byteOffset": 0
    },
    {
      "name": "Mesh1 Tent_Poles Model_1_normals",
      "componentType": 5126,
      "count": 188,
      "min": [
        -1,
        -1,
        -1
      ],
      "max": [
        1,
        1,
        1
      ],
      "type": "VEC3",
      "bufferView": 0,
      "byteOffset": 2256
    },
    {
      "name": "Mesh1 Tent_Poles Model_1_texcoords",
      "componentType": 5126,
      "count": 188,
      "min": [
        -118.11000061035156,
        -125.97200012207031
      ],
      "max": [
        118.11000061035156,
        55.93349838256836
      ],
      "type": "VEC2",
      "bufferView": 1,
      "byteOffset": 0
    },
    {
      "name": "Mesh1 Tent_Poles Model_1_0_indices",
      "componentType": 5123,
      "count": 201,
      "min": [
        0
      ],
      "max": [
        187
      ],
      "type": "SCALAR",
      "bufferView": 2,
      "byteOffset": 0
    },
    {
      "name": "Mesh1 Tent_Poles Model_1_1_indices",
      "componentType": 5123,
      "count": 153,
      "min": [
        29
      ],
      "max": [
        181
      ],
      "type": "SCALAR",
      "bufferView": 2,
      "byteOffset": 404
    },
    {
      "name": "Mesh1 Tent_Poles Model_1_2_indices",
      "componentType": 5123,
      "count": 12,
      "min": [
        148
      ],
      "max": [
        155
      ],
      "type": "SCALAR",
      "bufferView": 2,
      "byteOffset": 712
    }
  ],
  "asset": {
    "generator": "obj2gltf",
    "version": "2.0"
  },
  "buffers": [
    {
      "name": "naturePack_095",
      "byteLength": 6752,
      "uri": "data:application/octet-stream;base64,"
    }
  ],
  "bufferViews": [
    {
      "name": "bufferView_0",
      "buffer": 0,
      "byteLength": 4512,
      "byteOffset": 0,
      "byteStride": 12,
      "target": 34962
    },
    {
      "name": "bufferView_1",
      "buffer": 0,
      "byteLength": 1504,
      "byteOffset": 4512,
      "byteStride": 8,
      "target": 34962
    },
    {
      "name": "bufferView_2",
      "buffer": 0,
      "byteLength": 736,
      "byteOffset": 6016,
      "target": 34963
    }
  ],
  "materials": [
    {
      "name": "Green_Roof",
      "pbrMetallicRoughness": {
        "baseColorFactor": [
          0.309804,
          0.466667,
          0.458824,
          1
        ],
        "metallicFactor": 0,
        "roughnessFactor": 1
      },
      "emissiveFactor": [
        0,
        0,
        0
      ],
      "alphaMode": "OPAQUE",
      "doubleSided": false
    },
    {
      "name": "Wood",
      "pbrMetallicRoughness": {
        "baseColorFactor": [
          0.666667,
          0.545098,
          0.356863,
          1
        ],
        "metallicFactor": 0,
        "roughnessFactor": 1
      },
      "emissiveFactor": [
        0,
        0,
        0
      ],
      "alphaMode": "OPAQUE",
      "doubleSided": false
    },
    {
      "name": "Leafs",
      "pbrMetallicRoughness": {
        "baseColorFactor": [
          0.270588,
          0.407843,
          0.4,
          1
        ],
        "metallicFactor": 0,
        "roughnessFactor": 1
      },
      "emissiveFactor": [
        0,
        0,
        0
      ],
      "alphaMode": "OPAQUE",
      "doubleSided": false
    }
  ],
  "meshes": [
    {
      "name": "Mesh1 Tent_Poles Model_1",
      "primitives": [
        {
          "attributes": {
            "POSITION": 0,
            "NORMAL": 1,
            "TEXCOORD_0": 2
          },
          "indices": 3,
          "material": 0,
          "mode": 4
        },
        {
          "attributes": {
            "POSITION": 0,
            "NORMAL": 1,
            "TEXCOORD_0": 2
          },
          "indices": 4,
          "material": 1,
          "mode": 4
        },
        {
          "attributes": {
            "POSITION": 0,
            "NORMAL": 1,
            "TEXCOORD_0": 2
          },
          "indices": 5,
          "material": 2,
          "mode": 4
        }
      ]
    }
  ],
  "nodes": [
    {
      "name": "Mesh1 Tent_Poles Model",
      "mesh": 0
    }
  ],
  "scene": 0,
  "scenes": [
    {
      "nodes": [
        0
      ]
    }
  ]
}
