{
  "accessors": [
    {
      "name": "Mesh1 Group1 Model_1_positions",
      "componentType": 5126,
      "count": 324,
      "min": [
        0,
        -0.14000000059604645,
        -2.2188000679016113
      ],
      "max": [
        1.9215400218963623,
        8.307849884033203,
        0
      ],
      "type": "VEC3",
      "bufferView": 0,
      "byteOffset": 0
    },
    {
      "name": "Mesh1 Group1 Model_1_normals",
      "componentType": 5126,
      "count": 324,
      "min": [
        -0.9997760057449341,
        -1,
        -0.9997760057449341
      ],
      "max": [
        0.9997760057449341,
        0.9960560202598572,
        0.9997760057449341
      ],
      "type": "VEC3",
      "bufferView": 0,
      "byteOffset": 3888
    },
    {
      "name": "Mesh1 Group1 Model_1_texcoords",
      "componentType": 5126,
      "count": 324,
      "min": [
        -89.68810272216797,
        -329.3909912109375
      ],
      "max": [
        80.3198013305664,
        50.914798736572266
      ],
      "type": "VEC2",
      "bufferView": 1,
      "byteOffset": 0
    },
    {
      "name": "Mesh1 Group1 Model_1_0_indices",
      "componentType": 5123,
      "count": 405,
      "min": [
        0
      ],
      "max": [
        250
      ],
      "type": "SCALAR",
      "bufferView": 2,
      "byteOffset": 0
    },
    {
      "name": "Mesh1 Group1 Model_1_1_indices",
      "componentType": 5123,
      "count": 255,
      "min": [
        38
      ],
      "max": [
        323
      ],
      "type": "SCALAR",
      "bufferView": 2,
      "byteOffset": 812
    }
  ],
  "asset": {
    "generator": "obj2gltf",
    "version": "2.0"
  },
  "buffers": [
    {
      "name": "naturePack_160",
      "byteLength": 11692,
      "uri": "data:application/octet-stream;base64,"
    }
  ],
  "bufferViews": [
    {
      "name": "bufferView_0",
      "buffer": 0,
      "byteLength": 7776,
      "byteOffset": 0,
      "byteStride": 12,
      "target": 34962
    },
    {
      "name": "bufferView_1",
      "buffer": 0,
      "byteLength": 2592,
      "byteOffset": 7776,
      "byteStride": 8,
      "target": 34962
    },
    {
      "name": "bufferView_2",
      "buffer": 0,
      "byteLength": 1324,
      "byteOffset": 10368,
      "target": 34963
    }
  ],
  "materials": [
    {
      "name": "Leafs",
      "pbrMetallicRoughness": {
        "baseColorFactor": [
          0.270588,
          0.407843,
          0.4,
          1
        ],
        "metallicFactor": 0,
        "roughnessFactor": 1
      },
      "emissiveFactor": [
        0,
        0,
        0
      ],
      "alphaMode": "OPAQUE",
      "doubleSided": false
    },
    {
      "name": "Wood",
      "pbrMetallicRoughness": {
        "baseColorFactor": [
          0.666667,
          0.545098,
          0.356863,
          1
        ],
        "metallicFactor": 0,
        "roughnessFactor": 1
      },
      "emissiveFactor": [
        0,
        0,
        0
      ],
      "alphaMode": "OPAQUE",
      "doubleSided": false
    }
  ],
  "meshes": [
    {
      "name": "Mesh1 Group1 Model_1",
      "primitives": [
        {
          "attributes": {
            "POSITION": 0,
            "NORMAL": 1,
            "TEXCOORD_0": 2
          },
          "indices": 3,
          "material": 0,
          "mode": 4
        },
        {
          "attributes": {
            "POSITION": 0,
            "NORMAL": 1,
            "TEXCOORD_0": 2
          },
          "indices": 4,
          "material": 1,
          "mode": 4
        }
      ]
    }
  ],
  "nodes": [
    {
      "name": "Mesh1 Group1 Model",
      "mesh": 0
    }
  ],
  "scene": 0,
  "scenes": [
    {
      "nodes": [
        0
      ]
    }
  ]
}
