{
  "accessors": [
    {
      "name": "Mesh1 Brown_Waterfall Model_1_positions",
      "componentType": 5126,
      "count": 78,
      "min": [
        0,
        0,
        -0.9200000166893005
      ],
      "max": [
        3,
        2.200000047683716,
        0
      ],
      "type": "VEC3",
      "bufferView": 0,
      "byteOffset": 0
    },
    {
      "name": "Mesh1 Brown_Waterfall Model_1_normals",
      "componentType": 5126,
      "count": 78,
      "min": [
        -1,
        -1,
        -0.972711980342865
      ],
      "max": [
        1,
        1,
        1
      ],
      "type": "VEC3",
      "bufferView": 0,
      "byteOffset": 936
    },
    {
      "name": "Mesh1 Brown_Waterfall Model_1_texcoords",
      "componentType": 5126,
      "count": 78,
      "min": [
        -122.01200103759766,
        -85.61419677734375
      ],
      "max": [
        118.11000061035156,
        1
      ],
      "type": "VEC2",
      "bufferView": 1,
      "byteOffset": 0
    },
    {
      "name": "Mesh1 Brown_Waterfall Model_1_0_indices",
      "componentType": 5123,
      "count": 114,
      "min": [
        0
      ],
      "max": [
        77
      ],
      "type": "SCALAR",
      "bufferView": 2,
      "byteOffset": 0
    },
    {
      "name": "Mesh1 Brown_Waterfall Model_1_1_indices",
      "componentType": 5123,
      "count": 30,
      "min": [
        48
      ],
      "max": [
        75
      ],
      "type": "SCALAR",
      "bufferView": 2,
      "byteOffset": 228
    }
  ],
  "asset": {
    "generator": "obj2gltf",
    "version": "2.0"
  },
  "buffers": [
    {
      "name": "naturePack_126",
      "byteLength": 2784,
      "uri": "data:application/octet-stream;base64,"
    }
  ],
  "bufferViews": [
    {
      "name": "bufferView_0",
      "buffer": 0,
      "byteLength": 1872,
      "byteOffset": 0,
      "byteStride": 12,
      "target": 34962
    },
    {
      "name": "bufferView_1",
      "buffer": 0,
      "byteLength": 624,
      "byteOffset": 1872,
      "byteStride": 8,
      "target": 34962
    },
    {
      "name": "bufferView_2",
      "buffer": 0,
      "byteLength": 288,
      "byteOffset": 2496,
      "target": 34963
    }
  ],
  "materials": [
    {
      "name": "Wood",
      "pbrMetallicRoughness": {
        "baseColorFactor": [
          0.666667,
          0.545098,
          0.356863,
          1
        ],
        "metallicFactor": 0,
        "roughnessFactor": 1
      },
      "emissiveFactor": [
        0,
        0,
        0
      ],
      "alphaMode": "OPAQUE",
      "doubleSided": false
    },
    {
      "name": "Water",
      "pbrMetallicRoughness": {
        "baseColorFactor": [
          0.67451,
          0.913725,
          0.937255,
          1
        ],
        "metallicFactor": 0,
        "roughnessFactor": 1
      },
      "emissiveFactor": [
        0,
        0,
        0
      ],
      "alphaMode": "OPAQUE",
      "doubleSided": false
    }
  ],
  "meshes": [
    {
      "name": "Mesh1 Brown_Waterfall Model_1",
      "primitives": [
        {
          "attributes": {
            "POSITION": 0,
            "NORMAL": 1,
            "TEXCOORD_0": 2
          },
          "indices": 3,
          "material": 0,
          "mode": 4
        },
        {
          "attributes": {
            "POSITION": 0,
            "NORMAL": 1,
            "TEXCOORD_0": 2
          },
          "indices": 4,
          "material": 1,
          "mode": 4
        }
      ]
    }
  ],
  "nodes": [
    {
      "name": "Mesh1 Brown_Waterfall Model",
      "mesh": 0
    }
  ],
  "scene": 0,
  "scenes": [
    {
      "nodes": [
        0
      ]
    }
  ]
}
