{
  "accessors": [
    {
      "name": "Mesh1 Grey_Waterfall_Top Model_1_positions",
      "componentType": 5126,
      "count": 121,
      "min": [
        -0.41999998688697815,
        -7.219109872913488e-16,
        -3
      ],
      "max": [
        0.5,
        0.28999999165534973,
        5.7752900159131586e-15
      ],
      "type": "VEC3",
      "bufferView": 0,
      "byteOffset": 0
    },
    {
      "name": "Mesh1 Grey_Waterfall_Top Model_1_normals",
      "componentType": 5126,
      "count": 121,
      "min": [
        -0.9535830020904541,
        -1,
        -1
      ],
      "max": [
        1,
        1,
        1
      ],
      "type": "VEC3",
      "bufferView": 0,
      "byteOffset": 1452
    },
    {
      "name": "Mesh1 Grey_Waterfall_Top Model_1_texcoords",
      "componentType": 5126,
      "count": 121,
      "min": [
        -118.7239990234375,
        -117.11000061035156
      ],
      "max": [
        118.11000061035156,
        8.0902099609375
      ],
      "type": "VEC2",
      "bufferView": 1,
      "byteOffset": 0
    },
    {
      "name": "Mesh1 Grey_Waterfall_Top Model_1_0_indices",
      "componentType": 5123,
      "count": 159,
      "min": [
        0
      ],
      "max": [
        111
      ],
      "type": "SCALAR",
      "bufferView": 2,
      "byteOffset": 0
    },
    {
      "name": "Mesh1 Grey_Waterfall_Top Model_1_1_indices",
      "componentType": 5123,
      "count": 21,
      "min": [
        24
      ],
      "max": [
        112
      ],
      "type": "SCALAR",
      "bufferView": 2,
      "byteOffset": 320
    },
    {
      "name": "Mesh1 Grey_Waterfall_Top Model_1_2_indices",
      "componentType": 5123,
      "count": 51,
      "min": [
        51
      ],
      "max": [
        120
      ],
      "type": "SCALAR",
      "bufferView": 2,
      "byteOffset": 364
    }
  ],
  "asset": {
    "generator": "obj2gltf",
    "version": "2.0"
  },
  "buffers": [
    {
      "name": "naturePack_141",
      "byteLength": 4340,
      "uri": "data:application/octet-stream;base64,"
    }
  ],
  "bufferViews": [
    {
      "name": "bufferView_0",
      "buffer": 0,
      "byteLength": 2904,
      "byteOffset": 0,
      "byteStride": 12,
      "target": 34962
    },
    {
      "name": "bufferView_1",
      "buffer": 0,
      "byteLength": 968,
      "byteOffset": 2904,
      "byteStride": 8,
      "target": 34962
    },
    {
      "name": "bufferView_2",
      "buffer": 0,
      "byteLength": 468,
      "byteOffset": 3872,
      "target": 34963
    }
  ],
  "materials": [
    {
      "name": "Stone",
      "pbrMetallicRoughness": {
        "baseColorFactor": [
          0.72549,
          0.752941,
          0.788235,
          1
        ],
        "metallicFactor": 0,
        "roughnessFactor": 1
      },
      "emissiveFactor": [
        0,
        0,
        0
      ],
      "alphaMode": "OPAQUE",
      "doubleSided": false
    },
    {
      "name": "Leafs",
      "pbrMetallicRoughness": {
        "baseColorFactor": [
          0.270588,
          0.407843,
          0.4,
          1
        ],
        "metallicFactor": 0,
        "roughnessFactor": 1
      },
      "emissiveFactor": [
        0,
        0,
        0
      ],
      "alphaMode": "OPAQUE",
      "doubleSided": false
    },
    {
      "name": "Water",
      "pbrMetallicRoughness": {
        "baseColorFactor": [
          0.67451,
          0.913725,
          0.937255,
          1
        ],
        "metallicFactor": 0,
        "roughnessFactor": 1
      },
      "emissiveFactor": [
        0,
        0,
        0
      ],
      "alphaMode": "OPAQUE",
      "doubleSided": false
    }
  ],
  "meshes": [
    {
      "name": "Mesh1 Grey_Waterfall_Top Model_1",
      "primitives": [
        {
          "attributes": {
            "POSITION": 0,
            "NORMAL": 1,
            "TEXCOORD_0": 2
          },
          "indices": 3,
          "material": 0,
          "mode": 4
        },
        {
          "attributes": {
            "POSITION": 0,
            "NORMAL": 1,
            "TEXCOORD_0": 2
          },
          "indices": 4,
          "material": 1,
          "mode": 4
        },
        {
          "attributes": {
            "POSITION": 0,
            "NORMAL": 1,
            "TEXCOORD_0": 2
          },
          "indices": 5,
          "material": 2,
          "mode": 4
        }
      ]
    }
  ],
  "nodes": [
    {
      "name": "Mesh1 Grey_Waterfall_Top Model",
      "mesh": 0
    }
  ],
  "scene": 0,
  "scenes": [
    {
      "nodes": [
        0
      ]
    }
  ]
}
